<?xml version="1.0" encoding="UTF-8" standalone="no"?>
<!DOCTYPE svg PUBLIC "-//W3C//DTD SVG 1.1//EN"
 "http://www.w3.org/Graphics/SVG/1.1/DTD/svg11.dtd">
<!-- Generated by graphviz version 13.1.2 (20250808.2320)
 -->
<!-- Pages: 1 -->
<svg width="365pt" height="190pt"
 viewBox="0.00 0.00 365.00 190.00" xmlns="http://www.w3.org/2000/svg" xmlns:xlink="http://www.w3.org/1999/xlink">
<g id="graph0" class="graph" transform="scale(1 1) rotate(0) translate(4 186)">
<polygon fill="white" stroke="none" points="-4,4 -4,-186 361.4,-186 361.4,4 -4,4"/>
<!-- # ba&#45;&gt;balasts___ba -->
<g id="edge1" class="edge">
<title># ba&#45;&gt;balasts___ba</title>
<path fill="none" stroke="#cccccc" d="M76.61,-137.9C95.39,-143.4 117.88,-149.98 135.57,-155.16"/>
</g>
<!-- # ba&#45;&gt;balastviela___ba -->
<g id="edge2" class="edge">
<title># ba&#45;&gt;balastviela___ba</title>
<path fill="none" stroke="#cccccc" d="M76.59,-121.88C124.84,-115.42 207.82,-104.3 259.95,-97.31"/>
</g>
<!-- balasts___ba&#45;&gt;balastviela___ba -->
<g id="edge3" class="edge">
<title>balasts___ba&#45;&gt;balastviela___ba</title>
<path fill="none" stroke="blue" d="M191.84,-151.28C212.97,-140.13 244.05,-123.73 268.45,-110.85"/>
<polygon fill="blue" stroke="blue" points="269.9,-114.04 277.12,-106.28 266.64,-107.85 269.9,-114.04"/>
</g>
<!-- viela&#45;&gt;balastviela___ba -->
<g id="edge4" class="edge">
<title>viela&#45;&gt;balastviela___ba</title>
<path fill="none" stroke="blue" d="M189.06,-29.25C210.11,-40.35 242.75,-57.58 268.22,-71.02"/>
<polygon fill="blue" stroke="blue" points="266.47,-74.06 276.95,-75.63 269.74,-67.87 266.47,-74.06"/>
</g>
<!-- # ba -->
<g id="node1" class="node">
<title># ba</title>
<polygon fill="lightblue" stroke="black" stroke-width="0" points="76.75,-147.5 0,-147.5 0,-106.5 76.75,-106.5 76.75,-147.5"/>
<text xml:space="preserve" text-anchor="middle" x="38.38" y="-130.2" font-family="Times New Roman,serif" font-size="14.00">ba</text>
<text xml:space="preserve" text-anchor="middle" x="38.38" y="-113.7" font-family="Times New Roman,serif" font-size="14.00">(borrowed)</text>
</g>
<!-- balasts___ba -->
<g id="node2" class="node">
<title>balasts___ba</title>
<ellipse fill="white" stroke="black" stroke-width="0" cx="166.75" cy="-164" rx="36" ry="18"/>
<text xml:space="preserve" text-anchor="middle" x="166.75" y="-158.95" font-family="Times New Roman,serif" font-size="14.00">balasts</text>
</g>
<!-- balastviela___ba -->
<g id="node3" class="node">
<title>balastviela___ba</title>
<ellipse fill="white" stroke="black" stroke-width="0" cx="307.07" cy="-91" rx="50.33" ry="18"/>
<text xml:space="preserve" text-anchor="middle" x="307.07" y="-85.95" font-family="Times New Roman,serif" font-size="14.00">balastviela</text>
</g>
<!-- viela -->
<g id="node4" class="node">
<title>viela</title>
<ellipse fill="white" stroke="black" stroke-width="0" cx="166.75" cy="-18" rx="28.83" ry="18"/>
<text xml:space="preserve" text-anchor="middle" x="166.75" y="-12.95" font-family="Times New Roman,serif" font-size="14.00" fill="gray">viela</text>
</g>
</g>
</svg>
