<?xml version="1.0" encoding="UTF-8" standalone="no"?>
<!DOCTYPE svg PUBLIC "-//W3C//DTD SVG 1.1//EN"
 "http://www.w3.org/Graphics/SVG/1.1/DTD/svg11.dtd">
<!-- Generated by graphviz version 13.1.2 (20250808.2320)
 -->
<!-- Pages: 1 -->
<svg width="408pt" height="410pt"
 viewBox="0.00 0.00 408.00 410.00" xmlns="http://www.w3.org/2000/svg" xmlns:xlink="http://www.w3.org/1999/xlink">
<g id="graph0" class="graph" transform="scale(1 1) rotate(0) translate(4 406)">
<polygon fill="white" stroke="none" points="-4,4 -4,-406 403.73,-406 403.73,4 -4,4"/>
<!-- # bāl&#45;&gt;Bāliņa___bāl -->
<g id="edge1" class="edge">
<title># bāl&#45;&gt;Bāliņa___bāl</title>
<path fill="none" stroke="#cccccc" d="M61.87,-158.46C117.4,-144.95 244.48,-114.04 303.67,-99.64"/>
</g>
<!-- # bāl&#45;&gt;bāliņš___bāl -->
<g id="edge2" class="edge">
<title># bāl&#45;&gt;bāliņš___bāl</title>
<path fill="none" stroke="#cccccc" d="M61.97,-179.25C86.66,-192.78 123.37,-212.89 146.79,-225.73"/>
</g>
<!-- # bāl&#45;&gt;Bāliņš___bāl -->
<g id="edge3" class="edge">
<title># bāl&#45;&gt;Bāliņš___bāl</title>
<path fill="none" stroke="#cccccc" d="M61.87,-168.23C116.83,-174.82 241.86,-189.82 301.81,-197.01"/>
</g>
<!-- # bāl&#45;&gt;bāleliņš___bāl -->
<g id="edge4" class="edge">
<title># bāl&#45;&gt;bāleliņš___bāl</title>
<path fill="none" stroke="#cccccc" d="M52.04,-147.27C78.06,-118.56 129.04,-62.3 154.28,-34.44"/>
</g>
<!-- # bāl&#45;&gt;uzbrucējbāliņš___bāl -->
<g id="edge5" class="edge">
<title># bāl&#45;&gt;uzbrucējbāliņš___bāl</title>
<path fill="none" stroke="#cccccc" d="M61.87,-178.09C117.26,-205.03 243.83,-266.61 303.21,-295.5"/>
</g>
<!-- bāliņš___bāl&#45;&gt;Bāliņa___bāl -->
<g id="edge6" class="edge">
<title>bāliņš___bāl&#45;&gt;Bāliņa___bāl</title>
<path fill="none" stroke="purple" d="M188,-222.93C216.65,-197.24 275.09,-144.87 308.72,-114.72"/>
<polygon fill="purple" stroke="purple" points="310.86,-117.5 315.97,-108.22 306.19,-112.29 310.86,-117.5"/>
</g>
<!-- bāliņš___bāl&#45;&gt;Bāliņš___bāl -->
<g id="edge8" class="edge">
<title>bāliņš___bāl&#45;&gt;Bāliņš___bāl</title>
<path fill="none" stroke="purple" d="M200.68,-231.3C226.34,-225.47 263.8,-216.96 292.49,-210.44"/>
<polygon fill="purple" stroke="purple" points="292.96,-213.93 301.93,-208.3 291.41,-207.1 292.96,-213.93"/>
</g>
<!-- bāliņš___bāl&#45;&gt;uzbrucējbāliņš___bāl -->
<g id="edge11" class="edge">
<title>bāliņš___bāl&#45;&gt;uzbrucējbāliņš___bāl</title>
<path fill="none" stroke="blue" d="M195.92,-249.09C220.84,-260.25 259.82,-277.72 290.03,-291.26"/>
<polygon fill="blue" stroke="blue" points="288.37,-294.35 298.93,-295.25 291.23,-287.97 288.37,-294.35"/>
</g>
<!-- bāls&#45;&gt;bāliņš___bāl -->
<g id="edge7" class="edge">
<title>bāls&#45;&gt;bāliņš___bāl</title>
<path fill="none" stroke="green" d="M61.97,-238C80.24,-238 105.11,-238 126.29,-238"/>
<polygon fill="green" stroke="green" points="126.1,-241.5 136.1,-238 126.1,-234.5 126.1,-241.5"/>
</g>
<!-- bālelis&#45;&gt;bāleliņš___bāl -->
<g id="edge9" class="edge">
<title>bālelis&#45;&gt;bāleliņš___bāl</title>
<path fill="none" stroke="green" d="M69.93,-18C85.09,-18 103.24,-18 119.85,-18"/>
<polygon fill="green" stroke="green" points="119.54,-21.5 129.54,-18 119.54,-14.5 119.54,-21.5"/>
</g>
<!-- uzbrucējs&#45;&gt;uzbrucējbāliņš___bāl -->
<g id="edge10" class="edge">
<title>uzbrucējs&#45;&gt;uzbrucējbāliņš___bāl</title>
<path fill="none" stroke="blue" d="M201.06,-370.61C225.98,-359.44 261.84,-343.37 290.05,-330.73"/>
<polygon fill="blue" stroke="blue" points="291.38,-333.97 299.07,-326.69 288.51,-327.58 291.38,-333.97"/>
</g>
<!-- # bāl -->
<g id="node1" class="node">
<title># bāl</title>
<polygon fill="lightblue" stroke="black" stroke-width="0" points="61.97,-183 7.97,-183 7.97,-147 61.97,-147 61.97,-183"/>
<text xml:space="preserve" text-anchor="middle" x="34.97" y="-159.95" font-family="Times New Roman,serif" font-size="14.00">bāl</text>
</g>
<!-- Bāliņa___bāl -->
<g id="node2" class="node">
<title>Bāliņa___bāl</title>
<ellipse fill="white" stroke="black" stroke-width="0" cx="335.07" cy="-92" rx="34.97" ry="18"/>
<text xml:space="preserve" text-anchor="middle" x="335.07" y="-86.95" font-family="Times New Roman,serif" font-size="14.00">Bāliņa</text>
</g>
<!-- bāliņš___bāl -->
<g id="node3" class="node">
<title>bāliņš___bāl</title>
<ellipse fill="white" stroke="black" stroke-width="0" cx="170.18" cy="-238" rx="32.93" ry="18"/>
<text xml:space="preserve" text-anchor="middle" x="170.18" y="-232.95" font-family="Times New Roman,serif" font-size="14.00">bāliņš</text>
</g>
<!-- Bāliņš___bāl -->
<g id="node4" class="node">
<title>Bāliņš___bāl</title>
<ellipse fill="white" stroke="black" stroke-width="0" cx="335.07" cy="-201" rx="34.46" ry="18"/>
<text xml:space="preserve" text-anchor="middle" x="335.07" y="-195.95" font-family="Times New Roman,serif" font-size="14.00">Bāliņš</text>
</g>
<!-- bāleliņš___bāl -->
<g id="node5" class="node">
<title>bāleliņš___bāl</title>
<ellipse fill="white" stroke="black" stroke-width="0" cx="170.18" cy="-18" rx="39.58" ry="18"/>
<text xml:space="preserve" text-anchor="middle" x="170.18" y="-12.95" font-family="Times New Roman,serif" font-size="14.00">bāleliņš</text>
</g>
<!-- uzbrucējbāliņš___bāl -->
<g id="node6" class="node">
<title>uzbrucējbāliņš___bāl</title>
<ellipse fill="white" stroke="black" stroke-width="0" cx="335.07" cy="-311" rx="64.66" ry="18"/>
<text xml:space="preserve" text-anchor="middle" x="335.07" y="-305.95" font-family="Times New Roman,serif" font-size="14.00">uzbrucējbāliņš</text>
</g>
<!-- bāls -->
<g id="node7" class="node">
<title>bāls</title>
<ellipse fill="white" stroke="black" stroke-width="0" cx="34.97" cy="-238" rx="27" ry="18"/>
<text xml:space="preserve" text-anchor="middle" x="34.97" y="-232.95" font-family="Times New Roman,serif" font-size="14.00" fill="gray">bāls</text>
</g>
<!-- bālelis -->
<g id="node8" class="node">
<title>bālelis</title>
<ellipse fill="white" stroke="black" stroke-width="0" cx="34.97" cy="-18" rx="34.97" ry="18"/>
<text xml:space="preserve" text-anchor="middle" x="34.97" y="-12.95" font-family="Times New Roman,serif" font-size="14.00" fill="gray">bālelis</text>
</g>
<!-- uzbrucējs -->
<g id="node9" class="node">
<title>uzbrucējs</title>
<ellipse fill="white" stroke="black" stroke-width="0" cx="170.18" cy="-384" rx="46.23" ry="18"/>
<text xml:space="preserve" text-anchor="middle" x="170.18" y="-378.95" font-family="Times New Roman,serif" font-size="14.00" fill="gray">uzbrucējs</text>
</g>
</g>
</svg>
