<?xml version="1.0" encoding="UTF-8" standalone="no"?>
<!DOCTYPE svg PUBLIC "-//W3C//DTD SVG 1.1//EN"
 "http://www.w3.org/Graphics/SVG/1.1/DTD/svg11.dtd">
<!-- Generated by graphviz version 13.1.2 (20250808.2320)
 -->
<!-- Pages: 1 -->
<svg width="408pt" height="406pt"
 viewBox="0.00 0.00 408.00 406.00" xmlns="http://www.w3.org/2000/svg" xmlns:xlink="http://www.w3.org/1999/xlink">
<g id="graph0" class="graph" transform="scale(1 1) rotate(0) translate(4 402)">
<polygon fill="white" stroke="none" points="-4,4 -4,-402 403.73,-402 403.73,4 -4,4"/>
<!-- # bāl&#45;&gt;Bāliņa___bāl -->
<g id="edge1" class="edge">
<title># bāl&#45;&gt;Bāliņa___bāl</title>
<path fill="none" stroke="#cccccc" d="M52.57,-253.95C78.8,-282.29 129.39,-336.99 154.42,-364.04"/>
</g>
<!-- # bāl&#45;&gt;bāliņš___bāl -->
<g id="edge2" class="edge">
<title># bāl&#45;&gt;bāliņš___bāl</title>
<path fill="none" stroke="#cccccc" d="M61.97,-250.05C86.5,-263.31 122.92,-283 146.35,-295.66"/>
</g>
<!-- # bāl&#45;&gt;Bāliņš___bāl -->
<g id="edge3" class="edge">
<title># bāl&#45;&gt;Bāliņš___bāl</title>
<path fill="none" stroke="#cccccc" d="M61.97,-236C83.17,-236 113.25,-236 136.15,-236"/>
</g>
<!-- # bāl&#45;&gt;bāleliņš___bāl -->
<g id="edge4" class="edge">
<title># bāl&#45;&gt;bāleliņš___bāl</title>
<path fill="none" stroke="#cccccc" d="M46.87,-218.16C72.04,-176.98 133.92,-75.71 158.69,-35.18"/>
</g>
<!-- # bāl&#45;&gt;uzbrucējbāliņš___bāl -->
<g id="edge5" class="edge">
<title># bāl&#45;&gt;uzbrucējbāliņš___bāl</title>
<path fill="none" stroke="#cccccc" d="M61.87,-229.55C112.44,-217.41 222.34,-191.05 286.27,-175.71"/>
</g>
<!-- bāliņš___bāl&#45;&gt;uzbrucējbāliņš___bāl -->
<g id="edge11" class="edge">
<title>bāliņš___bāl&#45;&gt;uzbrucējbāliņš___bāl</title>
<path fill="none" stroke="blue" d="M188,-293.13C215.98,-268.4 272.37,-218.55 306.31,-188.54"/>
<polygon fill="blue" stroke="blue" points="308.53,-191.25 313.71,-182 303.9,-186 308.53,-191.25"/>
</g>
<!-- bāls&#45;&gt;Bāliņa___bāl -->
<g id="edge6" class="edge">
<title>bāls&#45;&gt;Bāliņa___bāl</title>
<path fill="none" stroke="green" d="M56.2,-318.94C77.31,-330.35 110.76,-348.42 135.79,-361.95"/>
<polygon fill="green" stroke="green" points="133.81,-364.86 144.28,-366.54 137.14,-358.7 133.81,-364.86"/>
</g>
<!-- bāls&#45;&gt;bāliņš___bāl -->
<g id="edge7" class="edge">
<title>bāls&#45;&gt;bāliņš___bāl</title>
<path fill="none" stroke="green" d="M61.97,-308C80.24,-308 105.11,-308 126.29,-308"/>
<polygon fill="green" stroke="green" points="126.1,-311.5 136.1,-308 126.1,-304.5 126.1,-311.5"/>
</g>
<!-- bāls&#45;&gt;Bāliņš___bāl -->
<g id="edge8" class="edge">
<title>bāls&#45;&gt;Bāliņš___bāl</title>
<path fill="none" stroke="green" d="M56.2,-297.06C77.44,-285.59 111.17,-267.36 136.25,-253.8"/>
<polygon fill="green" stroke="green" points="137.6,-257.05 144.74,-249.21 134.27,-250.89 137.6,-257.05"/>
</g>
<!-- bālelis&#45;&gt;bāleliņš___bāl -->
<g id="edge9" class="edge">
<title>bālelis&#45;&gt;bāleliņš___bāl</title>
<path fill="none" stroke="green" d="M69.93,-18C85.09,-18 103.24,-18 119.85,-18"/>
<polygon fill="green" stroke="green" points="119.54,-21.5 129.54,-18 119.54,-14.5 119.54,-21.5"/>
</g>
<!-- uzbrucējs&#45;&gt;uzbrucējbāliņš___bāl -->
<g id="edge10" class="edge">
<title>uzbrucējs&#45;&gt;uzbrucējbāliņš___bāl</title>
<path fill="none" stroke="blue" d="M216.12,-164C229.55,-164 244.66,-164 259.46,-164"/>
<polygon fill="blue" stroke="blue" points="259.17,-167.5 269.17,-164 259.17,-160.5 259.17,-167.5"/>
</g>
<!-- # bāl -->
<g id="node1" class="node">
<title># bāl</title>
<polygon fill="lightblue" stroke="black" stroke-width="0" points="61.97,-254 7.97,-254 7.97,-218 61.97,-218 61.97,-254"/>
<text xml:space="preserve" text-anchor="middle" x="34.97" y="-230.95" font-family="Times New Roman,serif" font-size="14.00">bāl</text>
</g>
<!-- Bāliņa___bāl -->
<g id="node2" class="node">
<title>Bāliņa___bāl</title>
<ellipse fill="white" stroke="black" stroke-width="0" cx="170.18" cy="-380" rx="34.97" ry="18"/>
<text xml:space="preserve" text-anchor="middle" x="170.18" y="-374.95" font-family="Times New Roman,serif" font-size="14.00">Bāliņa</text>
</g>
<!-- bāliņš___bāl -->
<g id="node3" class="node">
<title>bāliņš___bāl</title>
<ellipse fill="white" stroke="black" stroke-width="0" cx="170.18" cy="-308" rx="32.93" ry="18"/>
<text xml:space="preserve" text-anchor="middle" x="170.18" y="-302.95" font-family="Times New Roman,serif" font-size="14.00">bāliņš</text>
</g>
<!-- Bāliņš___bāl -->
<g id="node4" class="node">
<title>Bāliņš___bāl</title>
<ellipse fill="white" stroke="black" stroke-width="0" cx="170.18" cy="-236" rx="34.46" ry="18"/>
<text xml:space="preserve" text-anchor="middle" x="170.18" y="-230.95" font-family="Times New Roman,serif" font-size="14.00">Bāliņš</text>
</g>
<!-- bāleliņš___bāl -->
<g id="node5" class="node">
<title>bāleliņš___bāl</title>
<ellipse fill="white" stroke="black" stroke-width="0" cx="170.18" cy="-18" rx="39.58" ry="18"/>
<text xml:space="preserve" text-anchor="middle" x="170.18" y="-12.95" font-family="Times New Roman,serif" font-size="14.00">bāleliņš</text>
</g>
<!-- uzbrucējbāliņš___bāl -->
<g id="node6" class="node">
<title>uzbrucējbāliņš___bāl</title>
<ellipse fill="white" stroke="black" stroke-width="0" cx="335.07" cy="-164" rx="64.66" ry="18"/>
<text xml:space="preserve" text-anchor="middle" x="335.07" y="-158.95" font-family="Times New Roman,serif" font-size="14.00">uzbrucējbāliņš</text>
</g>
<!-- bāls -->
<g id="node7" class="node">
<title>bāls</title>
<ellipse fill="white" stroke="black" stroke-width="0" cx="34.97" cy="-308" rx="27" ry="18"/>
<text xml:space="preserve" text-anchor="middle" x="34.97" y="-302.95" font-family="Times New Roman,serif" font-size="14.00" fill="gray">bāls</text>
</g>
<!-- bālelis -->
<g id="node8" class="node">
<title>bālelis</title>
<ellipse fill="white" stroke="black" stroke-width="0" cx="34.97" cy="-18" rx="34.97" ry="18"/>
<text xml:space="preserve" text-anchor="middle" x="34.97" y="-12.95" font-family="Times New Roman,serif" font-size="14.00" fill="gray">bālelis</text>
</g>
<!-- uzbrucējs -->
<g id="node9" class="node">
<title>uzbrucējs</title>
<ellipse fill="white" stroke="black" stroke-width="0" cx="170.18" cy="-164" rx="46.23" ry="18"/>
<text xml:space="preserve" text-anchor="middle" x="170.18" y="-158.95" font-family="Times New Roman,serif" font-size="14.00" fill="gray">uzbrucējs</text>
</g>
</g>
</svg>
