<?xml version="1.0" encoding="UTF-8" standalone="no"?>
<!DOCTYPE svg PUBLIC "-//W3C//DTD SVG 1.1//EN"
 "http://www.w3.org/Graphics/SVG/1.1/DTD/svg11.dtd">
<!-- Generated by graphviz version 13.1.2 (20250808.2320)
 -->
<!-- Pages: 1 -->
<svg width="399pt" height="372pt"
 viewBox="0.00 0.00 399.00 372.00" xmlns="http://www.w3.org/2000/svg" xmlns:xlink="http://www.w3.org/1999/xlink">
<g id="graph0" class="graph" transform="scale(1 1) rotate(0) translate(4 368)">
<polygon fill="white" stroke="none" points="-4,4 -4,-368 395.18,-368 395.18,4 -4,4"/>
<!-- # bab, bābel&#45;&gt;Babilona___bab__bābel -->
<g id="edge1" class="edge">
<title># bab, bābel&#45;&gt;Babilona___bab__bābel</title>
<path fill="none" stroke="#cccccc" d="M54.86,-183.28C82.63,-219.67 140.41,-295.38 166.18,-329.13"/>
</g>
<!-- # bab, bābel&#45;&gt;babilonietis___bab__bābel -->
<g id="edge2" class="edge">
<title># bab, bābel&#45;&gt;babilonietis___bab__bābel</title>
<path fill="none" stroke="#cccccc" d="M76.53,-181.64C136.65,-211.01 252.2,-267.45 307,-294.22"/>
</g>
<!-- # bab, bābel&#45;&gt;Babilonija___bab__bābel -->
<g id="edge3" class="edge">
<title># bab, bābel&#45;&gt;Babilonija___bab__bābel</title>
<path fill="none" stroke="#cccccc" d="M76.44,-172.82C96,-178 119.99,-184.36 139.86,-189.62"/>
</g>
<!-- # bab, bābel&#45;&gt;Bābele___bab__bābel -->
<g id="edge4" class="edge">
<title># bab, bābel&#45;&gt;Bābele___bab__bābel</title>
<path fill="none" stroke="#cccccc" d="M65.32,-142.75C92.78,-121.33 135.45,-88.03 159.97,-68.89"/>
</g>
<!-- # bab, bābel&#45;&gt;Bābelīte___bab__bābel -->
<g id="edge5" class="edge">
<title># bab, bābel&#45;&gt;Bābelīte___bab__bābel</title>
<path fill="none" stroke="#cccccc" d="M76.53,-158.4C133.35,-151.56 239.67,-138.76 297.44,-131.8"/>
</g>
<!-- # bab, bābel&#45;&gt;Bābelītis___bab__bābel -->
<g id="edge6" class="edge">
<title># bab, bābel&#45;&gt;Bābelītis___bab__bābel</title>
<path fill="none" stroke="#cccccc" d="M76.53,-144.49C137.44,-114.94 255.24,-57.8 309.12,-31.65"/>
</g>
<!-- Babilona___bab__bābel&#45;&gt;babilonietis___bab__bābel -->
<g id="edge7" class="edge">
<title>Babilona___bab__bābel&#45;&gt;babilonietis___bab__bābel</title>
<path fill="none" stroke="green" d="M218.23,-337.14C237.31,-332.59 260.92,-326.96 281.99,-321.94"/>
<polygon fill="green" stroke="green" points="282.68,-325.37 291.6,-319.65 281.06,-318.56 282.68,-325.37"/>
</g>
<!-- Bābele___bab__bābel&#45;&gt;Bābelīte___bab__bābel -->
<g id="edge8" class="edge">
<title>Bābele___bab__bābel&#45;&gt;Bābelīte___bab__bābel</title>
<path fill="none" stroke="green" d="M206.68,-66.05C231.65,-77.8 269.9,-95.79 298.38,-109.18"/>
<polygon fill="green" stroke="green" points="296.86,-112.33 307.4,-113.42 299.84,-106 296.86,-112.33"/>
</g>
<!-- Bābele___bab__bābel&#45;&gt;Bābelītis___bab__bābel -->
<g id="edge9" class="edge">
<title>Bābele___bab__bābel&#45;&gt;Bābelītis___bab__bābel</title>
<path fill="none" stroke="green" d="M213.21,-46.54C234.83,-41.53 263.71,-34.83 288.06,-29.18"/>
<polygon fill="green" stroke="green" points="288.82,-32.6 297.77,-26.93 287.24,-25.78 288.82,-32.6"/>
</g>
<!-- # bab, bābel -->
<g id="node1" class="node">
<title># bab, bābel</title>
<polygon fill="lightblue" stroke="black" stroke-width="0" points="76.75,-183.5 0,-183.5 0,-142.5 76.75,-142.5 76.75,-183.5"/>
<text xml:space="preserve" text-anchor="middle" x="38.38" y="-166.2" font-family="Times New Roman,serif" font-size="14.00">bab, bābel</text>
<text xml:space="preserve" text-anchor="middle" x="38.38" y="-149.7" font-family="Times New Roman,serif" font-size="14.00">(borrowed)</text>
</g>
<!-- Babilona___bab__bābel -->
<g id="node2" class="node">
<title>Babilona___bab__bābel</title>
<ellipse fill="white" stroke="black" stroke-width="0" cx="180.05" cy="-346" rx="44.19" ry="18"/>
<text xml:space="preserve" text-anchor="middle" x="180.05" y="-340.95" font-family="Times New Roman,serif" font-size="14.00">Babilona</text>
</g>
<!-- babilonietis___bab__bābel -->
<g id="node3" class="node">
<title>babilonietis___bab__bābel</title>
<ellipse fill="white" stroke="black" stroke-width="0" cx="337.27" cy="-309" rx="53.91" ry="18"/>
<text xml:space="preserve" text-anchor="middle" x="337.27" y="-303.95" font-family="Times New Roman,serif" font-size="14.00">babilonietis</text>
</g>
<!-- Babilonija___bab__bābel -->
<g id="node4" class="node">
<title>Babilonija___bab__bābel</title>
<ellipse fill="white" stroke="black" stroke-width="0" cx="180.05" cy="-200" rx="49.3" ry="18"/>
<text xml:space="preserve" text-anchor="middle" x="180.05" y="-194.95" font-family="Times New Roman,serif" font-size="14.00">Babilonija</text>
</g>
<!-- Bābele___bab__bābel -->
<g id="node5" class="node">
<title>Bābele___bab__bābel</title>
<ellipse fill="white" stroke="black" stroke-width="0" cx="180.05" cy="-54" rx="36.51" ry="18"/>
<text xml:space="preserve" text-anchor="middle" x="180.05" y="-48.95" font-family="Times New Roman,serif" font-size="14.00">Bābele</text>
</g>
<!-- Bābelīte___bab__bābel -->
<g id="node6" class="node">
<title>Bābelīte___bab__bābel</title>
<ellipse fill="white" stroke="black" stroke-width="0" cx="337.27" cy="-127" rx="41.63" ry="18"/>
<text xml:space="preserve" text-anchor="middle" x="337.27" y="-121.95" font-family="Times New Roman,serif" font-size="14.00">Bābelīte</text>
</g>
<!-- Bābelītis___bab__bābel -->
<g id="node7" class="node">
<title>Bābelītis___bab__bābel</title>
<ellipse fill="white" stroke="black" stroke-width="0" cx="337.27" cy="-18" rx="43.67" ry="18"/>
<text xml:space="preserve" text-anchor="middle" x="337.27" y="-12.95" font-family="Times New Roman,serif" font-size="14.00">Bābelītis</text>
</g>
</g>
</svg>
