<?xml version="1.0" encoding="UTF-8" standalone="no"?>
<!DOCTYPE svg PUBLIC "-//W3C//DTD SVG 1.1//EN"
 "http://www.w3.org/Graphics/SVG/1.1/DTD/svg11.dtd">
<!-- Generated by graphviz version 13.1.2 (20250808.2320)
 -->
<!-- Pages: 1 -->
<svg width="346pt" height="189pt"
 viewBox="0.00 0.00 346.00 189.00" xmlns="http://www.w3.org/2000/svg" xmlns:xlink="http://www.w3.org/1999/xlink">
<g id="graph0" class="graph" transform="scale(1 1) rotate(0) translate(4 185)">
<polygon fill="white" stroke="none" points="-4,4 -4,-185 341.95,-185 341.95,4 -4,4"/>
<!-- # babul&#45;&gt;babulis -->
<g id="edge1" class="edge">
<title># babul&#45;&gt;babulis</title>
<path fill="none" stroke="#cccccc" d="M76.72,-100.8C95.59,-106.26 118.23,-112.81 136.16,-118"/>
</g>
<!-- # babul&#45;&gt;Babulis -->
<g id="edge2" class="edge">
<title># babul&#45;&gt;Babulis</title>
<path fill="none" stroke="#cccccc" d="M76.53,-100.69C127.55,-114.99 217.16,-140.1 265.58,-153.67"/>
</g>
<!-- # babul&#45;&gt;Babule -->
<g id="edge4" class="edge">
<title># babul&#45;&gt;Babule</title>
<path fill="none" stroke="#cccccc" d="M76.53,-90.15C126.28,-90.34 212.72,-90.67 261.89,-90.86"/>
</g>
<!-- # babul&#45;&gt;babulēt -->
<g id="edge6" class="edge">
<title># babul&#45;&gt;babulēt</title>
<path fill="none" stroke="#cccccc" d="M76.53,-79.45C127.84,-65.27 218.16,-40.31 266.39,-26.98"/>
</g>
<!-- babulis&#45;&gt;Babulis -->
<g id="edge3" class="edge">
<title>babulis&#45;&gt;Babulis</title>
<path fill="none" stroke="purple" d="M200.74,-135.81C216.92,-140.34 236.89,-145.93 254.51,-150.86"/>
<polygon fill="purple" stroke="purple" points="253.38,-154.18 263.95,-153.5 255.26,-147.43 253.38,-154.18"/>
</g>
<!-- babulis&#45;&gt;Babule -->
<g id="edge5" class="edge">
<title>babulis&#45;&gt;Babule</title>
<path fill="none" stroke="purple" d="M200.74,-118.19C217.29,-113.56 237.8,-107.82 255.71,-102.81"/>
<polygon fill="purple" stroke="purple" points="256.6,-106.19 265.29,-100.12 254.72,-99.45 256.6,-106.19"/>
</g>
<!-- babulis&#45;&gt;babulēt -->
<g id="edge7" class="edge">
<title>babulis&#45;&gt;babulēt</title>
<path fill="none" stroke="green" d="M187.44,-111.61C209.26,-93.11 246.09,-61.9 271.17,-40.65"/>
<polygon fill="green" stroke="green" points="273.3,-43.42 278.67,-34.29 268.78,-38.08 273.3,-43.42"/>
</g>
<!-- # babul -->
<g id="node1" class="node">
<title># babul</title>
<polygon fill="lightblue" stroke="black" stroke-width="0" points="76.75,-110.5 0,-110.5 0,-69.5 76.75,-69.5 76.75,-110.5"/>
<text xml:space="preserve" text-anchor="middle" x="38.38" y="-93.2" font-family="Times New Roman,serif" font-size="14.00">babul</text>
<text xml:space="preserve" text-anchor="middle" x="38.38" y="-76.7" font-family="Times New Roman,serif" font-size="14.00">(borrowed)</text>
</g>
<!-- babulis -->
<g id="node2" class="node">
<title>babulis</title>
<ellipse fill="white" stroke="black" stroke-width="0" cx="168.28" cy="-127" rx="37.53" ry="18"/>
<text xml:space="preserve" text-anchor="middle" x="168.28" y="-121.95" font-family="Times New Roman,serif" font-size="14.00">babulis</text>
</g>
<!-- Babulis -->
<g id="node3" class="node">
<title>Babulis</title>
<ellipse fill="white" stroke="black" stroke-width="0" cx="298.88" cy="-163" rx="39.07" ry="18"/>
<text xml:space="preserve" text-anchor="middle" x="298.88" y="-157.95" font-family="Times New Roman,serif" font-size="14.00">Babulis</text>
</g>
<!-- Babule -->
<g id="node4" class="node">
<title>Babule</title>
<ellipse fill="white" stroke="black" stroke-width="0" cx="298.88" cy="-91" rx="37.02" ry="18"/>
<text xml:space="preserve" text-anchor="middle" x="298.88" y="-85.95" font-family="Times New Roman,serif" font-size="14.00">Babule</text>
</g>
<!-- babulēt -->
<g id="node5" class="node">
<title>babulēt</title>
<ellipse fill="white" stroke="black" stroke-width="0" cx="298.88" cy="-18" rx="38.04" ry="18"/>
<text xml:space="preserve" text-anchor="middle" x="298.88" y="-12.95" font-family="Times New Roman,serif" font-size="14.00">babulēt</text>
</g>
</g>
</svg>
