<?xml version="1.0" encoding="UTF-8" standalone="no"?>
<!DOCTYPE svg PUBLIC "-//W3C//DTD SVG 1.1//EN"
 "http://www.w3.org/Graphics/SVG/1.1/DTD/svg11.dtd">
<!-- Generated by graphviz version 13.1.2 (20250808.2320)
 -->
<!-- Pages: 1 -->
<svg width="379pt" height="336pt"
 viewBox="0.00 0.00 379.00 336.00" xmlns="http://www.w3.org/2000/svg" xmlns:xlink="http://www.w3.org/1999/xlink">
<g id="graph0" class="graph" transform="scale(1 1) rotate(0) translate(4 332)">
<polygon fill="white" stroke="none" points="-4,4 -4,-332 374.71,-332 374.71,4 -4,4"/>
<!-- # bac&#45;&gt;bacilārs -->
<g id="edge1" class="edge">
<title># bac&#45;&gt;bacilārs</title>
<path fill="none" stroke="#cccccc" d="M63.51,-220.43C88.91,-241.93 128.31,-275.28 151.18,-294.64"/>
</g>
<!-- # bac&#45;&gt;bacilis -->
<g id="edge2" class="edge">
<title># bac&#45;&gt;bacilis</title>
<path fill="none" stroke="#cccccc" d="M76.61,-189.68C96.57,-184.16 120.81,-177.44 139.5,-172.26"/>
</g>
<!-- # bac&#45;&gt;baciļains -->
<g id="edge3" class="edge">
<title># bac&#45;&gt;baciļains</title>
<path fill="none" stroke="#cccccc" d="M76.57,-200C128.2,-200 219.99,-200 274.08,-200"/>
</g>
<!-- # bac&#45;&gt;laktobacilis -->
<g id="edge5" class="edge">
<title># bac&#45;&gt;laktobacilis</title>
<path fill="none" stroke="#cccccc" d="M76.57,-185.07C131.03,-163.79 230.19,-125.04 282.64,-104.55"/>
</g>
<!-- bacilis&#45;&gt;baciļains -->
<g id="edge4" class="edge">
<title>bacilis&#45;&gt;baciļains</title>
<path fill="none" stroke="green" d="M201.72,-171.55C221.1,-176.36 246.61,-182.69 268.64,-188.16"/>
<polygon fill="green" stroke="green" points="267.78,-191.56 278.33,-190.57 269.47,-184.76 267.78,-191.56"/>
</g>
<!-- bacilis&#45;&gt;laktobacilis -->
<g id="edge7" class="edge">
<title>bacilis&#45;&gt;laktobacilis</title>
<path fill="none" stroke="orange" d="M195.6,-151.78C217.7,-140.65 250.75,-124.01 276.69,-110.95"/>
<polygon fill="orange" stroke="orange" points="278.24,-114.08 285.6,-106.46 275.1,-107.83 278.24,-114.08"/>
</g>
<!-- lakto&#45;&gt;laktobacilis -->
<g id="edge6" class="edge">
<title>lakto&#45;&gt;laktobacilis</title>
<path fill="none" stroke="orange" d="M197.25,-31.05C219.44,-42.22 251.73,-58.48 277.08,-71.25"/>
<polygon fill="orange" stroke="orange" points="275.27,-74.25 285.77,-75.62 278.42,-68 275.27,-74.25"/>
</g>
<!-- # bac -->
<g id="node1" class="node">
<title># bac</title>
<polygon fill="lightblue" stroke="black" stroke-width="0" points="76.75,-220.5 0,-220.5 0,-179.5 76.75,-179.5 76.75,-220.5"/>
<text xml:space="preserve" text-anchor="middle" x="38.38" y="-203.2" font-family="Times New Roman,serif" font-size="14.00">bac</text>
<text xml:space="preserve" text-anchor="middle" x="38.38" y="-186.7" font-family="Times New Roman,serif" font-size="14.00">(borrowed)</text>
</g>
<!-- bacilārs -->
<g id="node2" class="node">
<title>bacilārs</title>
<ellipse fill="white" stroke="black" stroke-width="0" cx="170.33" cy="-310" rx="39.58" ry="18"/>
<text xml:space="preserve" text-anchor="middle" x="170.33" y="-304.95" font-family="Times New Roman,serif" font-size="14.00">bacilārs</text>
</g>
<!-- bacilis -->
<g id="node3" class="node">
<title>bacilis</title>
<ellipse fill="white" stroke="black" stroke-width="0" cx="170.33" cy="-164" rx="34.97" ry="18"/>
<text xml:space="preserve" text-anchor="middle" x="170.33" y="-158.95" font-family="Times New Roman,serif" font-size="14.00">bacilis</text>
</g>
<!-- baciļains -->
<g id="node4" class="node">
<title>baciļains</title>
<ellipse fill="white" stroke="black" stroke-width="0" cx="317.31" cy="-200" rx="43.67" ry="18"/>
<text xml:space="preserve" text-anchor="middle" x="317.31" y="-194.95" font-family="Times New Roman,serif" font-size="14.00">baciļains</text>
</g>
<!-- laktobacilis -->
<g id="node5" class="node">
<title>laktobacilis</title>
<ellipse fill="white" stroke="black" stroke-width="0" cx="317.31" cy="-91" rx="53.4" ry="18"/>
<text xml:space="preserve" text-anchor="middle" x="317.31" y="-85.95" font-family="Times New Roman,serif" font-size="14.00">laktobacilis</text>
</g>
<!-- lakto -->
<g id="node6" class="node">
<title>lakto</title>
<polygon fill="lightgray" stroke="black" stroke-width="0" points="197.33,-36 143.33,-36 143.33,0 197.33,0 197.33,-36"/>
<text xml:space="preserve" text-anchor="middle" x="170.33" y="-12.95" font-family="Times New Roman,serif" font-size="14.00">lakto</text>
</g>
</g>
</svg>
