<?xml version="1.0" encoding="UTF-8" standalone="no"?>
<!DOCTYPE svg PUBLIC "-//W3C//DTD SVG 1.1//EN"
 "http://www.w3.org/Graphics/SVG/1.1/DTD/svg11.dtd">
<!-- Generated by graphviz version 13.1.2 (20250808.2320)
 -->
<!-- Pages: 1 -->
<svg width="227pt" height="188pt"
 viewBox="0.00 0.00 227.00 188.00" xmlns="http://www.w3.org/2000/svg" xmlns:xlink="http://www.w3.org/1999/xlink">
<g id="graph0" class="graph" transform="scale(1 1) rotate(0) translate(4 184)">
<polygon fill="white" stroke="none" points="-4,4 -4,-184 222.83,-184 222.83,4 -4,4"/>
<!-- # bac, bāc, babāc&#45;&gt;bac___bac__bāc__babāc -->
<g id="edge1" class="edge">
<title># bac, bāc, babāc&#45;&gt;bac___bac__bāc__babāc</title>
<path fill="none" stroke="#cccccc" d="M84.57,-107.98C109.92,-121.56 143.87,-139.75 165.19,-151.17"/>
</g>
<!-- # bac, bāc, babāc&#45;&gt;bāc___bac__bāc__babāc -->
<g id="edge2" class="edge">
<title># bac, bāc, babāc&#45;&gt;bāc___bac__bāc__babāc</title>
<path fill="none" stroke="#cccccc" d="M99.91,-90C120.17,-90 142.84,-90 159.75,-90"/>
</g>
<!-- # bac, bāc, babāc&#45;&gt;babāc___bac__bāc__babāc -->
<g id="edge3" class="edge">
<title># bac, bāc, babāc&#45;&gt;babāc___bac__bāc__babāc</title>
<path fill="none" stroke="#cccccc" d="M84.57,-72.02C108.99,-58.94 141.38,-41.58 162.79,-30.12"/>
</g>
<!-- # bac, bāc, babāc -->
<g id="node1" class="node">
<title># bac, bāc, babāc</title>
<polygon fill="lightblue" stroke="black" stroke-width="0" points="100,-108 0,-108 0,-72 100,-72 100,-108"/>
<text xml:space="preserve" text-anchor="middle" x="50" y="-84.95" font-family="Times New Roman,serif" font-size="14.00">bac, bāc, babāc</text>
</g>
<!-- bac___bac__bāc__babāc -->
<g id="node2" class="node">
<title>bac___bac__bāc__babāc</title>
<ellipse fill="white" stroke="black" stroke-width="0" cx="186.41" cy="-162" rx="27" ry="18"/>
<text xml:space="preserve" text-anchor="middle" x="186.41" y="-156.95" font-family="Times New Roman,serif" font-size="14.00">bac</text>
</g>
<!-- bāc___bac__bāc__babāc -->
<g id="node3" class="node">
<title>bāc___bac__bāc__babāc</title>
<ellipse fill="white" stroke="black" stroke-width="0" cx="186.41" cy="-90" rx="27" ry="18"/>
<text xml:space="preserve" text-anchor="middle" x="186.41" y="-84.95" font-family="Times New Roman,serif" font-size="14.00">bāc</text>
</g>
<!-- babāc___bac__bāc__babāc -->
<g id="node4" class="node">
<title>babāc___bac__bāc__babāc</title>
<ellipse fill="white" stroke="black" stroke-width="0" cx="186.41" cy="-18" rx="32.41" ry="18"/>
<text xml:space="preserve" text-anchor="middle" x="186.41" y="-12.95" font-family="Times New Roman,serif" font-size="14.00">babāc</text>
</g>
</g>
</svg>
