<?xml version="1.0" encoding="UTF-8" standalone="no"?>
<!DOCTYPE svg PUBLIC "-//W3C//DTD SVG 1.1//EN"
 "http://www.w3.org/Graphics/SVG/1.1/DTD/svg11.dtd">
<!-- Generated by graphviz version 13.1.2 (20250808.2320)
 -->
<!-- Pages: 1 -->
<svg width="556pt" height="1544pt"
 viewBox="0.00 0.00 556.00 1544.00" xmlns="http://www.w3.org/2000/svg" xmlns:xlink="http://www.w3.org/1999/xlink">
<g id="graph0" class="graph" transform="scale(1 1) rotate(0) translate(4 1540)">
<polygon fill="white" stroke="none" points="-4,4 -4,-1540 552.24,-1540 552.24,4 -4,4"/>
<!-- # bad&#45;&gt;badains___bad -->
<g id="edge1" class="edge">
<title># bad&#45;&gt;badains___bad</title>
<path fill="none" stroke="#cccccc" d="M68,-863.7C122.12,-877.18 244.14,-907.58 303.88,-922.46"/>
</g>
<!-- # bad&#45;&gt;badakāsis___bad -->
<g id="edge2" class="edge">
<title># bad&#45;&gt;badakāsis___bad</title>
<path fill="none" stroke="#cccccc" d="M54.26,-874.88C103.55,-941.92 277.02,-1177.86 325.48,-1243.78"/>
</g>
<!-- # bad&#45;&gt;badapātaga___bad -->
<g id="edge3" class="edge">
<title># bad&#45;&gt;badapātaga___bad</title>
<path fill="none" stroke="#cccccc" d="M61.53,-874.73C116.32,-922.32 266.02,-1052.35 319.14,-1098.49"/>
</g>
<!-- # bad&#45;&gt;badaslāpes___bad -->
<g id="edge4" class="edge">
<title># bad&#45;&gt;badaslāpes___bad</title>
<path fill="none" stroke="#cccccc" d="M68,-840.53C124.98,-805.61 257.21,-724.59 312.8,-690.53"/>
</g>
<!-- # bad&#45;&gt;badastreiks___bad -->
<g id="edge5" class="edge">
<title># bad&#45;&gt;badastreiks___bad</title>
<path fill="none" stroke="#cccccc" d="M52.22,-839.28C99.08,-764.49 280.47,-475.03 327.14,-400.55"/>
</g>
<!-- # bad&#45;&gt;badināšana___bad -->
<g id="edge6" class="edge">
<title># bad&#45;&gt;badināšana___bad</title>
<path fill="none" stroke="#cccccc" d="M53.29,-874.68C117.92,-968.51 420.18,-1407.37 484.38,-1500.57"/>
</g>
<!-- # bad&#45;&gt;badināt___bad -->
<g id="edge7" class="edge">
<title># bad&#45;&gt;badināt___bad</title>
<path fill="none" stroke="#cccccc" d="M49.53,-874.67C92.48,-964.91 287.02,-1373.6 329.81,-1463.48"/>
</g>
<!-- # bad&#45;&gt;badīgi___bad -->
<g id="edge8" class="edge">
<title># bad&#45;&gt;badīgi___bad</title>
<path fill="none" stroke="#cccccc" d="M63.38,-874.95C141.93,-938.27 405.26,-1150.54 477.76,-1208.99"/>
</g>
<!-- # bad&#45;&gt;badīgs___bad -->
<g id="edge9" class="edge">
<title># bad&#45;&gt;badīgs___bad</title>
<path fill="none" stroke="#cccccc" d="M68,-873.65C126.12,-909.66 262.54,-994.17 316.05,-1027.32"/>
</g>
<!-- # bad&#45;&gt;badmira___bad -->
<g id="edge10" class="edge">
<title># bad&#45;&gt;badmira___bad</title>
<path fill="none" stroke="#cccccc" d="M68,-853.74C120.48,-847.38 236.8,-833.28 298.28,-825.83"/>
</g>
<!-- # bad&#45;&gt;badošanās___bad -->
<g id="edge11" class="edge">
<title># bad&#45;&gt;badošanās___bad</title>
<path fill="none" stroke="#cccccc" d="M49.37,-839.24C92.05,-747.43 287.35,-327.28 329.93,-235.67"/>
</g>
<!-- # bad&#45;&gt;badoties___bad -->
<g id="edge12" class="edge">
<title># bad&#45;&gt;badoties___bad</title>
<path fill="none" stroke="#cccccc" d="M45.39,-839.17C64.44,-735.48 160.74,-211.16 179.74,-107.73"/>
</g>
<!-- # bad&#45;&gt;bads___bad -->
<g id="edge13" class="edge">
<title># bad&#45;&gt;bads___bad</title>
<path fill="none" stroke="#cccccc" d="M67.96,-863.79C93.69,-870.55 132.93,-880.85 158.27,-887.5"/>
</g>
<!-- # bad&#45;&gt;izbadēties___bad -->
<g id="edge14" class="edge">
<title># bad&#45;&gt;izbadēties___bad</title>
<path fill="none" stroke="#cccccc" d="M45.12,-839.09C63.61,-729.01 161.62,-145.34 180.02,-35.74"/>
</g>
<!-- # bad&#45;&gt;pabadoties___bad -->
<g id="edge15" class="edge">
<title># bad&#45;&gt;pabadoties___bad</title>
<path fill="none" stroke="#cccccc" d="M48.31,-839.29C89.02,-739.1 290.1,-244.23 330.91,-143.8"/>
</g>
<!-- # bad&#45;&gt;pusbads___bad -->
<g id="edge16" class="edge">
<title># bad&#45;&gt;pusbads___bad</title>
<path fill="none" stroke="#cccccc" d="M57.08,-839.37C109.02,-782.01 272.68,-601.29 323.17,-545.54"/>
</g>
<!-- badināt___bad&#45;&gt;badināšana___bad -->
<g id="edge26" class="edge">
<title>badināt___bad&#45;&gt;badināšana___bad</title>
<path fill="none" stroke="green" d="M372.28,-1488.85C392.6,-1493.66 419.08,-1499.93 442.28,-1505.42"/>
<polygon fill="green" stroke="green" points="441.35,-1508.8 451.89,-1507.7 442.96,-1501.99 441.35,-1508.8"/>
</g>
<!-- badīgs___bad&#45;&gt;badīgi___bad -->
<g id="edge28" class="edge">
<title>badīgs___bad&#45;&gt;badīgi___bad</title>
<path fill="none" stroke="green" d="M353.01,-1057.24C380.53,-1089.47 442.17,-1161.68 474.57,-1199.63"/>
<polygon fill="green" stroke="green" points="471.63,-1201.57 480.79,-1206.91 476.96,-1197.03 471.63,-1201.57"/>
</g>
<!-- badoties___bad&#45;&gt;badošanās___bad -->
<g id="edge32" class="edge">
<title>badoties___bad&#45;&gt;badošanās___bad</title>
<path fill="none" stroke="green" d="M203.66,-105.7C230.09,-127.93 278.63,-168.77 309.33,-194.6"/>
<polygon fill="green" stroke="green" points="306.79,-197.04 316.7,-200.8 311.3,-191.68 306.79,-197.04"/>
</g>
<!-- badoties___bad&#45;&gt;pabadoties___bad -->
<g id="edge35" class="edge">
<title>badoties___bad&#45;&gt;pabadoties___bad</title>
<path fill="none" stroke="green" d="M220.67,-98.44C239.8,-102.97 263.74,-108.63 284.93,-113.65"/>
<polygon fill="green" stroke="green" points="284.04,-117.03 294.57,-115.93 285.65,-110.22 284.04,-117.03"/>
</g>
<!-- bads___bad&#45;&gt;badains___bad -->
<g id="edge17" class="edge">
<title>bads___bad&#45;&gt;badains___bad</title>
<path fill="none" stroke="green" d="M210.12,-900.11C232.43,-905.53 265.54,-913.59 292.37,-920.11"/>
<polygon fill="green" stroke="green" points="291.42,-923.48 301.96,-922.44 293.07,-916.68 291.42,-923.48"/>
</g>
<!-- bads___bad&#45;&gt;badakāsis___bad -->
<g id="edge18" class="edge">
<title>bads___bad&#45;&gt;badakāsis___bad</title>
<path fill="none" stroke="blue" d="M192.13,-911.21C216.34,-969.59 295.47,-1160.48 325.47,-1232.84"/>
<polygon fill="blue" stroke="blue" points="322.2,-1234.11 329.27,-1242 328.67,-1231.43 322.2,-1234.11"/>
</g>
<!-- bads___bad&#45;&gt;badapātaga___bad -->
<g id="edge20" class="edge">
<title>bads___bad&#45;&gt;badapātaga___bad</title>
<path fill="none" stroke="blue" d="M195.94,-909.89C221.78,-947.42 286.79,-1041.86 318.78,-1088.33"/>
<polygon fill="blue" stroke="blue" points="315.85,-1090.24 324.4,-1096.5 321.62,-1086.27 315.85,-1090.24"/>
</g>
<!-- bads___bad&#45;&gt;badaslāpes___bad -->
<g id="edge22" class="edge">
<title>bads___bad&#45;&gt;badaslāpes___bad</title>
<path fill="none" stroke="blue" d="M196.19,-877.9C222.14,-840.53 286.68,-747.64 318.62,-701.66"/>
<polygon fill="blue" stroke="blue" points="321.41,-703.78 324.24,-693.57 315.66,-699.79 321.41,-703.78"/>
</g>
<!-- bads___bad&#45;&gt;badastreiks___bad -->
<g id="edge24" class="edge">
<title>bads___bad&#45;&gt;badastreiks___bad</title>
<path fill="none" stroke="blue" d="M190.15,-876.71C212.42,-801.89 300.63,-505.64 328.59,-411.72"/>
<polygon fill="blue" stroke="blue" points="331.91,-412.85 331.41,-402.27 325.2,-410.85 331.91,-412.85"/>
</g>
<!-- bads___bad&#45;&gt;badināt___bad -->
<g id="edge27" class="edge">
<title>bads___bad&#45;&gt;badināt___bad</title>
<path fill="none" stroke="green" d="M189.55,-911.57C211.1,-994.68 302.86,-1348.71 329.72,-1452.37"/>
<polygon fill="green" stroke="green" points="326.26,-1452.95 332.15,-1461.75 333.03,-1451.19 326.26,-1452.95"/>
</g>
<!-- bads___bad&#45;&gt;badīgs___bad -->
<g id="edge29" class="edge">
<title>bads___bad&#45;&gt;badīgs___bad</title>
<path fill="none" stroke="green" d="M200.14,-908.63C226.64,-934.23 281.59,-987.32 313.25,-1017.92"/>
<polygon fill="green" stroke="green" points="310.44,-1020.06 320.06,-1024.49 315.3,-1015.03 310.44,-1020.06"/>
</g>
<!-- bads___bad&#45;&gt;badmira___bad -->
<g id="edge30" class="edge">
<title>bads___bad&#45;&gt;badmira___bad</title>
<path fill="none" stroke="blue" d="M206.48,-883.7C230.62,-872.11 270.28,-853.08 299.58,-839.02"/>
<polygon fill="blue" stroke="blue" points="301,-842.23 308.5,-834.74 297.97,-835.91 301,-842.23"/>
</g>
<!-- bads___bad&#45;&gt;pusbads___bad -->
<g id="edge37" class="edge">
<title>bads___bad&#45;&gt;pusbads___bad</title>
<path fill="none" stroke="blue" d="M192.13,-876.88C216.34,-818.82 295.47,-628.98 325.47,-557"/>
<polygon fill="blue" stroke="blue" points="328.65,-558.48 329.26,-547.9 322.19,-555.78 328.65,-558.48"/>
</g>
<!-- kārsēt&#45;&gt;badakāsis___bad -->
<g id="edge19" class="edge">
<title>kārsēt&#45;&gt;badakāsis___bad</title>
<path fill="none" stroke="blue" d="M209.11,-1322.43C233.03,-1310.95 270.09,-1293.17 298.19,-1279.69"/>
<polygon fill="blue" stroke="blue" points="299.61,-1282.89 307.12,-1275.41 296.59,-1276.58 299.61,-1282.89"/>
</g>
<!-- pātaga&#45;&gt;badapātaga___bad -->
<g id="edge21" class="edge">
<title>pātaga&#45;&gt;badapātaga___bad</title>
<path fill="none" stroke="blue" d="M209.78,-1176.11C233.38,-1164.79 269.29,-1147.56 296.97,-1134.27"/>
<polygon fill="blue" stroke="blue" points="298.27,-1137.53 305.77,-1130.05 295.24,-1131.22 298.27,-1137.53"/>
</g>
<!-- slāpes&#45;&gt;badaslāpes___bad -->
<g id="edge23" class="edge">
<title>slāpes&#45;&gt;badaslāpes___bad</title>
<path fill="none" stroke="blue" d="M209.11,-613.57C232.73,-624.9 269.17,-642.39 297.14,-655.81"/>
<polygon fill="blue" stroke="blue" points="295.51,-658.91 306.04,-660.08 298.54,-652.59 295.51,-658.91"/>
</g>
<!-- streiks&#45;&gt;badastreiks___bad -->
<g id="edge25" class="edge">
<title>streiks&#45;&gt;badastreiks___bad</title>
<path fill="none" stroke="blue" d="M209.78,-321.89C233.38,-333.21 269.29,-350.44 296.97,-363.73"/>
<polygon fill="blue" stroke="blue" points="295.24,-366.78 305.77,-367.95 298.27,-360.47 295.24,-366.78"/>
</g>
<!-- mirt&#45;&gt;badmira___bad -->
<g id="edge31" class="edge">
<title>mirt&#45;&gt;badmira___bad</title>
<path fill="none" stroke="blue" d="M206.15,-758.15C230.22,-769.7 270,-788.78 299.42,-802.9"/>
<polygon fill="blue" stroke="blue" points="297.84,-806.03 308.37,-807.2 300.87,-799.72 297.84,-806.03"/>
</g>
<!-- badot&#45;&gt;badoties___bad -->
<g id="edge33" class="edge">
<title>badot&#45;&gt;badoties___bad</title>
<path fill="none" stroke="green" d="M72.34,-90C89.44,-90 111.29,-90 131.06,-90"/>
<polygon fill="green" stroke="green" points="130.89,-93.5 140.89,-90 130.89,-86.5 130.89,-93.5"/>
</g>
<!-- badēties&#45;&gt;izbadēties___bad -->
<g id="edge34" class="edge">
<title>badēties&#45;&gt;izbadēties___bad</title>
<path fill="none" stroke="green" d="M82.11,-18C95.46,-18 110.62,-18 125.06,-18"/>
<polygon fill="green" stroke="green" points="124.92,-21.5 134.92,-18 124.92,-14.5 124.92,-21.5"/>
</g>
<!-- puse&#45;&gt;pusbads___bad -->
<g id="edge36" class="edge">
<title>puse&#45;&gt;pusbads___bad</title>
<path fill="none" stroke="blue" d="M206.48,-466.3C230.7,-477.93 270.52,-497.03 299.85,-511.11"/>
<polygon fill="blue" stroke="blue" points="298.24,-514.21 308.77,-515.38 301.27,-507.9 298.24,-514.21"/>
</g>
<!-- # bad -->
<g id="node1" class="node">
<title># bad</title>
<polygon fill="lightblue" stroke="black" stroke-width="0" points="68.12,-875 14.12,-875 14.12,-839 68.12,-839 68.12,-875"/>
<text xml:space="preserve" text-anchor="middle" x="41.12" y="-851.95" font-family="Times New Roman,serif" font-size="14.00">bad</text>
</g>
<!-- badains___bad -->
<g id="node2" class="node">
<title>badains___bad</title>
<ellipse fill="white" stroke="black" stroke-width="0" cx="338.14" cy="-931" rx="39.07" ry="18"/>
<text xml:space="preserve" text-anchor="middle" x="338.14" y="-925.95" font-family="Times New Roman,serif" font-size="14.00">badains</text>
</g>
<!-- badakāsis___bad -->
<g id="node3" class="node">
<title>badakāsis___bad</title>
<ellipse fill="white" stroke="black" stroke-width="0" cx="338.14" cy="-1261" rx="46.75" ry="18"/>
<text xml:space="preserve" text-anchor="middle" x="338.14" y="-1255.95" font-family="Times New Roman,serif" font-size="14.00">badakāsis</text>
</g>
<!-- badapātaga___bad -->
<g id="node4" class="node">
<title>badapātaga___bad</title>
<ellipse fill="white" stroke="black" stroke-width="0" cx="338.14" cy="-1115" rx="52.38" ry="18"/>
<text xml:space="preserve" text-anchor="middle" x="338.14" y="-1109.95" font-family="Times New Roman,serif" font-size="14.00">badapātaga</text>
</g>
<!-- badaslāpes___bad -->
<g id="node5" class="node">
<title>badaslāpes___bad</title>
<ellipse fill="white" stroke="black" stroke-width="0" cx="338.14" cy="-675" rx="50.84" ry="18"/>
<text xml:space="preserve" text-anchor="middle" x="338.14" y="-669.95" font-family="Times New Roman,serif" font-size="14.00">badaslāpes</text>
</g>
<!-- badastreiks___bad -->
<g id="node6" class="node">
<title>badastreiks___bad</title>
<ellipse fill="white" stroke="black" stroke-width="0" cx="338.14" cy="-383" rx="52.38" ry="18"/>
<text xml:space="preserve" text-anchor="middle" x="338.14" y="-377.95" font-family="Times New Roman,serif" font-size="14.00">badastreiks</text>
</g>
<!-- badināšana___bad -->
<g id="node7" class="node">
<title>badināšana___bad</title>
<ellipse fill="white" stroke="black" stroke-width="0" cx="496.38" cy="-1518" rx="51.86" ry="18"/>
<text xml:space="preserve" text-anchor="middle" x="496.38" y="-1512.95" font-family="Times New Roman,serif" font-size="14.00">badināšana</text>
</g>
<!-- badināt___bad -->
<g id="node8" class="node">
<title>badināt___bad</title>
<ellipse fill="white" stroke="black" stroke-width="0" cx="338.14" cy="-1481" rx="38.04" ry="18"/>
<text xml:space="preserve" text-anchor="middle" x="338.14" y="-1475.95" font-family="Times New Roman,serif" font-size="14.00">badināt</text>
</g>
<!-- badīgi___bad -->
<g id="node9" class="node">
<title>badīgi___bad</title>
<ellipse fill="white" stroke="black" stroke-width="0" cx="496.38" cy="-1224" rx="33.95" ry="18"/>
<text xml:space="preserve" text-anchor="middle" x="496.38" y="-1218.95" font-family="Times New Roman,serif" font-size="14.00">badīgi</text>
</g>
<!-- badīgs___bad -->
<g id="node10" class="node">
<title>badīgs___bad</title>
<ellipse fill="white" stroke="black" stroke-width="0" cx="338.14" cy="-1041" rx="34.97" ry="18"/>
<text xml:space="preserve" text-anchor="middle" x="338.14" y="-1035.95" font-family="Times New Roman,serif" font-size="14.00">badīgs</text>
</g>
<!-- badmira___bad -->
<g id="node11" class="node">
<title>badmira___bad</title>
<ellipse fill="white" stroke="black" stroke-width="0" cx="338.14" cy="-821" rx="41.63" ry="18"/>
<text xml:space="preserve" text-anchor="middle" x="338.14" y="-815.95" font-family="Times New Roman,serif" font-size="14.00">badmira</text>
</g>
<!-- badošanās___bad -->
<g id="node12" class="node">
<title>badošanās___bad</title>
<ellipse fill="white" stroke="black" stroke-width="0" cx="338.14" cy="-218" rx="48.79" ry="18"/>
<text xml:space="preserve" text-anchor="middle" x="338.14" y="-212.95" font-family="Times New Roman,serif" font-size="14.00">badošanās</text>
</g>
<!-- badoties___bad -->
<g id="node13" class="node">
<title>badoties___bad</title>
<ellipse fill="white" stroke="black" stroke-width="0" cx="184" cy="-90" rx="41.63" ry="18"/>
<text xml:space="preserve" text-anchor="middle" x="184" y="-84.95" font-family="Times New Roman,serif" font-size="14.00">badoties</text>
</g>
<!-- bads___bad -->
<g id="node14" class="node">
<title>bads___bad</title>
<ellipse fill="white" stroke="black" stroke-width="0" cx="184" cy="-894" rx="27.81" ry="18"/>
<text xml:space="preserve" text-anchor="middle" x="184" y="-888.95" font-family="Times New Roman,serif" font-size="14.00">bads</text>
</g>
<!-- izbadēties___bad -->
<g id="node15" class="node">
<title>izbadēties___bad</title>
<ellipse fill="white" stroke="black" stroke-width="0" cx="184" cy="-18" rx="47.77" ry="18"/>
<text xml:space="preserve" text-anchor="middle" x="184" y="-12.95" font-family="Times New Roman,serif" font-size="14.00">izbadēties</text>
</g>
<!-- pabadoties___bad -->
<g id="node16" class="node">
<title>pabadoties___bad</title>
<ellipse fill="white" stroke="black" stroke-width="0" cx="338.14" cy="-126" rx="50.33" ry="18"/>
<text xml:space="preserve" text-anchor="middle" x="338.14" y="-120.95" font-family="Times New Roman,serif" font-size="14.00">pabadoties</text>
</g>
<!-- pusbads___bad -->
<g id="node17" class="node">
<title>pusbads___bad</title>
<ellipse fill="white" stroke="black" stroke-width="0" cx="338.14" cy="-529" rx="40.6" ry="18"/>
<text xml:space="preserve" text-anchor="middle" x="338.14" y="-523.95" font-family="Times New Roman,serif" font-size="14.00">pusbads</text>
</g>
<!-- kārsēt -->
<g id="node18" class="node">
<title>kārsēt</title>
<ellipse fill="white" stroke="black" stroke-width="0" cx="184" cy="-1334" rx="32.93" ry="18"/>
<text xml:space="preserve" text-anchor="middle" x="184" y="-1328.95" font-family="Times New Roman,serif" font-size="14.00" fill="gray">kārsēt</text>
</g>
<!-- pātaga -->
<g id="node19" class="node">
<title>pātaga</title>
<ellipse fill="white" stroke="black" stroke-width="0" cx="184" cy="-1188" rx="34.97" ry="18"/>
<text xml:space="preserve" text-anchor="middle" x="184" y="-1182.95" font-family="Times New Roman,serif" font-size="14.00" fill="gray">pātaga</text>
</g>
<!-- slāpes -->
<g id="node20" class="node">
<title>slāpes</title>
<ellipse fill="white" stroke="black" stroke-width="0" cx="184" cy="-602" rx="33.44" ry="18"/>
<text xml:space="preserve" text-anchor="middle" x="184" y="-596.95" font-family="Times New Roman,serif" font-size="14.00" fill="gray">slāpes</text>
</g>
<!-- streiks -->
<g id="node21" class="node">
<title>streiks</title>
<ellipse fill="white" stroke="black" stroke-width="0" cx="184" cy="-310" rx="34.97" ry="18"/>
<text xml:space="preserve" text-anchor="middle" x="184" y="-304.95" font-family="Times New Roman,serif" font-size="14.00" fill="gray">streiks</text>
</g>
<!-- mirt -->
<g id="node22" class="node">
<title>mirt</title>
<ellipse fill="white" stroke="black" stroke-width="0" cx="184" cy="-748" rx="27" ry="18"/>
<text xml:space="preserve" text-anchor="middle" x="184" y="-742.95" font-family="Times New Roman,serif" font-size="14.00" fill="gray">mirt</text>
</g>
<!-- badot -->
<g id="node23" class="node">
<title>badot</title>
<ellipse fill="white" stroke="black" stroke-width="0" cx="41.12" cy="-90" rx="31.39" ry="18"/>
<text xml:space="preserve" text-anchor="middle" x="41.12" y="-84.95" font-family="Times New Roman,serif" font-size="14.00" fill="gray">badot</text>
</g>
<!-- badēties -->
<g id="node24" class="node">
<title>badēties</title>
<ellipse fill="white" stroke="black" stroke-width="0" cx="41.12" cy="-18" rx="41.12" ry="18"/>
<text xml:space="preserve" text-anchor="middle" x="41.12" y="-12.95" font-family="Times New Roman,serif" font-size="14.00" fill="gray">badēties</text>
</g>
<!-- puse -->
<g id="node25" class="node">
<title>puse</title>
<ellipse fill="white" stroke="black" stroke-width="0" cx="184" cy="-456" rx="27.81" ry="18"/>
<text xml:space="preserve" text-anchor="middle" x="184" y="-450.95" font-family="Times New Roman,serif" font-size="14.00" fill="gray">puse</text>
</g>
</g>
</svg>
