<?xml version="1.0" encoding="UTF-8" standalone="no"?>
<!DOCTYPE svg PUBLIC "-//W3C//DTD SVG 1.1//EN"
 "http://www.w3.org/Graphics/SVG/1.1/DTD/svg11.dtd">
<!-- Generated by graphviz version 13.1.2 (20250808.2320)
 -->
<!-- Pages: 1 -->
<svg width="1673pt" height="1165pt"
 viewBox="0.00 0.00 1673.00 1165.00" xmlns="http://www.w3.org/2000/svg" xmlns:xlink="http://www.w3.org/1999/xlink">
<g id="graph0" class="graph" transform="scale(1 1) rotate(0) translate(4 1161.33)">
<polygon fill="white" stroke="none" points="-4,4 -4,-1161.33 1669.25,-1161.33 1669.25,4 -4,4"/>
<!-- # bad, bed, bes&#45;&gt;apbadīt -->
<g id="edge1" class="edge">
<title># bad, bed, bes&#45;&gt;apbadīt</title>
<path fill="none" stroke="#cccccc" d="M910.14,-630.87C878.77,-589.72 801.5,-488.37 770.85,-448.17"/>
</g>
<!-- # bad, bed, bes&#45;&gt;badīt -->
<g id="edge3" class="edge">
<title># bad, bed, bes&#45;&gt;badīt</title>
<path fill="none" stroke="#cccccc" d="M922.82,-630.84C920.61,-586.05 914.85,-469.09 912.63,-424.27"/>
</g>
<!-- # bad, bed, bes&#45;&gt;best -->
<g id="edge44" class="edge">
<title># bad, bed, bes&#45;&gt;best</title>
<path fill="none" stroke="#cccccc" d="M903.24,-666.61C881.95,-685.29 849.08,-714.15 829.59,-731.25"/>
</g>
<!-- # bad, bed, bes&#45;&gt;badīties -->
<g id="edge5" class="edge">
<title># bad, bed, bes&#45;&gt;badīties</title>
<path fill="none" stroke="#cccccc" d="M923.82,-630.75C924.31,-556.89 926.15,-276.31 926.63,-202.56"/>
</g>
<!-- # bad, bed, bes&#45;&gt;iebadīt -->
<g id="edge7" class="edge">
<title># bad, bed, bes&#45;&gt;iebadīt</title>
<path fill="none" stroke="#cccccc" d="M927.68,-630.76C941.36,-569.19 986.41,-366.51 999.98,-305.43"/>
</g>
<!-- # bad, bed, bes&#45;&gt;iebadīties -->
<g id="edge9" class="edge">
<title># bad, bed, bes&#45;&gt;iebadīties</title>
<path fill="none" stroke="#cccccc" d="M928.44,-630.88C949.1,-553.33 1031.28,-244.91 1051.97,-167.27"/>
</g>
<!-- # bad, bed, bes&#45;&gt;izbadīt -->
<g id="edge11" class="edge">
<title># bad, bed, bes&#45;&gt;izbadīt</title>
<path fill="none" stroke="#cccccc" d="M919.38,-630.79C903.23,-563.96 846.49,-329.14 830.42,-262.65"/>
</g>
<!-- # bad, bed, bes&#45;&gt;nobadīt -->
<g id="edge13" class="edge">
<title># bad, bed, bes&#45;&gt;nobadīt</title>
<path fill="none" stroke="#cccccc" d="M913.78,-630.74C879.56,-568.95 766.71,-365.22 733.12,-304.57"/>
</g>
<!-- # bad, bed, bes&#45;&gt;pabadīt -->
<g id="edge15" class="edge">
<title># bad, bed, bes&#45;&gt;pabadīt</title>
<path fill="none" stroke="#cccccc" d="M941.2,-630.67C976.62,-594.27 1056.31,-512.36 1090.33,-477.41"/>
</g>
<!-- # bad, bed, bes&#45;&gt;sabadīt -->
<g id="edge17" class="edge">
<title># bad, bed, bes&#45;&gt;sabadīt</title>
<path fill="none" stroke="#cccccc" d="M934.73,-630.88C970.52,-573.21 1083.11,-391.79 1118.26,-335.15"/>
</g>
<!-- # bad, bed, bes&#45;&gt;apbedījums -->
<g id="edge19" class="edge">
<title># bad, bed, bes&#45;&gt;apbedījums</title>
<path fill="none" stroke="#cccccc" d="M967.64,-639.08C1036.12,-624.15 1167.63,-595.49 1236.85,-580.4"/>
</g>
<!-- # bad, bed, bes&#45;&gt;apbedīt -->
<g id="edge23" class="edge">
<title># bad, bed, bes&#45;&gt;apbedīt</title>
<path fill="none" stroke="#cccccc" d="M950,-666.39C1004.03,-702.82 1126.62,-785.5 1176.37,-819.05"/>
</g>
<!-- # bad, bed, bes&#45;&gt;apbedīšana -->
<g id="edge21" class="edge">
<title># bad, bed, bes&#45;&gt;apbedīšana</title>
<path fill="none" stroke="#cccccc" d="M959.8,-666.58C1042.78,-707.8 1245.8,-808.64 1321.94,-846.46"/>
</g>
<!-- # bad, bed, bes&#45;&gt;bedīt -->
<g id="edge32" class="edge">
<title># bad, bed, bes&#45;&gt;bedīt</title>
<path fill="none" stroke="#cccccc" d="M928.45,-666.46C941.83,-716.65 979.75,-858.88 993.08,-908.89"/>
</g>
<!-- # bad, bed, bes&#45;&gt;apbedītājs -->
<g id="edge25" class="edge">
<title># bad, bed, bes&#45;&gt;apbedītājs</title>
<path fill="none" stroke="#cccccc" d="M967.64,-661.11C1035.59,-680.38 1165.05,-717.08 1229.47,-735.35"/>
</g>
<!-- # bad, bed, bes&#45;&gt;asinsbedre -->
<g id="edge27" class="edge">
<title># bad, bed, bes&#45;&gt;asinsbedre</title>
<path fill="none" stroke="#cccccc" d="M879.75,-658.09C776.56,-680.26 519.82,-735.41 417.93,-757.29"/>
</g>
<!-- # bad, bed, bes&#45;&gt;bedre -->
<g id="edge38" class="edge">
<title># bad, bed, bes&#45;&gt;bedre</title>
<path fill="none" stroke="#cccccc" d="M879.82,-653.92C810.08,-662.28 675.74,-678.4 615.67,-685.61"/>
</g>
<!-- # bad, bed, bes&#45;&gt;bedības -->
<g id="edge30" class="edge">
<title># bad, bed, bes&#45;&gt;bedības</title>
<path fill="none" stroke="#cccccc" d="M922.88,-666.55C919.91,-730.64 909.85,-948.37 906.89,-1012.41"/>
</g>
<!-- # bad, bed, bes&#45;&gt;bedraini -->
<g id="edge34" class="edge">
<title># bad, bed, bes&#45;&gt;bedraini</title>
<path fill="none" stroke="#cccccc" d="M880.09,-639.72C783.81,-620.02 554.51,-573.08 464.52,-554.66"/>
</g>
<!-- # bad, bed, bes&#45;&gt;bedrains -->
<g id="edge36" class="edge">
<title># bad, bed, bes&#45;&gt;bedrains</title>
<path fill="none" stroke="#cccccc" d="M879.86,-651.82C795.35,-657.94 610.97,-671.28 528.54,-677.24"/>
</g>
<!-- # bad, bed, bes&#45;&gt;bedrele -->
<g id="edge40" class="edge">
<title># bad, bed, bes&#45;&gt;bedrele</title>
<path fill="none" stroke="#cccccc" d="M901.24,-666.49C846.67,-709.82 707.87,-820.04 656.74,-860.64"/>
</g>
<!-- # bad, bed, bes&#45;&gt;bedrīte -->
<g id="edge42" class="edge">
<title># bad, bed, bes&#45;&gt;bedrīte</title>
<path fill="none" stroke="#cccccc" d="M897.68,-666.49C826.11,-715.55 627.36,-851.81 561.88,-896.69"/>
</g>
<!-- # bad, bed, bes&#45;&gt;būvbedre -->
<g id="edge45" class="edge">
<title># bad, bed, bes&#45;&gt;būvbedre</title>
<path fill="none" stroke="#cccccc" d="M894.46,-630.69C815.06,-581.92 596.46,-447.64 522.87,-402.43"/>
</g>
<!-- # bad, bed, bes&#45;&gt;grantsbedre -->
<g id="edge48" class="edge">
<title># bad, bed, bes&#45;&gt;grantsbedre</title>
<path fill="none" stroke="#cccccc" d="M885.24,-630.68C812.4,-596.65 655.66,-523.43 588.92,-492.25"/>
</g>
<!-- # bad, bed, bes&#45;&gt;pārapbedīšana -->
<g id="edge51" class="edge">
<title># bad, bed, bes&#45;&gt;pārapbedīšana</title>
<path fill="none" stroke="#cccccc" d="M932.52,-666.47C967.74,-737.62 1098.08,-1000.99 1133.06,-1071.67"/>
</g>
<!-- # bad, bed, bes&#45;&gt;pārapbedīt -->
<g id="edge53" class="edge">
<title># bad, bed, bes&#45;&gt;pārapbedīt</title>
<path fill="none" stroke="#cccccc" d="M938.83,-666.21C989.87,-725.45 1155.34,-917.49 1205.8,-976.06"/>
</g>
<!-- # bad, bed, bes&#45;&gt;pārbedīšana -->
<g id="edge55" class="edge">
<title># bad, bed, bes&#45;&gt;pārbedīšana</title>
<path fill="none" stroke="#cccccc" d="M919.55,-666.41C901.63,-743.03 831.02,-1045.02 813.11,-1121.6"/>
</g>
<!-- # bad, bed, bes&#45;&gt;pārbedīt -->
<g id="edge57" class="edge">
<title># bad, bed, bes&#45;&gt;pārbedīt</title>
<path fill="none" stroke="#cccccc" d="M925.4,-666.52C932.49,-741.03 959.66,-1026.63 966.75,-1101.18"/>
</g>
<!-- # bad, bed, bes&#45;&gt;skeletapbedījums -->
<g id="edge59" class="edge">
<title># bad, bed, bes&#45;&gt;skeletapbedījums</title>
<path fill="none" stroke="#cccccc" d="M946.23,-630.69C1018.71,-572.9 1245.27,-392.26 1315.98,-335.89"/>
</g>
<!-- # bad, bed, bes&#45;&gt;virsapbedījums -->
<g id="edge62" class="edge">
<title># bad, bed, bes&#45;&gt;virsapbedījums</title>
<path fill="none" stroke="#cccccc" d="M967.43,-638.77C1057.6,-618.4 1263.8,-571.81 1360.19,-550.04"/>
</g>
<!-- # bad, bed, bes&#45;&gt;virsapbedīšana -->
<g id="edge65" class="edge">
<title># bad, bed, bes&#45;&gt;virsapbedīšana</title>
<path fill="none" stroke="#cccccc" d="M967.33,-653.47C1059.57,-663.64 1274.57,-687.37 1380.05,-699.01"/>
</g>
<!-- # bad, bed, bes&#45;&gt;apbest -->
<g id="edge68" class="edge">
<title># bad, bed, bes&#45;&gt;apbest</title>
<path fill="none" stroke="#cccccc" d="M913.97,-666.6C884.23,-721.49 794.76,-886.57 765.54,-940.48"/>
</g>
<!-- badīt&#45;&gt;apbadīt -->
<g id="edge2" class="edge">
<title>badīt&#45;&gt;apbadīt</title>
<path fill="none" stroke="green" d="M883.56,-411.01C861.68,-414.55 830.88,-419.54 805.26,-423.7"/>
<polygon fill="green" stroke="green" points="804.71,-420.24 795.4,-425.29 805.83,-427.15 804.71,-420.24"/>
</g>
<!-- badīt&#45;&gt;badīties -->
<g id="edge6" class="edge">
<title>badīt&#45;&gt;badīties</title>
<path fill="none" stroke="green" d="M912.96,-388.67C915.53,-350.55 921.61,-260.65 924.77,-213.97"/>
<polygon fill="green" stroke="green" points="928.26,-214.29 925.44,-204.07 921.27,-213.81 928.26,-214.29"/>
</g>
<!-- badīt&#45;&gt;iebadīt -->
<g id="edge8" class="edge">
<title>badīt&#45;&gt;iebadīt</title>
<path fill="none" stroke="green" d="M924.18,-390.44C939.55,-370.66 965.9,-336.75 984.07,-313.36"/>
<polygon fill="green" stroke="green" points="986.77,-315.6 990.14,-305.55 981.24,-311.3 986.77,-315.6"/>
</g>
<!-- badīt&#45;&gt;izbadīt -->
<g id="edge12" class="edge">
<title>badīt&#45;&gt;izbadīt</title>
<path fill="none" stroke="green" d="M902.76,-389.46C887.96,-361.56 858.37,-305.75 840.6,-272.25"/>
<polygon fill="green" stroke="green" points="843.77,-270.76 836,-263.56 837.59,-274.04 843.77,-270.76"/>
</g>
<!-- badīt&#45;&gt;nobadīt -->
<g id="edge14" class="edge">
<title>badīt&#45;&gt;nobadīt</title>
<path fill="none" stroke="green" d="M891.62,-393.7C859.02,-373.07 794.43,-332.21 755.52,-307.59"/>
<polygon fill="green" stroke="green" points="757.82,-304.9 747.5,-302.51 754.08,-310.82 757.82,-304.9"/>
</g>
<!-- badīt&#45;&gt;pabadīt -->
<g id="edge16" class="edge">
<title>badīt&#45;&gt;pabadīt</title>
<path fill="none" stroke="green" d="M938.38,-413.92C970.48,-422.94 1024.83,-438.22 1062.96,-448.94"/>
<polygon fill="green" stroke="green" points="1061.71,-452.22 1072.29,-451.56 1063.61,-445.49 1061.71,-452.22"/>
</g>
<!-- badīt&#45;&gt;sabadīt -->
<g id="edge18" class="edge">
<title>badīt&#45;&gt;sabadīt</title>
<path fill="none" stroke="green" d="M935.82,-396.64C973.14,-381.45 1045.36,-352.07 1090.1,-333.86"/>
<polygon fill="green" stroke="green" points="1091.22,-337.18 1099.17,-330.17 1088.59,-330.7 1091.22,-337.18"/>
</g>
<!-- best&#45;&gt;badīt -->
<g id="edge4" class="edge">
<title>best&#45;&gt;badīt</title>
<path fill="none" stroke="green" d="M818.53,-728.08C834.42,-673.25 883.84,-502.75 903.53,-434.8"/>
<polygon fill="green" stroke="green" points="906.8,-436.11 906.22,-425.53 900.07,-434.16 906.8,-436.11"/>
</g>
<!-- best&#45;&gt;bedīt -->
<g id="edge33" class="edge">
<title>best&#45;&gt;bedīt</title>
<path fill="none" stroke="green" d="M828.61,-760.18C860.73,-791.77 936.1,-865.88 974.46,-903.61"/>
<polygon fill="green" stroke="green" points="971.84,-905.93 981.42,-910.45 976.74,-900.94 971.84,-905.93"/>
</g>
<!-- best&#45;&gt;bedre -->
<g id="edge39" class="edge">
<title>best&#45;&gt;bedre</title>
<path fill="none" stroke="green" d="M788.24,-739.13C748.69,-729.41 671.87,-710.52 624.94,-698.98"/>
<polygon fill="green" stroke="green" points="626,-695.63 615.45,-696.65 624.33,-702.43 626,-695.63"/>
</g>
<!-- best&#45;&gt;apbest -->
<g id="edge69" class="edge">
<title>best&#45;&gt;apbest</title>
<path fill="none" stroke="green" d="M808.84,-762.73C798.97,-799.28 775.98,-884.44 763.92,-929.15"/>
<polygon fill="green" stroke="green" points="760.58,-928.07 761.35,-938.64 767.34,-929.9 760.58,-928.07"/>
</g>
<!-- badīties&#45;&gt;iebadīties -->
<g id="edge10" class="edge">
<title>badīties&#45;&gt;iebadīties</title>
<path fill="none" stroke="green" d="M960.56,-175.54C975.1,-171.59 992.38,-166.91 1008.24,-162.6"/>
<polygon fill="green" stroke="green" points="1008.76,-166.09 1017.49,-160.09 1006.93,-159.33 1008.76,-166.09"/>
</g>
<!-- apbedījums&#45;&gt;skeletapbedījums -->
<g id="edge61" class="edge">
<title>apbedījums&#45;&gt;skeletapbedījums</title>
<path fill="none" stroke="blue" d="M1285.87,-552.87C1295.29,-510 1319.4,-400.27 1330.94,-347.75"/>
<polygon fill="blue" stroke="blue" points="1334.34,-348.58 1333.07,-338.06 1327.51,-347.07 1334.34,-348.58"/>
</g>
<!-- apbedījums&#45;&gt;virsapbedījums -->
<g id="edge64" class="edge">
<title>apbedījums&#45;&gt;virsapbedījums</title>
<path fill="none" stroke="blue" d="M1325.15,-559.86C1333.54,-557.78 1342.48,-555.56 1351.31,-553.38"/>
<polygon fill="blue" stroke="blue" points="1352.04,-556.8 1360.91,-551 1350.36,-550.01 1352.04,-556.8"/>
</g>
<!-- apbedīt&#45;&gt;apbedījums -->
<g id="edge20" class="edge">
<title>apbedīt&#45;&gt;apbedījums</title>
<path fill="none" stroke="green" d="M1203.6,-815.94C1217.86,-771.29 1255.45,-653.64 1272.87,-599.09"/>
<polygon fill="green" stroke="green" points="1276.2,-600.19 1275.91,-589.6 1269.53,-598.06 1276.2,-600.19"/>
</g>
<!-- apbedīt&#45;&gt;apbedīšana -->
<g id="edge22" class="edge">
<title>apbedīt&#45;&gt;apbedīšana</title>
<path fill="none" stroke="green" d="M1233.17,-839.91C1251.31,-843.17 1273.89,-847.21 1294.44,-850.9"/>
<polygon fill="green" stroke="green" points="1293.65,-854.31 1304.11,-852.63 1294.89,-847.42 1293.65,-854.31"/>
</g>
<!-- apbedīt&#45;&gt;apbedītājs -->
<g id="edge26" class="edge">
<title>apbedīt&#45;&gt;apbedītājs</title>
<path fill="none" stroke="green" d="M1211.1,-817.17C1221.32,-804.4 1235.68,-786.45 1247.39,-771.81"/>
<polygon fill="green" stroke="green" points="1249.83,-774.37 1253.34,-764.37 1244.36,-769.99 1249.83,-774.37"/>
</g>
<!-- apbedīt&#45;&gt;pārapbedīt -->
<g id="edge54" class="edge">
<title>apbedīt&#45;&gt;pārapbedīt</title>
<path fill="none" stroke="green" d="M1200.46,-851.29C1204.33,-878.61 1211.79,-931.34 1216.45,-964.26"/>
<polygon fill="green" stroke="green" points="1212.95,-964.5 1217.82,-973.91 1219.88,-963.52 1212.95,-964.5"/>
</g>
<!-- apbedīšana&#45;&gt;virsapbedīšana -->
<g id="edge67" class="edge">
<title>apbedīšana&#45;&gt;virsapbedīšana</title>
<path fill="none" stroke="blue" d="M1361.48,-843.58C1376.93,-816.65 1406.64,-764.86 1424.93,-732.98"/>
<polygon fill="blue" stroke="blue" points="1427.74,-735.12 1429.68,-724.7 1421.67,-731.64 1427.74,-735.12"/>
</g>
<!-- bedīt&#45;&gt;apbedīt -->
<g id="edge24" class="edge">
<title>bedīt&#45;&gt;apbedīt</title>
<path fill="none" stroke="green" d="M1021.14,-915.7C1055.41,-899.79 1119.68,-869.95 1160.57,-850.96"/>
<polygon fill="green" stroke="green" points="1161.97,-854.17 1169.56,-846.79 1159.02,-847.83 1161.97,-854.17"/>
</g>
<!-- bedīt&#45;&gt;bedības -->
<g id="edge31" class="edge">
<title>bedīt&#45;&gt;bedības</title>
<path fill="none" stroke="green" d="M983.86,-942.3C969.08,-959.01 945.53,-985.64 928.2,-1005.23"/>
<polygon fill="green" stroke="green" points="925.74,-1002.73 921.74,-1012.54 930.99,-1007.37 925.74,-1002.73"/>
</g>
<!-- bedīt&#45;&gt;pārbedīt -->
<g id="edge58" class="edge">
<title>bedīt&#45;&gt;pārbedīt</title>
<path fill="none" stroke="green" d="M995.08,-944.31C990,-977.62 979.01,-1049.73 972.86,-1090.14"/>
<polygon fill="green" stroke="green" points="969.42,-1089.43 971.38,-1099.85 976.34,-1090.49 969.42,-1089.43"/>
</g>
<!-- asins&#45;&gt;asinsbedre -->
<g id="edge28" class="edge">
<title>asins&#45;&gt;asinsbedre</title>
<path fill="none" stroke="blue" d="M58.24,-740.2C114.7,-744.88 240.66,-755.31 315.71,-761.52"/>
<polygon fill="blue" stroke="blue" points="315.09,-764.98 325.34,-762.32 315.67,-758 315.09,-764.98"/>
</g>
<!-- bedre&#45;&gt;asinsbedre -->
<g id="edge29" class="edge">
<title>bedre&#45;&gt;asinsbedre</title>
<path fill="none" stroke="blue" d="M559.18,-698.87C524.58,-711.59 463.07,-734.19 420.78,-749.73"/>
<polygon fill="blue" stroke="blue" points="419.81,-746.36 411.63,-753.1 422.22,-752.93 419.81,-746.36"/>
</g>
<!-- bedre&#45;&gt;bedrains -->
<g id="edge37" class="edge">
<title>bedre&#45;&gt;bedrains</title>
<path fill="none" stroke="green" d="M554.6,-686.42C549.8,-685.98 544.72,-685.51 539.59,-685.04"/>
<polygon fill="green" stroke="green" points="540.16,-681.57 529.88,-684.14 539.52,-688.54 540.16,-681.57"/>
</g>
<!-- bedre&#45;&gt;bedrele -->
<g id="edge41" class="edge">
<title>bedre&#45;&gt;bedrele</title>
<path fill="none" stroke="green" d="M590.26,-706.81C599.28,-739.13 618.57,-808.29 629.48,-847.43"/>
<polygon fill="green" stroke="green" points="626.05,-848.16 632.11,-856.85 632.8,-846.28 626.05,-848.16"/>
</g>
<!-- bedre&#45;&gt;bedrīte -->
<g id="edge43" class="edge">
<title>bedre&#45;&gt;bedrīte</title>
<path fill="none" stroke="green" d="M581.78,-707.04C574.08,-745.28 555.89,-835.6 546.5,-882.24"/>
<polygon fill="green" stroke="green" points="543.1,-881.39 544.55,-891.88 549.96,-882.77 543.1,-881.39"/>
</g>
<!-- bedre&#45;&gt;būvbedre -->
<g id="edge47" class="edge">
<title>bedre&#45;&gt;būvbedre</title>
<path fill="none" stroke="orange" d="M580.31,-671.71C565.85,-621.58 524.26,-477.34 506.51,-415.76"/>
<polygon fill="orange" stroke="orange" points="509.94,-415.02 503.81,-406.38 503.21,-416.96 509.94,-415.02"/>
</g>
<!-- bedre&#45;&gt;grantsbedre -->
<g id="edge50" class="edge">
<title>bedre&#45;&gt;grantsbedre</title>
<path fill="none" stroke="blue" d="M583.06,-671.58C578.31,-635.1 567.38,-551.19 561.58,-506.67"/>
<polygon fill="blue" stroke="blue" points="565.08,-506.45 560.32,-496.99 558.14,-507.36 565.08,-506.45"/>
</g>
<!-- bedrains&#45;&gt;bedraini -->
<g id="edge35" class="edge">
<title>bedrains&#45;&gt;bedraini</title>
<path fill="none" stroke="green" d="M479.45,-662.81C469.36,-640.38 451.69,-601.13 439.76,-574.62"/>
<polygon fill="green" stroke="green" points="443.11,-573.53 435.81,-565.85 436.72,-576.4 443.11,-573.53"/>
</g>
<!-- būv&#45;&gt;būvbedre -->
<g id="edge46" class="edge">
<title>būv&#45;&gt;būvbedre</title>
<path fill="none" stroke="orange" d="M300.56,-136.07C336.91,-182.26 435,-306.89 477.83,-361.32"/>
<polygon fill="orange" stroke="orange" points="475.05,-363.45 483.99,-369.14 480.56,-359.12 475.05,-363.45"/>
</g>
<!-- grants&#45;&gt;grantsbedre -->
<g id="edge49" class="edge">
<title>grants&#45;&gt;grantsbedre</title>
<path fill="none" stroke="blue" d="M403.69,-267.81C432.27,-306.74 503.63,-403.92 538.3,-451.14"/>
<polygon fill="blue" stroke="blue" points="535.47,-453.21 544.21,-459.2 541.11,-449.06 535.47,-453.21"/>
</g>
<!-- pārapbedīt&#45;&gt;pārapbedīšana -->
<g id="edge52" class="edge">
<title>pārapbedīt&#45;&gt;pārapbedīšana</title>
<path fill="none" stroke="green" d="M1206.46,-1010.34C1194.43,-1025.01 1176.95,-1046.32 1163.18,-1063.1"/>
<polygon fill="green" stroke="green" points="1160.57,-1060.76 1156.94,-1070.71 1165.99,-1065.2 1160.57,-1060.76"/>
</g>
<!-- pārbedīt&#45;&gt;pārbedīšana -->
<g id="edge56" class="edge">
<title>pārbedīt&#45;&gt;pārbedīšana</title>
<path fill="none" stroke="green" d="M929.02,-1124.08C911.6,-1126.29 890.68,-1128.95 871.23,-1131.42"/>
<polygon fill="green" stroke="green" points="870.96,-1127.93 861.48,-1132.66 871.85,-1134.87 870.96,-1127.93"/>
</g>
<!-- skelets&#45;&gt;skeletapbedījums -->
<g id="edge60" class="edge">
<title>skelets&#45;&gt;skeletapbedījums</title>
<path fill="none" stroke="blue" d="M1497.73,-35.04C1469.57,-84.87 1387.17,-230.64 1352.71,-291.61"/>
<polygon fill="blue" stroke="blue" points="1349.85,-289.55 1347.98,-299.98 1355.94,-293 1349.85,-289.55"/>
</g>
<!-- virsū&#45;&gt;virsapbedījums -->
<g id="edge63" class="edge">
<title>virsū&#45;&gt;virsapbedījums</title>
<path fill="none" stroke="blue" d="M1607.05,-533.48C1577.69,-534.22 1530.9,-535.41 1490.47,-536.43"/>
<polygon fill="blue" stroke="blue" points="1490.4,-532.93 1480.49,-536.68 1490.57,-539.93 1490.4,-532.93"/>
</g>
<!-- virsū&#45;&gt;virsapbedīšana -->
<g id="edge66" class="edge">
<title>virsū&#45;&gt;virsapbedīšana</title>
<path fill="none" stroke="blue" d="M1619.26,-547.5C1585.65,-577.25 1509.42,-644.74 1468.23,-681.21"/>
<polygon fill="blue" stroke="blue" points="1466.06,-678.46 1460.9,-687.71 1470.7,-683.7 1466.06,-678.46"/>
</g>
<!-- # bad, bed, bes -->
<g id="node1" class="node">
<title># bad, bed, bes</title>
<polygon fill="lightblue" stroke="black" stroke-width="0" points="967.7,-666.65 879.7,-666.65 879.7,-630.65 967.7,-630.65 967.7,-666.65"/>
<text xml:space="preserve" text-anchor="middle" x="923.7" y="-643.6" font-family="Times New Roman,serif" font-size="14.00">bad, bed, bes</text>
</g>
<!-- apbadīt -->
<g id="node2" class="node">
<title>apbadīt</title>
<ellipse fill="white" stroke="black" stroke-width="0" cx="758.03" cy="-431.35" rx="38.04" ry="18"/>
<text xml:space="preserve" text-anchor="middle" x="758.03" y="-426.3" font-family="Times New Roman,serif" font-size="14.00">apbadīt</text>
</g>
<!-- badīt -->
<g id="node3" class="node">
<title>badīt</title>
<ellipse fill="white" stroke="black" stroke-width="0" cx="911.75" cy="-406.44" rx="29.34" ry="18"/>
<text xml:space="preserve" text-anchor="middle" x="911.75" y="-401.39" font-family="Times New Roman,serif" font-size="14.00">badīt</text>
</g>
<!-- best -->
<g id="node4" class="node">
<title>best</title>
<ellipse fill="white" stroke="black" stroke-width="0" cx="813.53" cy="-745.35" rx="27" ry="18"/>
<text xml:space="preserve" text-anchor="middle" x="813.53" y="-740.3" font-family="Times New Roman,serif" font-size="14.00">best</text>
</g>
<!-- badīties -->
<g id="node5" class="node">
<title>badīties</title>
<ellipse fill="white" stroke="black" stroke-width="0" cx="926.75" cy="-184.71" rx="39.58" ry="18"/>
<text xml:space="preserve" text-anchor="middle" x="926.75" y="-179.66" font-family="Times New Roman,serif" font-size="14.00">badīties</text>
</g>
<!-- iebadīt -->
<g id="node6" class="node">
<title>iebadīt</title>
<ellipse fill="white" stroke="black" stroke-width="0" cx="1003.89" cy="-287.86" rx="36" ry="18"/>
<text xml:space="preserve" text-anchor="middle" x="1003.89" y="-282.81" font-family="Times New Roman,serif" font-size="14.00">iebadīt</text>
</g>
<!-- iebadīties -->
<g id="node7" class="node">
<title>iebadīties</title>
<ellipse fill="white" stroke="black" stroke-width="0" cx="1056.72" cy="-149.45" rx="46.23" ry="18"/>
<text xml:space="preserve" text-anchor="middle" x="1056.72" y="-144.4" font-family="Times New Roman,serif" font-size="14.00">iebadīties</text>
</g>
<!-- izbadīt -->
<g id="node8" class="node">
<title>izbadīt</title>
<ellipse fill="white" stroke="black" stroke-width="0" cx="826.15" cy="-244.99" rx="36" ry="18"/>
<text xml:space="preserve" text-anchor="middle" x="826.15" y="-239.94" font-family="Times New Roman,serif" font-size="14.00">izbadīt</text>
</g>
<!-- nobadīt -->
<g id="node9" class="node">
<title>nobadīt</title>
<ellipse fill="white" stroke="black" stroke-width="0" cx="723.61" cy="-287.4" rx="38.56" ry="18"/>
<text xml:space="preserve" text-anchor="middle" x="723.61" y="-282.35" font-family="Times New Roman,serif" font-size="14.00">nobadīt</text>
</g>
<!-- pabadīt -->
<g id="node10" class="node">
<title>pabadīt</title>
<ellipse fill="white" stroke="black" stroke-width="0" cx="1106.2" cy="-461.09" rx="38.04" ry="18"/>
<text xml:space="preserve" text-anchor="middle" x="1106.2" y="-456.04" font-family="Times New Roman,serif" font-size="14.00">pabadīt</text>
</g>
<!-- sabadīt -->
<g id="node11" class="node">
<title>sabadīt</title>
<ellipse fill="white" stroke="black" stroke-width="0" cx="1128.85" cy="-318.09" rx="37.02" ry="18"/>
<text xml:space="preserve" text-anchor="middle" x="1128.85" y="-313.04" font-family="Times New Roman,serif" font-size="14.00">sabadīt</text>
</g>
<!-- apbedījums -->
<g id="node12" class="node">
<title>apbedījums</title>
<ellipse fill="white" stroke="black" stroke-width="0" cx="1281.99" cy="-570.57" rx="53.91" ry="18"/>
<text xml:space="preserve" text-anchor="middle" x="1281.99" y="-565.52" font-family="Times New Roman,serif" font-size="14.00">apbedījums</text>
</g>
<!-- apbedīt -->
<g id="node13" class="node">
<title>apbedīt</title>
<ellipse fill="white" stroke="black" stroke-width="0" cx="1197.96" cy="-833.6" rx="38.04" ry="18"/>
<text xml:space="preserve" text-anchor="middle" x="1197.96" y="-828.55" font-family="Times New Roman,serif" font-size="14.00">apbedīt</text>
</g>
<!-- apbedīšana -->
<g id="node14" class="node">
<title>apbedīšana</title>
<ellipse fill="white" stroke="black" stroke-width="0" cx="1351.42" cy="-861.11" rx="51.86" ry="18"/>
<text xml:space="preserve" text-anchor="middle" x="1351.42" y="-856.06" font-family="Times New Roman,serif" font-size="14.00">apbedīšana</text>
</g>
<!-- bedīt -->
<g id="node15" class="node">
<title>bedīt</title>
<ellipse fill="white" stroke="black" stroke-width="0" cx="997.79" cy="-926.54" rx="29.34" ry="18"/>
<text xml:space="preserve" text-anchor="middle" x="997.79" y="-921.49" font-family="Times New Roman,serif" font-size="14.00">bedīt</text>
</g>
<!-- apbedītājs -->
<g id="node16" class="node">
<title>apbedītājs</title>
<ellipse fill="white" stroke="black" stroke-width="0" cx="1267.85" cy="-746.23" rx="48.28" ry="18"/>
<text xml:space="preserve" text-anchor="middle" x="1267.85" y="-741.18" font-family="Times New Roman,serif" font-size="14.00">apbedītājs</text>
</g>
<!-- asinsbedre -->
<g id="node17" class="node">
<title>asinsbedre</title>
<ellipse fill="white" stroke="black" stroke-width="0" cx="375.29" cy="-766.45" rx="49.82" ry="18"/>
<text xml:space="preserve" text-anchor="middle" x="375.29" y="-761.4" font-family="Times New Roman,serif" font-size="14.00">asinsbedre</text>
</g>
<!-- asins -->
<g id="node18" class="node">
<title>asins</title>
<ellipse fill="white" stroke="black" stroke-width="0" cx="29.34" cy="-737.81" rx="29.34" ry="18"/>
<text xml:space="preserve" text-anchor="middle" x="29.34" y="-732.76" font-family="Times New Roman,serif" font-size="14.00" fill="gray">asins</text>
</g>
<!-- bedre -->
<g id="node19" class="node">
<title>bedre</title>
<ellipse fill="white" stroke="black" stroke-width="0" cx="585.36" cy="-689.25" rx="31.39" ry="18"/>
<text xml:space="preserve" text-anchor="middle" x="585.36" y="-684.2" font-family="Times New Roman,serif" font-size="14.00">bedre</text>
</g>
<!-- bedības -->
<g id="node20" class="node">
<title>bedības</title>
<ellipse fill="white" stroke="black" stroke-width="0" cx="906.07" cy="-1030.26" rx="39.07" ry="18"/>
<text xml:space="preserve" text-anchor="middle" x="906.07" y="-1025.21" font-family="Times New Roman,serif" font-size="14.00">bedības</text>
</g>
<!-- bedraini -->
<g id="node21" class="node">
<title>bedraini</title>
<ellipse fill="white" stroke="black" stroke-width="0" cx="427.35" cy="-547.05" rx="41.12" ry="18"/>
<text xml:space="preserve" text-anchor="middle" x="427.35" y="-542" font-family="Times New Roman,serif" font-size="14.00">bedraini</text>
</g>
<!-- bedrains -->
<g id="node22" class="node">
<title>bedrains</title>
<ellipse fill="white" stroke="black" stroke-width="0" cx="487.29" cy="-680.22" rx="42.14" ry="18"/>
<text xml:space="preserve" text-anchor="middle" x="487.29" y="-675.17" font-family="Times New Roman,serif" font-size="14.00">bedrains</text>
</g>
<!-- bedrele -->
<g id="node23" class="node">
<title>bedrele</title>
<ellipse fill="white" stroke="black" stroke-width="0" cx="637.44" cy="-875.96" rx="38.04" ry="18"/>
<text xml:space="preserve" text-anchor="middle" x="637.44" y="-870.91" font-family="Times New Roman,serif" font-size="14.00">bedrele</text>
</g>
<!-- bedrīte -->
<g id="node24" class="node">
<title>bedrīte</title>
<ellipse fill="white" stroke="black" stroke-width="0" cx="540.65" cy="-911.24" rx="36.51" ry="18"/>
<text xml:space="preserve" text-anchor="middle" x="540.65" y="-906.19" font-family="Times New Roman,serif" font-size="14.00">bedrīte</text>
</g>
<!-- būvbedre -->
<g id="node25" class="node">
<title>būvbedre</title>
<ellipse fill="white" stroke="black" stroke-width="0" cx="498.32" cy="-387.34" rx="45.21" ry="18"/>
<text xml:space="preserve" text-anchor="middle" x="498.32" y="-382.29" font-family="Times New Roman,serif" font-size="14.00">būvbedre</text>
</g>
<!-- būv -->
<g id="node26" class="node">
<title>būv</title>
<polygon fill="lightgray" stroke="black" stroke-width="0" points="313.67,-136.43 259.67,-136.43 259.67,-100.43 313.67,-100.43 313.67,-136.43"/>
<text xml:space="preserve" text-anchor="middle" x="286.67" y="-113.38" font-family="Times New Roman,serif" font-size="14.00">būv</text>
</g>
<!-- grantsbedre -->
<g id="node27" class="node">
<title>grantsbedre</title>
<ellipse fill="white" stroke="black" stroke-width="0" cx="557.81" cy="-477.72" rx="53.91" ry="18"/>
<text xml:space="preserve" text-anchor="middle" x="557.81" y="-472.67" font-family="Times New Roman,serif" font-size="14.00">grantsbedre</text>
</g>
<!-- grants -->
<g id="node28" class="node">
<title>grants</title>
<ellipse fill="white" stroke="black" stroke-width="0" cx="391.46" cy="-251.15" rx="33.44" ry="18"/>
<text xml:space="preserve" text-anchor="middle" x="391.46" y="-246.1" font-family="Times New Roman,serif" font-size="14.00" fill="gray">grants</text>
</g>
<!-- pārapbedīšana -->
<g id="node29" class="node">
<title>pārapbedīšana</title>
<ellipse fill="white" stroke="black" stroke-width="0" cx="1141.75" cy="-1089.23" rx="63.63" ry="18"/>
<text xml:space="preserve" text-anchor="middle" x="1141.75" y="-1084.18" font-family="Times New Roman,serif" font-size="14.00">pārapbedīšana</text>
</g>
<!-- pārapbedīt -->
<g id="node30" class="node">
<title>pārapbedīt</title>
<ellipse fill="white" stroke="black" stroke-width="0" cx="1220.54" cy="-993.17" rx="49.82" ry="18"/>
<text xml:space="preserve" text-anchor="middle" x="1220.54" y="-988.12" font-family="Times New Roman,serif" font-size="14.00">pārapbedīt</text>
</g>
<!-- pārbedīšana -->
<g id="node31" class="node">
<title>pārbedīšana</title>
<ellipse fill="white" stroke="black" stroke-width="0" cx="808.96" cy="-1139.33" rx="54.93" ry="18"/>
<text xml:space="preserve" text-anchor="middle" x="808.96" y="-1134.28" font-family="Times New Roman,serif" font-size="14.00">pārbedīšana</text>
</g>
<!-- pārbedīt -->
<g id="node32" class="node">
<title>pārbedīt</title>
<ellipse fill="white" stroke="black" stroke-width="0" cx="968.45" cy="-1119.07" rx="41.12" ry="18"/>
<text xml:space="preserve" text-anchor="middle" x="968.45" y="-1114.02" font-family="Times New Roman,serif" font-size="14.00">pārbedīt</text>
</g>
<!-- skeletapbedījums -->
<g id="node33" class="node">
<title>skeletapbedījums</title>
<ellipse fill="white" stroke="black" stroke-width="0" cx="1337.28" cy="-318.9" rx="75.41" ry="18"/>
<text xml:space="preserve" text-anchor="middle" x="1337.28" y="-313.85" font-family="Times New Roman,serif" font-size="14.00">skeletapbedījums</text>
</g>
<!-- skelets -->
<g id="node34" class="node">
<title>skelets</title>
<ellipse fill="white" stroke="black" stroke-width="0" cx="1507.36" cy="-18" rx="36" ry="18"/>
<text xml:space="preserve" text-anchor="middle" x="1507.36" y="-12.95" font-family="Times New Roman,serif" font-size="14.00" fill="gray">skelets</text>
</g>
<!-- virsapbedījums -->
<g id="node35" class="node">
<title>virsapbedījums</title>
<ellipse fill="white" stroke="black" stroke-width="0" cx="1411.63" cy="-538.42" rx="67.73" ry="18"/>
<text xml:space="preserve" text-anchor="middle" x="1411.63" y="-533.37" font-family="Times New Roman,serif" font-size="14.00">virsapbedījums</text>
</g>
<!-- virsū -->
<g id="node36" class="node">
<title>virsū</title>
<ellipse fill="white" stroke="black" stroke-width="0" cx="1635.91" cy="-532.75" rx="29.34" ry="18"/>
<text xml:space="preserve" text-anchor="middle" x="1635.91" y="-527.7" font-family="Times New Roman,serif" font-size="14.00" fill="gray">virsū</text>
</g>
<!-- virsapbedīšana -->
<g id="node37" class="node">
<title>virsapbedīšana</title>
<ellipse fill="white" stroke="black" stroke-width="0" cx="1440.59" cy="-705.69" rx="65.68" ry="18"/>
<text xml:space="preserve" text-anchor="middle" x="1440.59" y="-700.64" font-family="Times New Roman,serif" font-size="14.00">virsapbedīšana</text>
</g>
<!-- apbest -->
<g id="node38" class="node">
<title>apbest</title>
<ellipse fill="white" stroke="black" stroke-width="0" cx="756.2" cy="-957.72" rx="34.46" ry="18"/>
<text xml:space="preserve" text-anchor="middle" x="756.2" y="-952.67" font-family="Times New Roman,serif" font-size="14.00">apbest</text>
</g>
</g>
</svg>
