<?xml version="1.0" encoding="UTF-8" standalone="no"?>
<!DOCTYPE svg PUBLIC "-//W3C//DTD SVG 1.1//EN"
 "http://www.w3.org/Graphics/SVG/1.1/DTD/svg11.dtd">
<!-- Generated by graphviz version 13.1.2 (20250808.2320)
 -->
<!-- Pages: 1 -->
<svg width="1660pt" height="1757pt"
 viewBox="0.00 0.00 1660.00 1757.00" xmlns="http://www.w3.org/2000/svg" xmlns:xlink="http://www.w3.org/1999/xlink">
<g id="graph0" class="graph" transform="scale(1 1) rotate(0) translate(4 1753.21)">
<polygon fill="white" stroke="none" points="-4,4 -4,-1753.21 1656.14,-1753.21 1656.14,4 -4,4"/>
<!-- # bad, bed, bes&#45;&gt;apbadīt___bad__bed__bes -->
<g id="edge1" class="edge">
<title># bad, bed, bes&#45;&gt;apbadīt___bad__bed__bes</title>
<path fill="none" stroke="#cccccc" d="M553.05,-789.52C480.5,-737.39 269.56,-585.81 202.3,-537.48"/>
</g>
<!-- # bad, bed, bes&#45;&gt;badīt___bad__bed__bes -->
<g id="edge2" class="edge">
<title># bad, bed, bes&#45;&gt;badīt___bad__bed__bes</title>
<path fill="none" stroke="#cccccc" d="M534.19,-804.34C458.03,-799.12 302.9,-788.48 238.68,-784.08"/>
</g>
<!-- # bad, bed, bes&#45;&gt;badīties___bad__bed__bes -->
<g id="edge3" class="edge">
<title># bad, bed, bes&#45;&gt;badīties___bad__bed__bes</title>
<path fill="none" stroke="#cccccc" d="M553.58,-825.27C482.01,-878.14 272.66,-1032.83 205.89,-1082.17"/>
</g>
<!-- # bad, bed, bes&#45;&gt;iebadīt___bad__bed__bes -->
<g id="edge4" class="edge">
<title># bad, bed, bes&#45;&gt;iebadīt___bad__bed__bes</title>
<path fill="none" stroke="#cccccc" d="M533.97,-811.67C429.28,-822.01 166.56,-847.95 71.24,-857.36"/>
</g>
<!-- # bad, bed, bes&#45;&gt;iebadīties___bad__bed__bes -->
<g id="edge5" class="edge">
<title># bad, bed, bes&#45;&gt;iebadīties___bad__bed__bes</title>
<path fill="none" stroke="#cccccc" d="M565.15,-825.2C514.89,-895.88 330.33,-1155.46 280.8,-1225.12"/>
</g>
<!-- # bad, bed, bes&#45;&gt;izbadīt___bad__bed__bes -->
<g id="edge6" class="edge">
<title># bad, bed, bes&#45;&gt;izbadīt___bad__bed__bes</title>
<path fill="none" stroke="#cccccc" d="M534.01,-800.93C430.06,-785.73 170.32,-747.77 76.57,-734.07"/>
</g>
<!-- # bad, bed, bes&#45;&gt;nobadīt___bad__bed__bes -->
<g id="edge7" class="edge">
<title># bad, bed, bes&#45;&gt;nobadīt___bad__bed__bes</title>
<path fill="none" stroke="#cccccc" d="M535.13,-789.42C436.2,-747.94 193.49,-646.15 110.34,-611.28"/>
</g>
<!-- # bad, bed, bes&#45;&gt;pabadīt___bad__bed__bes -->
<g id="edge8" class="edge">
<title># bad, bed, bes&#45;&gt;pabadīt___bad__bed__bes</title>
<path fill="none" stroke="#cccccc" d="M533.89,-822.68C435.02,-857.2 197.22,-940.22 112.8,-969.69"/>
</g>
<!-- # bad, bed, bes&#45;&gt;sabadīt___bad__bed__bes -->
<g id="edge9" class="edge">
<title># bad, bed, bes&#45;&gt;sabadīt___bad__bed__bes</title>
<path fill="none" stroke="#cccccc" d="M546.45,-825.17C481.3,-862.18 332.66,-946.61 274.43,-979.69"/>
</g>
<!-- # bad, bed, bes&#45;&gt;apbedījums___bad__bed__bes -->
<g id="edge10" class="edge">
<title># bad, bed, bes&#45;&gt;apbedījums___bad__bed__bes</title>
<path fill="none" stroke="#cccccc" d="M589.99,-825.15C632.22,-887.14 772.44,-1092.95 814.19,-1154.22"/>
</g>
<!-- # bad, bed, bes&#45;&gt;apbedīšana___bad__bed__bes -->
<g id="edge11" class="edge">
<title># bad, bed, bes&#45;&gt;apbedīšana___bad__bed__bes</title>
<path fill="none" stroke="#cccccc" d="M574.79,-825.07C562.87,-894.27 519.56,-1145.62 507.62,-1214.95"/>
</g>
<!-- # bad, bed, bes&#45;&gt;apbedīt___bad__bed__bes -->
<g id="edge12" class="edge">
<title># bad, bed, bes&#45;&gt;apbedīt___bad__bed__bes</title>
<path fill="none" stroke="#cccccc" d="M579.67,-825.02C583.63,-863.47 592.97,-954.31 596.94,-992.86"/>
</g>
<!-- # bad, bed, bes&#45;&gt;apbedītājs___bad__bed__bes -->
<g id="edge13" class="edge">
<title># bad, bed, bes&#45;&gt;apbedītājs___bad__bed__bes</title>
<path fill="none" stroke="#cccccc" d="M583.23,-825.3C601,-884.61 657.66,-1073.68 675.35,-1132.72"/>
</g>
<!-- # bad, bed, bes&#45;&gt;asinsbedre___bad__bed__bes -->
<g id="edge14" class="edge">
<title># bad, bed, bes&#45;&gt;asinsbedre___bad__bed__bes</title>
<path fill="none" stroke="#cccccc" d="M596.06,-789.51C671.6,-715.55 959.79,-433.4 1032.84,-361.89"/>
</g>
<!-- # bad, bed, bes&#45;&gt;bedības___bad__bed__bes -->
<g id="edge15" class="edge">
<title># bad, bed, bes&#45;&gt;bedības___bad__bed__bes</title>
<path fill="none" stroke="#cccccc" d="M576.05,-789.43C569.4,-723.22 546.25,-492.66 539.62,-426.54"/>
</g>
<!-- # bad, bed, bes&#45;&gt;bedīt___bad__bed__bes -->
<g id="edge16" class="edge">
<title># bad, bed, bes&#45;&gt;bedīt___bad__bed__bes</title>
<path fill="none" stroke="#cccccc" d="M569.66,-789.35C555.04,-757.24 524.66,-690.51 510.38,-659.14"/>
</g>
<!-- # bad, bed, bes&#45;&gt;bedraini___bad__bed__bes -->
<g id="edge17" class="edge">
<title># bad, bed, bes&#45;&gt;bedraini___bad__bed__bes</title>
<path fill="none" stroke="#cccccc" d="M621.49,-816.98C707.9,-836.08 899.36,-878.39 979.67,-896.13"/>
</g>
<!-- # bad, bed, bes&#45;&gt;bedrains___bad__bed__bes -->
<g id="edge18" class="edge">
<title># bad, bed, bes&#45;&gt;bedrains___bad__bed__bes</title>
<path fill="none" stroke="#cccccc" d="M621.85,-793.47C709.37,-765.87 903.62,-704.63 982.02,-679.92"/>
</g>
<!-- # bad, bed, bes&#45;&gt;bedre___bad__bed__bes -->
<g id="edge19" class="edge">
<title># bad, bed, bes&#45;&gt;bedre___bad__bed__bes</title>
<path fill="none" stroke="#cccccc" d="M605.91,-789.51C674.06,-746.22 847.12,-636.3 907.11,-598.19"/>
</g>
<!-- # bad, bed, bes&#45;&gt;bedrele___bad__bed__bes -->
<g id="edge20" class="edge">
<title># bad, bed, bes&#45;&gt;bedrele___bad__bed__bes</title>
<path fill="none" stroke="#cccccc" d="M592.71,-789.75C641.04,-732.54 793.35,-552.27 840.34,-496.66"/>
</g>
<!-- # bad, bed, bes&#45;&gt;bedrīte___bad__bed__bes -->
<g id="edge21" class="edge">
<title># bad, bed, bes&#45;&gt;bedrīte___bad__bed__bes</title>
<path fill="none" stroke="#cccccc" d="M587.07,-789.43C623.54,-718.62 757.48,-458.52 793.42,-388.73"/>
</g>
<!-- # bad, bed, bes&#45;&gt;best___bad__bed__bes -->
<g id="edge22" class="edge">
<title># bad, bed, bes&#45;&gt;best___bad__bed__bes</title>
<path fill="none" stroke="#cccccc" d="M578.25,-789.54C579.31,-743.07 582.14,-618.48 583.2,-572.04"/>
</g>
<!-- # bad, bed, bes&#45;&gt;būvbedre___bad__bed__bes -->
<g id="edge23" class="edge">
<title># bad, bed, bes&#45;&gt;būvbedre___bad__bed__bes</title>
<path fill="none" stroke="#cccccc" d="M621.45,-810.02C732.9,-816.88 1027.31,-834.99 1139.66,-841.91"/>
</g>
<!-- # bad, bed, bes&#45;&gt;grantsbedre___bad__bed__bes -->
<g id="edge24" class="edge">
<title># bad, bed, bes&#45;&gt;grantsbedre___bad__bed__bes</title>
<path fill="none" stroke="#cccccc" d="M621.83,-799.64C721.59,-782.17 964.4,-739.67 1067.58,-721.61"/>
</g>
<!-- # bad, bed, bes&#45;&gt;pārapbedīšana___bad__bed__bes -->
<g id="edge25" class="edge">
<title># bad, bed, bes&#45;&gt;pārapbedīšana___bad__bed__bes</title>
<path fill="none" stroke="#cccccc" d="M538.2,-789.35C484.28,-764.9 388.8,-721.59 338.42,-698.74"/>
</g>
<!-- # bad, bed, bes&#45;&gt;pārapbedīt___bad__bed__bes -->
<g id="edge26" class="edge">
<title># bad, bed, bes&#45;&gt;pārapbedīt___bad__bed__bes</title>
<path fill="none" stroke="#cccccc" d="M548.58,-825.19C515.41,-845.42 461.9,-878.07 430.52,-897.21"/>
</g>
<!-- # bad, bed, bes&#45;&gt;pārbedīšana___bad__bed__bes -->
<g id="edge27" class="edge">
<title># bad, bed, bes&#45;&gt;pārbedīšana___bad__bed__bes</title>
<path fill="none" stroke="#cccccc" d="M568.73,-789.58C528.45,-711.09 366.63,-395.79 326.5,-317.59"/>
</g>
<!-- # bad, bed, bes&#45;&gt;pārbedīt___bad__bed__bes -->
<g id="edge28" class="edge">
<title># bad, bed, bes&#45;&gt;pārbedīt___bad__bed__bes</title>
<path fill="none" stroke="#cccccc" d="M567.69,-789.37C531.55,-725.45 409.47,-509.52 374.02,-446.83"/>
</g>
<!-- # bad, bed, bes&#45;&gt;skeletapbedījums___bad__bed__bes -->
<g id="edge29" class="edge">
<title># bad, bed, bes&#45;&gt;skeletapbedījums___bad__bed__bes</title>
<path fill="none" stroke="#cccccc" d="M595.06,-825.22C666.3,-899.25 937.61,-1181.18 1007.39,-1253.7"/>
</g>
<!-- # bad, bed, bes&#45;&gt;virsapbedījums___bad__bed__bes -->
<g id="edge30" class="edge">
<title># bad, bed, bes&#45;&gt;virsapbedījums___bad__bed__bes</title>
<path fill="none" stroke="#cccccc" d="M582.97,-825.24C607.23,-910.11 710.53,-1271.39 734.8,-1356.27"/>
</g>
<!-- # bad, bed, bes&#45;&gt;virsapbedīšana___bad__bed__bes -->
<g id="edge31" class="edge">
<title># bad, bed, bes&#45;&gt;virsapbedīšana___bad__bed__bes</title>
<path fill="none" stroke="#cccccc" d="M577.63,-825.33C576.54,-913.85 571.78,-1302.36 570.69,-1390.72"/>
</g>
<!-- # bad, bed, bes&#45;&gt;apbest___bad__bed__bes -->
<g id="edge32" class="edge">
<title># bad, bed, bes&#45;&gt;apbest___bad__bed__bes</title>
<path fill="none" stroke="#cccccc" d="M578.43,-789.51C581.02,-710.82 591.39,-394.97 593.99,-316.04"/>
</g>
<!-- badīt___bad__bed__bes&#45;&gt;apbadīt___bad__bed__bes -->
<g id="edge33" class="edge">
<title>badīt___bad__bed__bes&#45;&gt;apbadīt___bad__bed__bes</title>
<path fill="none" stroke="green" d="M207.89,-764.25C203.06,-720.16 190.54,-605.73 184.62,-551.63"/>
<polygon fill="green" stroke="green" points="188.13,-551.51 183.56,-541.95 181.17,-552.28 188.13,-551.51"/>
</g>
<!-- badīt___bad__bed__bes&#45;&gt;badīties___bad__bed__bes -->
<g id="edge35" class="edge">
<title>badīt___bad__bed__bes&#45;&gt;badīties___bad__bed__bes</title>
<path fill="none" stroke="green" d="M208.44,-799.96C204.36,-852.11 192.44,-1004.51 187.43,-1068.57"/>
<polygon fill="green" stroke="green" points="183.96,-1068.06 186.67,-1078.3 190.94,-1068.6 183.96,-1068.06"/>
</g>
<!-- badīt___bad__bed__bes&#45;&gt;iebadīt___bad__bed__bes -->
<g id="edge36" class="edge">
<title>badīt___bad__bed__bes&#45;&gt;iebadīt___bad__bed__bes</title>
<path fill="none" stroke="green" d="M186.39,-792.72C157.17,-805.96 106.88,-828.73 72.57,-844.28"/>
<polygon fill="green" stroke="green" points="71.52,-840.91 63.86,-848.22 74.41,-847.29 71.52,-840.91"/>
</g>
<!-- badīt___bad__bed__bes&#45;&gt;izbadīt___bad__bed__bes -->
<g id="edge38" class="edge">
<title>badīt___bad__bed__bes&#45;&gt;izbadīt___bad__bed__bes</title>
<path fill="none" stroke="green" d="M184,-773.92C157.13,-765.42 114.66,-751.98 83.18,-742.02"/>
<polygon fill="green" stroke="green" points="84.59,-738.8 74,-739.12 82.47,-745.47 84.59,-738.8"/>
</g>
<!-- badīt___bad__bed__bes&#45;&gt;nobadīt___bad__bed__bes -->
<g id="edge39" class="edge">
<title>badīt___bad__bed__bes&#45;&gt;nobadīt___bad__bed__bes</title>
<path fill="none" stroke="green" d="M198.48,-765.88C176.26,-734.15 126.87,-663.62 100.04,-625.31"/>
<polygon fill="green" stroke="green" points="103.21,-623.73 94.61,-617.55 97.48,-627.75 103.21,-623.73"/>
</g>
<!-- badīt___bad__bed__bes&#45;&gt;pabadīt___bad__bed__bes -->
<g id="edge40" class="edge">
<title>badīt___bad__bed__bes&#45;&gt;pabadīt___bad__bed__bes</title>
<path fill="none" stroke="green" d="M199.2,-798.65C177.15,-832.95 126.34,-912.01 99.6,-953.6"/>
<polygon fill="green" stroke="green" points="96.79,-951.5 94.33,-961.8 102.68,-955.28 96.79,-951.5"/>
</g>
<!-- badīt___bad__bed__bes&#45;&gt;sabadīt___bad__bed__bes -->
<g id="edge41" class="edge">
<title>badīt___bad__bed__bes&#45;&gt;sabadīt___bad__bed__bes</title>
<path fill="none" stroke="green" d="M213.23,-799.74C220.22,-836.17 236.32,-919.97 244.85,-964.42"/>
<polygon fill="green" stroke="green" points="241.39,-964.94 246.71,-974.11 248.26,-963.62 241.39,-964.94"/>
</g>
<!-- badīties___bad__bed__bes&#45;&gt;iebadīties___bad__bed__bes -->
<g id="edge37" class="edge">
<title>badīties___bad__bed__bes&#45;&gt;iebadīties___bad__bed__bes</title>
<path fill="none" stroke="green" d="M195.06,-1114.67C209.4,-1139.62 236.12,-1186.11 253.08,-1215.59"/>
<polygon fill="green" stroke="green" points="249.85,-1217.01 257.87,-1223.94 255.92,-1213.52 249.85,-1217.01"/>
</g>
<!-- apbedījums___bad__bed__bes&#45;&gt;skeletapbedījums___bad__bed__bes -->
<g id="edge64" class="edge">
<title>apbedījums___bad__bed__bes&#45;&gt;skeletapbedījums___bad__bed__bes</title>
<path fill="none" stroke="blue" d="M855.63,-1186.43C889.03,-1203.18 943.61,-1230.56 981.5,-1249.56"/>
<polygon fill="blue" stroke="blue" points="979.86,-1252.65 990.37,-1254.01 983,-1246.39 979.86,-1252.65"/>
</g>
<!-- apbedījums___bad__bed__bes&#45;&gt;virsapbedījums___bad__bed__bes -->
<g id="edge66" class="edge">
<title>apbedījums___bad__bed__bes&#45;&gt;virsapbedījums___bad__bed__bes</title>
<path fill="none" stroke="blue" d="M818.52,-1189.2C803.58,-1224.37 769.94,-1303.54 751.89,-1346"/>
<polygon fill="blue" stroke="blue" points="748.74,-1344.48 748.05,-1355.06 755.18,-1347.22 748.74,-1344.48"/>
</g>
<!-- apbedīšana___bad__bed__bes&#45;&gt;virsapbedīšana___bad__bed__bes -->
<g id="edge68" class="edge">
<title>apbedīšana___bad__bed__bes&#45;&gt;virsapbedīšana___bad__bed__bes</title>
<path fill="none" stroke="blue" d="M511.23,-1250.59C522.68,-1281.14 546.14,-1343.73 559.85,-1380.31"/>
<polygon fill="blue" stroke="blue" points="556.45,-1381.22 563.24,-1389.35 563.01,-1378.76 556.45,-1381.22"/>
</g>
<!-- apbedīt___bad__bed__bes&#45;&gt;apbedījums___bad__bed__bes -->
<g id="edge42" class="edge">
<title>apbedīt___bad__bed__bes&#45;&gt;apbedījums___bad__bed__bes</title>
<path fill="none" stroke="green" d="M619.74,-1025.5C659.62,-1053.74 746.63,-1115.36 793.9,-1148.83"/>
<polygon fill="green" stroke="green" points="791.66,-1151.53 801.84,-1154.46 795.7,-1145.82 791.66,-1151.53"/>
</g>
<!-- apbedīt___bad__bed__bes&#45;&gt;apbedīšana___bad__bed__bes -->
<g id="edge43" class="edge">
<title>apbedīt___bad__bed__bes&#45;&gt;apbedīšana___bad__bed__bes</title>
<path fill="none" stroke="green" d="M591.38,-1028.08C575.15,-1066.34 536.27,-1157.98 516.51,-1204.56"/>
<polygon fill="green" stroke="green" points="513.31,-1203.14 512.63,-1213.71 519.76,-1205.87 513.31,-1203.14"/>
</g>
<!-- apbedīt___bad__bed__bes&#45;&gt;apbedītājs___bad__bed__bes -->
<g id="edge45" class="edge">
<title>apbedīt___bad__bed__bes&#45;&gt;apbedītājs___bad__bed__bes</title>
<path fill="none" stroke="green" d="M608.81,-1027.8C622.82,-1051.71 648.34,-1095.29 664.9,-1123.56"/>
<polygon fill="green" stroke="green" points="661.72,-1125.06 669.79,-1131.92 667.76,-1121.52 661.72,-1125.06"/>
</g>
<!-- apbedīt___bad__bed__bes&#45;&gt;pārapbedīt___bad__bed__bes -->
<g id="edge60" class="edge">
<title>apbedīt___bad__bed__bes&#45;&gt;pārapbedīt___bad__bed__bes</title>
<path fill="none" stroke="green" d="M573.08,-997.63C539.97,-980.84 482.09,-951.5 443.74,-932.06"/>
<polygon fill="green" stroke="green" points="445.81,-929.18 435.3,-927.78 442.64,-935.42 445.81,-929.18"/>
</g>
<!-- bedīt___bad__bed__bes&#45;&gt;apbedīt___bad__bed__bes -->
<g id="edge44" class="edge">
<title>bedīt___bad__bed__bes&#45;&gt;apbedīt___bad__bed__bes</title>
<path fill="none" stroke="green" d="M507.29,-659.94C522.71,-719.04 572.35,-909.35 591.31,-982.05"/>
<polygon fill="green" stroke="green" points="587.89,-982.8 593.8,-991.59 594.66,-981.03 587.89,-982.8"/>
</g>
<!-- bedīt___bad__bed__bes&#45;&gt;bedības___bad__bed__bes -->
<g id="edge48" class="edge">
<title>bedīt___bad__bed__bes&#45;&gt;bedības___bad__bed__bes</title>
<path fill="none" stroke="green" d="M505.3,-624.62C511.31,-584.73 526.04,-486.91 533.44,-437.81"/>
<polygon fill="green" stroke="green" points="536.9,-438.34 534.92,-427.93 529.97,-437.3 536.9,-438.34"/>
</g>
<!-- bedīt___bad__bed__bes&#45;&gt;pārbedīt___bad__bed__bes -->
<g id="edge62" class="edge">
<title>bedīt___bad__bed__bes&#45;&gt;pārbedīt___bad__bed__bes</title>
<path fill="none" stroke="green" d="M491.8,-625.49C467.92,-588.81 410.68,-500.87 381.71,-456.38"/>
<polygon fill="green" stroke="green" points="384.7,-454.56 376.31,-448.09 378.84,-458.38 384.7,-454.56"/>
</g>
<!-- bedrains___bad__bed__bes&#45;&gt;bedraini___bad__bed__bes -->
<g id="edge50" class="edge">
<title>bedrains___bad__bed__bes&#45;&gt;bedraini___bad__bed__bes</title>
<path fill="none" stroke="green" d="M1015.84,-686.93C1015.91,-727.07 1016.09,-825.49 1016.19,-874.91"/>
<polygon fill="green" stroke="green" points="1012.69,-874.84 1016.2,-884.84 1019.69,-874.83 1012.69,-874.84"/>
</g>
<!-- bedre___bad__bed__bes&#45;&gt;asinsbedre___bad__bed__bes -->
<g id="edge47" class="edge">
<title>bedre___bad__bed__bes&#45;&gt;asinsbedre___bad__bed__bes</title>
<path fill="none" stroke="blue" d="M936.73,-567.71C957.61,-526.63 1010.47,-422.62 1035.79,-372.78"/>
<polygon fill="blue" stroke="blue" points="1038.8,-374.58 1040.22,-364.08 1032.56,-371.41 1038.8,-374.58"/>
</g>
<!-- bedre___bad__bed__bes&#45;&gt;bedrains___bad__bed__bes -->
<g id="edge51" class="edge">
<title>bedre___bad__bed__bes&#45;&gt;bedrains___bad__bed__bes</title>
<path fill="none" stroke="green" d="M943.67,-600.02C956.75,-612.57 975.61,-630.67 990.76,-645.22"/>
<polygon fill="green" stroke="green" points="988.01,-647.43 997.65,-651.84 992.86,-642.38 988.01,-647.43"/>
</g>
<!-- bedre___bad__bed__bes&#45;&gt;bedrele___bad__bed__bes -->
<g id="edge53" class="edge">
<title>bedre___bad__bed__bes&#45;&gt;bedrele___bad__bed__bes</title>
<path fill="none" stroke="green" d="M916.45,-568.57C904.75,-551.93 886.43,-525.89 872.71,-506.37"/>
<polygon fill="green" stroke="green" points="875.68,-504.52 867.07,-498.35 869.96,-508.54 875.68,-504.52"/>
</g>
<!-- bedre___bad__bed__bes&#45;&gt;bedrīte___bad__bed__bes -->
<g id="edge54" class="edge">
<title>bedre___bad__bed__bes&#45;&gt;bedrīte___bad__bed__bes</title>
<path fill="none" stroke="green" d="M918.11,-568.19C896.48,-531.41 844.67,-443.35 818.32,-398.56"/>
<polygon fill="green" stroke="green" points="821.36,-396.81 813.27,-389.97 815.33,-400.36 821.36,-396.81"/>
</g>
<!-- bedre___bad__bed__bes&#45;&gt;būvbedre___bad__bed__bes -->
<g id="edge56" class="edge">
<title>bedre___bad__bed__bes&#45;&gt;būvbedre___bad__bed__bes</title>
<path fill="none" stroke="orange" d="M943.22,-600.41C985.97,-643.75 1107.19,-766.66 1159.52,-819.73"/>
<polygon fill="orange" stroke="orange" points="1157.02,-822.18 1166.54,-826.85 1162.01,-817.27 1157.02,-822.18"/>
</g>
<!-- bedre___bad__bed__bes&#45;&gt;grantsbedre___bad__bed__bes -->
<g id="edge58" class="edge">
<title>bedre___bad__bed__bes&#45;&gt;grantsbedre___bad__bed__bes</title>
<path fill="none" stroke="blue" d="M948.01,-598.68C980.19,-620.73 1043.71,-664.26 1082.53,-690.86"/>
<polygon fill="blue" stroke="blue" points="1080.36,-693.61 1090.59,-696.38 1084.32,-687.84 1080.36,-693.61"/>
</g>
<!-- best___bad__bed__bes&#45;&gt;badīt___bad__bed__bes -->
<g id="edge34" class="edge">
<title>best___bad__bed__bes&#45;&gt;badīt___bad__bed__bes</title>
<path fill="none" stroke="green" d="M563.77,-566.35C502.22,-603.87 314.17,-718.5 240.19,-763.59"/>
<polygon fill="green" stroke="green" points="238.55,-760.5 231.83,-768.69 242.19,-766.48 238.55,-760.5"/>
</g>
<!-- best___bad__bed__bes&#45;&gt;bedīt___bad__bed__bes -->
<g id="edge49" class="edge">
<title>best___bad__bed__bes&#45;&gt;bedīt___bad__bed__bes</title>
<path fill="none" stroke="green" d="M569.5,-569.57C557.04,-583.1 538.68,-603.05 524.35,-618.61"/>
<polygon fill="green" stroke="green" points="522.09,-615.9 517.89,-625.62 527.24,-620.64 522.09,-615.9"/>
</g>
<!-- best___bad__bed__bes&#45;&gt;bedre___bad__bed__bes -->
<g id="edge52" class="edge">
<title>best___bad__bed__bes&#45;&gt;bedre___bad__bed__bes</title>
<path fill="none" stroke="green" d="M610.34,-556.64C669.92,-561.95 813.98,-574.79 885.8,-581.19"/>
<polygon fill="green" stroke="green" points="885.32,-584.66 895.59,-582.06 885.94,-577.69 885.32,-584.66"/>
</g>
<!-- best___bad__bed__bes&#45;&gt;apbest___bad__bed__bes -->
<g id="edge69" class="edge">
<title>best___bad__bed__bes&#45;&gt;apbest___bad__bed__bes</title>
<path fill="none" stroke="green" d="M584.36,-536.65C586.22,-493.24 591.04,-380.71 593.33,-327.2"/>
<polygon fill="green" stroke="green" points="596.82,-327.48 593.75,-317.34 589.83,-327.18 596.82,-327.48"/>
</g>
<!-- pārapbedīt___bad__bed__bes&#45;&gt;pārapbedīšana___bad__bed__bes -->
<g id="edge59" class="edge">
<title>pārapbedīt___bad__bed__bes&#45;&gt;pārapbedīšana___bad__bed__bes</title>
<path fill="none" stroke="green" d="M397.63,-895C380.37,-855.55 338.43,-759.7 317.48,-711.83"/>
<polygon fill="green" stroke="green" points="320.69,-710.44 313.48,-702.68 314.28,-713.24 320.69,-710.44"/>
</g>
<!-- pārbedīt___bad__bed__bes&#45;&gt;pārbedīšana___bad__bed__bes -->
<g id="edge61" class="edge">
<title>pārbedīt___bad__bed__bes&#45;&gt;pārbedīšana___bad__bed__bes</title>
<path fill="none" stroke="green" d="M357.88,-411.87C350.11,-390.34 336.9,-353.78 327.7,-328.33"/>
<polygon fill="green" stroke="green" points="331,-327.16 324.31,-318.94 324.42,-329.54 331,-327.16"/>
</g>
<!-- asins&#45;&gt;asinsbedre___bad__bed__bes -->
<g id="edge46" class="edge">
<title>asins&#45;&gt;asinsbedre___bad__bed__bes</title>
<path fill="none" stroke="blue" d="M1368.58,-32.92C1315.81,-84.62 1140.37,-256.54 1074.77,-320.81"/>
<polygon fill="blue" stroke="blue" points="1072.4,-318.23 1067.71,-327.73 1077.3,-323.23 1072.4,-318.23"/>
</g>
<!-- būv&#45;&gt;būvbedre___bad__bed__bes -->
<g id="edge55" class="edge">
<title>būv&#45;&gt;būvbedre___bad__bed__bes</title>
<path fill="none" stroke="orange" d="M1598.21,-951.91C1525.77,-933.15 1325.92,-881.38 1232.9,-857.28"/>
<polygon fill="orange" stroke="orange" points="1233.85,-853.92 1223.3,-854.8 1232.1,-860.69 1233.85,-853.92"/>
</g>
<!-- grants&#45;&gt;grantsbedre___bad__bed__bes -->
<g id="edge57" class="edge">
<title>grants&#45;&gt;grantsbedre___bad__bed__bes</title>
<path fill="none" stroke="blue" d="M1468.16,-638.33C1403.53,-652.05 1253.88,-683.83 1171.73,-701.27"/>
<polygon fill="blue" stroke="blue" points="1171.14,-697.82 1162.09,-703.32 1172.59,-704.67 1171.14,-697.82"/>
</g>
<!-- skelets&#45;&gt;skeletapbedījums___bad__bed__bes -->
<g id="edge63" class="edge">
<title>skelets&#45;&gt;skeletapbedījums___bad__bed__bes</title>
<path fill="none" stroke="blue" d="M1329.81,-1577.48C1277.72,-1525.27 1112.42,-1359.59 1048.97,-1295.99"/>
<polygon fill="blue" stroke="blue" points="1051.67,-1293.74 1042.13,-1289.13 1046.72,-1298.68 1051.67,-1293.74"/>
</g>
<!-- virsū&#45;&gt;virsapbedījums___bad__bed__bes -->
<g id="edge65" class="edge">
<title>virsū&#45;&gt;virsapbedījums___bad__bed__bes</title>
<path fill="none" stroke="blue" d="M723.24,-1713.5C726.07,-1656.04 735,-1474.37 738.5,-1403.19"/>
<polygon fill="blue" stroke="blue" points="741.98,-1403.66 738.97,-1393.5 734.99,-1403.32 741.98,-1403.66"/>
</g>
<!-- virsū&#45;&gt;virsapbedīšana___bad__bed__bes -->
<g id="edge67" class="edge">
<title>virsū&#45;&gt;virsapbedīšana___bad__bed__bes</title>
<path fill="none" stroke="blue" d="M714.42,-1714.32C689.72,-1661.87 614.17,-1501.44 583.56,-1436.44"/>
<polygon fill="blue" stroke="blue" points="586.79,-1435.08 579.36,-1427.52 580.46,-1438.06 586.79,-1435.08"/>
</g>
<!-- # bad, bed, bes -->
<g id="node1" class="node">
<title># bad, bed, bes</title>
<polygon fill="lightblue" stroke="black" stroke-width="0" points="621.85,-825.34 533.85,-825.34 533.85,-789.34 621.85,-789.34 621.85,-825.34"/>
<text xml:space="preserve" text-anchor="middle" x="577.85" y="-802.29" font-family="Times New Roman,serif" font-size="14.00">bad, bed, bes</text>
</g>
<!-- apbadīt___bad__bed__bes -->
<g id="node2" class="node">
<title>apbadīt___bad__bed__bes</title>
<ellipse fill="white" stroke="black" stroke-width="0" cx="181.43" cy="-522.48" rx="38.04" ry="18"/>
<text xml:space="preserve" text-anchor="middle" x="181.43" y="-517.43" font-family="Times New Roman,serif" font-size="14.00">apbadīt</text>
</g>
<!-- badīt___bad__bed__bes -->
<g id="node3" class="node">
<title>badīt___bad__bed__bes</title>
<ellipse fill="white" stroke="black" stroke-width="0" cx="209.84" cy="-782.1" rx="29.34" ry="18"/>
<text xml:space="preserve" text-anchor="middle" x="209.84" y="-777.05" font-family="Times New Roman,serif" font-size="14.00">badīt</text>
</g>
<!-- badīties___bad__bed__bes -->
<g id="node4" class="node">
<title>badīties___bad__bed__bes</title>
<ellipse fill="white" stroke="black" stroke-width="0" cx="185.17" cy="-1097.47" rx="39.58" ry="18"/>
<text xml:space="preserve" text-anchor="middle" x="185.17" y="-1092.42" font-family="Times New Roman,serif" font-size="14.00">badīties</text>
</g>
<!-- iebadīt___bad__bed__bes -->
<g id="node5" class="node">
<title>iebadīt___bad__bed__bes</title>
<ellipse fill="white" stroke="black" stroke-width="0" cx="36" cy="-860.84" rx="36" ry="18"/>
<text xml:space="preserve" text-anchor="middle" x="36" y="-855.79" font-family="Times New Roman,serif" font-size="14.00">iebadīt</text>
</g>
<!-- iebadīties___bad__bed__bes -->
<g id="node6" class="node">
<title>iebadīties___bad__bed__bes</title>
<ellipse fill="white" stroke="black" stroke-width="0" cx="268.5" cy="-1242.42" rx="46.23" ry="18"/>
<text xml:space="preserve" text-anchor="middle" x="268.5" y="-1237.37" font-family="Times New Roman,serif" font-size="14.00">iebadīties</text>
</g>
<!-- izbadīt___bad__bed__bes -->
<g id="node7" class="node">
<title>izbadīt___bad__bed__bes</title>
<ellipse fill="white" stroke="black" stroke-width="0" cx="42.14" cy="-729.04" rx="36" ry="18"/>
<text xml:space="preserve" text-anchor="middle" x="42.14" y="-723.99" font-family="Times New Roman,serif" font-size="14.00">izbadīt</text>
</g>
<!-- nobadīt___bad__bed__bes -->
<g id="node8" class="node">
<title>nobadīt___bad__bed__bes</title>
<ellipse fill="white" stroke="black" stroke-width="0" cx="81.85" cy="-599.33" rx="38.56" ry="18"/>
<text xml:space="preserve" text-anchor="middle" x="81.85" y="-594.28" font-family="Times New Roman,serif" font-size="14.00">nobadīt</text>
</g>
<!-- pabadīt___bad__bed__bes -->
<g id="node9" class="node">
<title>pabadīt___bad__bed__bes</title>
<ellipse fill="white" stroke="black" stroke-width="0" cx="82.45" cy="-980.29" rx="38.04" ry="18"/>
<text xml:space="preserve" text-anchor="middle" x="82.45" y="-975.24" font-family="Times New Roman,serif" font-size="14.00">pabadīt</text>
</g>
<!-- sabadīt___bad__bed__bes -->
<g id="node10" class="node">
<title>sabadīt___bad__bed__bes</title>
<ellipse fill="white" stroke="black" stroke-width="0" cx="250.4" cy="-993.34" rx="37.02" ry="18"/>
<text xml:space="preserve" text-anchor="middle" x="250.4" y="-988.29" font-family="Times New Roman,serif" font-size="14.00">sabadīt</text>
</g>
<!-- apbedījums___bad__bed__bes -->
<g id="node11" class="node">
<title>apbedījums___bad__bed__bes</title>
<ellipse fill="white" stroke="black" stroke-width="0" cx="826.01" cy="-1171.57" rx="53.91" ry="18"/>
<text xml:space="preserve" text-anchor="middle" x="826.01" y="-1166.52" font-family="Times New Roman,serif" font-size="14.00">apbedījums</text>
</g>
<!-- apbedīšana___bad__bed__bes -->
<g id="node12" class="node">
<title>apbedīšana___bad__bed__bes</title>
<ellipse fill="white" stroke="black" stroke-width="0" cx="504.55" cy="-1232.76" rx="51.86" ry="18"/>
<text xml:space="preserve" text-anchor="middle" x="504.55" y="-1227.71" font-family="Times New Roman,serif" font-size="14.00">apbedīšana</text>
</g>
<!-- apbedīt___bad__bed__bes -->
<g id="node13" class="node">
<title>apbedīt___bad__bed__bes</title>
<ellipse fill="white" stroke="black" stroke-width="0" cx="598.77" cy="-1010.65" rx="38.04" ry="18"/>
<text xml:space="preserve" text-anchor="middle" x="598.77" y="-1005.6" font-family="Times New Roman,serif" font-size="14.00">apbedīt</text>
</g>
<!-- apbedītājs___bad__bed__bes -->
<g id="node14" class="node">
<title>apbedītājs___bad__bed__bes</title>
<ellipse fill="white" stroke="black" stroke-width="0" cx="680.68" cy="-1150.51" rx="48.28" ry="18"/>
<text xml:space="preserve" text-anchor="middle" x="680.68" y="-1145.46" font-family="Times New Roman,serif" font-size="14.00">apbedītājs</text>
</g>
<!-- asinsbedre___bad__bed__bes -->
<g id="node15" class="node">
<title>asinsbedre___bad__bed__bes</title>
<ellipse fill="white" stroke="black" stroke-width="0" cx="1049.74" cy="-345.33" rx="49.82" ry="18"/>
<text xml:space="preserve" text-anchor="middle" x="1049.74" y="-340.28" font-family="Times New Roman,serif" font-size="14.00">asinsbedre</text>
</g>
<!-- bedības___bad__bed__bes -->
<g id="node16" class="node">
<title>bedības___bad__bed__bes</title>
<ellipse fill="white" stroke="black" stroke-width="0" cx="537.82" cy="-408.68" rx="39.07" ry="18"/>
<text xml:space="preserve" text-anchor="middle" x="537.82" y="-403.63" font-family="Times New Roman,serif" font-size="14.00">bedības</text>
</g>
<!-- bedīt___bad__bed__bes -->
<g id="node17" class="node">
<title>bedīt___bad__bed__bes</title>
<ellipse fill="white" stroke="black" stroke-width="0" cx="502.66" cy="-642.17" rx="29.34" ry="18"/>
<text xml:space="preserve" text-anchor="middle" x="502.66" y="-637.12" font-family="Times New Roman,serif" font-size="14.00">bedīt</text>
</g>
<!-- bedraini___bad__bed__bes -->
<g id="node18" class="node">
<title>bedraini___bad__bed__bes</title>
<ellipse fill="white" stroke="black" stroke-width="0" cx="1016.24" cy="-904.21" rx="41.12" ry="18"/>
<text xml:space="preserve" text-anchor="middle" x="1016.24" y="-899.16" font-family="Times New Roman,serif" font-size="14.00">bedraini</text>
</g>
<!-- bedrains___bad__bed__bes -->
<g id="node19" class="node">
<title>bedrains___bad__bed__bes</title>
<ellipse fill="white" stroke="black" stroke-width="0" cx="1015.81" cy="-669.27" rx="42.14" ry="18"/>
<text xml:space="preserve" text-anchor="middle" x="1015.81" y="-664.22" font-family="Times New Roman,serif" font-size="14.00">bedrains</text>
</g>
<!-- bedre___bad__bed__bes -->
<g id="node20" class="node">
<title>bedre___bad__bed__bes</title>
<ellipse fill="white" stroke="black" stroke-width="0" cx="927.97" cy="-584.95" rx="31.39" ry="18"/>
<text xml:space="preserve" text-anchor="middle" x="927.97" y="-579.9" font-family="Times New Roman,serif" font-size="14.00">bedre</text>
</g>
<!-- bedrele___bad__bed__bes -->
<g id="node21" class="node">
<title>bedrele___bad__bed__bes</title>
<ellipse fill="white" stroke="black" stroke-width="0" cx="854.27" cy="-480.16" rx="38.04" ry="18"/>
<text xml:space="preserve" text-anchor="middle" x="854.27" y="-475.11" font-family="Times New Roman,serif" font-size="14.00">bedrele</text>
</g>
<!-- bedrīte___bad__bed__bes -->
<g id="node22" class="node">
<title>bedrīte___bad__bed__bes</title>
<ellipse fill="white" stroke="black" stroke-width="0" cx="802.34" cy="-371.39" rx="36.51" ry="18"/>
<text xml:space="preserve" text-anchor="middle" x="802.34" y="-366.34" font-family="Times New Roman,serif" font-size="14.00">bedrīte</text>
</g>
<!-- best___bad__bed__bes -->
<g id="node23" class="node">
<title>best___bad__bed__bes</title>
<ellipse fill="white" stroke="black" stroke-width="0" cx="583.6" cy="-554.26" rx="27" ry="18"/>
<text xml:space="preserve" text-anchor="middle" x="583.6" y="-549.21" font-family="Times New Roman,serif" font-size="14.00">best</text>
</g>
<!-- būvbedre___bad__bed__bes -->
<g id="node24" class="node">
<title>būvbedre___bad__bed__bes</title>
<ellipse fill="white" stroke="black" stroke-width="0" cx="1184.09" cy="-844.64" rx="45.21" ry="18"/>
<text xml:space="preserve" text-anchor="middle" x="1184.09" y="-839.59" font-family="Times New Roman,serif" font-size="14.00">būvbedre</text>
</g>
<!-- grantsbedre___bad__bed__bes -->
<g id="node25" class="node">
<title>grantsbedre___bad__bed__bes</title>
<ellipse fill="white" stroke="black" stroke-width="0" cx="1115.23" cy="-713.27" rx="53.91" ry="18"/>
<text xml:space="preserve" text-anchor="middle" x="1115.23" y="-708.22" font-family="Times New Roman,serif" font-size="14.00">grantsbedre</text>
</g>
<!-- pārapbedīšana___bad__bed__bes -->
<g id="node26" class="node">
<title>pārapbedīšana___bad__bed__bes</title>
<ellipse fill="white" stroke="black" stroke-width="0" cx="305.15" cy="-683.65" rx="63.63" ry="18"/>
<text xml:space="preserve" text-anchor="middle" x="305.15" y="-678.6" font-family="Times New Roman,serif" font-size="14.00">pārapbedīšana</text>
</g>
<!-- pārapbedīt___bad__bed__bes -->
<g id="node27" class="node">
<title>pārapbedīt___bad__bed__bes</title>
<ellipse fill="white" stroke="black" stroke-width="0" cx="405.32" cy="-912.58" rx="49.82" ry="18"/>
<text xml:space="preserve" text-anchor="middle" x="405.32" y="-907.53" font-family="Times New Roman,serif" font-size="14.00">pārapbedīt</text>
</g>
<!-- pārbedīšana___bad__bed__bes -->
<g id="node28" class="node">
<title>pārbedīšana___bad__bed__bes</title>
<ellipse fill="white" stroke="black" stroke-width="0" cx="317.46" cy="-299.98" rx="54.93" ry="18"/>
<text xml:space="preserve" text-anchor="middle" x="317.46" y="-294.93" font-family="Times New Roman,serif" font-size="14.00">pārbedīšana</text>
</g>
<!-- pārbedīt___bad__bed__bes -->
<g id="node29" class="node">
<title>pārbedīt___bad__bed__bes</title>
<ellipse fill="white" stroke="black" stroke-width="0" cx="364.3" cy="-429.63" rx="41.12" ry="18"/>
<text xml:space="preserve" text-anchor="middle" x="364.3" y="-424.58" font-family="Times New Roman,serif" font-size="14.00">pārbedīt</text>
</g>
<!-- skeletapbedījums___bad__bed__bes -->
<g id="node30" class="node">
<title>skeletapbedījums___bad__bed__bes</title>
<ellipse fill="white" stroke="black" stroke-width="0" cx="1023.84" cy="-1270.79" rx="75.41" ry="18"/>
<text xml:space="preserve" text-anchor="middle" x="1023.84" y="-1265.74" font-family="Times New Roman,serif" font-size="14.00">skeletapbedījums</text>
</g>
<!-- virsapbedījums___bad__bed__bes -->
<g id="node31" class="node">
<title>virsapbedījums___bad__bed__bes</title>
<ellipse fill="white" stroke="black" stroke-width="0" cx="739.92" cy="-1374.18" rx="67.73" ry="18"/>
<text xml:space="preserve" text-anchor="middle" x="739.92" y="-1369.13" font-family="Times New Roman,serif" font-size="14.00">virsapbedījums</text>
</g>
<!-- virsapbedīšana___bad__bed__bes -->
<g id="node32" class="node">
<title>virsapbedīšana___bad__bed__bes</title>
<ellipse fill="white" stroke="black" stroke-width="0" cx="570.47" cy="-1408.65" rx="65.68" ry="18"/>
<text xml:space="preserve" text-anchor="middle" x="570.47" y="-1403.6" font-family="Times New Roman,serif" font-size="14.00">virsapbedīšana</text>
</g>
<!-- apbest___bad__bed__bes -->
<g id="node33" class="node">
<title>apbest___bad__bed__bes</title>
<ellipse fill="white" stroke="black" stroke-width="0" cx="594.57" cy="-298.1" rx="34.46" ry="18"/>
<text xml:space="preserve" text-anchor="middle" x="594.57" y="-293.05" font-family="Times New Roman,serif" font-size="14.00">apbest</text>
</g>
<!-- asins -->
<g id="node34" class="node">
<title>asins</title>
<ellipse fill="white" stroke="black" stroke-width="0" cx="1383.81" cy="-18" rx="29.34" ry="18"/>
<text xml:space="preserve" text-anchor="middle" x="1383.81" y="-12.95" font-family="Times New Roman,serif" font-size="14.00" fill="gray">asins</text>
</g>
<!-- būv -->
<g id="node35" class="node">
<title>būv</title>
<polygon fill="lightgray" stroke="black" stroke-width="0" points="1652.14,-976.89 1598.14,-976.89 1598.14,-940.89 1652.14,-940.89 1652.14,-976.89"/>
<text xml:space="preserve" text-anchor="middle" x="1625.14" y="-953.84" font-family="Times New Roman,serif" font-size="14.00">būv</text>
</g>
<!-- grants -->
<g id="node36" class="node">
<title>grants</title>
<ellipse fill="white" stroke="black" stroke-width="0" cx="1499.27" cy="-631.72" rx="33.44" ry="18"/>
<text xml:space="preserve" text-anchor="middle" x="1499.27" y="-626.67" font-family="Times New Roman,serif" font-size="14.00" fill="gray">grants</text>
</g>
<!-- skelets -->
<g id="node37" class="node">
<title>skelets</title>
<ellipse fill="white" stroke="black" stroke-width="0" cx="1345.78" cy="-1593.48" rx="36" ry="18"/>
<text xml:space="preserve" text-anchor="middle" x="1345.78" y="-1588.43" font-family="Times New Roman,serif" font-size="14.00" fill="gray">skelets</text>
</g>
<!-- virsū -->
<g id="node38" class="node">
<title>virsū</title>
<ellipse fill="white" stroke="black" stroke-width="0" cx="722.37" cy="-1731.21" rx="29.34" ry="18"/>
<text xml:space="preserve" text-anchor="middle" x="722.37" y="-1726.16" font-family="Times New Roman,serif" font-size="14.00" fill="gray">virsū</text>
</g>
</g>
</svg>
