<?xml version="1.0" encoding="UTF-8" standalone="no"?>
<!DOCTYPE svg PUBLIC "-//W3C//DTD SVG 1.1//EN"
 "http://www.w3.org/Graphics/SVG/1.1/DTD/svg11.dtd">
<!-- Generated by graphviz version 13.1.2 (20250808.2320)
 -->
<!-- Pages: 1 -->
<svg width="432pt" height="152pt"
 viewBox="0.00 0.00 432.00 152.00" xmlns="http://www.w3.org/2000/svg" xmlns:xlink="http://www.w3.org/1999/xlink">
<g id="graph0" class="graph" transform="scale(1 1) rotate(0) translate(4 148)">
<polygon fill="white" stroke="none" points="-4,4 -4,-148 427.93,-148 427.93,4 -4,4"/>
<!-- # badminton&#45;&gt;badmintonists___badminton -->
<g id="edge1" class="edge">
<title># badminton&#45;&gt;badmintonists___badminton</title>
<path fill="none" stroke="#cccccc" d="M76.63,-94.27C132.43,-100.5 236.62,-112.13 302.15,-119.45"/>
</g>
<!-- # badminton&#45;&gt;badmintons___badminton -->
<g id="edge2" class="edge">
<title># badminton&#45;&gt;badmintons___badminton</title>
<path fill="none" stroke="#cccccc" d="M76.43,-90C93.51,-90 114.1,-90 132.81,-90"/>
</g>
<!-- # badminton&#45;&gt;Badmintona___badminton -->
<g id="edge3" class="edge">
<title># badminton&#45;&gt;Badmintona___badminton</title>
<path fill="none" stroke="#cccccc" d="M76.43,-71.83C101.07,-59.75 133.02,-44.08 156.09,-32.77"/>
</g>
<!-- badmintons___badminton&#45;&gt;badmintonists___badminton -->
<g id="edge4" class="edge">
<title>badmintons___badminton&#45;&gt;badmintonists___badminton</title>
<path fill="none" stroke="green" d="M233.3,-99.46C253.34,-103.66 277.24,-108.68 298.84,-113.21"/>
<polygon fill="green" stroke="green" points="297.91,-116.59 308.41,-115.22 299.35,-109.74 297.91,-116.59"/>
</g>
<!-- # badminton -->
<g id="node1" class="node">
<title># badminton</title>
<polygon fill="lightblue" stroke="black" stroke-width="0" points="76.75,-110.5 0,-110.5 0,-69.5 76.75,-69.5 76.75,-110.5"/>
<text xml:space="preserve" text-anchor="middle" x="38.38" y="-93.2" font-family="Times New Roman,serif" font-size="14.00">badminton</text>
<text xml:space="preserve" text-anchor="middle" x="38.38" y="-76.7" font-family="Times New Roman,serif" font-size="14.00">(borrowed)</text>
</g>
<!-- badmintonists___badminton -->
<g id="node2" class="node">
<title>badmintonists___badminton</title>
<ellipse fill="white" stroke="black" stroke-width="0" cx="360.81" cy="-126" rx="63.12" ry="18"/>
<text xml:space="preserve" text-anchor="middle" x="360.81" y="-120.95" font-family="Times New Roman,serif" font-size="14.00">badmintonists</text>
</g>
<!-- badmintons___badminton -->
<g id="node3" class="node">
<title>badmintons___badminton</title>
<ellipse fill="white" stroke="black" stroke-width="0" cx="187.22" cy="-90" rx="54.42" ry="18"/>
<text xml:space="preserve" text-anchor="middle" x="187.22" y="-84.95" font-family="Times New Roman,serif" font-size="14.00">badmintons</text>
</g>
<!-- Badmintona___badminton -->
<g id="node4" class="node">
<title>Badmintona___badminton</title>
<ellipse fill="white" stroke="black" stroke-width="0" cx="187.22" cy="-18" rx="56.47" ry="18"/>
<text xml:space="preserve" text-anchor="middle" x="187.22" y="-12.95" font-family="Times New Roman,serif" font-size="14.00">Badmintona</text>
</g>
</g>
</svg>
