<?xml version="1.0" encoding="UTF-8" standalone="no"?>
<!DOCTYPE svg PUBLIC "-//W3C//DTD SVG 1.1//EN"
 "http://www.w3.org/Graphics/SVG/1.1/DTD/svg11.dtd">
<!-- Generated by graphviz version 13.1.2 (20250808.2320)
 -->
<!-- Pages: 1 -->
<svg width="369pt" height="84pt"
 viewBox="0.00 0.00 369.00 84.00" xmlns="http://www.w3.org/2000/svg" xmlns:xlink="http://www.w3.org/1999/xlink">
<g id="graph0" class="graph" transform="scale(1 1) rotate(0) translate(4 79.5)">
<polygon fill="white" stroke="none" points="-4,4 -4,-79.5 365.49,-79.5 365.49,4 -4,4"/>
<!-- # bag&#45;&gt;bagāža___bag -->
<g id="edge1" class="edge">
<title># bag&#45;&gt;bagāža___bag</title>
<path fill="none" stroke="#cccccc" d="M76.42,-31.3C95.29,-36.8 117.95,-43.41 135.8,-48.62"/>
</g>
<!-- # bag&#45;&gt;bagāžnieks___bag -->
<g id="edge2" class="edge">
<title># bag&#45;&gt;bagāžnieks___bag</title>
<path fill="none" stroke="#cccccc" d="M76.66,-20.5C124.13,-20.5 205.2,-20.5 258.1,-20.5"/>
</g>
<!-- bagāža___bag&#45;&gt;bagāžnieks___bag -->
<g id="edge3" class="edge">
<title>bagāža___bag&#45;&gt;bagāžnieks___bag</title>
<path fill="none" stroke="green" d="M199.41,-49.29C216.36,-44.82 237.76,-39.18 257.12,-34.08"/>
<polygon fill="green" stroke="green" points="257.99,-37.47 266.76,-31.54 256.2,-30.7 257.99,-37.47"/>
</g>
<!-- # bag -->
<g id="node1" class="node">
<title># bag</title>
<polygon fill="lightblue" stroke="black" stroke-width="0" points="76.75,-41 0,-41 0,0 76.75,0 76.75,-41"/>
<text xml:space="preserve" text-anchor="middle" x="38.38" y="-23.7" font-family="Times New Roman,serif" font-size="14.00">bag</text>
<text xml:space="preserve" text-anchor="middle" x="38.38" y="-7.2" font-family="Times New Roman,serif" font-size="14.00">(borrowed)</text>
</g>
<!-- bagāža___bag -->
<g id="node2" class="node">
<title>bagāža___bag</title>
<ellipse fill="white" stroke="black" stroke-width="0" cx="167.26" cy="-57.5" rx="36.51" ry="18"/>
<text xml:space="preserve" text-anchor="middle" x="167.26" y="-52.45" font-family="Times New Roman,serif" font-size="14.00">bagāža</text>
</g>
<!-- bagāžnieks___bag -->
<g id="node3" class="node">
<title>bagāžnieks___bag</title>
<ellipse fill="white" stroke="black" stroke-width="0" cx="309.63" cy="-20.5" rx="51.86" ry="18"/>
<text xml:space="preserve" text-anchor="middle" x="309.63" y="-15.45" font-family="Times New Roman,serif" font-size="14.00">bagāžnieks</text>
</g>
</g>
</svg>
