<?xml version="1.0" encoding="UTF-8" standalone="no"?>
<!DOCTYPE svg PUBLIC "-//W3C//DTD SVG 1.1//EN"
 "http://www.w3.org/Graphics/SVG/1.1/DTD/svg11.dtd">
<!-- Generated by graphviz version 13.1.2 (20250808.2320)
 -->
<!-- Pages: 1 -->
<svg width="779pt" height="1741pt"
 viewBox="0.00 0.00 779.00 1741.00" xmlns="http://www.w3.org/2000/svg" xmlns:xlink="http://www.w3.org/1999/xlink">
<g id="graph0" class="graph" transform="scale(1 1) rotate(0) translate(4 1737)">
<polygon fill="white" stroke="none" points="-4,4 -4,-1737 775.12,-1737 775.12,4 -4,4"/>
<!-- # bagāt&#45;&gt;bagāti -->
<g id="edge1" class="edge">
<title># bagāt&#45;&gt;bagāti</title>
<path fill="none" stroke="#cccccc" d="M68.53,-880.65C123.79,-843.36 239.96,-764.98 287.33,-733.01"/>
</g>
<!-- # bagāt&#45;&gt;bagāts -->
<g id="edge32" class="edge">
<title># bagāt&#45;&gt;bagāts</title>
<path fill="none" stroke="#cccccc" d="M47,-880.73C69.65,-820.48 136.34,-643.12 157.61,-586.55"/>
</g>
<!-- # bagāt&#45;&gt;bagātinājums -->
<g id="edge3" class="edge">
<title># bagāt&#45;&gt;bagātinājums</title>
<path fill="none" stroke="#cccccc" d="M57.07,-921.22C131,-1001.18 402.22,-1294.51 470.91,-1368.81"/>
</g>
<!-- # bagāt&#45;&gt;bagātināt -->
<g id="edge9" class="edge">
<title># bagāt&#45;&gt;bagātināt</title>
<path fill="none" stroke="#cccccc" d="M49.79,-921.36C94.41,-1000.93 256.59,-1290.16 298.28,-1364.49"/>
</g>
<!-- # bagāt&#45;&gt;bagātināšana -->
<g id="edge5" class="edge">
<title># bagāt&#45;&gt;bagātināšana</title>
<path fill="none" stroke="#cccccc" d="M60.61,-921.38C138.37,-992.65 397.24,-1229.91 468.51,-1295.23"/>
</g>
<!-- # bagāt&#45;&gt;bagātināšanās -->
<g id="edge7" class="edge">
<title># bagāt&#45;&gt;bagātināšanās</title>
<path fill="none" stroke="#cccccc" d="M54.51,-921.12C145.41,-1034.47 592.49,-1592.01 677.23,-1697.69"/>
</g>
<!-- # bagāt&#45;&gt;bagātināties -->
<g id="edge18" class="edge">
<title># bagāt&#45;&gt;bagātināties</title>
<path fill="none" stroke="#cccccc" d="M50.14,-921.38C113.91,-1031.89 417.5,-1557.9 476.76,-1660.59"/>
</g>
<!-- # bagāt&#45;&gt;bagātinātāja -->
<g id="edge11" class="edge">
<title># bagāt&#45;&gt;bagātinātāja</title>
<path fill="none" stroke="#cccccc" d="M54.6,-921.19C125.42,-1009.31 406.83,-1359.48 472.88,-1441.67"/>
</g>
<!-- # bagāt&#45;&gt;bagātinātājpiedeva -->
<g id="edge13" class="edge">
<title># bagāt&#45;&gt;bagātinātājpiedeva</title>
<path fill="none" stroke="#cccccc" d="M59.35,-921.25C158.64,-1017.08 580.38,-1424.13 673.05,-1513.57"/>
</g>
<!-- # bagāt&#45;&gt;bagātinātājs -->
<g id="edge16" class="edge">
<title># bagāt&#45;&gt;bagātinātājs</title>
<path fill="none" stroke="#cccccc" d="M65.75,-921.45C147.8,-982.75 390.61,-1164.14 464.94,-1219.66"/>
</g>
<!-- # bagāt&#45;&gt;bagātība -->
<g id="edge20" class="edge">
<title># bagāt&#45;&gt;bagātība</title>
<path fill="none" stroke="#cccccc" d="M59.99,-880.64C112.12,-831.55 243.91,-707.44 291.02,-663.08"/>
</g>
<!-- # bagāt&#45;&gt;bagātīgi -->
<g id="edge22" class="edge">
<title># bagāt&#45;&gt;bagātīgi</title>
<path fill="none" stroke="#cccccc" d="M76.61,-921.38C165.78,-968.9 385.65,-1086.09 460.99,-1126.24"/>
</g>
<!-- # bagāt&#45;&gt;bagātīgs -->
<g id="edge24" class="edge">
<title># bagāt&#45;&gt;bagātīgs</title>
<path fill="none" stroke="#cccccc" d="M68.27,-921.39C122.86,-958.63 237.5,-1036.84 285.84,-1069.82"/>
</g>
<!-- # bagāt&#45;&gt;bagātīgums -->
<g id="edge26" class="edge">
<title># bagāt&#45;&gt;bagātīgums</title>
<path fill="none" stroke="#cccccc" d="M76.61,-913.53C161.22,-941.27 363.53,-1007.59 448.35,-1035.39"/>
</g>
<!-- # bagāt&#45;&gt;bagātniece -->
<g id="edge28" class="edge">
<title># bagāt&#45;&gt;bagātniece</title>
<path fill="none" stroke="#cccccc" d="M55.25,-880.54C104.61,-820.7 248.13,-646.7 293.9,-591.21"/>
</g>
<!-- # bagāt&#45;&gt;bagātnieks -->
<g id="edge30" class="edge">
<title># bagāt&#45;&gt;bagātnieks</title>
<path fill="none" stroke="#cccccc" d="M52.12,-880.61C99.14,-810.88 253.04,-582.65 296.55,-518.13"/>
</g>
<!-- # bagāt&#45;&gt;bagātums -->
<g id="edge33" class="edge">
<title># bagāt&#45;&gt;bagātums</title>
<path fill="none" stroke="#cccccc" d="M48.46,-880.52C91.49,-793.08 259.44,-451.85 299.49,-370.49"/>
</g>
<!-- # bagāt&#45;&gt;jaunbagātnieks -->
<g id="edge35" class="edge">
<title># bagāt&#45;&gt;jaunbagātnieks</title>
<path fill="none" stroke="#cccccc" d="M76.61,-897.93C153.81,-891.73 328.99,-877.67 423.51,-870.08"/>
</g>
<!-- # bagāt&#45;&gt;nebagāts -->
<g id="edge38" class="edge">
<title># bagāt&#45;&gt;nebagāts</title>
<path fill="none" stroke="#cccccc" d="M47.2,-880.59C88.46,-785.13 262.05,-383.52 300.52,-294.52"/>
</g>
<!-- # bagāt&#45;&gt;pārbagāti -->
<g id="edge40" class="edge">
<title># bagāt&#45;&gt;pārbagāti</title>
<path fill="none" stroke="#cccccc" d="M48.58,-880.9C109.21,-761.53 421.17,-147.24 477.94,-35.46"/>
</g>
<!-- # bagāt&#45;&gt;pārbagāts -->
<g id="edge44" class="edge">
<title># bagāt&#45;&gt;pārbagāts</title>
<path fill="none" stroke="#cccccc" d="M49.96,-880.59C94.84,-801.57 256.7,-516.51 298.3,-443.26"/>
</g>
<!-- # bagāt&#45;&gt;pārbagātība -->
<g id="edge42" class="edge">
<title># bagāt&#45;&gt;pārbagātība</title>
<path fill="none" stroke="#cccccc" d="M69.91,-880.68C154.64,-826.07 385.96,-676.99 462.12,-627.91"/>
</g>
<!-- # bagāt&#45;&gt;superbagātnieks -->
<g id="edge46" class="edge">
<title># bagāt&#45;&gt;superbagātnieks</title>
<path fill="none" stroke="#cccccc" d="M50.14,-880.72C113.84,-770.91 416.84,-248.61 476.57,-145.65"/>
</g>
<!-- # bagāt&#45;&gt;superbagāts -->
<g id="edge49" class="edge">
<title># bagāt&#45;&gt;superbagāts</title>
<path fill="none" stroke="#cccccc" d="M46.16,-880.81C85.72,-778.14 264.1,-315.18 301.29,-218.66"/>
</g>
<!-- bagāts&#45;&gt;bagāti -->
<g id="edge2" class="edge">
<title>bagāts&#45;&gt;bagāti</title>
<path fill="none" stroke="green" d="M181.02,-584.77C205.82,-611.17 255.87,-664.46 284.89,-695.36"/>
<polygon fill="green" stroke="green" points="282.05,-697.45 291.45,-702.34 287.15,-692.65 282.05,-697.45"/>
</g>
<!-- bagāts&#45;&gt;bagātināt -->
<g id="edge10" class="edge">
<title>bagāts&#45;&gt;bagātināt</title>
<path fill="none" stroke="green" d="M169.29,-586.74C187.33,-690.88 279.51,-1222.8 302.09,-1353.14"/>
<polygon fill="green" stroke="green" points="298.59,-1353.4 303.74,-1362.66 305.49,-1352.21 298.59,-1353.4"/>
</g>
<!-- bagāts&#45;&gt;bagātība -->
<g id="edge21" class="edge">
<title>bagāts&#45;&gt;bagātība</title>
<path fill="none" stroke="green" d="M189.16,-581.71C211.6,-594.13 246.08,-613.22 271.97,-627.55"/>
<polygon fill="green" stroke="green" points="270.01,-630.47 280.45,-632.25 273.4,-624.34 270.01,-630.47"/>
</g>
<!-- bagāts&#45;&gt;bagātīgs -->
<g id="edge25" class="edge">
<title>bagāts&#45;&gt;bagātīgs</title>
<path fill="none" stroke="green" d="M170.98,-586.46C191.63,-662.1 273.46,-961.82 299.26,-1056.31"/>
<polygon fill="green" stroke="green" points="295.85,-1057.09 301.86,-1065.82 302.6,-1055.25 295.85,-1057.09"/>
</g>
<!-- bagāts&#45;&gt;bagātniece -->
<g id="edge29" class="edge">
<title>bagāts&#45;&gt;bagātniece</title>
<path fill="none" stroke="green" d="M199.24,-570.17C213.52,-570.68 230.68,-571.29 247.07,-571.87"/>
<polygon fill="green" stroke="green" points="246.62,-575.36 256.74,-572.21 246.87,-568.36 246.62,-575.36"/>
</g>
<!-- bagāts&#45;&gt;bagātnieks -->
<g id="edge31" class="edge">
<title>bagāts&#45;&gt;bagātnieks</title>
<path fill="none" stroke="green" d="M190.75,-557.16C211.93,-546.93 242.91,-531.98 267.58,-520.07"/>
<polygon fill="green" stroke="green" points="268.87,-523.34 276.35,-515.84 265.83,-517.03 268.87,-523.34"/>
</g>
<!-- bagāts&#45;&gt;bagātums -->
<g id="edge34" class="edge">
<title>bagāts&#45;&gt;bagātums</title>
<path fill="none" stroke="green" d="M177.03,-552.41C201.29,-515.21 260.21,-424.88 289.69,-379.68"/>
<polygon fill="green" stroke="green" points="292.49,-381.8 295.02,-371.51 286.63,-377.98 292.49,-381.8"/>
</g>
<!-- bagāts&#45;&gt;nebagāts -->
<g id="edge39" class="edge">
<title>bagāts&#45;&gt;nebagāts</title>
<path fill="none" stroke="green" d="M174.4,-552.04C197.78,-503.57 265.06,-364.12 293.81,-304.53"/>
<polygon fill="green" stroke="green" points="296.86,-306.27 298.05,-295.74 290.56,-303.22 296.86,-306.27"/>
</g>
<!-- bagāts&#45;&gt;pārbagāts -->
<g id="edge45" class="edge">
<title>bagāts&#45;&gt;pārbagāts</title>
<path fill="none" stroke="green" d="M181.56,-553.42C205.96,-528.65 253.83,-480.07 282.89,-450.57"/>
<polygon fill="green" stroke="green" points="285.32,-453.09 289.84,-443.51 280.33,-448.18 285.32,-453.09"/>
</g>
<!-- bagāts&#45;&gt;superbagāts -->
<g id="edge51" class="edge">
<title>bagāts&#45;&gt;superbagāts</title>
<path fill="none" stroke="orange" d="M172.82,-551.74C195.23,-493.2 268.51,-301.8 296.29,-229.23"/>
<polygon fill="orange" stroke="orange" points="299.49,-230.65 299.8,-220.06 292.95,-228.15 299.49,-230.65"/>
</g>
<!-- bagātināt&#45;&gt;bagātinājums -->
<g id="edge4" class="edge">
<title>bagātināt&#45;&gt;bagātinājums</title>
<path fill="none" stroke="green" d="M352.32,-1382.98C371.29,-1383.41 394.05,-1383.92 415.36,-1384.41"/>
<polygon fill="green" stroke="green" points="415.09,-1387.9 425.17,-1384.63 415.25,-1380.9 415.09,-1387.9"/>
</g>
<!-- bagātināt&#45;&gt;bagātināšana -->
<g id="edge6" class="edge">
<title>bagātināt&#45;&gt;bagātināšana</title>
<path fill="none" stroke="green" d="M340.28,-1369.65C367.85,-1358.73 408.42,-1342.65 439.73,-1330.25"/>
<polygon fill="green" stroke="green" points="440.96,-1333.53 448.97,-1326.59 438.39,-1327.02 440.96,-1333.53"/>
</g>
<!-- bagātināt&#45;&gt;bagātināties -->
<g id="edge19" class="edge">
<title>bagātināt&#45;&gt;bagātināties</title>
<path fill="none" stroke="green" d="M319.36,-1399.19C348.82,-1448.55 433.83,-1590.94 469.62,-1650.89"/>
<polygon fill="green" stroke="green" points="466.61,-1652.67 474.74,-1659.46 472.62,-1649.08 466.61,-1652.67"/>
</g>
<!-- bagātināt&#45;&gt;bagātinātāja -->
<g id="edge12" class="edge">
<title>bagātināt&#45;&gt;bagātinātāja</title>
<path fill="none" stroke="green" d="M338.67,-1394.89C367.1,-1407.27 410.37,-1426.13 442.64,-1440.19"/>
<polygon fill="green" stroke="green" points="441.18,-1443.37 451.74,-1444.16 443.97,-1436.95 441.18,-1443.37"/>
</g>
<!-- bagātināt&#45;&gt;bagātinātājs -->
<g id="edge17" class="edge">
<title>bagātināt&#45;&gt;bagātinātājs</title>
<path fill="none" stroke="green" d="M328.34,-1366.1C359.43,-1340.41 420.87,-1289.65 457.13,-1259.69"/>
<polygon fill="green" stroke="green" points="459.12,-1262.58 464.6,-1253.52 454.67,-1257.19 459.12,-1262.58"/>
</g>
<!-- bagātināties&#45;&gt;bagātināšanās -->
<g id="edge8" class="edge">
<title>bagātināties&#45;&gt;bagātināšanās</title>
<path fill="none" stroke="green" d="M534.98,-1686.63C562.52,-1691.66 597.61,-1698.08 627.44,-1703.54"/>
<polygon fill="green" stroke="green" points="626.64,-1706.95 637.11,-1705.31 627.9,-1700.06 626.64,-1706.95"/>
</g>
<!-- bagātinātāja&#45;&gt;bagātinātājpiedeva -->
<g id="edge14" class="edge">
<title>bagātinātāja&#45;&gt;bagātinātājpiedeva</title>
<path fill="none" stroke="blue" d="M524.44,-1472.04C555.91,-1483.24 601.69,-1499.53 637.15,-1512.15"/>
<polygon fill="blue" stroke="blue" points="635.77,-1515.38 646.37,-1515.43 638.12,-1508.78 635.77,-1515.38"/>
</g>
<!-- piedeva&#45;&gt;bagātinātājpiedeva -->
<g id="edge15" class="edge">
<title>piedeva&#45;&gt;bagātinātājpiedeva</title>
<path fill="none" stroke="blue" d="M526.33,-1531C547.21,-1531 573.94,-1531 599.73,-1531"/>
<polygon fill="blue" stroke="blue" points="599.58,-1534.5 609.58,-1531 599.58,-1527.5 599.58,-1534.5"/>
</g>
<!-- bagātīgs&#45;&gt;bagātīgi -->
<g id="edge23" class="edge">
<title>bagātīgs&#45;&gt;bagātīgi</title>
<path fill="none" stroke="green" d="M341.92,-1095.22C370.28,-1104.04 411.47,-1116.86 442.52,-1126.53"/>
<polygon fill="green" stroke="green" points="441.42,-1129.85 452.01,-1129.48 443.5,-1123.17 441.42,-1129.85"/>
</g>
<!-- bagātīgs&#45;&gt;bagātīgums -->
<g id="edge27" class="edge">
<title>bagātīgs&#45;&gt;bagātīgums</title>
<path fill="none" stroke="green" d="M345.71,-1077.33C370.06,-1072.24 402.49,-1065.44 430.02,-1059.68"/>
<polygon fill="green" stroke="green" points="430.54,-1063.15 439.61,-1057.67 429.1,-1056.3 430.54,-1063.15"/>
</g>
<!-- bagātnieks&#45;&gt;jaunbagātnieks -->
<g id="edge37" class="edge">
<title>bagātnieks&#45;&gt;jaunbagātnieks</title>
<path fill="none" stroke="blue" d="M317.62,-518.56C346.01,-577.05 437.56,-765.61 472.28,-837.14"/>
<polygon fill="blue" stroke="blue" points="468.98,-838.36 476.5,-845.83 475.28,-835.31 468.98,-838.36"/>
</g>
<!-- bagātnieks&#45;&gt;superbagātnieks -->
<g id="edge48" class="edge">
<title>bagātnieks&#45;&gt;superbagātnieks</title>
<path fill="none" stroke="orange" d="M317.38,-483.51C345.61,-423.92 438.21,-228.47 472.7,-155.66"/>
<polygon fill="orange" stroke="orange" points="475.77,-157.36 476.89,-146.82 469.45,-154.36 475.77,-157.36"/>
</g>
<!-- jauns&#45;&gt;jaunbagātnieks -->
<g id="edge36" class="edge">
<title>jauns&#45;&gt;jaunbagātnieks</title>
<path fill="none" stroke="blue" d="M338.28,-865C357.66,-865 384.07,-865 409.19,-865"/>
<polygon fill="blue" stroke="blue" points="409.1,-868.5 419.1,-865 409.1,-861.5 409.1,-868.5"/>
</g>
<!-- pārbagāts&#45;&gt;pārbagāti -->
<g id="edge41" class="edge">
<title>pārbagāts&#45;&gt;pārbagāti</title>
<path fill="none" stroke="green" d="M316.69,-408.47C344.33,-344.65 439.74,-124.36 473.69,-45.97"/>
<polygon fill="green" stroke="green" points="476.88,-47.42 477.64,-36.85 470.45,-44.64 476.88,-47.42"/>
</g>
<!-- pārbagāts&#45;&gt;pārbagātība -->
<g id="edge43" class="edge">
<title>pārbagāts&#45;&gt;pārbagātība</title>
<path fill="none" stroke="green" d="M324.78,-442.51C355.8,-475.16 425.16,-548.16 461.9,-586.84"/>
<polygon fill="green" stroke="green" points="459.18,-589.06 468.61,-593.9 464.26,-584.24 459.18,-589.06"/>
</g>
<!-- super&#45;&gt;superbagātnieks -->
<g id="edge47" class="edge">
<title>super&#45;&gt;superbagātnieks</title>
<path fill="none" stroke="orange" d="M192.08,-127.08C238.41,-127.23 335.1,-127.53 405.13,-127.75"/>
<polygon fill="orange" stroke="orange" points="405.04,-131.25 415.05,-127.78 405.06,-124.25 405.04,-131.25"/>
</g>
<!-- super&#45;&gt;superbagāts -->
<g id="edge50" class="edge">
<title>super&#45;&gt;superbagāts</title>
<path fill="none" stroke="orange" d="M192.05,-140.57C213.46,-151.82 244.21,-167.97 268.53,-180.74"/>
<polygon fill="orange" stroke="orange" points="266.69,-183.73 277.17,-185.28 269.95,-177.53 266.69,-183.73"/>
</g>
<!-- # bagāt -->
<g id="node1" class="node">
<title># bagāt</title>
<polygon fill="lightblue" stroke="black" stroke-width="0" points="76.75,-921.5 0,-921.5 0,-880.5 76.75,-880.5 76.75,-921.5"/>
<text xml:space="preserve" text-anchor="middle" x="38.38" y="-904.2" font-family="Times New Roman,serif" font-size="14.00">bagāt</text>
<text xml:space="preserve" text-anchor="middle" x="38.38" y="-887.7" font-family="Times New Roman,serif" font-size="14.00">(borrowed)</text>
</g>
<!-- bagāti -->
<g id="node2" class="node">
<title>bagāti</title>
<ellipse fill="white" stroke="black" stroke-width="0" cx="308.1" cy="-719" rx="33.44" ry="18"/>
<text xml:space="preserve" text-anchor="middle" x="308.1" y="-713.95" font-family="Times New Roman,serif" font-size="14.00">bagāti</text>
</g>
<!-- bagāts -->
<g id="node3" class="node">
<title>bagāts</title>
<ellipse fill="white" stroke="black" stroke-width="0" cx="165.21" cy="-569" rx="34.46" ry="18"/>
<text xml:space="preserve" text-anchor="middle" x="165.21" y="-563.95" font-family="Times New Roman,serif" font-size="14.00">bagāts</text>
</g>
<!-- bagātinājums -->
<g id="node4" class="node">
<title>bagātinājums</title>
<ellipse fill="white" stroke="black" stroke-width="0" cx="486.81" cy="-1386" rx="60.56" ry="18"/>
<text xml:space="preserve" text-anchor="middle" x="486.81" y="-1380.95" font-family="Times New Roman,serif" font-size="14.00">bagātinājums</text>
</g>
<!-- bagātināt -->
<g id="node5" class="node">
<title>bagātināt</title>
<ellipse fill="white" stroke="black" stroke-width="0" cx="308.1" cy="-1382" rx="44.7" ry="18"/>
<text xml:space="preserve" text-anchor="middle" x="308.1" y="-1376.95" font-family="Times New Roman,serif" font-size="14.00">bagātināt</text>
</g>
<!-- bagātināšana -->
<g id="node6" class="node">
<title>bagātināšana</title>
<ellipse fill="white" stroke="black" stroke-width="0" cx="486.81" cy="-1312" rx="58.52" ry="18"/>
<text xml:space="preserve" text-anchor="middle" x="486.81" y="-1306.95" font-family="Times New Roman,serif" font-size="14.00">bagātināšana</text>
</g>
<!-- bagātināšanās -->
<g id="node7" class="node">
<title>bagātināšanās</title>
<ellipse fill="white" stroke="black" stroke-width="0" cx="691.11" cy="-1715" rx="62.1" ry="18"/>
<text xml:space="preserve" text-anchor="middle" x="691.11" y="-1709.95" font-family="Times New Roman,serif" font-size="14.00">bagātināšanās</text>
</g>
<!-- bagātināties -->
<g id="node8" class="node">
<title>bagātināties</title>
<ellipse fill="white" stroke="black" stroke-width="0" cx="486.81" cy="-1678" rx="54.93" ry="18"/>
<text xml:space="preserve" text-anchor="middle" x="486.81" y="-1672.95" font-family="Times New Roman,serif" font-size="14.00">bagātināties</text>
</g>
<!-- bagātinātāja -->
<g id="node9" class="node">
<title>bagātinātāja</title>
<ellipse fill="white" stroke="black" stroke-width="0" cx="486.81" cy="-1459" rx="55.45" ry="18"/>
<text xml:space="preserve" text-anchor="middle" x="486.81" y="-1453.95" font-family="Times New Roman,serif" font-size="14.00">bagātinātāja</text>
</g>
<!-- bagātinātājpiedeva -->
<g id="node10" class="node">
<title>bagātinātājpiedeva</title>
<ellipse fill="white" stroke="black" stroke-width="0" cx="691.11" cy="-1531" rx="80.01" ry="18"/>
<text xml:space="preserve" text-anchor="middle" x="691.11" y="-1525.95" font-family="Times New Roman,serif" font-size="14.00">bagātinātājpiedeva</text>
</g>
<!-- piedeva -->
<g id="node11" class="node">
<title>piedeva</title>
<ellipse fill="white" stroke="black" stroke-width="0" cx="486.81" cy="-1531" rx="39.58" ry="18"/>
<text xml:space="preserve" text-anchor="middle" x="486.81" y="-1525.95" font-family="Times New Roman,serif" font-size="14.00" fill="gray">piedeva</text>
</g>
<!-- bagātinātājs -->
<g id="node12" class="node">
<title>bagātinātājs</title>
<ellipse fill="white" stroke="black" stroke-width="0" cx="486.81" cy="-1236" rx="54.93" ry="18"/>
<text xml:space="preserve" text-anchor="middle" x="486.81" y="-1230.95" font-family="Times New Roman,serif" font-size="14.00">bagātinātājs</text>
</g>
<!-- bagātība -->
<g id="node13" class="node">
<title>bagātība</title>
<ellipse fill="white" stroke="black" stroke-width="0" cx="308.1" cy="-647" rx="42.14" ry="18"/>
<text xml:space="preserve" text-anchor="middle" x="308.1" y="-641.95" font-family="Times New Roman,serif" font-size="14.00">bagātība</text>
</g>
<!-- bagātīgi -->
<g id="node14" class="node">
<title>bagātīgi</title>
<ellipse fill="white" stroke="black" stroke-width="0" cx="486.81" cy="-1140" rx="40.6" ry="18"/>
<text xml:space="preserve" text-anchor="middle" x="486.81" y="-1134.95" font-family="Times New Roman,serif" font-size="14.00">bagātīgi</text>
</g>
<!-- bagātīgs -->
<g id="node15" class="node">
<title>bagātīgs</title>
<ellipse fill="white" stroke="black" stroke-width="0" cx="308.1" cy="-1085" rx="41.63" ry="18"/>
<text xml:space="preserve" text-anchor="middle" x="308.1" y="-1079.95" font-family="Times New Roman,serif" font-size="14.00">bagātīgs</text>
</g>
<!-- bagātīgums -->
<g id="node16" class="node">
<title>bagātīgums</title>
<ellipse fill="white" stroke="black" stroke-width="0" cx="486.81" cy="-1048" rx="53.91" ry="18"/>
<text xml:space="preserve" text-anchor="middle" x="486.81" y="-1042.95" font-family="Times New Roman,serif" font-size="14.00">bagātīgums</text>
</g>
<!-- bagātniece -->
<g id="node17" class="node">
<title>bagātniece</title>
<ellipse fill="white" stroke="black" stroke-width="0" cx="308.1" cy="-574" rx="50.33" ry="18"/>
<text xml:space="preserve" text-anchor="middle" x="308.1" y="-568.95" font-family="Times New Roman,serif" font-size="14.00">bagātniece</text>
</g>
<!-- bagātnieks -->
<g id="node18" class="node">
<title>bagātnieks</title>
<ellipse fill="white" stroke="black" stroke-width="0" cx="308.1" cy="-501" rx="50.33" ry="18"/>
<text xml:space="preserve" text-anchor="middle" x="308.1" y="-495.95" font-family="Times New Roman,serif" font-size="14.00">bagātnieks</text>
</g>
<!-- bagātums -->
<g id="node19" class="node">
<title>bagātums</title>
<ellipse fill="white" stroke="black" stroke-width="0" cx="308.1" cy="-353" rx="46.75" ry="18"/>
<text xml:space="preserve" text-anchor="middle" x="308.1" y="-347.95" font-family="Times New Roman,serif" font-size="14.00">bagātums</text>
</g>
<!-- jaunbagātnieks -->
<g id="node20" class="node">
<title>jaunbagātnieks</title>
<ellipse fill="white" stroke="black" stroke-width="0" cx="486.81" cy="-865" rx="66.19" ry="18"/>
<text xml:space="preserve" text-anchor="middle" x="486.81" y="-859.95" font-family="Times New Roman,serif" font-size="14.00">jaunbagātnieks</text>
</g>
<!-- jauns -->
<g id="node21" class="node">
<title>jauns</title>
<ellipse fill="white" stroke="black" stroke-width="0" cx="308.1" cy="-865" rx="30.37" ry="18"/>
<text xml:space="preserve" text-anchor="middle" x="308.1" y="-859.95" font-family="Times New Roman,serif" font-size="14.00" fill="gray">jauns</text>
</g>
<!-- nebagāts -->
<g id="node22" class="node">
<title>nebagāts</title>
<ellipse fill="white" stroke="black" stroke-width="0" cx="308.1" cy="-277" rx="43.16" ry="18"/>
<text xml:space="preserve" text-anchor="middle" x="308.1" y="-271.95" font-family="Times New Roman,serif" font-size="14.00">nebagāts</text>
</g>
<!-- pārbagāti -->
<g id="node23" class="node">
<title>pārbagāti</title>
<ellipse fill="white" stroke="black" stroke-width="0" cx="486.81" cy="-18" rx="45.21" ry="18"/>
<text xml:space="preserve" text-anchor="middle" x="486.81" y="-12.95" font-family="Times New Roman,serif" font-size="14.00">pārbagāti</text>
</g>
<!-- pārbagāts -->
<g id="node24" class="node">
<title>pārbagāts</title>
<ellipse fill="white" stroke="black" stroke-width="0" cx="308.1" cy="-426" rx="46.23" ry="18"/>
<text xml:space="preserve" text-anchor="middle" x="308.1" y="-420.95" font-family="Times New Roman,serif" font-size="14.00">pārbagāts</text>
</g>
<!-- pārbagātība -->
<g id="node25" class="node">
<title>pārbagātība</title>
<ellipse fill="white" stroke="black" stroke-width="0" cx="486.81" cy="-612" rx="53.91" ry="18"/>
<text xml:space="preserve" text-anchor="middle" x="486.81" y="-606.95" font-family="Times New Roman,serif" font-size="14.00">pārbagātība</text>
</g>
<!-- superbagātnieks -->
<g id="node26" class="node">
<title>superbagātnieks</title>
<ellipse fill="white" stroke="black" stroke-width="0" cx="486.81" cy="-128" rx="70.29" ry="18"/>
<text xml:space="preserve" text-anchor="middle" x="486.81" y="-122.95" font-family="Times New Roman,serif" font-size="14.00">superbagātnieks</text>
</g>
<!-- super -->
<g id="node27" class="node">
<title>super</title>
<polygon fill="lightgray" stroke="black" stroke-width="0" points="192.21,-145 138.21,-145 138.21,-109 192.21,-109 192.21,-145"/>
<text xml:space="preserve" text-anchor="middle" x="165.21" y="-121.95" font-family="Times New Roman,serif" font-size="14.00">super</text>
</g>
<!-- superbagāts -->
<g id="node28" class="node">
<title>superbagāts</title>
<ellipse fill="white" stroke="black" stroke-width="0" cx="308.1" cy="-201" rx="54.42" ry="18"/>
<text xml:space="preserve" text-anchor="middle" x="308.1" y="-195.95" font-family="Times New Roman,serif" font-size="14.00">superbagāts</text>
</g>
</g>
</svg>
