<?xml version="1.0" encoding="UTF-8" standalone="no"?>
<!DOCTYPE svg PUBLIC "-//W3C//DTD SVG 1.1//EN"
 "http://www.w3.org/Graphics/SVG/1.1/DTD/svg11.dtd">
<!-- Generated by graphviz version 13.1.2 (20250808.2320)
 -->
<!-- Pages: 1 -->
<svg width="779pt" height="1816pt"
 viewBox="0.00 0.00 779.00 1816.00" xmlns="http://www.w3.org/2000/svg" xmlns:xlink="http://www.w3.org/1999/xlink">
<g id="graph0" class="graph" transform="scale(1 1) rotate(0) translate(4 1812)">
<polygon fill="white" stroke="none" points="-4,4 -4,-1812 775.12,-1812 775.12,4 -4,4"/>
<!-- # bagāt&#45;&gt;bagāti___bagāt -->
<g id="edge1" class="edge">
<title># bagāt&#45;&gt;bagāti___bagāt</title>
<path fill="none" stroke="#cccccc" d="M59.54,-845.6C111.7,-795.32 245.54,-666.3 291.96,-621.56"/>
</g>
<!-- # bagāt&#45;&gt;bagātinājums___bagāt -->
<g id="edge2" class="edge">
<title># bagāt&#45;&gt;bagātinājums___bagāt</title>
<path fill="none" stroke="#cccccc" d="M51.31,-886.25C117.15,-989.33 414.31,-1454.51 475.69,-1550.6"/>
</g>
<!-- # bagāt&#45;&gt;bagātināšana___bagāt -->
<g id="edge3" class="edge">
<title># bagāt&#45;&gt;bagātināšana___bagāt</title>
<path fill="none" stroke="#cccccc" d="M52.79,-886.18C121,-981.71 410.74,-1387.47 474.4,-1476.63"/>
</g>
<!-- # bagāt&#45;&gt;bagātināšanās___bagāt -->
<g id="edge4" class="edge">
<title># bagāt&#45;&gt;bagātināšanās___bagāt</title>
<path fill="none" stroke="#cccccc" d="M74.4,-886.42C191.33,-952.7 558.72,-1160.96 663.16,-1220.16"/>
</g>
<!-- # bagāt&#45;&gt;bagātināt___bagāt -->
<g id="edge5" class="edge">
<title># bagāt&#45;&gt;bagātināt___bagāt</title>
<path fill="none" stroke="#cccccc" d="M48.29,-886.41C91.11,-974.51 259.72,-1321.45 299.6,-1403.53"/>
</g>
<!-- # bagāt&#45;&gt;bagātinātāja___bagāt -->
<g id="edge6" class="edge">
<title># bagāt&#45;&gt;bagātinātāja___bagāt</title>
<path fill="none" stroke="#cccccc" d="M50.14,-886.38C113.91,-996.89 417.5,-1522.9 476.76,-1625.59"/>
</g>
<!-- # bagāt&#45;&gt;bagātinātājpiedeva___bagāt -->
<g id="edge7" class="edge">
<title># bagāt&#45;&gt;bagātinātājpiedeva___bagāt</title>
<path fill="none" stroke="#cccccc" d="M53.87,-886.2C143.45,-1002.99 594.02,-1590.42 677.72,-1699.54"/>
</g>
<!-- # bagāt&#45;&gt;bagātinātājs___bagāt -->
<g id="edge8" class="edge">
<title># bagāt&#45;&gt;bagātinātājs___bagāt</title>
<path fill="none" stroke="#cccccc" d="M55.95,-886.31C128.58,-970.2 404.58,-1289.01 471.92,-1366.8"/>
</g>
<!-- # bagāt&#45;&gt;bagātināties___bagāt -->
<g id="edge9" class="edge">
<title># bagāt&#45;&gt;bagātināties___bagāt</title>
<path fill="none" stroke="#cccccc" d="M60.92,-886.46C139.07,-957.39 397.43,-1191.88 468.54,-1256.43"/>
</g>
<!-- # bagāt&#45;&gt;bagātība___bagāt -->
<g id="edge10" class="edge">
<title># bagāt&#45;&gt;bagātība___bagāt</title>
<path fill="none" stroke="#cccccc" d="M54.84,-845.55C104.02,-784.46 249.22,-604.12 294.47,-547.92"/>
</g>
<!-- # bagāt&#45;&gt;bagātīgi___bagāt -->
<g id="edge11" class="edge">
<title># bagāt&#45;&gt;bagātīgi___bagāt</title>
<path fill="none" stroke="#cccccc" d="M73.94,-886.46C161.77,-936.99 387.27,-1066.73 462.19,-1109.84"/>
</g>
<!-- # bagāt&#45;&gt;bagātīgs___bagāt -->
<g id="edge12" class="edge">
<title># bagāt&#45;&gt;bagātīgs___bagāt</title>
<path fill="none" stroke="#cccccc" d="M68.01,-886.33C122.61,-923.78 237.92,-1002.86 286.15,-1035.95"/>
</g>
<!-- # bagāt&#45;&gt;bagātīgums___bagāt -->
<g id="edge13" class="edge">
<title># bagāt&#45;&gt;bagātīgums___bagāt</title>
<path fill="none" stroke="#cccccc" d="M76.61,-878.62C161.33,-906.58 364.04,-973.48 448.67,-1001.41"/>
</g>
<!-- # bagāt&#45;&gt;bagātniece___bagāt -->
<g id="edge14" class="edge">
<title># bagāt&#45;&gt;bagātniece___bagāt</title>
<path fill="none" stroke="#cccccc" d="M51.75,-845.77C98.41,-775.18 253.52,-540.56 296.79,-475.1"/>
</g>
<!-- # bagāt&#45;&gt;bagātnieks___bagāt -->
<g id="edge15" class="edge">
<title># bagāt&#45;&gt;bagātnieks___bagāt</title>
<path fill="none" stroke="#cccccc" d="M48.29,-845.66C91.06,-757.98 259.34,-412.96 299.47,-330.68"/>
</g>
<!-- # bagāt&#45;&gt;bagāts___bagāt -->
<g id="edge16" class="edge">
<title># bagāt&#45;&gt;bagāts___bagāt</title>
<path fill="none" stroke="#cccccc" d="M45.65,-845.59C67.31,-775.16 138.68,-543.05 158.85,-477.42"/>
</g>
<!-- # bagāt&#45;&gt;bagātums___bagāt -->
<g id="edge17" class="edge">
<title># bagāt&#45;&gt;bagātums___bagāt</title>
<path fill="none" stroke="#cccccc" d="M47.2,-845.53C88.46,-749.76 262.05,-346.86 300.52,-257.57"/>
</g>
<!-- # bagāt&#45;&gt;jaunbagātnieks___bagāt -->
<g id="edge18" class="edge">
<title># bagāt&#45;&gt;jaunbagātnieks___bagāt</title>
<path fill="none" stroke="#cccccc" d="M57.36,-845.64C131.71,-765.89 402.39,-475.54 470.94,-402.01"/>
</g>
<!-- # bagāt&#45;&gt;nebagāts___bagāt -->
<g id="edge19" class="edge">
<title># bagāt&#45;&gt;nebagāts___bagāt</title>
<path fill="none" stroke="#cccccc" d="M46.16,-845.81C85.72,-743.14 264.1,-280.18 301.29,-183.66"/>
</g>
<!-- # bagāt&#45;&gt;pārbagāti___bagāt -->
<g id="edge20" class="edge">
<title># bagāt&#45;&gt;pārbagāti___bagāt</title>
<path fill="none" stroke="#cccccc" d="M76.61,-869.07C159.42,-875.72 354.98,-891.42 442.78,-898.47"/>
</g>
<!-- # bagāt&#45;&gt;pārbagātība___bagāt -->
<g id="edge21" class="edge">
<title># bagāt&#45;&gt;pārbagātība___bagāt</title>
<path fill="none" stroke="#cccccc" d="M76.61,-859.69C158.15,-846.23 349,-814.74 438.66,-799.94"/>
</g>
<!-- # bagāt&#45;&gt;pārbagāts___bagāt -->
<g id="edge22" class="edge">
<title># bagāt&#45;&gt;pārbagāts___bagāt</title>
<path fill="none" stroke="#cccccc" d="M76.73,-860.74C126.33,-853.93 212.49,-842.12 264.51,-834.98"/>
</g>
<!-- # bagāt&#45;&gt;superbagātnieks___bagāt -->
<g id="edge23" class="edge">
<title># bagāt&#45;&gt;superbagātnieks___bagāt</title>
<path fill="none" stroke="#cccccc" d="M49.02,-845.9C110.49,-729.78 419.44,-146.24 477.42,-36.73"/>
</g>
<!-- # bagāt&#45;&gt;superbagāts___bagāt -->
<g id="edge24" class="edge">
<title># bagāt&#45;&gt;superbagāts___bagāt</title>
<path fill="none" stroke="#cccccc" d="M45.45,-845.7C83.77,-735.74 266.01,-212.77 301.94,-109.67"/>
</g>
<!-- bagātināt___bagāt&#45;&gt;bagātinājums___bagāt -->
<g id="edge26" class="edge">
<title>bagātināt___bagāt&#45;&gt;bagātinājums___bagāt</title>
<path fill="none" stroke="green" d="M328.34,-1437.01C359.43,-1462.87 420.87,-1513.98 457.13,-1544.14"/>
<polygon fill="green" stroke="green" points="454.68,-1546.66 464.61,-1550.37 459.16,-1541.28 454.68,-1546.66"/>
</g>
<!-- bagātināt___bagāt&#45;&gt;bagātināšana___bagāt -->
<g id="edge27" class="edge">
<title>bagātināt___bagāt&#45;&gt;bagātināšana___bagāt</title>
<path fill="none" stroke="green" d="M339.47,-1433.55C367.4,-1445.09 409.16,-1462.34 440.93,-1475.46"/>
<polygon fill="green" stroke="green" points="439.31,-1478.58 449.89,-1479.16 441.99,-1472.11 439.31,-1478.58"/>
</g>
<!-- bagātināt___bagāt&#45;&gt;bagātinātāja___bagāt -->
<g id="edge30" class="edge">
<title>bagātināt___bagāt&#45;&gt;bagātinātāja___bagāt</title>
<path fill="none" stroke="green" d="M322.38,-1437.69C352.94,-1476.08 428.43,-1570.92 465.12,-1617.02"/>
<polygon fill="green" stroke="green" points="462.22,-1618.99 471.18,-1624.63 467.7,-1614.63 462.22,-1618.99"/>
</g>
<!-- bagātināt___bagāt&#45;&gt;bagātinātājs___bagāt -->
<g id="edge33" class="edge">
<title>bagātināt___bagāt&#45;&gt;bagātinātājs___bagāt</title>
<path fill="none" stroke="green" d="M347.88,-1412.88C371.7,-1407.89 402.63,-1401.41 429.17,-1395.86"/>
<polygon fill="green" stroke="green" points="429.69,-1399.33 438.76,-1393.85 428.25,-1392.48 429.69,-1399.33"/>
</g>
<!-- bagātināt___bagāt&#45;&gt;bagātināties___bagāt -->
<g id="edge34" class="edge">
<title>bagātināt___bagāt&#45;&gt;bagātināties___bagāt</title>
<path fill="none" stroke="green" d="M328.01,-1405.16C359.03,-1379.18 420.92,-1327.34 457.29,-1296.88"/>
<polygon fill="green" stroke="green" points="459.37,-1299.7 464.79,-1290.6 454.88,-1294.34 459.37,-1299.7"/>
</g>
<!-- bagātinātāja___bagāt&#45;&gt;bagātinātājpiedeva___bagāt -->
<g id="edge31" class="edge">
<title>bagātinātāja___bagāt&#45;&gt;bagātinātājpiedeva___bagāt</title>
<path fill="none" stroke="blue" d="M523.97,-1656.23C555.7,-1667.83 602.21,-1684.85 637.95,-1697.92"/>
<polygon fill="blue" stroke="blue" points="636.66,-1701.18 647.25,-1701.32 639.06,-1694.6 636.66,-1701.18"/>
</g>
<!-- bagātināties___bagāt&#45;&gt;bagātināšanās___bagāt -->
<g id="edge28" class="edge">
<title>bagātināties___bagāt&#45;&gt;bagātināšanās___bagāt</title>
<path fill="none" stroke="green" d="M534.98,-1264.37C562.52,-1259.34 597.61,-1252.92 627.44,-1247.46"/>
<polygon fill="green" stroke="green" points="627.9,-1250.94 637.11,-1245.69 626.64,-1244.05 627.9,-1250.94"/>
</g>
<!-- bagātīgs___bagāt&#45;&gt;bagātīgi___bagāt -->
<g id="edge36" class="edge">
<title>bagātīgs___bagāt&#45;&gt;bagātīgi___bagāt</title>
<path fill="none" stroke="green" d="M338.28,-1063.05C367.78,-1075.24 413.58,-1094.16 446.32,-1107.69"/>
<polygon fill="green" stroke="green" points="444.9,-1110.89 455.48,-1111.47 447.57,-1104.42 444.9,-1110.89"/>
</g>
<!-- bagātīgs___bagāt&#45;&gt;bagātīgums___bagāt -->
<g id="edge38" class="edge">
<title>bagātīgs___bagāt&#45;&gt;bagātīgums___bagāt</title>
<path fill="none" stroke="green" d="M345.71,-1043.33C370.06,-1038.24 402.49,-1031.44 430.02,-1025.68"/>
<polygon fill="green" stroke="green" points="430.54,-1029.15 439.61,-1023.67 429.1,-1022.3 430.54,-1029.15"/>
</g>
<!-- bagātnieks___bagāt&#45;&gt;jaunbagātnieks___bagāt -->
<g id="edge43" class="edge">
<title>bagātnieks___bagāt&#45;&gt;jaunbagātnieks___bagāt</title>
<path fill="none" stroke="blue" d="M341.51,-326.21C368.87,-337.35 408.39,-353.46 439.16,-365.99"/>
<polygon fill="blue" stroke="blue" points="437.66,-369.16 448.24,-369.69 440.3,-362.68 437.66,-369.16"/>
</g>
<!-- bagātnieks___bagāt&#45;&gt;superbagātnieks___bagāt -->
<g id="edge49" class="edge">
<title>bagātnieks___bagāt&#45;&gt;superbagātnieks___bagāt</title>
<path fill="none" stroke="orange" d="M319.62,-295.49C349.27,-246.16 433.65,-105.78 469.44,-46.23"/>
<polygon fill="orange" stroke="orange" points="472.41,-48.09 474.56,-37.72 466.41,-44.48 472.41,-48.09"/>
</g>
<!-- bagāts___bagāt&#45;&gt;bagāti___bagāt -->
<g id="edge25" class="edge">
<title>bagāts___bagāt&#45;&gt;bagāti___bagāt</title>
<path fill="none" stroke="green" d="M181.29,-475.62C205.97,-501.2 255.14,-552.16 284.16,-582.24"/>
<polygon fill="green" stroke="green" points="281.61,-584.63 291.08,-589.4 286.65,-579.77 281.61,-584.63"/>
</g>
<!-- bagāts___bagāt&#45;&gt;bagātināt___bagāt -->
<g id="edge29" class="edge">
<title>bagāts___bagāt&#45;&gt;bagātināt___bagāt</title>
<path fill="none" stroke="green" d="M168.78,-477.5C185.72,-593.05 281.47,-1246.17 302.86,-1392.09"/>
<polygon fill="green" stroke="green" points="299.35,-1392.29 304.26,-1401.67 306.27,-1391.27 299.35,-1392.29"/>
</g>
<!-- bagāts___bagāt&#45;&gt;bagātība___bagāt -->
<g id="edge35" class="edge">
<title>bagāts___bagāt&#45;&gt;bagātība___bagāt</title>
<path fill="none" stroke="green" d="M190.43,-472.21C212.32,-483.24 244.88,-499.64 270.04,-512.32"/>
<polygon fill="green" stroke="green" points="268.46,-515.45 278.96,-516.82 271.61,-509.2 268.46,-515.45"/>
</g>
<!-- bagāts___bagāt&#45;&gt;bagātīgs___bagāt -->
<g id="edge37" class="edge">
<title>bagāts___bagāt&#45;&gt;bagātīgs___bagāt</title>
<path fill="none" stroke="green" d="M170.43,-477.69C190.38,-561.38 275.36,-917.88 300.23,-1022.21"/>
<polygon fill="green" stroke="green" points="296.82,-1022.99 302.54,-1031.91 303.63,-1021.37 296.82,-1022.99"/>
</g>
<!-- bagāts___bagāt&#45;&gt;bagātniece___bagāt -->
<g id="edge39" class="edge">
<title>bagāts___bagāt&#45;&gt;bagātniece___bagāt</title>
<path fill="none" stroke="green" d="M199.6,-459.53C213.75,-459.33 230.68,-459.08 246.88,-458.85"/>
<polygon fill="green" stroke="green" points="246.47,-462.36 256.42,-458.72 246.37,-455.36 246.47,-462.36"/>
</g>
<!-- bagāts___bagāt&#45;&gt;bagātnieks___bagāt -->
<g id="edge40" class="edge">
<title>bagāts___bagāt&#45;&gt;bagātnieks___bagāt</title>
<path fill="none" stroke="green" d="M181.29,-444.27C205.82,-418.68 254.53,-367.85 283.62,-337.49"/>
<polygon fill="green" stroke="green" points="285.83,-340.25 290.22,-330.61 280.77,-335.41 285.83,-340.25"/>
</g>
<!-- bagāts___bagāt&#45;&gt;bagātums___bagāt -->
<g id="edge41" class="edge">
<title>bagāts___bagāt&#45;&gt;bagātums___bagāt</title>
<path fill="none" stroke="green" d="M177.03,-443.1C201.35,-405.12 260.5,-312.76 289.91,-266.84"/>
<polygon fill="green" stroke="green" points="292.78,-268.84 295.23,-258.53 286.89,-265.07 292.78,-268.84"/>
</g>
<!-- bagāts___bagāt&#45;&gt;nebagāts___bagāt -->
<g id="edge44" class="edge">
<title>bagāts___bagāt&#45;&gt;nebagāts___bagāt</title>
<path fill="none" stroke="green" d="M174.4,-442.92C197.78,-394.12 265.06,-253.72 293.81,-193.72"/>
<polygon fill="green" stroke="green" points="296.89,-195.39 298.06,-184.86 290.58,-192.36 296.89,-195.39"/>
</g>
<!-- bagāts___bagāt&#45;&gt;pārbagāts___bagāt -->
<g id="edge47" class="edge">
<title>bagāts___bagāt&#45;&gt;pārbagāts___bagāt</title>
<path fill="none" stroke="green" d="M172.82,-477.3C195.23,-536 268.51,-727.93 296.29,-800.69"/>
<polygon fill="green" stroke="green" points="292.96,-801.8 299.8,-809.89 299.5,-799.3 292.96,-801.8"/>
</g>
<!-- bagāts___bagāt&#45;&gt;superbagāts___bagāt -->
<g id="edge51" class="edge">
<title>bagāts___bagāt&#45;&gt;superbagāts___bagāt</title>
<path fill="none" stroke="orange" d="M172.82,-442.74C195.23,-384.2 268.51,-192.8 296.29,-120.23"/>
<polygon fill="orange" stroke="orange" points="299.49,-121.65 299.8,-111.06 292.95,-119.15 299.49,-121.65"/>
</g>
<!-- pārbagāts___bagāt&#45;&gt;pārbagāti___bagāt -->
<g id="edge45" class="edge">
<title>pārbagāts___bagāt&#45;&gt;pārbagāti___bagāt</title>
<path fill="none" stroke="green" d="M340.28,-841.88C369.3,-853.87 412.74,-871.82 444.61,-884.98"/>
<polygon fill="green" stroke="green" points="442.95,-888.08 453.53,-888.67 445.63,-881.62 442.95,-888.08"/>
</g>
<!-- pārbagāts___bagāt&#45;&gt;pārbagātība___bagāt -->
<g id="edge46" class="edge">
<title>pārbagāts___bagāt&#45;&gt;pārbagātība___bagāt</title>
<path fill="none" stroke="green" d="M348.75,-820.7C372.7,-815.68 403.6,-809.21 429.99,-803.69"/>
<polygon fill="green" stroke="green" points="430.44,-807.17 439.51,-801.69 429.01,-800.32 430.44,-807.17"/>
</g>
<!-- piedeva&#45;&gt;bagātinātājpiedeva___bagāt -->
<g id="edge32" class="edge">
<title>piedeva&#45;&gt;bagātinātājpiedeva___bagāt</title>
<path fill="none" stroke="blue" d="M518.09,-1779.07C549.73,-1767.66 599.95,-1749.53 637.98,-1735.81"/>
<polygon fill="blue" stroke="blue" points="638.72,-1739.27 646.93,-1732.58 636.34,-1732.68 638.72,-1739.27"/>
</g>
<!-- jauns&#45;&gt;jaunbagātnieks___bagāt -->
<g id="edge42" class="edge">
<title>jauns&#45;&gt;jaunbagātnieks___bagāt</title>
<path fill="none" stroke="blue" d="M338.28,-385C357.66,-385 384.07,-385 409.19,-385"/>
<polygon fill="blue" stroke="blue" points="409.1,-388.5 419.1,-385 409.1,-381.5 409.1,-388.5"/>
</g>
<!-- super&#45;&gt;superbagātnieks___bagāt -->
<g id="edge48" class="edge">
<title>super&#45;&gt;superbagātnieks___bagāt</title>
<path fill="none" stroke="orange" d="M192.08,-18.08C238.41,-18.23 335.1,-18.53 405.13,-18.75"/>
<polygon fill="orange" stroke="orange" points="405.04,-22.25 415.05,-18.78 405.06,-15.25 405.04,-22.25"/>
</g>
<!-- super&#45;&gt;superbagāts___bagāt -->
<g id="edge50" class="edge">
<title>super&#45;&gt;superbagāts___bagāt</title>
<path fill="none" stroke="orange" d="M192.05,-31.57C213.46,-42.82 244.21,-58.97 268.53,-71.74"/>
<polygon fill="orange" stroke="orange" points="266.69,-74.73 277.17,-76.28 269.95,-68.53 266.69,-74.73"/>
</g>
<!-- # bagāt -->
<g id="node1" class="node">
<title># bagāt</title>
<polygon fill="lightblue" stroke="black" stroke-width="0" points="76.75,-886.5 0,-886.5 0,-845.5 76.75,-845.5 76.75,-886.5"/>
<text xml:space="preserve" text-anchor="middle" x="38.38" y="-869.2" font-family="Times New Roman,serif" font-size="14.00">bagāt</text>
<text xml:space="preserve" text-anchor="middle" x="38.38" y="-852.7" font-family="Times New Roman,serif" font-size="14.00">(borrowed)</text>
</g>
<!-- bagāti___bagāt -->
<g id="node2" class="node">
<title>bagāti___bagāt</title>
<ellipse fill="white" stroke="black" stroke-width="0" cx="308.1" cy="-606" rx="33.44" ry="18"/>
<text xml:space="preserve" text-anchor="middle" x="308.1" y="-600.95" font-family="Times New Roman,serif" font-size="14.00">bagāti</text>
</g>
<!-- bagātinājums___bagāt -->
<g id="node3" class="node">
<title>bagātinājums___bagāt</title>
<ellipse fill="white" stroke="black" stroke-width="0" cx="486.81" cy="-1568" rx="60.56" ry="18"/>
<text xml:space="preserve" text-anchor="middle" x="486.81" y="-1562.95" font-family="Times New Roman,serif" font-size="14.00">bagātinājums</text>
</g>
<!-- bagātināšana___bagāt -->
<g id="node4" class="node">
<title>bagātināšana___bagāt</title>
<ellipse fill="white" stroke="black" stroke-width="0" cx="486.81" cy="-1494" rx="58.52" ry="18"/>
<text xml:space="preserve" text-anchor="middle" x="486.81" y="-1488.95" font-family="Times New Roman,serif" font-size="14.00">bagātināšana</text>
</g>
<!-- bagātināšanās___bagāt -->
<g id="node5" class="node">
<title>bagātināšanās___bagāt</title>
<ellipse fill="white" stroke="black" stroke-width="0" cx="691.11" cy="-1236" rx="62.1" ry="18"/>
<text xml:space="preserve" text-anchor="middle" x="691.11" y="-1230.95" font-family="Times New Roman,serif" font-size="14.00">bagātināšanās</text>
</g>
<!-- bagātināt___bagāt -->
<g id="node6" class="node">
<title>bagātināt___bagāt</title>
<ellipse fill="white" stroke="black" stroke-width="0" cx="308.1" cy="-1421" rx="44.7" ry="18"/>
<text xml:space="preserve" text-anchor="middle" x="308.1" y="-1415.95" font-family="Times New Roman,serif" font-size="14.00">bagātināt</text>
</g>
<!-- bagātinātāja___bagāt -->
<g id="node7" class="node">
<title>bagātinātāja___bagāt</title>
<ellipse fill="white" stroke="black" stroke-width="0" cx="486.81" cy="-1643" rx="55.45" ry="18"/>
<text xml:space="preserve" text-anchor="middle" x="486.81" y="-1637.95" font-family="Times New Roman,serif" font-size="14.00">bagātinātāja</text>
</g>
<!-- bagātinātājpiedeva___bagāt -->
<g id="node8" class="node">
<title>bagātinātājpiedeva___bagāt</title>
<ellipse fill="white" stroke="black" stroke-width="0" cx="691.11" cy="-1717" rx="80.01" ry="18"/>
<text xml:space="preserve" text-anchor="middle" x="691.11" y="-1711.95" font-family="Times New Roman,serif" font-size="14.00">bagātinātājpiedeva</text>
</g>
<!-- bagātinātājs___bagāt -->
<g id="node9" class="node">
<title>bagātinātājs___bagāt</title>
<ellipse fill="white" stroke="black" stroke-width="0" cx="486.81" cy="-1384" rx="54.93" ry="18"/>
<text xml:space="preserve" text-anchor="middle" x="486.81" y="-1378.95" font-family="Times New Roman,serif" font-size="14.00">bagātinātājs</text>
</g>
<!-- bagātināties___bagāt -->
<g id="node10" class="node">
<title>bagātināties___bagāt</title>
<ellipse fill="white" stroke="black" stroke-width="0" cx="486.81" cy="-1273" rx="54.93" ry="18"/>
<text xml:space="preserve" text-anchor="middle" x="486.81" y="-1267.95" font-family="Times New Roman,serif" font-size="14.00">bagātināties</text>
</g>
<!-- bagātība___bagāt -->
<g id="node11" class="node">
<title>bagātība___bagāt</title>
<ellipse fill="white" stroke="black" stroke-width="0" cx="308.1" cy="-531" rx="42.14" ry="18"/>
<text xml:space="preserve" text-anchor="middle" x="308.1" y="-525.95" font-family="Times New Roman,serif" font-size="14.00">bagātība</text>
</g>
<!-- bagātīgi___bagāt -->
<g id="node12" class="node">
<title>bagātīgi___bagāt</title>
<ellipse fill="white" stroke="black" stroke-width="0" cx="486.81" cy="-1124" rx="40.6" ry="18"/>
<text xml:space="preserve" text-anchor="middle" x="486.81" y="-1118.95" font-family="Times New Roman,serif" font-size="14.00">bagātīgi</text>
</g>
<!-- bagātīgs___bagāt -->
<g id="node13" class="node">
<title>bagātīgs___bagāt</title>
<ellipse fill="white" stroke="black" stroke-width="0" cx="308.1" cy="-1051" rx="41.63" ry="18"/>
<text xml:space="preserve" text-anchor="middle" x="308.1" y="-1045.95" font-family="Times New Roman,serif" font-size="14.00">bagātīgs</text>
</g>
<!-- bagātīgums___bagāt -->
<g id="node14" class="node">
<title>bagātīgums___bagāt</title>
<ellipse fill="white" stroke="black" stroke-width="0" cx="486.81" cy="-1014" rx="53.91" ry="18"/>
<text xml:space="preserve" text-anchor="middle" x="486.81" y="-1008.95" font-family="Times New Roman,serif" font-size="14.00">bagātīgums</text>
</g>
<!-- bagātniece___bagāt -->
<g id="node15" class="node">
<title>bagātniece___bagāt</title>
<ellipse fill="white" stroke="black" stroke-width="0" cx="308.1" cy="-458" rx="50.33" ry="18"/>
<text xml:space="preserve" text-anchor="middle" x="308.1" y="-452.95" font-family="Times New Roman,serif" font-size="14.00">bagātniece</text>
</g>
<!-- bagātnieks___bagāt -->
<g id="node16" class="node">
<title>bagātnieks___bagāt</title>
<ellipse fill="white" stroke="black" stroke-width="0" cx="308.1" cy="-313" rx="50.33" ry="18"/>
<text xml:space="preserve" text-anchor="middle" x="308.1" y="-307.95" font-family="Times New Roman,serif" font-size="14.00">bagātnieks</text>
</g>
<!-- bagāts___bagāt -->
<g id="node17" class="node">
<title>bagāts___bagāt</title>
<ellipse fill="white" stroke="black" stroke-width="0" cx="165.21" cy="-460" rx="34.46" ry="18"/>
<text xml:space="preserve" text-anchor="middle" x="165.21" y="-454.95" font-family="Times New Roman,serif" font-size="14.00">bagāts</text>
</g>
<!-- bagātums___bagāt -->
<g id="node18" class="node">
<title>bagātums___bagāt</title>
<ellipse fill="white" stroke="black" stroke-width="0" cx="308.1" cy="-240" rx="46.75" ry="18"/>
<text xml:space="preserve" text-anchor="middle" x="308.1" y="-234.95" font-family="Times New Roman,serif" font-size="14.00">bagātums</text>
</g>
<!-- jaunbagātnieks___bagāt -->
<g id="node19" class="node">
<title>jaunbagātnieks___bagāt</title>
<ellipse fill="white" stroke="black" stroke-width="0" cx="486.81" cy="-385" rx="66.19" ry="18"/>
<text xml:space="preserve" text-anchor="middle" x="486.81" y="-379.95" font-family="Times New Roman,serif" font-size="14.00">jaunbagātnieks</text>
</g>
<!-- nebagāts___bagāt -->
<g id="node20" class="node">
<title>nebagāts___bagāt</title>
<ellipse fill="white" stroke="black" stroke-width="0" cx="308.1" cy="-166" rx="43.16" ry="18"/>
<text xml:space="preserve" text-anchor="middle" x="308.1" y="-160.95" font-family="Times New Roman,serif" font-size="14.00">nebagāts</text>
</g>
<!-- pārbagāti___bagāt -->
<g id="node21" class="node">
<title>pārbagāti___bagāt</title>
<ellipse fill="white" stroke="black" stroke-width="0" cx="486.81" cy="-902" rx="45.21" ry="18"/>
<text xml:space="preserve" text-anchor="middle" x="486.81" y="-896.95" font-family="Times New Roman,serif" font-size="14.00">pārbagāti</text>
</g>
<!-- pārbagātība___bagāt -->
<g id="node22" class="node">
<title>pārbagātība___bagāt</title>
<ellipse fill="white" stroke="black" stroke-width="0" cx="486.81" cy="-792" rx="53.91" ry="18"/>
<text xml:space="preserve" text-anchor="middle" x="486.81" y="-786.95" font-family="Times New Roman,serif" font-size="14.00">pārbagātība</text>
</g>
<!-- pārbagāts___bagāt -->
<g id="node23" class="node">
<title>pārbagāts___bagāt</title>
<ellipse fill="white" stroke="black" stroke-width="0" cx="308.1" cy="-829" rx="46.23" ry="18"/>
<text xml:space="preserve" text-anchor="middle" x="308.1" y="-823.95" font-family="Times New Roman,serif" font-size="14.00">pārbagāts</text>
</g>
<!-- superbagātnieks___bagāt -->
<g id="node24" class="node">
<title>superbagātnieks___bagāt</title>
<ellipse fill="white" stroke="black" stroke-width="0" cx="486.81" cy="-19" rx="70.29" ry="18"/>
<text xml:space="preserve" text-anchor="middle" x="486.81" y="-13.95" font-family="Times New Roman,serif" font-size="14.00">superbagātnieks</text>
</g>
<!-- superbagāts___bagāt -->
<g id="node25" class="node">
<title>superbagāts___bagāt</title>
<ellipse fill="white" stroke="black" stroke-width="0" cx="308.1" cy="-92" rx="54.42" ry="18"/>
<text xml:space="preserve" text-anchor="middle" x="308.1" y="-86.95" font-family="Times New Roman,serif" font-size="14.00">superbagāts</text>
</g>
<!-- piedeva -->
<g id="node26" class="node">
<title>piedeva</title>
<ellipse fill="white" stroke="black" stroke-width="0" cx="486.81" cy="-1790" rx="39.58" ry="18"/>
<text xml:space="preserve" text-anchor="middle" x="486.81" y="-1784.95" font-family="Times New Roman,serif" font-size="14.00" fill="gray">piedeva</text>
</g>
<!-- jauns -->
<g id="node27" class="node">
<title>jauns</title>
<ellipse fill="white" stroke="black" stroke-width="0" cx="308.1" cy="-385" rx="30.37" ry="18"/>
<text xml:space="preserve" text-anchor="middle" x="308.1" y="-379.95" font-family="Times New Roman,serif" font-size="14.00" fill="gray">jauns</text>
</g>
<!-- super -->
<g id="node28" class="node">
<title>super</title>
<polygon fill="lightgray" stroke="black" stroke-width="0" points="192.21,-36 138.21,-36 138.21,0 192.21,0 192.21,-36"/>
<text xml:space="preserve" text-anchor="middle" x="165.21" y="-12.95" font-family="Times New Roman,serif" font-size="14.00">super</text>
</g>
</g>
</svg>
