<?xml version="1.0" encoding="UTF-8" standalone="no"?>
<!DOCTYPE svg PUBLIC "-//W3C//DTD SVG 1.1//EN"
 "http://www.w3.org/Graphics/SVG/1.1/DTD/svg11.dtd">
<!-- Generated by graphviz version 13.1.2 (20250808.2320)
 -->
<!-- Pages: 1 -->
<svg width="527pt" height="190pt"
 viewBox="0.00 0.00 527.00 190.00" xmlns="http://www.w3.org/2000/svg" xmlns:xlink="http://www.w3.org/1999/xlink">
<g id="graph0" class="graph" transform="scale(1 1) rotate(0) translate(4 186)">
<polygon fill="white" stroke="none" points="-4,4 -4,-186 523.22,-186 523.22,4 -4,4"/>
<!-- # bagar&#45;&gt;bagarēt___bagar -->
<g id="edge1" class="edge">
<title># bagar&#45;&gt;bagarēt___bagar</title>
<path fill="none" stroke="#cccccc" d="M76.64,-132.07C130.61,-139.21 228.37,-152.16 281.34,-159.17"/>
</g>
<!-- # bagar&#45;&gt;bagarmašīna___bagar -->
<g id="edge2" class="edge">
<title># bagar&#45;&gt;bagarmašīna___bagar</title>
<path fill="none" stroke="#cccccc" d="M76.64,-122.07C125.3,-115.8 209.57,-104.95 264.5,-97.87"/>
</g>
<!-- # bagar&#45;&gt;bagars___bagar -->
<g id="edge3" class="edge">
<title># bagar&#45;&gt;bagars___bagar</title>
<path fill="none" stroke="#cccccc" d="M76.72,-137.8C96.18,-143.43 119.65,-150.22 137.82,-155.48"/>
</g>
<!-- # bagar&#45;&gt;izbagarēt___bagar -->
<g id="edge4" class="edge">
<title># bagar&#45;&gt;izbagarēt___bagar</title>
<path fill="none" stroke="#cccccc" d="M76.7,-120.59C158.39,-106.91 349.06,-75 433.28,-60.9"/>
</g>
<!-- bagarēt___bagar&#45;&gt;izbagarēt___bagar -->
<g id="edge8" class="edge">
<title>bagarēt___bagar&#45;&gt;izbagarēt___bagar</title>
<path fill="none" stroke="green" d="M339.36,-149.39C365.77,-130.62 411.85,-97.85 442.52,-76.04"/>
<polygon fill="green" stroke="green" points="444.54,-78.9 450.66,-70.25 440.49,-73.2 444.54,-78.9"/>
</g>
<!-- bagars___bagar&#45;&gt;bagarēt___bagar -->
<g id="edge5" class="edge">
<title>bagars___bagar&#45;&gt;bagarēt___bagar</title>
<path fill="none" stroke="green" d="M203.13,-164C222.51,-164 247.15,-164 268.54,-164"/>
<polygon fill="green" stroke="green" points="268.52,-167.5 278.52,-164 268.52,-160.5 268.52,-167.5"/>
</g>
<!-- bagars___bagar&#45;&gt;bagarmašīna___bagar -->
<g id="edge6" class="edge">
<title>bagars___bagar&#45;&gt;bagarmašīna___bagar</title>
<path fill="none" stroke="blue" d="M193.65,-151.95C216.12,-140.83 249.91,-124.11 276.42,-110.99"/>
<polygon fill="blue" stroke="blue" points="277.78,-114.22 285.19,-106.65 274.67,-107.95 277.78,-114.22"/>
</g>
<!-- mašīna&#45;&gt;bagarmašīna___bagar -->
<g id="edge7" class="edge">
<title>mašīna&#45;&gt;bagarmašīna___bagar</title>
<path fill="none" stroke="blue" d="M194.65,-30.55C217.12,-41.67 250.33,-58.1 276.45,-71.03"/>
<polygon fill="blue" stroke="blue" points="274.57,-74 285.08,-75.3 277.67,-67.72 274.57,-74"/>
</g>
<!-- # bagar -->
<g id="node1" class="node">
<title># bagar</title>
<polygon fill="lightblue" stroke="black" stroke-width="0" points="76.75,-147.5 0,-147.5 0,-106.5 76.75,-106.5 76.75,-147.5"/>
<text xml:space="preserve" text-anchor="middle" x="38.38" y="-130.2" font-family="Times New Roman,serif" font-size="14.00">bagar</text>
<text xml:space="preserve" text-anchor="middle" x="38.38" y="-113.7" font-family="Times New Roman,serif" font-size="14.00">(borrowed)</text>
</g>
<!-- bagarēt___bagar -->
<g id="node2" class="node">
<title>bagarēt___bagar</title>
<ellipse fill="white" stroke="black" stroke-width="0" cx="317.82" cy="-164" rx="38.04" ry="18"/>
<text xml:space="preserve" text-anchor="middle" x="317.82" y="-158.95" font-family="Times New Roman,serif" font-size="14.00">bagarēt</text>
</g>
<!-- bagarmašīna___bagar -->
<g id="node3" class="node">
<title>bagarmašīna___bagar</title>
<ellipse fill="white" stroke="black" stroke-width="0" cx="317.82" cy="-91" rx="58" ry="18"/>
<text xml:space="preserve" text-anchor="middle" x="317.82" y="-85.95" font-family="Times New Roman,serif" font-size="14.00">bagarmašīna</text>
</g>
<!-- bagars___bagar -->
<g id="node4" class="node">
<title>bagars___bagar</title>
<ellipse fill="white" stroke="black" stroke-width="0" cx="168.28" cy="-164" rx="34.97" ry="18"/>
<text xml:space="preserve" text-anchor="middle" x="168.28" y="-158.95" font-family="Times New Roman,serif" font-size="14.00">bagars</text>
</g>
<!-- izbagarēt___bagar -->
<g id="node5" class="node">
<title>izbagarēt___bagar</title>
<ellipse fill="white" stroke="black" stroke-width="0" cx="474.52" cy="-54" rx="44.7" ry="18"/>
<text xml:space="preserve" text-anchor="middle" x="474.52" y="-48.95" font-family="Times New Roman,serif" font-size="14.00">izbagarēt</text>
</g>
<!-- mašīna -->
<g id="node6" class="node">
<title>mašīna</title>
<ellipse fill="white" stroke="black" stroke-width="0" cx="168.28" cy="-18" rx="37.53" ry="18"/>
<text xml:space="preserve" text-anchor="middle" x="168.28" y="-12.95" font-family="Times New Roman,serif" font-size="14.00" fill="gray">mašīna</text>
</g>
</g>
</svg>
