<?xml version="1.0" encoding="UTF-8" standalone="no"?>
<!DOCTYPE svg PUBLIC "-//W3C//DTD SVG 1.1//EN"
 "http://www.w3.org/Graphics/SVG/1.1/DTD/svg11.dtd">
<!-- Generated by graphviz version 13.1.2 (20250808.2320)
 -->
<!-- Pages: 1 -->
<svg width="342pt" height="83pt"
 viewBox="0.00 0.00 342.00 83.00" xmlns="http://www.w3.org/2000/svg" xmlns:xlink="http://www.w3.org/1999/xlink">
<g id="graph0" class="graph" transform="scale(1 1) rotate(0) translate(4 78.5)">
<polygon fill="white" stroke="none" points="-4,4 -4,-78.5 337.86,-78.5 337.86,4 -4,4"/>
<!-- # bagij&#45;&gt;bagijists___bagij -->
<g id="edge1" class="edge">
<title># bagij&#45;&gt;bagijists___bagij</title>
<path fill="none" stroke="#cccccc" d="M76.65,-54C123.47,-54 202.42,-54 250.68,-54"/>
</g>
<!-- # bagij&#45;&gt;bagijs___bagij -->
<g id="edge2" class="edge">
<title># bagij&#45;&gt;bagijs___bagij</title>
<path fill="none" stroke="#cccccc" d="M76.7,-43.1C95.27,-37.68 117.35,-31.23 134.48,-26.23"/>
</g>
<!-- bagijs___bagij&#45;&gt;bagijists___bagij -->
<g id="edge3" class="edge">
<title>bagijs___bagij&#45;&gt;bagijists___bagij</title>
<path fill="none" stroke="green" d="M193.08,-26.08C208.81,-30.56 228.74,-36.22 246.51,-41.28"/>
<polygon fill="green" stroke="green" points="245.5,-44.63 256.08,-44 247.42,-37.9 245.5,-44.63"/>
</g>
<!-- # bagij -->
<g id="node1" class="node">
<title># bagij</title>
<polygon fill="lightblue" stroke="black" stroke-width="0" points="76.75,-74.5 0,-74.5 0,-33.5 76.75,-33.5 76.75,-74.5"/>
<text xml:space="preserve" text-anchor="middle" x="38.38" y="-57.2" font-family="Times New Roman,serif" font-size="14.00">bagij</text>
<text xml:space="preserve" text-anchor="middle" x="38.38" y="-40.7" font-family="Times New Roman,serif" font-size="14.00">(borrowed)</text>
</g>
<!-- bagijists___bagij -->
<g id="node2" class="node">
<title>bagijists___bagij</title>
<ellipse fill="white" stroke="black" stroke-width="0" cx="292.23" cy="-54" rx="41.63" ry="18"/>
<text xml:space="preserve" text-anchor="middle" x="292.23" y="-48.95" font-family="Times New Roman,serif" font-size="14.00">bagijists</text>
</g>
<!-- bagijs___bagij -->
<g id="node3" class="node">
<title>bagijs___bagij</title>
<ellipse fill="white" stroke="black" stroke-width="0" cx="163.68" cy="-18" rx="32.93" ry="18"/>
<text xml:space="preserve" text-anchor="middle" x="163.68" y="-12.95" font-family="Times New Roman,serif" font-size="14.00">bagijs</text>
</g>
</g>
</svg>
