<?xml version="1.0" encoding="UTF-8" standalone="no"?>
<!DOCTYPE svg PUBLIC "-//W3C//DTD SVG 1.1//EN"
 "http://www.w3.org/Graphics/SVG/1.1/DTD/svg11.dtd">
<!-- Generated by graphviz version 13.1.2 (20250808.2320)
 -->
<!-- Pages: 1 -->
<svg width="270pt" height="692pt"
 viewBox="0.00 0.00 270.00 692.00" xmlns="http://www.w3.org/2000/svg" xmlns:xlink="http://www.w3.org/1999/xlink">
<g id="graph0" class="graph" transform="scale(1 1) rotate(0) translate(4 688)">
<polygon fill="white" stroke="none" points="-4,4 -4,-688 266.11,-688 266.11,4 -4,4"/>
<!-- # bah&#45;&gt;Ansbaha -->
<g id="edge1" class="edge">
<title># bah&#45;&gt;Ansbaha</title>
<path fill="none" stroke="#cccccc" d="M49.14,-362.27C77.63,-421.42 160.35,-593.16 187.03,-648.56"/>
</g>
<!-- # bah&#45;&gt;Gummersbaha -->
<g id="edge2" class="edge">
<title># bah&#45;&gt;Gummersbaha</title>
<path fill="none" stroke="#cccccc" d="M51.88,-362.2C81.68,-410.32 156.47,-531.09 184.55,-576.43"/>
</g>
<!-- # bah&#45;&gt;Reihenbaha -->
<g id="edge3" class="edge">
<title># bah&#45;&gt;Reihenbaha</title>
<path fill="none" stroke="#cccccc" d="M56.97,-362.3C87.98,-398.06 151.8,-471.67 180.67,-504.97"/>
</g>
<!-- # bah&#45;&gt;Reihenbahs -->
<g id="edge4" class="edge">
<title># bah&#45;&gt;Reihenbahs</title>
<path fill="none" stroke="#cccccc" d="M68.73,-362.31C98.75,-383.09 144.77,-414.94 172.31,-434"/>
</g>
<!-- # bah&#45;&gt;Rorbaha -->
<g id="edge5" class="edge">
<title># bah&#45;&gt;Rorbaha</title>
<path fill="none" stroke="#cccccc" d="M76.36,-350.53C101.42,-356.31 134.37,-363.91 159.25,-369.65"/>
</g>
<!-- # bah&#45;&gt;Rorbahs -->
<g id="edge6" class="edge">
<title># bah&#45;&gt;Rorbahs</title>
<path fill="none" stroke="#cccccc" d="M76.36,-333.47C101.51,-327.67 134.6,-320.03 159.52,-314.28"/>
</g>
<!-- # bah&#45;&gt;Bahs -->
<g id="edge7" class="edge">
<title># bah&#45;&gt;Bahs</title>
<path fill="none" stroke="#cccccc" d="M68.73,-321.69C100.34,-299.81 149.69,-265.66 176.52,-247.09"/>
</g>
<!-- # bah&#45;&gt;Bahšteins -->
<g id="edge8" class="edge">
<title># bah&#45;&gt;Bahšteins</title>
<path fill="none" stroke="#cccccc" d="M56.97,-321.7C88.06,-285.84 152.12,-211.95 180.89,-178.77"/>
</g>
<!-- # bah&#45;&gt;Bahmanis -->
<g id="edge9" class="edge">
<title># bah&#45;&gt;Bahmanis</title>
<path fill="none" stroke="#cccccc" d="M51.88,-321.8C81.75,-273.57 156.84,-152.32 184.76,-107.24"/>
</g>
<!-- # bah&#45;&gt;Bahmane -->
<g id="edge10" class="edge">
<title># bah&#45;&gt;Bahmane</title>
<path fill="none" stroke="#cccccc" d="M49.14,-321.73C77.63,-262.58 160.35,-90.84 187.03,-35.44"/>
</g>
<!-- # bah -->
<g id="node1" class="node">
<title># bah</title>
<polygon fill="lightblue" stroke="black" stroke-width="0" points="76.75,-362.5 0,-362.5 0,-321.5 76.75,-321.5 76.75,-362.5"/>
<text xml:space="preserve" text-anchor="middle" x="38.38" y="-345.2" font-family="Times New Roman,serif" font-size="14.00">bah</text>
<text xml:space="preserve" text-anchor="middle" x="38.38" y="-328.7" font-family="Times New Roman,serif" font-size="14.00">(borrowed)</text>
</g>
<!-- Ansbaha -->
<g id="node2" class="node">
<title>Ansbaha</title>
<ellipse fill="white" stroke="black" stroke-width="0" cx="196.43" cy="-666" rx="43.16" ry="18"/>
<text xml:space="preserve" text-anchor="middle" x="196.43" y="-660.95" font-family="Times New Roman,serif" font-size="14.00">Ansbaha</text>
</g>
<!-- Gummersbaha -->
<g id="node3" class="node">
<title>Gummersbaha</title>
<ellipse fill="white" stroke="black" stroke-width="0" cx="196.43" cy="-594" rx="65.68" ry="18"/>
<text xml:space="preserve" text-anchor="middle" x="196.43" y="-588.95" font-family="Times New Roman,serif" font-size="14.00">Gummersbaha</text>
</g>
<!-- Reihenbaha -->
<g id="node4" class="node">
<title>Reihenbaha</title>
<ellipse fill="white" stroke="black" stroke-width="0" cx="196.43" cy="-522" rx="54.42" ry="18"/>
<text xml:space="preserve" text-anchor="middle" x="196.43" y="-516.95" font-family="Times New Roman,serif" font-size="14.00">Reihenbaha</text>
</g>
<!-- Reihenbahs -->
<g id="node5" class="node">
<title>Reihenbahs</title>
<ellipse fill="white" stroke="black" stroke-width="0" cx="196.43" cy="-450" rx="53.91" ry="18"/>
<text xml:space="preserve" text-anchor="middle" x="196.43" y="-444.95" font-family="Times New Roman,serif" font-size="14.00">Reihenbahs</text>
</g>
<!-- Rorbaha -->
<g id="node6" class="node">
<title>Rorbaha</title>
<ellipse fill="white" stroke="black" stroke-width="0" cx="196.43" cy="-378" rx="42.14" ry="18"/>
<text xml:space="preserve" text-anchor="middle" x="196.43" y="-372.95" font-family="Times New Roman,serif" font-size="14.00">Rorbaha</text>
</g>
<!-- Rorbahs -->
<g id="node7" class="node">
<title>Rorbahs</title>
<ellipse fill="white" stroke="black" stroke-width="0" cx="196.43" cy="-306" rx="41.63" ry="18"/>
<text xml:space="preserve" text-anchor="middle" x="196.43" y="-300.95" font-family="Times New Roman,serif" font-size="14.00">Rorbahs</text>
</g>
<!-- Bahs -->
<g id="node8" class="node">
<title>Bahs</title>
<ellipse fill="white" stroke="black" stroke-width="0" cx="196.43" cy="-234" rx="29.34" ry="18"/>
<text xml:space="preserve" text-anchor="middle" x="196.43" y="-228.95" font-family="Times New Roman,serif" font-size="14.00">Bahs</text>
</g>
<!-- Bahšteins -->
<g id="node9" class="node">
<title>Bahšteins</title>
<ellipse fill="white" stroke="black" stroke-width="0" cx="196.43" cy="-162" rx="46.75" ry="18"/>
<text xml:space="preserve" text-anchor="middle" x="196.43" y="-156.95" font-family="Times New Roman,serif" font-size="14.00">Bahšteins</text>
</g>
<!-- Bahmanis -->
<g id="node10" class="node">
<title>Bahmanis</title>
<ellipse fill="white" stroke="black" stroke-width="0" cx="196.43" cy="-90" rx="48.28" ry="18"/>
<text xml:space="preserve" text-anchor="middle" x="196.43" y="-84.95" font-family="Times New Roman,serif" font-size="14.00">Bahmanis</text>
</g>
<!-- Bahmane -->
<g id="node11" class="node">
<title>Bahmane</title>
<ellipse fill="white" stroke="black" stroke-width="0" cx="196.43" cy="-18" rx="46.23" ry="18"/>
<text xml:space="preserve" text-anchor="middle" x="196.43" y="-12.95" font-family="Times New Roman,serif" font-size="14.00">Bahmane</text>
</g>
</g>
</svg>
