<?xml version="1.0" encoding="UTF-8" standalone="no"?>
<!DOCTYPE svg PUBLIC "-//W3C//DTD SVG 1.1//EN"
 "http://www.w3.org/Graphics/SVG/1.1/DTD/svg11.dtd">
<!-- Generated by graphviz version 13.1.2 (20250808.2320)
 -->
<!-- Pages: 1 -->
<svg width="235pt" height="404pt"
 viewBox="0.00 0.00 235.00 404.00" xmlns="http://www.w3.org/2000/svg" xmlns:xlink="http://www.w3.org/1999/xlink">
<g id="graph0" class="graph" transform="scale(1 1) rotate(0) translate(4 400)">
<polygon fill="white" stroke="none" points="-4,4 -4,-400 231.31,-400 231.31,4 -4,4"/>
<!-- # bahā, baha&#45;&gt;bahaisms -->
<g id="edge1" class="edge">
<title># bahā, baha&#45;&gt;bahaisms</title>
<path fill="none" stroke="#cccccc" d="M55.01,-219.19C82.56,-254.75 139.26,-327.95 164.91,-361.07"/>
</g>
<!-- # bahā, baha&#45;&gt;bahāisms -->
<g id="edge2" class="edge">
<title># bahā, baha&#45;&gt;bahāisms</title>
<path fill="none" stroke="#cccccc" d="M65.78,-219.38C92.5,-239.99 133.23,-271.43 157.58,-290.22"/>
</g>
<!-- # bahā, baha&#45;&gt;bahaietis -->
<g id="edge3" class="edge">
<title># bahā, baha&#45;&gt;bahaietis</title>
<path fill="none" stroke="#cccccc" d="M76.53,-189.08C96.91,-183.65 122.05,-176.94 142.21,-171.56"/>
</g>
<!-- # bahā, baha&#45;&gt;bahājieši -->
<g id="edge5" class="edge">
<title># bahā, baha&#45;&gt;bahājieši</title>
<path fill="none" stroke="#cccccc" d="M65.13,-178.75C92.07,-157.57 133.78,-124.79 158.24,-105.56"/>
</g>
<!-- # bahā, baha&#45;&gt;bahājietis -->
<g id="edge7" class="edge">
<title># bahā, baha&#45;&gt;bahājietis</title>
<path fill="none" stroke="#cccccc" d="M55.01,-178.59C82.56,-142.62 139.26,-68.61 164.91,-35.12"/>
</g>
<!-- # bahā, baha&#45;&gt;bahājisms -->
<g id="edge9" class="edge">
<title># bahā, baha&#45;&gt;bahājisms</title>
<path fill="none" stroke="#cccccc" d="M76.53,-208.38C95.78,-213.24 119.29,-219.17 138.83,-224.1"/>
</g>
<!-- bahā&#45;&gt;bahaietis -->
<g id="edge4" class="edge">
<title>bahā&#45;&gt;bahaietis</title>
<path fill="none" stroke="green" d="M65.13,-103.37C86.55,-114.5 117.31,-130.47 141.31,-142.93"/>
<polygon fill="green" stroke="green" points="139.64,-146.01 150.13,-147.51 142.86,-139.8 139.64,-146.01"/>
</g>
<!-- bahā&#45;&gt;bahājieši -->
<g id="edge6" class="edge">
<title>bahā&#45;&gt;bahājieši</title>
<path fill="none" stroke="green" d="M65.13,-90C81.71,-90 103.87,-90 124.17,-90"/>
<polygon fill="green" stroke="green" points="124.01,-93.5 134.01,-90 124.01,-86.5 124.01,-93.5"/>
</g>
<!-- bahā&#45;&gt;bahājietis -->
<g id="edge8" class="edge">
<title>bahā&#45;&gt;bahājietis</title>
<path fill="none" stroke="green" d="M65.13,-76.63C86.42,-65.57 116.92,-49.74 140.85,-37.31"/>
<polygon fill="green" stroke="green" points="142.39,-40.45 149.65,-32.74 139.16,-34.24 142.39,-40.45"/>
</g>
<!-- # bahā, baha -->
<g id="node1" class="node">
<title># bahā, baha</title>
<polygon fill="lightblue" stroke="black" stroke-width="0" points="76.75,-219.5 0,-219.5 0,-178.5 76.75,-178.5 76.75,-219.5"/>
<text xml:space="preserve" text-anchor="middle" x="38.38" y="-202.2" font-family="Times New Roman,serif" font-size="14.00">bahā, baha</text>
<text xml:space="preserve" text-anchor="middle" x="38.38" y="-185.7" font-family="Times New Roman,serif" font-size="14.00">(borrowed)</text>
</g>
<!-- bahaisms -->
<g id="node2" class="node">
<title>bahaisms</title>
<ellipse fill="white" stroke="black" stroke-width="0" cx="179.03" cy="-378" rx="45.72" ry="18"/>
<text xml:space="preserve" text-anchor="middle" x="179.03" y="-372.95" font-family="Times New Roman,serif" font-size="14.00">bahaisms</text>
</g>
<!-- bahāisms -->
<g id="node3" class="node">
<title>bahāisms</title>
<ellipse fill="white" stroke="black" stroke-width="0" cx="179.03" cy="-306" rx="45.72" ry="18"/>
<text xml:space="preserve" text-anchor="middle" x="179.03" y="-300.95" font-family="Times New Roman,serif" font-size="14.00">bahāisms</text>
</g>
<!-- bahaietis -->
<g id="node4" class="node">
<title>bahaietis</title>
<ellipse fill="white" stroke="black" stroke-width="0" cx="179.03" cy="-162" rx="43.67" ry="18"/>
<text xml:space="preserve" text-anchor="middle" x="179.03" y="-156.95" font-family="Times New Roman,serif" font-size="14.00">bahaietis</text>
</g>
<!-- bahā -->
<g id="node5" class="node">
<title>bahā</title>
<polygon fill="lightgray" stroke="black" stroke-width="0" points="65.38,-108 11.38,-108 11.38,-72 65.38,-72 65.38,-108"/>
<text xml:space="preserve" text-anchor="middle" x="38.38" y="-84.95" font-family="Times New Roman,serif" font-size="14.00">bahā</text>
</g>
<!-- bahājieši -->
<g id="node6" class="node">
<title>bahājieši</title>
<ellipse fill="white" stroke="black" stroke-width="0" cx="179.03" cy="-90" rx="43.67" ry="18"/>
<text xml:space="preserve" text-anchor="middle" x="179.03" y="-84.95" font-family="Times New Roman,serif" font-size="14.00">bahājieši</text>
</g>
<!-- bahājietis -->
<g id="node7" class="node">
<title>bahājietis</title>
<ellipse fill="white" stroke="black" stroke-width="0" cx="179.03" cy="-18" rx="46.23" ry="18"/>
<text xml:space="preserve" text-anchor="middle" x="179.03" y="-12.95" font-family="Times New Roman,serif" font-size="14.00">bahājietis</text>
</g>
<!-- bahājisms -->
<g id="node8" class="node">
<title>bahājisms</title>
<ellipse fill="white" stroke="black" stroke-width="0" cx="179.03" cy="-234" rx="48.28" ry="18"/>
<text xml:space="preserve" text-anchor="middle" x="179.03" y="-228.95" font-family="Times New Roman,serif" font-size="14.00">bahājisms</text>
</g>
</g>
</svg>
