<?xml version="1.0" encoding="UTF-8" standalone="no"?>
<!DOCTYPE svg PUBLIC "-//W3C//DTD SVG 1.1//EN"
 "http://www.w3.org/Graphics/SVG/1.1/DTD/svg11.dtd">
<!-- Generated by graphviz version 13.1.2 (20250808.2320)
 -->
<!-- Pages: 1 -->
<svg width="1800pt" height="932pt"
 viewBox="0.00 0.00 1800.00 932.00" xmlns="http://www.w3.org/2000/svg" xmlns:xlink="http://www.w3.org/1999/xlink">
<g id="graph0" class="graph" transform="scale(1 1) rotate(0) translate(4 927.71)">
<polygon fill="white" stroke="none" points="-4,4 -4,-927.71 1796.38,-927.71 1796.38,4 -4,4"/>
<!-- # zero&#45;element&#45;&gt;## bal -->
<g id="edge1" class="edge">
<title># zero&#45;element&#45;&gt;## bal</title>
<path fill="none" stroke="black" stroke-dasharray="5,2" d="M910.87,-412C988.87,-418.14 1152.32,-430.99 1234.49,-437.46"/>
<polygon fill="black" stroke="black" points="1234.02,-440.93 1244.26,-438.23 1234.57,-433.95 1234.02,-440.93"/>
</g>
<!-- # zero&#45;element&#45;&gt;## ball, baļļ -->
<g id="edge2" class="edge">
<title># zero&#45;element&#45;&gt;## ball, baļļ</title>
<path fill="none" stroke="black" stroke-dasharray="5,2" d="M823.9,-405.87C746.94,-401.09 587.43,-391.16 506.32,-386.11"/>
<polygon fill="black" stroke="black" points="506.65,-382.63 496.45,-385.5 506.22,-389.61 506.65,-382.63"/>
</g>
<!-- ## bal&#45;&gt;balerīna____bal -->
<g id="edge3" class="edge">
<title>## bal&#45;&gt;balerīna____bal</title>
<path fill="none" stroke="#cccccc" d="M1245.82,-432.2C1214,-424.56 1168.95,-413.74 1137.85,-406.27"/>
</g>
<!-- ## bal&#45;&gt;baletdejotājs____bal -->
<g id="edge4" class="edge">
<title>## bal&#45;&gt;baletdejotājs____bal</title>
<path fill="none" stroke="#cccccc" d="M1250.17,-461.69C1236.96,-469.67 1222.03,-478.68 1209.65,-486.15"/>
</g>
<!-- ## bal&#45;&gt;baletfilma____bal -->
<g id="edge5" class="edge">
<title>## bal&#45;&gt;baletfilma____bal</title>
<path fill="none" stroke="#cccccc" d="M1273.03,-421.09C1257.34,-391.81 1228.6,-338.18 1213.87,-310.68"/>
</g>
<!-- ## bal&#45;&gt;baletmeistaraprāt____bal -->
<g id="edge6" class="edge">
<title>## bal&#45;&gt;baletmeistaraprāt____bal</title>
<path fill="none" stroke="#cccccc" d="M1322.21,-431.82C1371.84,-419.49 1458.53,-397.95 1514.03,-384.16"/>
</g>
<!-- ## bal&#45;&gt;baletmeistars____bal -->
<g id="edge7" class="edge">
<title>## bal&#45;&gt;baletmeistars____bal</title>
<path fill="none" stroke="#cccccc" d="M1313.23,-421.02C1353.46,-393.16 1424.95,-343.65 1461.99,-318.01"/>
</g>
<!-- ## bal&#45;&gt;baletmīļotājs____bal -->
<g id="edge8" class="edge">
<title>## bal&#45;&gt;baletmīļotājs____bal</title>
<path fill="none" stroke="#cccccc" d="M1308.93,-461.73C1336.77,-484.38 1381.22,-520.54 1407.11,-541.61"/>
</g>
<!-- ## bal&#45;&gt;baletmūzika____bal -->
<g id="edge9" class="edge">
<title>## bal&#45;&gt;baletmūzika____bal</title>
<path fill="none" stroke="#cccccc" d="M1282.24,-420.89C1278.72,-377 1270.48,-274.41 1267.16,-233.08"/>
</g>
<!-- ## bal&#45;&gt;baletopera____bal -->
<g id="edge10" class="edge">
<title>## bal&#45;&gt;baletopera____bal</title>
<path fill="none" stroke="#cccccc" d="M1293.4,-421.21C1312.11,-381.64 1353.39,-294.33 1371.14,-256.79"/>
</g>
<!-- ## bal&#45;&gt;balets____bal -->
<g id="edge11" class="edge">
<title>## bal&#45;&gt;balets____bal</title>
<path fill="none" stroke="#cccccc" d="M1303.82,-420.93C1313.57,-410.95 1325.11,-399.13 1334.1,-389.92"/>
</g>
<!-- ## bal&#45;&gt;baletskola____bal -->
<g id="edge12" class="edge">
<title>## bal&#45;&gt;baletskola____bal</title>
<path fill="none" stroke="#cccccc" d="M1321.94,-448.43C1356.4,-454.84 1407.12,-464.28 1443.08,-470.97"/>
</g>
<!-- ## bal&#45;&gt;balāde____bal -->
<g id="edge13" class="edge">
<title>## bal&#45;&gt;balāde____bal</title>
<path fill="none" stroke="#cccccc" d="M1285.53,-461.58C1288.32,-495.8 1293.93,-564.54 1296.57,-597.01"/>
</g>
<!-- ## bal&#45;&gt;vaboļbalāde____bal -->
<g id="edge14" class="edge">
<title>## bal&#45;&gt;vaboļbalāde____bal</title>
<path fill="none" stroke="#cccccc" d="M1289.89,-461.73C1305,-512.97 1344.38,-646.52 1358.62,-694.79"/>
</g>
<!-- ## bal&#45;&gt;klavierbalāde____bal -->
<g id="edge15" class="edge">
<title>## bal&#45;&gt;klavierbalāde____bal</title>
<path fill="none" stroke="#cccccc" d="M1278.13,-461.57C1264.91,-508.04 1232.55,-621.82 1220.06,-665.71"/>
</g>
<!-- ## ball, baļļ&#45;&gt;balle____ball__baļļ -->
<g id="edge36" class="edge">
<title>## ball, baļļ&#45;&gt;balle____ball__baļļ</title>
<path fill="none" stroke="#cccccc" d="M418.54,-396.01C401.64,-401.77 382.23,-408.39 367.22,-413.51"/>
</g>
<!-- ## ball, baļļ&#45;&gt;ballēšanās____ball__baļļ -->
<g id="edge37" class="edge">
<title>## ball, baļļ&#45;&gt;ballēšanās____ball__baļļ</title>
<path fill="none" stroke="#cccccc" d="M479.22,-362.66C511.26,-333.78 569.29,-281.49 598.62,-255.05"/>
</g>
<!-- ## ball, baļļ&#45;&gt;ballēt____ball__baļļ -->
<g id="edge38" class="edge">
<title>## ball, baļļ&#45;&gt;ballēt____ball__baļļ</title>
<path fill="none" stroke="#cccccc" d="M447,-362.63C436.37,-340.1 419.42,-304.21 409.44,-283.08"/>
</g>
<!-- ## ball, baļļ&#45;&gt;ballētāja____ball__baļļ -->
<g id="edge39" class="edge">
<title>## ball, baļļ&#45;&gt;ballētāja____ball__baļļ</title>
<path fill="none" stroke="#cccccc" d="M434.95,-362.54C403.65,-332.98 346.43,-278.96 317.87,-251.98"/>
</g>
<!-- ## ball, baļļ&#45;&gt;ballētājs____ball__baļļ -->
<g id="edge40" class="edge">
<title>## ball, baļļ&#45;&gt;ballētājs____ball__baļļ</title>
<path fill="none" stroke="#cccccc" d="M460.05,-362.63C466.9,-321.82 482.18,-230.69 488.65,-192.13"/>
</g>
<!-- ## ball, baļļ&#45;&gt;ballēties____ball__baļļ -->
<g id="edge41" class="edge">
<title>## ball, baļļ&#45;&gt;ballēties____ball__baļļ</title>
<path fill="none" stroke="#cccccc" d="M472.11,-362.84C485.78,-345 505.5,-319.29 518.36,-302.52"/>
</g>
<!-- ## ball, baļļ&#45;&gt;ballīšprieks____ball__baļļ -->
<g id="edge42" class="edge">
<title>## ball, baļļ&#45;&gt;ballīšprieks____ball__baļļ</title>
<path fill="none" stroke="#cccccc" d="M469.46,-403.31C493.5,-441.33 544.95,-522.72 567.57,-558.5"/>
</g>
<!-- ## ball, baļļ&#45;&gt;ballīte____ball__baļļ -->
<g id="edge43" class="edge">
<title>## ball, baļļ&#45;&gt;ballīte____ball__baļļ</title>
<path fill="none" stroke="#cccccc" d="M466.97,-403.34C476.36,-421.79 490.07,-448.72 498.94,-466.16"/>
</g>
<!-- ## ball, baļļ&#45;&gt;dižballe____ball__baļļ -->
<g id="edge44" class="edge">
<title>## ball, baļļ&#45;&gt;dižballe____ball__baļļ</title>
<path fill="none" stroke="#cccccc" d="M451.51,-403.52C440.69,-446.79 415.68,-546.84 405.52,-587.48"/>
</g>
<!-- ## ball, baļļ&#45;&gt;izballēties____ball__baļļ -->
<g id="edge45" class="edge">
<title>## ball, baļļ&#45;&gt;izballēties____ball__baļļ</title>
<path fill="none" stroke="#cccccc" d="M450.15,-362.8C436,-318.7 402.58,-214.46 389.22,-172.82"/>
</g>
<!-- ## ball, baļļ&#45;&gt;kāpostballe____ball__baļļ -->
<g id="edge46" class="edge">
<title>## ball, baļļ&#45;&gt;kāpostballe____ball__baļļ</title>
<path fill="none" stroke="#cccccc" d="M418.33,-373.42C374.41,-362.41 302.61,-344.41 257.12,-333.01"/>
</g>
<!-- ## ball, baļļ&#45;&gt;zaļumballe____ball__baļļ -->
<g id="edge47" class="edge">
<title>## ball, baļļ&#45;&gt;zaļumballe____ball__baļļ</title>
<path fill="none" stroke="#cccccc" d="M418.27,-393.84C373.21,-406.54 298.81,-427.52 252.99,-440.44"/>
</g>
<!-- ## ball, baļļ&#45;&gt;baļļošanās____ball__baļļ -->
<g id="edge48" class="edge">
<title>## ball, baļļ&#45;&gt;baļļošanās____ball__baļļ</title>
<path fill="none" stroke="#cccccc" d="M438.95,-403.18C402.8,-444.4 321.02,-537.66 287.25,-576.16"/>
</g>
<!-- ## ball, baļļ&#45;&gt;baļļuks____ball__baļļ -->
<g id="edge49" class="edge">
<title>## ball, baļļ&#45;&gt;baļļuks____ball__baļļ</title>
<path fill="none" stroke="#cccccc" d="M446.19,-403.41C435.22,-424.84 418.15,-458.17 407.82,-478.35"/>
</g>
<!-- baletmeistars____bal&#45;&gt;baletmeistaraprāt____bal -->
<g id="edge20" class="edge">
<title>baletmeistars____bal&#45;&gt;baletmeistaraprāt____bal</title>
<path fill="none" stroke="blue" d="M1505.11,-318.45C1514.83,-326.89 1526.76,-337.25 1537.48,-346.56"/>
<polygon fill="blue" stroke="blue" points="1535.14,-349.16 1544.98,-353.07 1539.73,-343.87 1535.14,-349.16"/>
</g>
<!-- balets____bal&#45;&gt;baletdejotājs____bal -->
<g id="edge16" class="edge">
<title>balets____bal&#45;&gt;baletdejotājs____bal</title>
<path fill="none" stroke="blue" d="M1330.47,-388.88C1302.16,-410.66 1248.09,-452.24 1214.02,-478.45"/>
<polygon fill="blue" stroke="blue" points="1211.96,-475.62 1206.17,-484.49 1216.23,-481.17 1211.96,-475.62"/>
</g>
<!-- balets____bal&#45;&gt;baletfilma____bal -->
<g id="edge18" class="edge">
<title>balets____bal&#45;&gt;baletfilma____bal</title>
<path fill="none" stroke="blue" d="M1326.57,-361.84C1303.69,-349 1267.93,-328.94 1241.04,-313.85"/>
<polygon fill="blue" stroke="blue" points="1242.97,-310.92 1232.53,-309.08 1239.54,-317.03 1242.97,-310.92"/>
</g>
<!-- balets____bal&#45;&gt;baletmeistars____bal -->
<g id="edge22" class="edge">
<title>balets____bal&#45;&gt;baletmeistars____bal</title>
<path fill="none" stroke="blue" d="M1372.32,-362.14C1392.69,-351.26 1422.76,-335.2 1446.81,-322.35"/>
<polygon fill="blue" stroke="blue" points="1448.2,-325.58 1455.37,-317.78 1444.9,-319.41 1448.2,-325.58"/>
</g>
<!-- balets____bal&#45;&gt;baletmīļotājs____bal -->
<g id="edge24" class="edge">
<title>balets____bal&#45;&gt;baletmīļotājs____bal</title>
<path fill="none" stroke="blue" d="M1356.54,-391.81C1370.13,-423.61 1399.2,-491.66 1415.67,-530.21"/>
<polygon fill="blue" stroke="blue" points="1412.4,-531.48 1419.55,-539.3 1418.84,-528.73 1412.4,-531.48"/>
</g>
<!-- balets____bal&#45;&gt;baletmūzika____bal -->
<g id="edge26" class="edge">
<title>balets____bal&#45;&gt;baletmūzika____bal</title>
<path fill="none" stroke="blue" d="M1340.23,-357.48C1325.82,-329.98 1297.3,-275.57 1280.03,-242.63"/>
<polygon fill="blue" stroke="blue" points="1283.3,-241.32 1275.56,-234.09 1277.1,-244.57 1283.3,-241.32"/>
</g>
<!-- balets____bal&#45;&gt;baletopera____bal -->
<g id="edge28" class="edge">
<title>balets____bal&#45;&gt;baletopera____bal</title>
<path fill="none" stroke="blue" d="M1353.12,-356.8C1358.19,-334.19 1367.03,-294.78 1373.07,-267.83"/>
<polygon fill="blue" stroke="blue" points="1376.44,-268.78 1375.21,-258.26 1369.61,-267.25 1376.44,-268.78"/>
</g>
<!-- balets____bal&#45;&gt;baletskola____bal -->
<g id="edge30" class="edge">
<title>balets____bal&#45;&gt;baletskola____bal</title>
<path fill="none" stroke="blue" d="M1368.21,-389.04C1390.98,-406.39 1429.35,-435.64 1456.13,-456.06"/>
<polygon fill="blue" stroke="blue" points="1453.8,-458.68 1463.88,-461.96 1458.05,-453.12 1453.8,-458.68"/>
</g>
<!-- balāde____bal&#45;&gt;vaboļbalāde____bal -->
<g id="edge33" class="edge">
<title>balāde____bal&#45;&gt;vaboļbalāde____bal</title>
<path fill="none" stroke="blue" d="M1309.19,-631.35C1319.28,-646.34 1334.3,-668.65 1346.05,-686.1"/>
<polygon fill="blue" stroke="blue" points="1342.85,-687.61 1351.34,-693.95 1348.66,-683.7 1342.85,-687.61"/>
</g>
<!-- balāde____bal&#45;&gt;klavierbalāde____bal -->
<g id="edge35" class="edge">
<title>balāde____bal&#45;&gt;klavierbalāde____bal</title>
<path fill="none" stroke="blue" d="M1279.6,-630C1269.18,-638.62 1255.9,-649.6 1244.1,-659.35"/>
<polygon fill="blue" stroke="blue" points="1242.08,-656.48 1236.6,-665.55 1246.54,-661.88 1242.08,-656.48"/>
</g>
<!-- dejotājs&#45;&gt;baletdejotājs____bal -->
<g id="edge17" class="edge">
<title>dejotājs&#45;&gt;baletdejotājs____bal</title>
<path fill="none" stroke="blue" d="M1064.73,-597.2C1088,-578.53 1127.14,-547.14 1154.08,-525.52"/>
<polygon fill="blue" stroke="blue" points="1155.92,-528.53 1161.53,-519.55 1151.54,-523.07 1155.92,-528.53"/>
</g>
<!-- filma&#45;&gt;baletfilma____bal -->
<g id="edge19" class="edge">
<title>filma&#45;&gt;baletfilma____bal</title>
<path fill="none" stroke="blue" d="M1105.49,-176.17C1124.75,-198.95 1160.16,-240.83 1183.03,-267.88"/>
<polygon fill="blue" stroke="blue" points="1180.16,-269.91 1189.29,-275.28 1185.5,-265.39 1180.16,-269.91"/>
</g>
<!-- prāts&#45;&gt;baletmeistaraprāt____bal -->
<g id="edge21" class="edge">
<title>prāts&#45;&gt;baletmeistaraprāt____bal</title>
<path fill="none" stroke="blue" d="M1735.65,-350.57C1711.76,-353.48 1676.19,-357.82 1643.77,-361.77"/>
<polygon fill="blue" stroke="blue" points="1643.46,-358.28 1633.96,-362.96 1644.31,-365.23 1643.46,-358.28"/>
</g>
<!-- meistars&#45;&gt;baletmeistars____bal -->
<g id="edge23" class="edge">
<title>meistars&#45;&gt;baletmeistars____bal</title>
<path fill="none" stroke="blue" d="M1622.5,-185.59C1595.58,-208.42 1545.78,-250.64 1514.26,-277.36"/>
<polygon fill="blue" stroke="blue" points="1512.02,-274.67 1506.66,-283.81 1516.55,-280.01 1512.02,-274.67"/>
</g>
<!-- mīļotājs&#45;&gt;baletmīļotājs____bal -->
<g id="edge25" class="edge">
<title>mīļotājs&#45;&gt;baletmīļotājs____bal</title>
<path fill="none" stroke="blue" d="M1552.95,-685C1528.37,-660.15 1481.52,-612.78 1452.6,-583.54"/>
<polygon fill="blue" stroke="blue" points="1455.19,-581.18 1445.67,-576.53 1450.21,-586.1 1455.19,-581.18"/>
</g>
<!-- mūzika&#45;&gt;baletmūzika____bal -->
<g id="edge27" class="edge">
<title>mūzika&#45;&gt;baletmūzika____bal</title>
<path fill="none" stroke="blue" d="M1251.39,-35.86C1254.12,-69.98 1260.09,-144.68 1263.4,-186.16"/>
<polygon fill="blue" stroke="blue" points="1259.9,-186.2 1264.18,-195.89 1266.87,-185.64 1259.9,-186.2"/>
</g>
<!-- opera&#45;&gt;baletopera____bal -->
<g id="edge29" class="edge">
<title>opera&#45;&gt;baletopera____bal</title>
<path fill="none" stroke="blue" d="M1440.23,-100.2C1428.48,-127.06 1405.77,-179.01 1391.7,-211.2"/>
<polygon fill="blue" stroke="blue" points="1388.52,-209.73 1387.72,-220.3 1394.93,-212.54 1388.52,-209.73"/>
</g>
<!-- skola&#45;&gt;baletskola____bal -->
<g id="edge31" class="edge">
<title>skola&#45;&gt;baletskola____bal</title>
<path fill="none" stroke="blue" d="M1640.86,-537.07C1612.22,-526.31 1565.15,-508.63 1530.45,-495.6"/>
<polygon fill="blue" stroke="blue" points="1532.12,-492.49 1521.53,-492.25 1529.66,-499.05 1532.12,-492.49"/>
</g>
<!-- vabole&#45;&gt;vaboļbalāde____bal -->
<g id="edge32" class="edge">
<title>vabole&#45;&gt;vaboļbalāde____bal</title>
<path fill="none" stroke="blue" d="M1411,-887.88C1402,-854.39 1382.48,-781.8 1371.59,-741.3"/>
<polygon fill="blue" stroke="blue" points="1375,-740.53 1369.03,-731.78 1368.24,-742.35 1375,-740.53"/>
</g>
<!-- klavieres&#45;&gt;klavierbalāde____bal -->
<g id="edge34" class="edge">
<title>klavieres&#45;&gt;klavierbalāde____bal</title>
<path fill="none" stroke="blue" d="M1177.26,-847.9C1184.51,-816.32 1199.68,-750.23 1208.43,-712.13"/>
<polygon fill="blue" stroke="blue" points="1211.76,-713.28 1210.58,-702.75 1204.94,-711.72 1211.76,-713.28"/>
</g>
<!-- balle____ball__baļļ&#45;&gt;ballēt____ball__baļļ -->
<g id="edge51" class="edge">
<title>balle____ball__baļļ&#45;&gt;ballēt____ball__baļļ</title>
<path fill="none" stroke="green" d="M348.8,-404.72C358.96,-377.89 378.63,-325.98 390.81,-293.82"/>
<polygon fill="green" stroke="green" points="393.98,-295.35 394.25,-284.75 387.43,-292.87 393.98,-295.35"/>
</g>
<!-- balle____ball__baļļ&#45;&gt;ballīte____ball__baļļ -->
<g id="edge57" class="edge">
<title>balle____ball__baļļ&#45;&gt;ballīte____ball__baļļ</title>
<path fill="none" stroke="green" d="M367.02,-431.22C394.12,-441.27 437.9,-457.52 469.43,-469.22"/>
<polygon fill="green" stroke="green" points="468.02,-472.43 478.61,-472.63 470.45,-465.86 468.02,-472.43"/>
</g>
<!-- balle____ball__baļļ&#45;&gt;dižballe____ball__baļļ -->
<g id="edge59" class="edge">
<title>balle____ball__baļļ&#45;&gt;dižballe____ball__baļļ</title>
<path fill="none" stroke="blue" d="M347.89,-439.58C358.06,-471.21 379.55,-538.05 391.88,-576.42"/>
<polygon fill="blue" stroke="blue" points="388.54,-577.45 394.93,-585.9 395.2,-575.31 388.54,-577.45"/>
</g>
<!-- balle____ball__baļļ&#45;&gt;kāpostballe____ball__baļļ -->
<g id="edge62" class="edge">
<title>balle____ball__baļļ&#45;&gt;kāpostballe____ball__baļļ</title>
<path fill="none" stroke="blue" d="M324.27,-407.96C303.61,-391.8 269.38,-365.02 244.71,-345.73"/>
<polygon fill="blue" stroke="blue" points="247.01,-343.07 236.97,-339.67 242.69,-348.59 247.01,-343.07"/>
</g>
<!-- balle____ball__baļļ&#45;&gt;zaļumballe____ball__baļļ -->
<g id="edge64" class="edge">
<title>balle____ball__baļļ&#45;&gt;zaļumballe____ball__baļļ</title>
<path fill="none" stroke="blue" d="M315.43,-428.18C301.34,-431.42 283.55,-435.51 266.75,-439.37"/>
<polygon fill="blue" stroke="blue" points="266.34,-435.88 257.38,-441.53 267.91,-442.7 266.34,-435.88"/>
</g>
<!-- balle____ball__baļļ&#45;&gt;baļļuks____ball__baļļ -->
<g id="edge66" class="edge">
<title>balle____ball__baļļ&#45;&gt;baļļuks____ball__baļļ</title>
<path fill="none" stroke="green" d="M354.55,-437.99C361.76,-447.35 371.03,-459.38 379.23,-470.03"/>
<polygon fill="green" stroke="green" points="376.29,-471.94 385.17,-477.73 381.84,-467.67 376.29,-471.94"/>
</g>
<!-- ballēt____ball__baļļ&#45;&gt;ballētāja____ball__baļļ -->
<g id="edge52" class="edge">
<title>ballēt____ball__baļļ&#45;&gt;ballētāja____ball__baļļ</title>
<path fill="none" stroke="green" d="M373.59,-257.63C364.97,-255.04 355.24,-252.12 345.76,-249.28"/>
<polygon fill="green" stroke="green" points="346.86,-245.96 336.28,-246.43 344.85,-252.66 346.86,-245.96"/>
</g>
<!-- ballēt____ball__baļļ&#45;&gt;ballētājs____ball__baļļ -->
<g id="edge53" class="edge">
<title>ballēt____ball__baļļ&#45;&gt;ballētājs____ball__baļļ</title>
<path fill="none" stroke="green" d="M416.68,-250.42C430.55,-236.34 451.24,-215.34 467.37,-198.98"/>
<polygon fill="green" stroke="green" points="469.74,-201.56 474.26,-191.98 464.75,-196.64 469.74,-201.56"/>
</g>
<!-- ballēt____ball__baļļ&#45;&gt;ballēties____ball__baļļ -->
<g id="edge54" class="edge">
<title>ballēt____ball__baļļ&#45;&gt;ballēties____ball__baļļ</title>
<path fill="none" stroke="green" d="M431.51,-270.52C446.25,-272.75 464.4,-275.49 481.15,-278.02"/>
<polygon fill="green" stroke="green" points="480.56,-281.47 490.97,-279.51 481.61,-274.55 480.56,-281.47"/>
</g>
<!-- ballēt____ball__baļļ&#45;&gt;izballēties____ball__baļļ -->
<g id="edge60" class="edge">
<title>ballēt____ball__baļļ&#45;&gt;izballēties____ball__baļļ</title>
<path fill="none" stroke="green" d="M398.51,-248.17C395.73,-230.89 391.47,-204.36 388.21,-184.06"/>
<polygon fill="green" stroke="green" points="391.7,-183.75 386.66,-174.44 384.79,-184.87 391.7,-183.75"/>
</g>
<!-- ballēties____ball__baļļ&#45;&gt;ballēšanās____ball__baļļ -->
<g id="edge50" class="edge">
<title>ballēties____ball__baļļ&#45;&gt;ballēšanās____ball__baļļ</title>
<path fill="none" stroke="green" d="M556.93,-271.57C564.1,-267.64 572.03,-263.28 579.71,-259.07"/>
<polygon fill="green" stroke="green" points="581.17,-262.26 588.26,-254.38 577.8,-256.12 581.17,-262.26"/>
</g>
<!-- ballīte____ball__baļļ&#45;&gt;ballīšprieks____ball__baļļ -->
<g id="edge55" class="edge">
<title>ballīte____ball__baļļ&#45;&gt;ballīšprieks____ball__baļļ</title>
<path fill="none" stroke="blue" d="M520.41,-499.98C531,-513.8 546.28,-533.76 558.54,-549.75"/>
<polygon fill="blue" stroke="blue" points="555.56,-551.63 564.42,-557.44 561.12,-547.37 555.56,-551.63"/>
</g>
<!-- prieks&#45;&gt;ballīšprieks____ball__baļļ -->
<g id="edge56" class="edge">
<title>prieks&#45;&gt;ballīšprieks____ball__baļļ</title>
<path fill="none" stroke="blue" d="M622.13,-726.76C613.74,-697.68 596.98,-639.59 586.89,-604.61"/>
<polygon fill="blue" stroke="blue" points="590.3,-603.8 584.16,-595.16 583.57,-605.74 590.3,-603.8"/>
</g>
<!-- dižs&#45;&gt;dižballe____ball__baļļ -->
<g id="edge58" class="edge">
<title>dižs&#45;&gt;dižballe____ball__baļļ</title>
<path fill="none" stroke="blue" d="M391.94,-779.23C393.68,-746.19 397.44,-674.87 399.56,-634.51"/>
<polygon fill="blue" stroke="blue" points="403.05,-634.73 400.09,-624.56 396.06,-634.37 403.05,-634.73"/>
</g>
<!-- kāposts&#45;&gt;kāpostballe____ball__baļļ -->
<g id="edge61" class="edge">
<title>kāposts&#45;&gt;kāpostballe____ball__baļļ</title>
<path fill="none" stroke="blue" d="M74.68,-253.81C101.65,-267 143.85,-287.65 174.92,-302.86"/>
<polygon fill="blue" stroke="blue" points="173.12,-305.87 183.64,-307.12 176.19,-299.58 173.12,-305.87"/>
</g>
<!-- zaļums&#45;&gt;zaļumballe____ball__baļļ -->
<g id="edge63" class="edge">
<title>zaļums&#45;&gt;zaļumballe____ball__baļļ</title>
<path fill="none" stroke="blue" d="M68.47,-498.63C94.99,-490.02 133.66,-477.47 164.3,-467.52"/>
<polygon fill="blue" stroke="blue" points="165.32,-470.87 173.75,-464.45 163.16,-464.21 165.32,-470.87"/>
</g>
<!-- baļļoties&#45;&gt;baļļošanās____ball__baļļ -->
<g id="edge65" class="edge">
<title>baļļoties&#45;&gt;baļļošanās____ball__baļļ</title>
<path fill="none" stroke="green" d="M184.32,-718.75C201.58,-694.11 233.49,-648.58 253.75,-619.66"/>
<polygon fill="green" stroke="green" points="256.4,-621.99 259.27,-611.79 250.66,-617.97 256.4,-621.99"/>
</g>
<!-- # zero&#45;element -->
<g id="node1" class="node">
<title># zero&#45;element</title>
<polygon fill="lightblue" stroke="black" stroke-width="0" points="911.11,-426.59 823.86,-426.59 823.86,-390.59 911.11,-390.59 911.11,-426.59"/>
<text xml:space="preserve" text-anchor="middle" x="867.48" y="-403.54" font-family="Times New Roman,serif" font-size="14.00">zero&#45;element</text>
</g>
<!-- ## bal -->
<g id="node2" class="node">
<title>## bal</title>
<polygon fill="lightblue" stroke="black" stroke-width="0" points="1322.26,-461.84 1245.51,-461.84 1245.51,-420.84 1322.26,-420.84 1322.26,-461.84"/>
<text xml:space="preserve" text-anchor="middle" x="1283.88" y="-444.54" font-family="Times New Roman,serif" font-size="14.00">bal</text>
<text xml:space="preserve" text-anchor="middle" x="1283.88" y="-428.04" font-family="Times New Roman,serif" font-size="14.00">(borrowed)</text>
</g>
<!-- ## ball, baļļ -->
<g id="node3" class="node">
<title>## ball, baļļ</title>
<polygon fill="lightblue" stroke="black" stroke-width="0" points="495,-403.52 418.25,-403.52 418.25,-362.52 495,-362.52 495,-403.52"/>
<text xml:space="preserve" text-anchor="middle" x="456.63" y="-386.22" font-family="Times New Roman,serif" font-size="14.00">ball, baļļ</text>
<text xml:space="preserve" text-anchor="middle" x="456.63" y="-369.72" font-family="Times New Roman,serif" font-size="14.00">(borrowed)</text>
</g>
<!-- balerīna____bal -->
<g id="node4" class="node">
<title>balerīna____bal</title>
<ellipse fill="white" stroke="black" stroke-width="0" cx="1102.3" cy="-397.73" rx="40.6" ry="18"/>
<text xml:space="preserve" text-anchor="middle" x="1102.3" y="-392.68" font-family="Times New Roman,serif" font-size="14.00">balerīna</text>
</g>
<!-- baletdejotājs____bal -->
<g id="node5" class="node">
<title>baletdejotājs____bal</title>
<ellipse fill="white" stroke="black" stroke-width="0" cx="1183.49" cy="-501.94" rx="57.49" ry="18"/>
<text xml:space="preserve" text-anchor="middle" x="1183.49" y="-496.89" font-family="Times New Roman,serif" font-size="14.00">baletdejotājs</text>
</g>
<!-- baletfilma____bal -->
<g id="node6" class="node">
<title>baletfilma____bal</title>
<ellipse fill="white" stroke="black" stroke-width="0" cx="1204.62" cy="-293.42" rx="48.79" ry="18"/>
<text xml:space="preserve" text-anchor="middle" x="1204.62" y="-288.37" font-family="Times New Roman,serif" font-size="14.00">baletfilma</text>
</g>
<!-- baletmeistaraprāt____bal -->
<g id="node7" class="node">
<title>baletmeistaraprāt____bal</title>
<ellipse fill="white" stroke="black" stroke-width="0" cx="1565.93" cy="-371.26" rx="74.89" ry="18"/>
<text xml:space="preserve" text-anchor="middle" x="1565.93" y="-366.21" font-family="Times New Roman,serif" font-size="14.00">baletmeistaraprāt</text>
</g>
<!-- baletmeistars____bal -->
<g id="node8" class="node">
<title>baletmeistars____bal</title>
<ellipse fill="white" stroke="black" stroke-width="0" cx="1485.69" cy="-301.59" rx="60.05" ry="18"/>
<text xml:space="preserve" text-anchor="middle" x="1485.69" y="-296.54" font-family="Times New Roman,serif" font-size="14.00">baletmeistars</text>
</g>
<!-- baletmīļotājs____bal -->
<g id="node9" class="node">
<title>baletmīļotājs____bal</title>
<ellipse fill="white" stroke="black" stroke-width="0" cx="1427.69" cy="-558.35" rx="59.03" ry="18"/>
<text xml:space="preserve" text-anchor="middle" x="1427.69" y="-553.3" font-family="Times New Roman,serif" font-size="14.00">baletmīļotājs</text>
</g>
<!-- baletmūzika____bal -->
<g id="node10" class="node">
<title>baletmūzika____bal</title>
<ellipse fill="white" stroke="black" stroke-width="0" cx="1265.74" cy="-215.36" rx="56.47" ry="18"/>
<text xml:space="preserve" text-anchor="middle" x="1265.74" y="-210.31" font-family="Times New Roman,serif" font-size="14.00">baletmūzika</text>
</g>
<!-- baletopera____bal -->
<g id="node11" class="node">
<title>baletopera____bal</title>
<ellipse fill="white" stroke="black" stroke-width="0" cx="1379.51" cy="-239.07" rx="49.3" ry="18"/>
<text xml:space="preserve" text-anchor="middle" x="1379.51" y="-234.02" font-family="Times New Roman,serif" font-size="14.00">baletopera</text>
</g>
<!-- balets____bal -->
<g id="node12" class="node">
<title>balets____bal</title>
<ellipse fill="white" stroke="black" stroke-width="0" cx="1349.16" cy="-374.51" rx="32.41" ry="18"/>
<text xml:space="preserve" text-anchor="middle" x="1349.16" y="-369.46" font-family="Times New Roman,serif" font-size="14.00">balets</text>
</g>
<!-- baletskola____bal -->
<g id="node13" class="node">
<title>baletskola____bal</title>
<ellipse fill="white" stroke="black" stroke-width="0" cx="1486.23" cy="-479" rx="48.28" ry="18"/>
<text xml:space="preserve" text-anchor="middle" x="1486.23" y="-473.95" font-family="Times New Roman,serif" font-size="14.00">baletskola</text>
</g>
<!-- balāde____bal -->
<g id="node14" class="node">
<title>balāde____bal</title>
<ellipse fill="white" stroke="black" stroke-width="0" cx="1298.02" cy="-614.76" rx="34.97" ry="18"/>
<text xml:space="preserve" text-anchor="middle" x="1298.02" y="-609.71" font-family="Times New Roman,serif" font-size="14.00">balāde</text>
</g>
<!-- vaboļbalāde____bal -->
<g id="node15" class="node">
<title>vaboļbalāde____bal</title>
<ellipse fill="white" stroke="black" stroke-width="0" cx="1363.85" cy="-712.54" rx="55.45" ry="18"/>
<text xml:space="preserve" text-anchor="middle" x="1363.85" y="-707.49" font-family="Times New Roman,serif" font-size="14.00">vaboļbalāde</text>
</g>
<!-- klavierbalāde____bal -->
<g id="node16" class="node">
<title>klavierbalāde____bal</title>
<ellipse fill="white" stroke="black" stroke-width="0" cx="1215.03" cy="-683.39" rx="60.56" ry="18"/>
<text xml:space="preserve" text-anchor="middle" x="1215.03" y="-678.34" font-family="Times New Roman,serif" font-size="14.00">klavierbalāde</text>
</g>
<!-- dejotājs -->
<g id="node17" class="node">
<title>dejotājs</title>
<ellipse fill="white" stroke="black" stroke-width="0" cx="1045.21" cy="-612.85" rx="39.58" ry="18"/>
<text xml:space="preserve" text-anchor="middle" x="1045.21" y="-607.8" font-family="Times New Roman,serif" font-size="14.00" fill="gray">dejotājs</text>
</g>
<!-- filma -->
<g id="node18" class="node">
<title>filma</title>
<ellipse fill="white" stroke="black" stroke-width="0" cx="1091.9" cy="-160.09" rx="30.88" ry="18"/>
<text xml:space="preserve" text-anchor="middle" x="1091.9" y="-155.04" font-family="Times New Roman,serif" font-size="14.00" fill="gray">filma</text>
</g>
<!-- prāts -->
<g id="node19" class="node">
<title>prāts</title>
<ellipse fill="white" stroke="black" stroke-width="0" cx="1763.55" cy="-347.17" rx="28.83" ry="18"/>
<text xml:space="preserve" text-anchor="middle" x="1763.55" y="-342.12" font-family="Times New Roman,serif" font-size="14.00" fill="gray">prāts</text>
</g>
<!-- meistars -->
<g id="node20" class="node">
<title>meistars</title>
<ellipse fill="white" stroke="black" stroke-width="0" cx="1641.27" cy="-169.68" rx="42.14" ry="18"/>
<text xml:space="preserve" text-anchor="middle" x="1641.27" y="-164.63" font-family="Times New Roman,serif" font-size="14.00" fill="gray">meistars</text>
</g>
<!-- mīļotājs -->
<g id="node21" class="node">
<title>mīļotājs</title>
<ellipse fill="white" stroke="black" stroke-width="0" cx="1569.18" cy="-701.41" rx="41.12" ry="18"/>
<text xml:space="preserve" text-anchor="middle" x="1569.18" y="-696.36" font-family="Times New Roman,serif" font-size="14.00" fill="gray">mīļotājs</text>
</g>
<!-- mūzika -->
<g id="node22" class="node">
<title>mūzika</title>
<ellipse fill="white" stroke="black" stroke-width="0" cx="1249.96" cy="-18" rx="38.56" ry="18"/>
<text xml:space="preserve" text-anchor="middle" x="1249.96" y="-12.95" font-family="Times New Roman,serif" font-size="14.00" fill="gray">mūzika</text>
</g>
<!-- opera -->
<g id="node23" class="node">
<title>opera</title>
<ellipse fill="white" stroke="black" stroke-width="0" cx="1447.79" cy="-82.89" rx="31.39" ry="18"/>
<text xml:space="preserve" text-anchor="middle" x="1447.79" y="-77.84" font-family="Times New Roman,serif" font-size="14.00" fill="gray">opera</text>
</g>
<!-- skola -->
<g id="node24" class="node">
<title>skola</title>
<ellipse fill="white" stroke="black" stroke-width="0" cx="1666.28" cy="-546.61" rx="30.37" ry="18"/>
<text xml:space="preserve" text-anchor="middle" x="1666.28" y="-541.56" font-family="Times New Roman,serif" font-size="14.00" fill="gray">skola</text>
</g>
<!-- vabole -->
<g id="node25" class="node">
<title>vabole</title>
<ellipse fill="white" stroke="black" stroke-width="0" cx="1415.8" cy="-905.71" rx="35.49" ry="18"/>
<text xml:space="preserve" text-anchor="middle" x="1415.8" y="-900.66" font-family="Times New Roman,serif" font-size="14.00" fill="gray">vabole</text>
</g>
<!-- klavieres -->
<g id="node26" class="node">
<title>klavieres</title>
<ellipse fill="white" stroke="black" stroke-width="0" cx="1173.17" cy="-865.72" rx="44.19" ry="18"/>
<text xml:space="preserve" text-anchor="middle" x="1173.17" y="-860.67" font-family="Times New Roman,serif" font-size="14.00" fill="gray">klavieres</text>
</g>
<!-- balle____ball__baļļ -->
<g id="node27" class="node">
<title>balle____ball__baļļ</title>
<ellipse fill="white" stroke="black" stroke-width="0" cx="342.24" cy="-422.02" rx="28.83" ry="18"/>
<text xml:space="preserve" text-anchor="middle" x="342.24" y="-416.97" font-family="Times New Roman,serif" font-size="14.00">balle</text>
</g>
<!-- ballēšanās____ball__baļļ -->
<g id="node28" class="node">
<title>ballēšanās____ball__baļļ</title>
<ellipse fill="white" stroke="black" stroke-width="0" cx="616.64" cy="-238.81" rx="48.79" ry="18"/>
<text xml:space="preserve" text-anchor="middle" x="616.64" y="-233.76" font-family="Times New Roman,serif" font-size="14.00">ballēšanās</text>
</g>
<!-- ballēt____ball__baļļ -->
<g id="node29" class="node">
<title>ballēt____ball__baļļ</title>
<ellipse fill="white" stroke="black" stroke-width="0" cx="401.36" cy="-265.96" rx="31.39" ry="18"/>
<text xml:space="preserve" text-anchor="middle" x="401.36" y="-260.91" font-family="Times New Roman,serif" font-size="14.00">ballēt</text>
</g>
<!-- ballētāja____ball__baļļ -->
<g id="node30" class="node">
<title>ballētāja____ball__baļļ</title>
<ellipse fill="white" stroke="black" stroke-width="0" cx="300.68" cy="-235.75" rx="42.14" ry="18"/>
<text xml:space="preserve" text-anchor="middle" x="300.68" y="-230.7" font-family="Times New Roman,serif" font-size="14.00">ballētāja</text>
</g>
<!-- ballētājs____ball__baļļ -->
<g id="node31" class="node">
<title>ballētājs____ball__baļļ</title>
<ellipse fill="white" stroke="black" stroke-width="0" cx="491.63" cy="-174.35" rx="41.63" ry="18"/>
<text xml:space="preserve" text-anchor="middle" x="491.63" y="-169.3" font-family="Times New Roman,serif" font-size="14.00">ballētājs</text>
</g>
<!-- ballēties____ball__baļļ -->
<g id="node32" class="node">
<title>ballēties____ball__baļļ</title>
<ellipse fill="white" stroke="black" stroke-width="0" cx="531.33" cy="-285.61" rx="41.63" ry="18"/>
<text xml:space="preserve" text-anchor="middle" x="531.33" y="-280.56" font-family="Times New Roman,serif" font-size="14.00">ballēties</text>
</g>
<!-- ballīšprieks____ball__baļļ -->
<g id="node33" class="node">
<title>ballīšprieks____ball__baļļ</title>
<ellipse fill="white" stroke="black" stroke-width="0" cx="578.63" cy="-575.98" rx="53.4" ry="18"/>
<text xml:space="preserve" text-anchor="middle" x="578.63" y="-570.93" font-family="Times New Roman,serif" font-size="14.00">ballīšprieks</text>
</g>
<!-- ballīte____ball__baļļ -->
<g id="node34" class="node">
<title>ballīte____ball__baļļ</title>
<ellipse fill="white" stroke="black" stroke-width="0" cx="507.74" cy="-483.44" rx="33.95" ry="18"/>
<text xml:space="preserve" text-anchor="middle" x="507.74" y="-478.39" font-family="Times New Roman,serif" font-size="14.00">ballīte</text>
</g>
<!-- dižballe____ball__baļļ -->
<g id="node35" class="node">
<title>dižballe____ball__baļļ</title>
<ellipse fill="white" stroke="black" stroke-width="0" cx="401.11" cy="-605.12" rx="40.09" ry="18"/>
<text xml:space="preserve" text-anchor="middle" x="401.11" y="-600.07" font-family="Times New Roman,serif" font-size="14.00">dižballe</text>
</g>
<!-- izballēties____ball__baļļ -->
<g id="node36" class="node">
<title>izballēties____ball__baļļ</title>
<ellipse fill="white" stroke="black" stroke-width="0" cx="383.57" cy="-155.19" rx="48.28" ry="18"/>
<text xml:space="preserve" text-anchor="middle" x="383.57" y="-150.14" font-family="Times New Roman,serif" font-size="14.00">izballēties</text>
</g>
<!-- kāpostballe____ball__baļļ -->
<g id="node37" class="node">
<title>kāpostballe____ball__baļļ</title>
<ellipse fill="white" stroke="black" stroke-width="0" cx="214.94" cy="-322.44" rx="52.89" ry="18"/>
<text xml:space="preserve" text-anchor="middle" x="214.94" y="-317.39" font-family="Times New Roman,serif" font-size="14.00">kāpostballe</text>
</g>
<!-- zaļumballe____ball__baļļ -->
<g id="node38" class="node">
<title>zaļumballe____ball__baļļ</title>
<ellipse fill="white" stroke="black" stroke-width="0" cx="212.82" cy="-451.77" rx="51.86" ry="18"/>
<text xml:space="preserve" text-anchor="middle" x="212.82" y="-446.72" font-family="Times New Roman,serif" font-size="14.00">zaļumballe</text>
</g>
<!-- baļļošanās____ball__baļļ -->
<g id="node39" class="node">
<title>baļļošanās____ball__baļļ</title>
<ellipse fill="white" stroke="black" stroke-width="0" cx="272.24" cy="-593.28" rx="49.3" ry="18"/>
<text xml:space="preserve" text-anchor="middle" x="272.24" y="-588.23" font-family="Times New Roman,serif" font-size="14.00">baļļošanās</text>
</g>
<!-- baļļuks____ball__baļļ -->
<g id="node40" class="node">
<title>baļļuks____ball__baļļ</title>
<ellipse fill="white" stroke="black" stroke-width="0" cx="398.97" cy="-495.64" rx="37.53" ry="18"/>
<text xml:space="preserve" text-anchor="middle" x="398.97" y="-490.59" font-family="Times New Roman,serif" font-size="14.00">baļļuks</text>
</g>
<!-- prieks -->
<g id="node41" class="node">
<title>prieks</title>
<ellipse fill="white" stroke="black" stroke-width="0" cx="627.24" cy="-744.47" rx="33.44" ry="18"/>
<text xml:space="preserve" text-anchor="middle" x="627.24" y="-739.42" font-family="Times New Roman,serif" font-size="14.00" fill="gray">prieks</text>
</g>
<!-- dižs -->
<g id="node42" class="node">
<title>dižs</title>
<ellipse fill="white" stroke="black" stroke-width="0" cx="391.01" cy="-796.93" rx="27" ry="18"/>
<text xml:space="preserve" text-anchor="middle" x="391.01" y="-791.88" font-family="Times New Roman,serif" font-size="14.00" fill="gray">dižs</text>
</g>
<!-- kāposts -->
<g id="node43" class="node">
<title>kāposts</title>
<ellipse fill="white" stroke="black" stroke-width="0" cx="48.27" cy="-240.89" rx="38.56" ry="18"/>
<text xml:space="preserve" text-anchor="middle" x="48.27" y="-235.84" font-family="Times New Roman,serif" font-size="14.00" fill="gray">kāposts</text>
</g>
<!-- zaļums -->
<g id="node44" class="node">
<title>zaļums</title>
<ellipse fill="white" stroke="black" stroke-width="0" cx="37.53" cy="-508.68" rx="37.53" ry="18"/>
<text xml:space="preserve" text-anchor="middle" x="37.53" y="-503.63" font-family="Times New Roman,serif" font-size="14.00" fill="gray">zaļums</text>
</g>
<!-- baļļoties -->
<g id="node45" class="node">
<title>baļļoties</title>
<ellipse fill="white" stroke="black" stroke-width="0" cx="172.26" cy="-735.97" rx="42.14" ry="18"/>
<text xml:space="preserve" text-anchor="middle" x="172.26" y="-730.92" font-family="Times New Roman,serif" font-size="14.00" fill="gray">baļļoties</text>
</g>
</g>
</svg>
