<?xml version="1.0" encoding="UTF-8" standalone="no"?>
<!DOCTYPE svg PUBLIC "-//W3C//DTD SVG 1.1//EN"
 "http://www.w3.org/Graphics/SVG/1.1/DTD/svg11.dtd">
<!-- Generated by graphviz version 13.1.2 (20250808.2320)
 -->
<!-- Pages: 1 -->
<svg width="1841pt" height="906pt"
 viewBox="0.00 0.00 1841.00 906.00" xmlns="http://www.w3.org/2000/svg" xmlns:xlink="http://www.w3.org/1999/xlink">
<g id="graph0" class="graph" transform="scale(1 1) rotate(0) translate(4 902.37)">
<polygon fill="white" stroke="none" points="-4,4 -4,-902.37 1837.09,-902.37 1837.09,4 -4,4"/>
<!-- # zero&#45;element&#45;&gt;## bal -->
<g id="edge1" class="edge">
<title># zero&#45;element&#45;&gt;## bal</title>
<path fill="none" stroke="black" stroke-dasharray="5,2" d="M856.48,-428.38C774.46,-431.41 596.91,-437.95 510.25,-441.15"/>
<polygon fill="black" stroke="black" points="510.27,-437.64 500.41,-441.51 510.53,-444.64 510.27,-437.64"/>
</g>
<!-- # zero&#45;element&#45;&gt;## ball, baļļ -->
<g id="edge2" class="edge">
<title># zero&#45;element&#45;&gt;## ball, baļļ</title>
<path fill="none" stroke="black" stroke-dasharray="5,2" d="M943.03,-424.88C1024.18,-421.31 1198.81,-413.62 1284.59,-409.84"/>
<polygon fill="black" stroke="black" points="1284.49,-413.35 1294.33,-409.41 1284.18,-406.36 1284.49,-413.35"/>
</g>
<!-- ## bal&#45;&gt;balerīna -->
<g id="edge3" class="edge">
<title>## bal&#45;&gt;balerīna</title>
<path fill="none" stroke="#cccccc" d="M498.69,-450.99C526.61,-456.86 564.3,-464.8 591.84,-470.6"/>
</g>
<!-- ## bal&#45;&gt;baletdejotājs -->
<g id="edge4" class="edge">
<title>## bal&#45;&gt;baletdejotājs</title>
<path fill="none" stroke="#cccccc" d="M422.45,-427.69C380.99,-411.09 315.32,-384.81 275.08,-368.7"/>
</g>
<!-- ## bal&#45;&gt;balets -->
<g id="edge25" class="edge">
<title>## bal&#45;&gt;balets</title>
<path fill="none" stroke="#cccccc" d="M447.13,-422.7C436.9,-407.37 423.03,-386.58 413.45,-372.21"/>
</g>
<!-- ## bal&#45;&gt;baletfilma -->
<g id="edge7" class="edge">
<title>## bal&#45;&gt;baletfilma</title>
<path fill="none" stroke="#cccccc" d="M464.74,-422.63C473.35,-379.79 493.23,-280.87 501.37,-240.35"/>
</g>
<!-- ## bal&#45;&gt;baletmeistaraprāt -->
<g id="edge10" class="edge">
<title>## bal&#45;&gt;baletmeistaraprāt</title>
<path fill="none" stroke="#cccccc" d="M463.65,-463.11C470.54,-509.28 487.36,-622.16 493.91,-666.11"/>
</g>
<!-- ## bal&#45;&gt;baletmeistars -->
<g id="edge13" class="edge">
<title>## bal&#45;&gt;baletmeistars</title>
<path fill="none" stroke="#cccccc" d="M470.97,-463.39C481.94,-485.07 499.09,-518.98 509.48,-539.53"/>
</g>
<!-- ## bal&#45;&gt;baletmīļotājs -->
<g id="edge16" class="edge">
<title>## bal&#45;&gt;baletmīļotājs</title>
<path fill="none" stroke="#cccccc" d="M477.98,-422.61C499.29,-397.55 535.11,-355.44 555.19,-331.83"/>
</g>
<!-- ## bal&#45;&gt;baletmūzika -->
<g id="edge19" class="edge">
<title>## bal&#45;&gt;baletmūzika</title>
<path fill="none" stroke="#cccccc" d="M422.74,-444.52C389.87,-445.86 341.83,-447.82 304.54,-449.34"/>
</g>
<!-- ## bal&#45;&gt;baletopera -->
<g id="edge22" class="edge">
<title>## bal&#45;&gt;baletopera</title>
<path fill="none" stroke="#cccccc" d="M455.28,-422.77C443.35,-377.97 414.86,-270.89 403.57,-228.48"/>
</g>
<!-- ## bal&#45;&gt;baletskola -->
<g id="edge26" class="edge">
<title>## bal&#45;&gt;baletskola</title>
<path fill="none" stroke="#cccccc" d="M442.31,-422.65C409.41,-386.19 340.96,-310.33 310.45,-276.51"/>
</g>
<!-- ## bal&#45;&gt;balāde -->
<g id="edge29" class="edge">
<title>## bal&#45;&gt;balāde</title>
<path fill="none" stroke="#cccccc" d="M443.4,-463.23C421.19,-489.3 383.03,-534.09 362.58,-558.1"/>
</g>
<!-- ## bal&#45;&gt;vaboļbalāde -->
<g id="edge30" class="edge">
<title>## bal&#45;&gt;vaboļbalāde</title>
<path fill="none" stroke="#cccccc" d="M450.26,-463.26C426.37,-509.88 367.87,-624.02 345.3,-668.06"/>
</g>
<!-- ## bal&#45;&gt;klavierbalāde -->
<g id="edge33" class="edge">
<title>## bal&#45;&gt;klavierbalāde</title>
<path fill="none" stroke="#cccccc" d="M429.52,-463.34C383.93,-493.16 299.88,-548.14 258.17,-575.43"/>
</g>
<!-- ## ball, baļļ&#45;&gt;balle -->
<g id="edge36" class="edge">
<title>## ball, baļļ&#45;&gt;balle</title>
<path fill="none" stroke="#cccccc" d="M1345.61,-428.03C1356.96,-448.28 1374.16,-478.97 1384.74,-497.86"/>
</g>
<!-- ## ball, baļļ&#45;&gt;ballēšanās -->
<g id="edge37" class="edge">
<title>## ball, baļļ&#45;&gt;ballēšanās</title>
<path fill="none" stroke="#cccccc" d="M1331.07,-387.44C1324.93,-347.7 1311.37,-260.03 1305.55,-222.34"/>
</g>
<!-- ## ball, baļļ&#45;&gt;ballēties -->
<g id="edge45" class="edge">
<title>## ball, baļļ&#45;&gt;ballēties</title>
<path fill="none" stroke="#cccccc" d="M1319.56,-387.62C1307.13,-370.61 1289.49,-346.46 1277.71,-330.33"/>
</g>
<!-- ## ball, baļļ&#45;&gt;ballēt -->
<g id="edge39" class="edge">
<title>## ball, baļļ&#45;&gt;ballēt</title>
<path fill="none" stroke="#cccccc" d="M1368.11,-387.25C1379.2,-380.58 1391.21,-373.35 1401.13,-367.39"/>
</g>
<!-- ## ball, baļļ&#45;&gt;ballētāja -->
<g id="edge41" class="edge">
<title>## ball, baļļ&#45;&gt;ballētāja</title>
<path fill="none" stroke="#cccccc" d="M1346.26,-387.42C1359.75,-364.81 1381.35,-328.59 1394.08,-307.25"/>
</g>
<!-- ## ball, baļļ&#45;&gt;ballētājs -->
<g id="edge43" class="edge">
<title>## ball, baļļ&#45;&gt;ballētājs</title>
<path fill="none" stroke="#cccccc" d="M1363.48,-387.29C1400.1,-361.82 1461.97,-318.79 1494.67,-296.05"/>
</g>
<!-- ## ball, baļļ&#45;&gt;ballīšprieks -->
<g id="edge47" class="edge">
<title>## ball, baļļ&#45;&gt;ballīšprieks</title>
<path fill="none" stroke="#cccccc" d="M1372.4,-402.91C1421.94,-396.74 1508.46,-385.98 1563.17,-379.18"/>
</g>
<!-- ## ball, baļļ&#45;&gt;ballīte -->
<g id="edge50" class="edge">
<title>## ball, baļļ&#45;&gt;ballīte</title>
<path fill="none" stroke="#cccccc" d="M1372.36,-417.01C1406.04,-425.27 1454.5,-437.14 1485.68,-444.79"/>
</g>
<!-- ## ball, baļļ&#45;&gt;dižballe -->
<g id="edge52" class="edge">
<title>## ball, baļļ&#45;&gt;dižballe</title>
<path fill="none" stroke="#cccccc" d="M1359.37,-427.88C1400.82,-461.17 1482.54,-526.8 1519.98,-556.87"/>
</g>
<!-- ## ball, baļļ&#45;&gt;izballēties -->
<g id="edge55" class="edge">
<title>## ball, baļļ&#45;&gt;izballēties</title>
<path fill="none" stroke="#cccccc" d="M1344.07,-387.29C1363.88,-346.4 1408.18,-254.98 1426.77,-216.62"/>
</g>
<!-- ## ball, baļļ&#45;&gt;kāpostballe -->
<g id="edge57" class="edge">
<title>## ball, baļļ&#45;&gt;kāpostballe</title>
<path fill="none" stroke="#cccccc" d="M1334.59,-428.03C1335.5,-474.85 1337.71,-589.48 1338.57,-633.71"/>
</g>
<!-- ## ball, baļļ&#45;&gt;zaļumballe -->
<g id="edge60" class="edge">
<title>## ball, baļļ&#45;&gt;zaļumballe</title>
<path fill="none" stroke="#cccccc" d="M1321.49,-428.02C1301.9,-459.41 1264.67,-519.05 1246.27,-548.52"/>
</g>
<!-- ## ball, baļļ&#45;&gt;baļļošanās -->
<g id="edge63" class="edge">
<title>## ball, baļļ&#45;&gt;baļļošanās</title>
<path fill="none" stroke="#cccccc" d="M1320.78,-387.42C1293.43,-346.16 1231.62,-252.92 1205.89,-214.1"/>
</g>
<!-- ## ball, baļļ&#45;&gt;baļļuks -->
<g id="edge65" class="edge">
<title>## ball, baļļ&#45;&gt;baļļuks</title>
<path fill="none" stroke="#cccccc" d="M1344.37,-427.94C1363.16,-465.36 1402.96,-544.67 1420.58,-579.78"/>
</g>
<!-- balets&#45;&gt;baletdejotājs -->
<g id="edge5" class="edge">
<title>balets&#45;&gt;baletdejotājs</title>
<path fill="none" stroke="blue" d="M370.25,-355.38C352.61,-355.28 330.03,-355.14 308.63,-355.02"/>
<polygon fill="blue" stroke="blue" points="308.77,-351.52 298.75,-354.96 308.73,-358.52 308.77,-351.52"/>
</g>
<!-- balets&#45;&gt;baletfilma -->
<g id="edge8" class="edge">
<title>balets&#45;&gt;baletfilma</title>
<path fill="none" stroke="blue" d="M414.93,-339.26C432.35,-316.67 464.02,-275.6 484.77,-248.7"/>
<polygon fill="blue" stroke="blue" points="487.35,-251.08 490.69,-241.03 481.81,-246.81 487.35,-251.08"/>
</g>
<!-- balets&#45;&gt;baletmeistars -->
<g id="edge14" class="edge">
<title>balets&#45;&gt;baletmeistars</title>
<path fill="none" stroke="blue" d="M412.04,-372.41C432.08,-407.21 478.21,-487.35 502.6,-529.73"/>
<polygon fill="blue" stroke="blue" points="499.53,-531.4 507.55,-538.32 505.6,-527.91 499.53,-531.4"/>
</g>
<!-- balets&#45;&gt;baletmīļotājs -->
<g id="edge17" class="edge">
<title>balets&#45;&gt;baletmīļotājs</title>
<path fill="none" stroke="blue" d="M431.93,-348.31C454.4,-342.8 485.98,-335.05 513.27,-328.36"/>
<polygon fill="blue" stroke="blue" points="513.92,-331.8 522.8,-326.02 512.25,-325 513.92,-331.8"/>
</g>
<!-- balets&#45;&gt;baletmūzika -->
<g id="edge20" class="edge">
<title>balets&#45;&gt;baletmūzika</title>
<path fill="none" stroke="blue" d="M380.97,-368.92C355.84,-384.62 313.77,-410.91 283.81,-429.63"/>
<polygon fill="blue" stroke="blue" points="282.06,-426.6 275.44,-434.86 285.77,-432.53 282.06,-426.6"/>
</g>
<!-- balets&#45;&gt;baletopera -->
<g id="edge23" class="edge">
<title>balets&#45;&gt;baletopera</title>
<path fill="none" stroke="blue" d="M401.92,-337.81C401.33,-313.38 400.26,-269.1 399.55,-239.81"/>
<polygon fill="blue" stroke="blue" points="403.06,-240.07 399.32,-230.15 396.06,-240.24 403.06,-240.07"/>
</g>
<!-- balets&#45;&gt;baletskola -->
<g id="edge27" class="edge">
<title>balets&#45;&gt;baletskola</title>
<path fill="none" stroke="blue" d="M385.6,-340.57C368.58,-325.33 341.94,-301.47 321.98,-283.59"/>
<polygon fill="blue" stroke="blue" points="324.52,-281.17 314.74,-277.11 319.85,-286.39 324.52,-281.17"/>
</g>
<!-- dejotājs&#45;&gt;baletdejotājs -->
<g id="edge6" class="edge">
<title>dejotājs&#45;&gt;baletdejotājs</title>
<path fill="none" stroke="blue" d="M82.42,-277.29C113.04,-292.32 163.48,-317.09 199.01,-334.54"/>
<polygon fill="blue" stroke="blue" points="197.19,-337.54 207.71,-338.81 200.27,-331.26 197.19,-337.54"/>
</g>
<!-- filma&#45;&gt;baletfilma -->
<g id="edge9" class="edge">
<title>filma&#45;&gt;baletfilma</title>
<path fill="none" stroke="blue" d="M540.78,-45.37C533.97,-79.04 519.06,-152.78 510.78,-193.72"/>
<polygon fill="blue" stroke="blue" points="507.38,-192.83 508.83,-203.33 514.25,-194.22 507.38,-192.83"/>
</g>
<!-- baletmeistars&#45;&gt;baletmeistaraprāt -->
<g id="edge11" class="edge">
<title>baletmeistars&#45;&gt;baletmeistaraprāt</title>
<path fill="none" stroke="blue" d="M515.31,-575.05C511.74,-595.84 505.8,-630.4 501.56,-655.03"/>
<polygon fill="blue" stroke="blue" points="498.14,-654.28 499.9,-664.72 505.04,-655.46 498.14,-654.28"/>
</g>
<!-- prāts&#45;&gt;baletmeistaraprāt -->
<g id="edge12" class="edge">
<title>prāts&#45;&gt;baletmeistaraprāt</title>
<path fill="none" stroke="blue" d="M504.56,-862.6C503.05,-828.74 499.74,-754.66 497.89,-713.35"/>
<polygon fill="blue" stroke="blue" points="501.39,-713.25 497.45,-703.42 494.4,-713.56 501.39,-713.25"/>
</g>
<!-- meistars&#45;&gt;baletmeistars -->
<g id="edge15" class="edge">
<title>meistars&#45;&gt;baletmeistars</title>
<path fill="none" stroke="blue" d="M625.44,-692.53C604.58,-666.14 564.07,-614.91 539.3,-583.59"/>
<polygon fill="blue" stroke="blue" points="542.05,-581.42 533.1,-575.75 536.56,-585.76 542.05,-581.42"/>
</g>
<!-- mīļotājs&#45;&gt;baletmīļotājs -->
<g id="edge18" class="edge">
<title>mīļotājs&#45;&gt;baletmīļotājs</title>
<path fill="none" stroke="blue" d="M679.68,-212.8C658.27,-232.64 621.71,-266.52 596.72,-289.67"/>
<polygon fill="blue" stroke="blue" points="594.48,-286.98 589.52,-296.34 599.24,-292.11 594.48,-286.98"/>
</g>
<!-- mūzika&#45;&gt;baletmūzika -->
<g id="edge21" class="edge">
<title>mūzika&#45;&gt;baletmūzika</title>
<path fill="none" stroke="blue" d="M76.6,-457.64C105.7,-456.62 146.58,-455.19 181.19,-453.98"/>
<polygon fill="blue" stroke="blue" points="181.28,-457.48 191.15,-453.63 181.03,-450.48 181.28,-457.48"/>
</g>
<!-- opera&#45;&gt;baletopera -->
<g id="edge24" class="edge">
<title>opera&#45;&gt;baletopera</title>
<path fill="none" stroke="blue" d="M352.17,-35.79C361.09,-69.21 380.41,-141.63 391.19,-182.03"/>
<polygon fill="blue" stroke="blue" points="387.77,-182.77 393.73,-191.53 394.53,-180.97 387.77,-182.77"/>
</g>
<!-- skola&#45;&gt;baletskola -->
<g id="edge28" class="edge">
<title>skola&#45;&gt;baletskola</title>
<path fill="none" stroke="blue" d="M178.07,-122.25C200.71,-148.8 246.53,-202.54 273.67,-234.36"/>
<polygon fill="blue" stroke="blue" points="270.66,-236.22 279.81,-241.56 275.98,-231.68 270.66,-236.22"/>
</g>
<!-- balāde&#45;&gt;vaboļbalāde -->
<g id="edge32" class="edge">
<title>balāde&#45;&gt;vaboļbalāde</title>
<path fill="none" stroke="blue" d="M346.67,-592.32C344.72,-609.69 341.74,-636.36 339.46,-656.77"/>
<polygon fill="blue" stroke="blue" points="336.01,-656.12 338.38,-666.44 342.97,-656.89 336.01,-656.12"/>
</g>
<!-- balāde&#45;&gt;klavierbalāde -->
<g id="edge35" class="edge">
<title>balāde&#45;&gt;klavierbalāde</title>
<path fill="none" stroke="blue" d="M315.31,-579.41C309.96,-580.21 304.26,-581.06 298.47,-581.93"/>
<polygon fill="blue" stroke="blue" points="298.13,-578.44 288.76,-583.38 299.17,-585.36 298.13,-578.44"/>
</g>
<!-- vabole&#45;&gt;vaboļbalāde -->
<g id="edge31" class="edge">
<title>vabole&#45;&gt;vaboļbalāde</title>
<path fill="none" stroke="blue" d="M249.52,-831.08C266.34,-802.9 300.05,-746.41 320.12,-712.77"/>
<polygon fill="blue" stroke="blue" points="322.98,-714.8 325.1,-704.42 316.97,-711.22 322.98,-714.8"/>
</g>
<!-- klavieres&#45;&gt;klavierbalāde -->
<g id="edge34" class="edge">
<title>klavieres&#45;&gt;klavierbalāde</title>
<path fill="none" stroke="blue" d="M93.37,-686.88C121.04,-668.06 168.15,-636.01 199.99,-614.35"/>
<polygon fill="blue" stroke="blue" points="201.79,-617.36 208.09,-608.84 197.85,-611.57 201.79,-617.36"/>
</g>
<!-- balle&#45;&gt;ballēt -->
<g id="edge40" class="edge">
<title>balle&#45;&gt;ballēt</title>
<path fill="none" stroke="green" d="M1397.29,-496.9C1402.16,-469.48 1411.55,-416.55 1417.41,-383.51"/>
<polygon fill="green" stroke="green" points="1420.83,-384.27 1419.13,-373.81 1413.94,-383.05 1420.83,-384.27"/>
</g>
<!-- balle&#45;&gt;ballīte -->
<g id="edge51" class="edge">
<title>balle&#45;&gt;ballīte</title>
<path fill="none" stroke="green" d="M1416.26,-503.36C1434.6,-493.99 1461,-480.51 1482.07,-469.75"/>
<polygon fill="green" stroke="green" points="1483.56,-472.91 1490.87,-465.25 1480.38,-466.68 1483.56,-472.91"/>
</g>
<!-- balle&#45;&gt;dižballe -->
<g id="edge54" class="edge">
<title>balle&#45;&gt;dižballe</title>
<path fill="none" stroke="blue" d="M1418.15,-524.22C1440.1,-532.96 1473.01,-546.07 1499.03,-556.44"/>
<polygon fill="blue" stroke="blue" points="1497.71,-559.68 1508.3,-560.13 1500.3,-553.18 1497.71,-559.68"/>
</g>
<!-- balle&#45;&gt;kāpostballe -->
<g id="edge59" class="edge">
<title>balle&#45;&gt;kāpostballe</title>
<path fill="none" stroke="blue" d="M1387.15,-531.98C1377.86,-555 1361.35,-595.92 1350.26,-623.39"/>
<polygon fill="blue" stroke="blue" points="1347.09,-621.91 1346.59,-632.49 1353.58,-624.52 1347.09,-621.91"/>
</g>
<!-- balle&#45;&gt;zaļumballe -->
<g id="edge62" class="edge">
<title>balle&#45;&gt;zaļumballe</title>
<path fill="none" stroke="blue" d="M1368.65,-522.88C1345.9,-530.23 1311.98,-541.18 1284.07,-550.19"/>
<polygon fill="blue" stroke="blue" points="1283.19,-546.8 1274.74,-553.2 1285.34,-553.46 1283.19,-546.8"/>
</g>
<!-- balle&#45;&gt;baļļuks -->
<g id="edge66" class="edge">
<title>balle&#45;&gt;baļļuks</title>
<path fill="none" stroke="green" d="M1401.43,-531.74C1406.06,-542.62 1412.17,-556.96 1417.49,-569.44"/>
<polygon fill="green" stroke="green" points="1414.17,-570.57 1421.31,-578.4 1420.61,-567.82 1414.17,-570.57"/>
</g>
<!-- ballēties&#45;&gt;ballēšanās -->
<g id="edge38" class="edge">
<title>ballēties&#45;&gt;ballēšanās</title>
<path fill="none" stroke="green" d="M1271.22,-295.72C1277.08,-278.8 1286.07,-252.83 1292.96,-232.93"/>
<polygon fill="green" stroke="green" points="1296.18,-234.34 1296.14,-223.75 1289.56,-232.05 1296.18,-234.34"/>
</g>
<!-- ballēt&#45;&gt;ballēties -->
<g id="edge46" class="edge">
<title>ballēt&#45;&gt;ballēties</title>
<path fill="none" stroke="green" d="M1394.06,-347.01C1371.11,-340.99 1338.4,-332.4 1311.68,-325.38"/>
<polygon fill="green" stroke="green" points="1312.66,-322.02 1302.1,-322.87 1310.88,-328.79 1312.66,-322.02"/>
</g>
<!-- ballēt&#45;&gt;ballētāja -->
<g id="edge42" class="edge">
<title>ballēt&#45;&gt;ballētāja</title>
<path fill="none" stroke="green" d="M1417.59,-336.86C1415.99,-331.17 1414.17,-324.7 1412.41,-318.44"/>
<polygon fill="green" stroke="green" points="1415.84,-317.71 1409.76,-309.03 1409.1,-319.6 1415.84,-317.71"/>
</g>
<!-- ballēt&#45;&gt;ballētājs -->
<g id="edge44" class="edge">
<title>ballēt&#45;&gt;ballētājs</title>
<path fill="none" stroke="green" d="M1440.66,-340.3C1453.9,-329.93 1472.13,-315.63 1487.4,-303.67"/>
<polygon fill="green" stroke="green" points="1489.55,-306.43 1495.26,-297.51 1485.23,-300.92 1489.55,-306.43"/>
</g>
<!-- ballēt&#45;&gt;izballēties -->
<g id="edge56" class="edge">
<title>ballēt&#45;&gt;izballēties</title>
<path fill="none" stroke="green" d="M1424.01,-336.67C1426.18,-310.1 1430.29,-259.82 1432.88,-227.97"/>
<polygon fill="green" stroke="green" points="1436.35,-228.52 1433.68,-218.27 1429.38,-227.95 1436.35,-228.52"/>
</g>
<!-- ballīte&#45;&gt;ballīšprieks -->
<g id="edge48" class="edge">
<title>ballīte&#45;&gt;ballīšprieks</title>
<path fill="none" stroke="blue" d="M1534.49,-437.36C1548.55,-425.85 1568.26,-409.71 1584.44,-396.47"/>
<polygon fill="blue" stroke="blue" points="1586.31,-399.46 1591.83,-390.41 1581.87,-394.04 1586.31,-399.46"/>
</g>
<!-- prieks&#45;&gt;ballīšprieks -->
<g id="edge49" class="edge">
<title>prieks&#45;&gt;ballīšprieks</title>
<path fill="none" stroke="blue" d="M1769.69,-333.3C1741.93,-340.33 1700.02,-350.95 1666.54,-359.43"/>
<polygon fill="blue" stroke="blue" points="1665.85,-356 1657.02,-361.85 1667.57,-362.78 1665.85,-356"/>
</g>
<!-- dižs&#45;&gt;dižballe -->
<g id="edge53" class="edge">
<title>dižs&#45;&gt;dižballe</title>
<path fill="none" stroke="blue" d="M1675.25,-673.23C1649.29,-653.97 1600.88,-618.07 1569.45,-594.76"/>
<polygon fill="blue" stroke="blue" points="1571.61,-592.01 1561.5,-588.86 1567.44,-597.63 1571.61,-592.01"/>
</g>
<!-- kāposts&#45;&gt;kāpostballe -->
<g id="edge58" class="edge">
<title>kāposts&#45;&gt;kāpostballe</title>
<path fill="none" stroke="blue" d="M1356.09,-814.85C1352.81,-783.62 1345.95,-718.45 1341.97,-680.55"/>
<polygon fill="blue" stroke="blue" points="1345.47,-680.36 1340.94,-670.78 1338.5,-681.09 1345.47,-680.36"/>
</g>
<!-- zaļums&#45;&gt;zaļumballe -->
<g id="edge61" class="edge">
<title>zaļums&#45;&gt;zaļumballe</title>
<path fill="none" stroke="blue" d="M1159,-702.04C1173.86,-675.57 1202.38,-624.76 1220.07,-593.25"/>
<polygon fill="blue" stroke="blue" points="1223.03,-595.13 1224.88,-584.69 1216.93,-591.7 1223.03,-595.13"/>
</g>
<!-- baļļoties&#45;&gt;baļļošanās -->
<g id="edge64" class="edge">
<title>baļļoties&#45;&gt;baļļošanās</title>
<path fill="none" stroke="green" d="M1137.01,-51.09C1148.04,-79.13 1169.84,-134.49 1183.14,-168.26"/>
<polygon fill="green" stroke="green" points="1179.82,-169.39 1186.74,-177.41 1186.33,-166.82 1179.82,-169.39"/>
</g>
<!-- # zero&#45;element -->
<g id="node1" class="node">
<title># zero&#45;element</title>
<polygon fill="lightblue" stroke="black" stroke-width="0" points="943.41,-444.78 856.16,-444.78 856.16,-408.78 943.41,-408.78 943.41,-444.78"/>
<text xml:space="preserve" text-anchor="middle" x="899.79" y="-421.73" font-family="Times New Roman,serif" font-size="14.00">zero&#45;element</text>
</g>
<!-- ## bal -->
<g id="node2" class="node">
<title>## bal</title>
<polygon fill="lightblue" stroke="black" stroke-width="0" points="499.03,-463.48 422.28,-463.48 422.28,-422.48 499.03,-422.48 499.03,-463.48"/>
<text xml:space="preserve" text-anchor="middle" x="460.65" y="-446.18" font-family="Times New Roman,serif" font-size="14.00">bal</text>
<text xml:space="preserve" text-anchor="middle" x="460.65" y="-429.68" font-family="Times New Roman,serif" font-size="14.00">(borrowed)</text>
</g>
<!-- ## ball, baļļ -->
<g id="node3" class="node">
<title>## ball, baļļ</title>
<polygon fill="lightblue" stroke="black" stroke-width="0" points="1372.57,-428.16 1295.82,-428.16 1295.82,-387.16 1372.57,-387.16 1372.57,-428.16"/>
<text xml:space="preserve" text-anchor="middle" x="1334.2" y="-410.86" font-family="Times New Roman,serif" font-size="14.00">ball, baļļ</text>
<text xml:space="preserve" text-anchor="middle" x="1334.2" y="-394.36" font-family="Times New Roman,serif" font-size="14.00">(borrowed)</text>
</g>
<!-- balerīna -->
<g id="node4" class="node">
<title>balerīna</title>
<ellipse fill="white" stroke="black" stroke-width="0" cx="628.29" cy="-478.27" rx="40.6" ry="18"/>
<text xml:space="preserve" text-anchor="middle" x="628.29" y="-473.22" font-family="Times New Roman,serif" font-size="14.00">balerīna</text>
</g>
<!-- baletdejotājs -->
<g id="node5" class="node">
<title>baletdejotājs</title>
<ellipse fill="white" stroke="black" stroke-width="0" cx="239.89" cy="-354.61" rx="57.49" ry="18"/>
<text xml:space="preserve" text-anchor="middle" x="239.89" y="-349.56" font-family="Times New Roman,serif" font-size="14.00">baletdejotājs</text>
</g>
<!-- balets -->
<g id="node6" class="node">
<title>balets</title>
<ellipse fill="white" stroke="black" stroke-width="0" cx="402.35" cy="-355.57" rx="32.41" ry="18"/>
<text xml:space="preserve" text-anchor="middle" x="402.35" y="-350.52" font-family="Times New Roman,serif" font-size="14.00">balets</text>
</g>
<!-- dejotājs -->
<g id="node7" class="node">
<title>dejotājs</title>
<ellipse fill="white" stroke="black" stroke-width="0" cx="55.63" cy="-264.13" rx="39.58" ry="18"/>
<text xml:space="preserve" text-anchor="middle" x="55.63" y="-259.08" font-family="Times New Roman,serif" font-size="14.00" fill="gray">dejotājs</text>
</g>
<!-- baletfilma -->
<g id="node8" class="node">
<title>baletfilma</title>
<ellipse fill="white" stroke="black" stroke-width="0" cx="504.95" cy="-222.54" rx="48.79" ry="18"/>
<text xml:space="preserve" text-anchor="middle" x="504.95" y="-217.49" font-family="Times New Roman,serif" font-size="14.00">baletfilma</text>
</g>
<!-- filma -->
<g id="node9" class="node">
<title>filma</title>
<ellipse fill="white" stroke="black" stroke-width="0" cx="544.34" cy="-27.74" rx="30.88" ry="18"/>
<text xml:space="preserve" text-anchor="middle" x="544.34" y="-22.69" font-family="Times New Roman,serif" font-size="14.00" fill="gray">filma</text>
</g>
<!-- baletmeistaraprāt -->
<g id="node10" class="node">
<title>baletmeistaraprāt</title>
<ellipse fill="white" stroke="black" stroke-width="0" cx="496.58" cy="-684.04" rx="74.89" ry="18"/>
<text xml:space="preserve" text-anchor="middle" x="496.58" y="-678.99" font-family="Times New Roman,serif" font-size="14.00">baletmeistaraprāt</text>
</g>
<!-- baletmeistars -->
<g id="node11" class="node">
<title>baletmeistars</title>
<ellipse fill="white" stroke="black" stroke-width="0" cx="518.39" cy="-557.14" rx="60.05" ry="18"/>
<text xml:space="preserve" text-anchor="middle" x="518.39" y="-552.09" font-family="Times New Roman,serif" font-size="14.00">baletmeistars</text>
</g>
<!-- prāts -->
<g id="node12" class="node">
<title>prāts</title>
<ellipse fill="white" stroke="black" stroke-width="0" cx="505.35" cy="-880.37" rx="28.83" ry="18"/>
<text xml:space="preserve" text-anchor="middle" x="505.35" y="-875.32" font-family="Times New Roman,serif" font-size="14.00" fill="gray">prāts</text>
</g>
<!-- meistars -->
<g id="node13" class="node">
<title>meistars</title>
<ellipse fill="white" stroke="black" stroke-width="0" cx="638.79" cy="-709.4" rx="42.14" ry="18"/>
<text xml:space="preserve" text-anchor="middle" x="638.79" y="-704.35" font-family="Times New Roman,serif" font-size="14.00" fill="gray">meistars</text>
</g>
<!-- baletmīļotājs -->
<g id="node14" class="node">
<title>baletmīļotājs</title>
<ellipse fill="white" stroke="black" stroke-width="0" cx="569.98" cy="-314.45" rx="59.03" ry="18"/>
<text xml:space="preserve" text-anchor="middle" x="569.98" y="-309.4" font-family="Times New Roman,serif" font-size="14.00">baletmīļotājs</text>
</g>
<!-- mīļotājs -->
<g id="node15" class="node">
<title>mīļotājs</title>
<ellipse fill="white" stroke="black" stroke-width="0" cx="697.09" cy="-196.67" rx="41.12" ry="18"/>
<text xml:space="preserve" text-anchor="middle" x="697.09" y="-191.62" font-family="Times New Roman,serif" font-size="14.00" fill="gray">mīļotājs</text>
</g>
<!-- baletmūzika -->
<g id="node16" class="node">
<title>baletmūzika</title>
<ellipse fill="white" stroke="black" stroke-width="0" cx="248.61" cy="-451.62" rx="56.47" ry="18"/>
<text xml:space="preserve" text-anchor="middle" x="248.61" y="-446.57" font-family="Times New Roman,serif" font-size="14.00">baletmūzika</text>
</g>
<!-- mūzika -->
<g id="node17" class="node">
<title>mūzika</title>
<ellipse fill="white" stroke="black" stroke-width="0" cx="38.56" cy="-458.97" rx="38.56" ry="18"/>
<text xml:space="preserve" text-anchor="middle" x="38.56" y="-453.92" font-family="Times New Roman,serif" font-size="14.00" fill="gray">mūzika</text>
</g>
<!-- baletopera -->
<g id="node18" class="node">
<title>baletopera</title>
<ellipse fill="white" stroke="black" stroke-width="0" cx="398.85" cy="-210.74" rx="49.3" ry="18"/>
<text xml:space="preserve" text-anchor="middle" x="398.85" y="-205.69" font-family="Times New Roman,serif" font-size="14.00">baletopera</text>
</g>
<!-- opera -->
<g id="node19" class="node">
<title>opera</title>
<ellipse fill="white" stroke="black" stroke-width="0" cx="347.42" cy="-18" rx="31.39" ry="18"/>
<text xml:space="preserve" text-anchor="middle" x="347.42" y="-12.95" font-family="Times New Roman,serif" font-size="14.00" fill="gray">opera</text>
</g>
<!-- baletskola -->
<g id="node20" class="node">
<title>baletskola</title>
<ellipse fill="white" stroke="black" stroke-width="0" cx="295.19" cy="-259.6" rx="48.28" ry="18"/>
<text xml:space="preserve" text-anchor="middle" x="295.19" y="-254.55" font-family="Times New Roman,serif" font-size="14.00">baletskola</text>
</g>
<!-- skola -->
<g id="node21" class="node">
<title>skola</title>
<ellipse fill="white" stroke="black" stroke-width="0" cx="164.59" cy="-106.43" rx="30.37" ry="18"/>
<text xml:space="preserve" text-anchor="middle" x="164.59" y="-101.38" font-family="Times New Roman,serif" font-size="14.00" fill="gray">skola</text>
</g>
<!-- balāde -->
<g id="node22" class="node">
<title>balāde</title>
<ellipse fill="white" stroke="black" stroke-width="0" cx="348.67" cy="-574.42" rx="34.97" ry="18"/>
<text xml:space="preserve" text-anchor="middle" x="348.67" y="-569.37" font-family="Times New Roman,serif" font-size="14.00">balāde</text>
</g>
<!-- vaboļbalāde -->
<g id="node23" class="node">
<title>vaboļbalāde</title>
<ellipse fill="white" stroke="black" stroke-width="0" cx="336.21" cy="-685.8" rx="55.45" ry="18"/>
<text xml:space="preserve" text-anchor="middle" x="336.21" y="-680.75" font-family="Times New Roman,serif" font-size="14.00">vaboļbalāde</text>
</g>
<!-- vabole -->
<g id="node24" class="node">
<title>vabole</title>
<ellipse fill="white" stroke="black" stroke-width="0" cx="239.33" cy="-848.15" rx="35.49" ry="18"/>
<text xml:space="preserve" text-anchor="middle" x="239.33" y="-843.1" font-family="Times New Roman,serif" font-size="14.00" fill="gray">vabole</text>
</g>
<!-- klavierbalāde -->
<g id="node25" class="node">
<title>klavierbalāde</title>
<ellipse fill="white" stroke="black" stroke-width="0" cx="233.34" cy="-591.67" rx="60.56" ry="18"/>
<text xml:space="preserve" text-anchor="middle" x="233.34" y="-586.62" font-family="Times New Roman,serif" font-size="14.00">klavierbalāde</text>
</g>
<!-- klavieres -->
<g id="node26" class="node">
<title>klavieres</title>
<ellipse fill="white" stroke="black" stroke-width="0" cx="70.76" cy="-702.26" rx="44.19" ry="18"/>
<text xml:space="preserve" text-anchor="middle" x="70.76" y="-697.21" font-family="Times New Roman,serif" font-size="14.00" fill="gray">klavieres</text>
</g>
<!-- balle -->
<g id="node27" class="node">
<title>balle</title>
<ellipse fill="white" stroke="black" stroke-width="0" cx="1394.15" cy="-514.65" rx="28.83" ry="18"/>
<text xml:space="preserve" text-anchor="middle" x="1394.15" y="-509.6" font-family="Times New Roman,serif" font-size="14.00">balle</text>
</g>
<!-- ballēšanās -->
<g id="node28" class="node">
<title>ballēšanās</title>
<ellipse fill="white" stroke="black" stroke-width="0" cx="1302.79" cy="-204.54" rx="48.79" ry="18"/>
<text xml:space="preserve" text-anchor="middle" x="1302.79" y="-199.49" font-family="Times New Roman,serif" font-size="14.00">ballēšanās</text>
</g>
<!-- ballēties -->
<g id="node29" class="node">
<title>ballēties</title>
<ellipse fill="white" stroke="black" stroke-width="0" cx="1265.17" cy="-313.17" rx="41.63" ry="18"/>
<text xml:space="preserve" text-anchor="middle" x="1265.17" y="-308.12" font-family="Times New Roman,serif" font-size="14.00">ballēties</text>
</g>
<!-- ballēt -->
<g id="node30" class="node">
<title>ballēt</title>
<ellipse fill="white" stroke="black" stroke-width="0" cx="1422.56" cy="-354.49" rx="31.39" ry="18"/>
<text xml:space="preserve" text-anchor="middle" x="1422.56" y="-349.44" font-family="Times New Roman,serif" font-size="14.00">ballēt</text>
</g>
<!-- ballētāja -->
<g id="node31" class="node">
<title>ballētāja</title>
<ellipse fill="white" stroke="black" stroke-width="0" cx="1404.39" cy="-289.96" rx="42.14" ry="18"/>
<text xml:space="preserve" text-anchor="middle" x="1404.39" y="-284.91" font-family="Times New Roman,serif" font-size="14.00">ballētāja</text>
</g>
<!-- ballētājs -->
<g id="node32" class="node">
<title>ballētājs</title>
<ellipse fill="white" stroke="black" stroke-width="0" cx="1516.45" cy="-280.9" rx="41.63" ry="18"/>
<text xml:space="preserve" text-anchor="middle" x="1516.45" y="-275.85" font-family="Times New Roman,serif" font-size="14.00">ballētājs</text>
</g>
<!-- ballīšprieks -->
<g id="node33" class="node">
<title>ballīšprieks</title>
<ellipse fill="white" stroke="black" stroke-width="0" cx="1613.15" cy="-372.96" rx="53.4" ry="18"/>
<text xml:space="preserve" text-anchor="middle" x="1613.15" y="-367.91" font-family="Times New Roman,serif" font-size="14.00">ballīšprieks</text>
</g>
<!-- ballīte -->
<g id="node34" class="node">
<title>ballīte</title>
<ellipse fill="white" stroke="black" stroke-width="0" cx="1516.26" cy="-452.28" rx="33.95" ry="18"/>
<text xml:space="preserve" text-anchor="middle" x="1516.26" y="-447.23" font-family="Times New Roman,serif" font-size="14.00">ballīte</text>
</g>
<!-- prieks -->
<g id="node35" class="node">
<title>prieks</title>
<ellipse fill="white" stroke="black" stroke-width="0" cx="1799.65" cy="-325.71" rx="33.44" ry="18"/>
<text xml:space="preserve" text-anchor="middle" x="1799.65" y="-320.66" font-family="Times New Roman,serif" font-size="14.00" fill="gray">prieks</text>
</g>
<!-- dižballe -->
<g id="node36" class="node">
<title>dižballe</title>
<ellipse fill="white" stroke="black" stroke-width="0" cx="1539.54" cy="-572.58" rx="40.09" ry="18"/>
<text xml:space="preserve" text-anchor="middle" x="1539.54" y="-567.53" font-family="Times New Roman,serif" font-size="14.00">dižballe</text>
</g>
<!-- dižs -->
<g id="node37" class="node">
<title>dižs</title>
<ellipse fill="white" stroke="black" stroke-width="0" cx="1693.18" cy="-686.52" rx="27" ry="18"/>
<text xml:space="preserve" text-anchor="middle" x="1693.18" y="-681.47" font-family="Times New Roman,serif" font-size="14.00" fill="gray">dižs</text>
</g>
<!-- izballēties -->
<g id="node38" class="node">
<title>izballēties</title>
<ellipse fill="white" stroke="black" stroke-width="0" cx="1435.24" cy="-199.15" rx="48.28" ry="18"/>
<text xml:space="preserve" text-anchor="middle" x="1435.24" y="-194.1" font-family="Times New Roman,serif" font-size="14.00">izballēties</text>
</g>
<!-- kāpostballe -->
<g id="node39" class="node">
<title>kāpostballe</title>
<ellipse fill="white" stroke="black" stroke-width="0" cx="1338.91" cy="-651.52" rx="52.89" ry="18"/>
<text xml:space="preserve" text-anchor="middle" x="1338.91" y="-646.47" font-family="Times New Roman,serif" font-size="14.00">kāpostballe</text>
</g>
<!-- kāposts -->
<g id="node40" class="node">
<title>kāposts</title>
<ellipse fill="white" stroke="black" stroke-width="0" cx="1357.95" cy="-832.54" rx="38.56" ry="18"/>
<text xml:space="preserve" text-anchor="middle" x="1357.95" y="-827.49" font-family="Times New Roman,serif" font-size="14.00" fill="gray">kāposts</text>
</g>
<!-- zaļumballe -->
<g id="node41" class="node">
<title>zaļumballe</title>
<ellipse fill="white" stroke="black" stroke-width="0" cx="1235.43" cy="-565.9" rx="51.86" ry="18"/>
<text xml:space="preserve" text-anchor="middle" x="1235.43" y="-560.85" font-family="Times New Roman,serif" font-size="14.00">zaļumballe</text>
</g>
<!-- zaļums -->
<g id="node42" class="node">
<title>zaļums</title>
<ellipse fill="white" stroke="black" stroke-width="0" cx="1149.28" cy="-719.35" rx="37.53" ry="18"/>
<text xml:space="preserve" text-anchor="middle" x="1149.28" y="-714.3" font-family="Times New Roman,serif" font-size="14.00" fill="gray">zaļums</text>
</g>
<!-- baļļošanās -->
<g id="node43" class="node">
<title>baļļošanās</title>
<ellipse fill="white" stroke="black" stroke-width="0" cx="1194.31" cy="-196.63" rx="49.3" ry="18"/>
<text xml:space="preserve" text-anchor="middle" x="1194.31" y="-191.58" font-family="Times New Roman,serif" font-size="14.00">baļļošanās</text>
</g>
<!-- baļļoties -->
<g id="node44" class="node">
<title>baļļoties</title>
<ellipse fill="white" stroke="black" stroke-width="0" cx="1130.14" cy="-33.65" rx="42.14" ry="18"/>
<text xml:space="preserve" text-anchor="middle" x="1130.14" y="-28.6" font-family="Times New Roman,serif" font-size="14.00" fill="gray">baļļoties</text>
</g>
<!-- baļļuks -->
<g id="node45" class="node">
<title>baļļuks</title>
<ellipse fill="white" stroke="black" stroke-width="0" cx="1429.3" cy="-597.14" rx="37.53" ry="18"/>
<text xml:space="preserve" text-anchor="middle" x="1429.3" y="-592.09" font-family="Times New Roman,serif" font-size="14.00">baļļuks</text>
</g>
</g>
</svg>
