<?xml version="1.0" encoding="UTF-8" standalone="no"?>
<!DOCTYPE svg PUBLIC "-//W3C//DTD SVG 1.1//EN"
 "http://www.w3.org/Graphics/SVG/1.1/DTD/svg11.dtd">
<!-- Generated by graphviz version 13.1.2 (20250808.2320)
 -->
<!-- Pages: 1 -->
<svg width="378pt" height="190pt"
 viewBox="0.00 0.00 378.00 190.00" xmlns="http://www.w3.org/2000/svg" xmlns:xlink="http://www.w3.org/1999/xlink">
<g id="graph0" class="graph" transform="scale(1 1) rotate(0) translate(4 186)">
<polygon fill="white" stroke="none" points="-4,4 -4,-186 373.68,-186 373.68,4 -4,4"/>
<!-- # baļļ&#45;&gt;baļļa___baļļ -->
<g id="edge1" class="edge">
<title># baļļ&#45;&gt;baļļa___baļļ</title>
<path fill="none" stroke="#cccccc" d="M76.52,-137.7C97.71,-143.81 123.7,-151.3 142.53,-156.72"/>
</g>
<!-- # baļļ&#45;&gt;draņķubaļļa___baļļ -->
<g id="edge2" class="edge">
<title># baļļ&#45;&gt;draņķubaļļa___baļļ</title>
<path fill="none" stroke="#cccccc" d="M76.58,-122.03C125.54,-115.67 210.54,-104.62 264.78,-97.56"/>
</g>
<!-- baļļa___baļļ&#45;&gt;draņķubaļļa___baļļ -->
<g id="edge4" class="edge">
<title>baļļa___baļļ&#45;&gt;draņķubaļļa___baļļ</title>
<path fill="none" stroke="blue" d="M191.42,-153.07C213.38,-141.98 247.88,-124.54 274.73,-110.97"/>
<polygon fill="blue" stroke="blue" points="276.28,-114.12 283.62,-106.48 273.12,-107.87 276.28,-114.12"/>
</g>
<!-- dranķis&#45;&gt;draņķubaļļa___baļļ -->
<g id="edge3" class="edge">
<title>dranķis&#45;&gt;draņķubaļļa___baļļ</title>
<path fill="none" stroke="blue" d="M195.29,-30.88C217.29,-42 249.42,-58.24 274.75,-71.04"/>
<polygon fill="blue" stroke="blue" points="272.93,-74.04 283.44,-75.42 276.09,-67.79 272.93,-74.04"/>
</g>
<!-- # baļļ -->
<g id="node1" class="node">
<title># baļļ</title>
<polygon fill="lightblue" stroke="black" stroke-width="0" points="76.75,-147.5 0,-147.5 0,-106.5 76.75,-106.5 76.75,-147.5"/>
<text xml:space="preserve" text-anchor="middle" x="38.38" y="-130.2" font-family="Times New Roman,serif" font-size="14.00">baļļ</text>
<text xml:space="preserve" text-anchor="middle" x="38.38" y="-113.7" font-family="Times New Roman,serif" font-size="14.00">(borrowed)</text>
</g>
<!-- baļļa___baļļ -->
<g id="node2" class="node">
<title>baļļa___baļļ</title>
<ellipse fill="white" stroke="black" stroke-width="0" cx="168.79" cy="-164" rx="28.83" ry="18"/>
<text xml:space="preserve" text-anchor="middle" x="168.79" y="-158.95" font-family="Times New Roman,serif" font-size="14.00">baļļa</text>
</g>
<!-- draņķubaļļa___baļļ -->
<g id="node3" class="node">
<title>draņķubaļļa___baļļ</title>
<ellipse fill="white" stroke="black" stroke-width="0" cx="315.26" cy="-91" rx="54.42" ry="18"/>
<text xml:space="preserve" text-anchor="middle" x="315.26" y="-85.95" font-family="Times New Roman,serif" font-size="14.00">draņķubaļļa</text>
</g>
<!-- dranķis -->
<g id="node4" class="node">
<title>dranķis</title>
<ellipse fill="white" stroke="black" stroke-width="0" cx="168.79" cy="-18" rx="38.04" ry="18"/>
<text xml:space="preserve" text-anchor="middle" x="168.79" y="-12.95" font-family="Times New Roman,serif" font-size="14.00" fill="gray">dranķis</text>
</g>
</g>
</svg>
