<?xml version="1.0" encoding="UTF-8" standalone="no"?>
<!DOCTYPE svg PUBLIC "-//W3C//DTD SVG 1.1//EN"
 "http://www.w3.org/Graphics/SVG/1.1/DTD/svg11.dtd">
<!-- Generated by graphviz version 13.1.2 (20250808.2320)
 -->
<!-- Pages: 1 -->
<svg width="292pt" height="122pt"
 viewBox="0.00 0.00 292.00 122.00" xmlns="http://www.w3.org/2000/svg" xmlns:xlink="http://www.w3.org/1999/xlink">
<g id="graph0" class="graph" transform="scale(1 1) rotate(0) translate(4 117.5)">
<polygon fill="white" stroke="none" points="-4,4 -4,-117.5 287.97,-117.5 287.97,4 -4,4"/>
<!-- # ball&#45;&gt;balle -->
<g id="edge1" class="edge">
<title># ball&#45;&gt;balle</title>
<path fill="none" stroke="#cccccc" d="M92.48,-93C123.42,-93 166.83,-93 194.79,-93"/>
</g>
<!-- # ball&#45;&gt;desmitballīgs -->
<g id="edge2" class="edge">
<title># ball&#45;&gt;desmitballīgs</title>
<path fill="none" stroke="#cccccc" d="M92.48,-76.8C121.31,-64.2 160.96,-46.86 188.85,-34.67"/>
</g>
<!-- desmitballu&#45;&gt;desmitballīgs -->
<g id="edge3" class="edge">
<title>desmitballu&#45;&gt;desmitballīgs</title>
<path fill="none" stroke="green" d="M108.72,-18.64C122.35,-18.8 137.22,-18.98 151.58,-19.15"/>
<polygon fill="green" stroke="green" points="151.4,-22.65 161.44,-19.27 151.49,-15.65 151.4,-22.65"/>
</g>
<!-- # ball -->
<g id="node1" class="node">
<title># ball</title>
<polygon fill="lightblue" stroke="black" stroke-width="0" points="92.8,-113.5 16.05,-113.5 16.05,-72.5 92.8,-72.5 92.8,-113.5"/>
<text xml:space="preserve" text-anchor="middle" x="54.42" y="-96.2" font-family="Times New Roman,serif" font-size="14.00">ball</text>
<text xml:space="preserve" text-anchor="middle" x="54.42" y="-79.7" font-family="Times New Roman,serif" font-size="14.00">(borrowed)</text>
</g>
<!-- balle -->
<g id="node2" class="node">
<title>balle</title>
<ellipse fill="white" stroke="black" stroke-width="0" cx="223.41" cy="-93" rx="28.83" ry="18"/>
<text xml:space="preserve" text-anchor="middle" x="223.41" y="-87.95" font-family="Times New Roman,serif" font-size="14.00">balle</text>
</g>
<!-- desmitballīgs -->
<g id="node3" class="node">
<title>desmitballīgs</title>
<ellipse fill="white" stroke="black" stroke-width="0" cx="223.41" cy="-20" rx="60.56" ry="18"/>
<text xml:space="preserve" text-anchor="middle" x="223.41" y="-14.95" font-family="Times New Roman,serif" font-size="14.00">desmitballīgs</text>
</g>
<!-- desmitballu -->
<g id="node4" class="node">
<title>desmitballu</title>
<ellipse fill="white" stroke="black" stroke-width="0" cx="54.42" cy="-18" rx="54.42" ry="18"/>
<text xml:space="preserve" text-anchor="middle" x="54.42" y="-12.95" font-family="Times New Roman,serif" font-size="14.00" fill="gray">desmitballu</text>
</g>
</g>
</svg>
