<?xml version="1.0" encoding="UTF-8" standalone="no"?>
<!DOCTYPE svg PUBLIC "-//W3C//DTD SVG 1.1//EN"
 "http://www.w3.org/Graphics/SVG/1.1/DTD/svg11.dtd">
<!-- Generated by graphviz version 13.1.2 (20250808.2320)
 -->
<!-- Pages: 1 -->
<svg width="240pt" height="122pt"
 viewBox="0.00 0.00 240.00 122.00" xmlns="http://www.w3.org/2000/svg" xmlns:xlink="http://www.w3.org/1999/xlink">
<g id="graph0" class="graph" transform="scale(1 1) rotate(0) translate(4 117.5)">
<polygon fill="white" stroke="none" points="-4,4 -4,-117.5 235.77,-117.5 235.77,4 -4,4"/>
<!-- # bed&#45;&gt;embedēts___bed -->
<g id="edge1" class="edge">
<title># bed&#45;&gt;embedēts___bed</title>
<path fill="none" stroke="#cccccc" d="M80.67,-83.02C101.21,-77.47 126.69,-70.6 147.28,-65.05"/>
</g>
<!-- embedēt&#45;&gt;embedēts___bed -->
<g id="edge2" class="edge">
<title>embedēt&#45;&gt;embedēts___bed</title>
<path fill="none" stroke="green" d="M78.84,-27.24C96.2,-31.8 117.41,-37.37 136.26,-42.32"/>
<polygon fill="green" stroke="green" points="135.31,-45.69 145.87,-44.85 137.09,-38.92 135.31,-45.69"/>
</g>
<!-- # bed -->
<g id="node1" class="node">
<title># bed</title>
<polygon fill="lightblue" stroke="black" stroke-width="0" points="81.03,-113.5 4.28,-113.5 4.28,-72.5 81.03,-72.5 81.03,-113.5"/>
<text xml:space="preserve" text-anchor="middle" x="42.65" y="-96.2" font-family="Times New Roman,serif" font-size="14.00">bed</text>
<text xml:space="preserve" text-anchor="middle" x="42.65" y="-79.7" font-family="Times New Roman,serif" font-size="14.00">(borrowed)</text>
</g>
<!-- embedēts___bed -->
<g id="node2" class="node">
<title>embedēts___bed</title>
<ellipse fill="white" stroke="black" stroke-width="0" cx="185.53" cy="-55" rx="46.23" ry="18"/>
<text xml:space="preserve" text-anchor="middle" x="185.53" y="-49.95" font-family="Times New Roman,serif" font-size="14.00">embedēts</text>
</g>
<!-- embedēt -->
<g id="node3" class="node">
<title>embedēt</title>
<ellipse fill="white" stroke="black" stroke-width="0" cx="42.65" cy="-18" rx="42.65" ry="18"/>
<text xml:space="preserve" text-anchor="middle" x="42.65" y="-12.95" font-family="Times New Roman,serif" font-size="14.00" fill="gray">embedēt</text>
</g>
</g>
</svg>
