<?xml version="1.0" encoding="UTF-8" standalone="no"?>
<!DOCTYPE svg PUBLIC "-//W3C//DTD SVG 1.1//EN"
 "http://www.w3.org/Graphics/SVG/1.1/DTD/svg11.dtd">
<!-- Generated by graphviz version 13.1.2 (20250808.2320)
 -->
<!-- Pages: 1 -->
<svg width="1640pt" height="1451pt"
 viewBox="0.00 0.00 1640.00 1451.00" xmlns="http://www.w3.org/2000/svg" xmlns:xlink="http://www.w3.org/1999/xlink">
<g id="graph0" class="graph" transform="scale(1 1) rotate(0) translate(4 1446.85)">
<polygon fill="white" stroke="none" points="-4,4 -4,-1446.85 1635.77,-1446.85 1635.77,4 -4,4"/>
<!-- # beidz, beig&#45;&gt;beigas___beidz__beig -->
<g id="edge1" class="edge">
<title># beidz, beig&#45;&gt;beigas___beidz__beig</title>
<path fill="none" stroke="#cccccc" d="M812.83,-684.41C758.5,-677.13 659.22,-663.81 607.67,-656.89"/>
</g>
<!-- # beidz, beig&#45;&gt;beigšana___beidz__beig -->
<g id="edge2" class="edge">
<title># beidz, beig&#45;&gt;beigšana___beidz__beig</title>
<path fill="none" stroke="#cccccc" d="M831.07,-671.52C781.28,-625.78 650.31,-505.46 602.47,-461.51"/>
</g>
<!-- # beidz, beig&#45;&gt;beigšanās___beidz__beig -->
<g id="edge3" class="edge">
<title># beidz, beig&#45;&gt;beigšanās___beidz__beig</title>
<path fill="none" stroke="#cccccc" d="M843.7,-671.52C810.4,-585.26 667.14,-214.11 634.02,-128.3"/>
</g>
<!-- # beidz, beig&#45;&gt;beigt___beidz__beig -->
<g id="edge4" class="edge">
<title># beidz, beig&#45;&gt;beigt___beidz__beig</title>
<path fill="none" stroke="#cccccc" d="M846.52,-671.85C842.06,-652.74 834.98,-622.42 830.51,-603.27"/>
</g>
<!-- # beidz, beig&#45;&gt;beigties___beidz__beig -->
<g id="edge5" class="edge">
<title># beidz, beig&#45;&gt;beigties___beidz__beig</title>
<path fill="none" stroke="#cccccc" d="M841.61,-671.55C809.86,-608.44 703.55,-397.08 672.3,-334.93"/>
</g>
<!-- # beidz, beig&#45;&gt;beigts___beidz__beig -->
<g id="edge6" class="edge">
<title># beidz, beig&#45;&gt;beigts___beidz__beig</title>
<path fill="none" stroke="#cccccc" d="M860.42,-671.62C896.37,-605.99 1020.86,-378.74 1056.09,-314.43"/>
</g>
<!-- # beidz, beig&#45;&gt;izbeigšana___beidz__beig -->
<g id="edge7" class="edge">
<title># beidz, beig&#45;&gt;izbeigšana___beidz__beig</title>
<path fill="none" stroke="#cccccc" d="M851.29,-671.79C854.63,-582.63 869.57,-183.33 872.91,-94.01"/>
</g>
<!-- # beidz, beig&#45;&gt;izbeigšanās___beidz__beig -->
<g id="edge8" class="edge">
<title># beidz, beig&#45;&gt;izbeigšanās___beidz__beig</title>
<path fill="none" stroke="#cccccc" d="M825.22,-671.67C737.07,-609.88 445.24,-405.32 361.09,-346.33"/>
</g>
<!-- # beidz, beig&#45;&gt;izbeigt___beidz__beig -->
<g id="edge9" class="edge">
<title># beidz, beig&#45;&gt;izbeigt___beidz__beig</title>
<path fill="none" stroke="#cccccc" d="M846.64,-671.61C830.35,-598.68 769.01,-324.04 752.77,-251.34"/>
</g>
<!-- # beidz, beig&#45;&gt;izbeigties___beidz__beig -->
<g id="edge10" class="edge">
<title># beidz, beig&#45;&gt;izbeigties___beidz__beig</title>
<path fill="none" stroke="#cccccc" d="M836.49,-671.5C777.95,-597.04 555.02,-313.46 497.68,-240.52"/>
</g>
<!-- # beidz, beig&#45;&gt;nebeigt___beidz__beig -->
<g id="edge11" class="edge">
<title># beidz, beig&#45;&gt;nebeigt___beidz__beig</title>
<path fill="none" stroke="#cccccc" d="M812.64,-675.97C734.94,-648.31 559.18,-585.76 488.49,-560.61"/>
</g>
<!-- # beidz, beig&#45;&gt;nepabeigt___beidz__beig -->
<g id="edge12" class="edge">
<title># beidz, beig&#45;&gt;nepabeigt___beidz__beig</title>
<path fill="none" stroke="#cccccc" d="M848.41,-707.36C838.52,-787.27 798.39,-1111.27 788.51,-1191.03"/>
</g>
<!-- # beidz, beig&#45;&gt;nepabeigtība___beidz__beig -->
<g id="edge13" class="edge">
<title># beidz, beig&#45;&gt;nepabeigtība___beidz__beig</title>
<path fill="none" stroke="#cccccc" d="M838.61,-707.2C787.86,-781.99 591.44,-1071.46 540.91,-1145.94"/>
</g>
<!-- # beidz, beig&#45;&gt;nepabeigts___beidz__beig -->
<g id="edge14" class="edge">
<title># beidz, beig&#45;&gt;nepabeigts___beidz__beig</title>
<path fill="none" stroke="#cccccc" d="M844.23,-707.39C813.86,-792.37 684.48,-1154.44 654.33,-1238.82"/>
</g>
<!-- # beidz, beig&#45;&gt;nobeigšana___beidz__beig -->
<g id="edge15" class="edge">
<title># beidz, beig&#45;&gt;nobeigšana___beidz__beig</title>
<path fill="none" stroke="#cccccc" d="M888.36,-691.19C986.27,-695.6 1248.63,-707.43 1360.6,-712.48"/>
</g>
<!-- # beidz, beig&#45;&gt;nobeigšanās___beidz__beig -->
<g id="edge16" class="edge">
<title># beidz, beig&#45;&gt;nobeigšanās___beidz__beig</title>
<path fill="none" stroke="#cccccc" d="M888.5,-681.1C997.88,-656.88 1314.04,-586.87 1432.8,-560.57"/>
</g>
<!-- # beidz, beig&#45;&gt;nobeigt___beidz__beig -->
<g id="edge17" class="edge">
<title># beidz, beig&#45;&gt;nobeigt___beidz__beig</title>
<path fill="none" stroke="#cccccc" d="M888.5,-685.87C958.4,-679.2 1106.93,-665.04 1176.57,-658.39"/>
</g>
<!-- # beidz, beig&#45;&gt;nobeigties___beidz__beig -->
<g id="edge18" class="edge">
<title># beidz, beig&#45;&gt;nobeigties___beidz__beig</title>
<path fill="none" stroke="#cccccc" d="M888.53,-674.83C985.36,-637.39 1240.65,-538.67 1332.52,-503.15"/>
</g>
<!-- # beidz, beig&#45;&gt;nobeigtība___beidz__beig -->
<g id="edge19" class="edge">
<title># beidz, beig&#45;&gt;nobeigtība___beidz__beig</title>
<path fill="none" stroke="#cccccc" d="M826.17,-707.27C735.82,-772.95 421.69,-1001.3 335.72,-1063.8"/>
</g>
<!-- # beidz, beig&#45;&gt;nobeigums___beidz__beig -->
<g id="edge20" class="edge">
<title># beidz, beig&#45;&gt;nobeigums___beidz__beig</title>
<path fill="none" stroke="#cccccc" d="M888.25,-701.01C981.7,-729.65 1223.65,-803.8 1318.09,-832.75"/>
</g>
<!-- # beidz, beig&#45;&gt;pabeigšana___beidz__beig -->
<g id="edge21" class="edge">
<title># beidz, beig&#45;&gt;pabeigšana___beidz__beig</title>
<path fill="none" stroke="#cccccc" d="M857.88,-707.26C889.57,-784.94 1015.73,-1094.13 1047.25,-1171.38"/>
</g>
<!-- # beidz, beig&#45;&gt;pabeigt___beidz__beig -->
<g id="edge22" class="edge">
<title># beidz, beig&#45;&gt;pabeigt___beidz__beig</title>
<path fill="none" stroke="#cccccc" d="M853.67,-707.38C862.6,-759.85 888.63,-912.85 897.51,-965.01"/>
</g>
<!-- # beidz, beig&#45;&gt;pabeigtība___beidz__beig -->
<g id="edge23" class="edge">
<title># beidz, beig&#45;&gt;pabeigtība___beidz__beig</title>
<path fill="none" stroke="#cccccc" d="M854.22,-707.28C869.21,-781.48 926.65,-1065.9 941.65,-1140.14"/>
</g>
<!-- # beidz, beig&#45;&gt;pabeigts___beidz__beig -->
<g id="edge24" class="edge">
<title># beidz, beig&#45;&gt;pabeigts___beidz__beig</title>
<path fill="none" stroke="#cccccc" d="M872.79,-707.3C914.87,-741.13 1005.73,-814.18 1045.69,-846.3"/>
</g>
<!-- # beidz, beig&#45;&gt;piebeigt___beidz__beig -->
<g id="edge25" class="edge">
<title># beidz, beig&#45;&gt;piebeigt___beidz__beig</title>
<path fill="none" stroke="#cccccc" d="M812.79,-705.98C753.23,-731.96 638.89,-781.82 585.45,-805.12"/>
</g>
<!-- # beidz, beig&#45;&gt;pusbeigts___beidz__beig -->
<g id="edge26" class="edge">
<title># beidz, beig&#45;&gt;pusbeigts___beidz__beig</title>
<path fill="none" stroke="#cccccc" d="M863.3,-671.55C919.41,-592.12 1145.2,-272.5 1200.34,-194.44"/>
</g>
<!-- # beidz, beig&#45;&gt;puspabeigts___beidz__beig -->
<g id="edge27" class="edge">
<title># beidz, beig&#45;&gt;puspabeigts___beidz__beig</title>
<path fill="none" stroke="#cccccc" d="M878.57,-671.49C949.34,-625.9 1134.76,-506.47 1201.81,-463.28"/>
</g>
<!-- # beidz, beig&#45;&gt;sabeigt___beidz__beig -->
<g id="edge28" class="edge">
<title># beidz, beig&#45;&gt;sabeigt___beidz__beig</title>
<path fill="none" stroke="#cccccc" d="M837.39,-707.26C807.83,-746.95 736.81,-842.33 707.9,-881.14"/>
</g>
<!-- # beidz, beig&#45;&gt;beidzams___beidz__beig -->
<g id="edge29" class="edge">
<title># beidz, beig&#45;&gt;beidzams___beidz__beig</title>
<path fill="none" stroke="#cccccc" d="M862.11,-671.58C891.11,-626.33 967.08,-507.84 995.64,-463.27"/>
</g>
<!-- # beidz, beig&#45;&gt;beidzējs___beidz__beig -->
<g id="edge30" class="edge">
<title># beidz, beig&#45;&gt;beidzējs___beidz__beig</title>
<path fill="none" stroke="#cccccc" d="M853.11,-671.54C862.29,-605.17 894.24,-374.04 903.41,-307.76"/>
</g>
<!-- # beidz, beig&#45;&gt;beidzot___beidz__beig -->
<g id="edge31" class="edge">
<title># beidz, beig&#45;&gt;beidzot___beidz__beig</title>
<path fill="none" stroke="#cccccc" d="M871.88,-707.22C929.3,-755.17 1086.93,-886.76 1141.15,-932.03"/>
</g>
<!-- # beidz, beig&#45;&gt;nebeidzami___beidz__beig -->
<g id="edge32" class="edge">
<title># beidz, beig&#45;&gt;nebeidzami___beidz__beig</title>
<path fill="none" stroke="#cccccc" d="M812.78,-690.69C703.56,-694.16 387.51,-704.2 260.76,-708.22"/>
</g>
<!-- # beidz, beig&#45;&gt;nebeidzamība___beidz__beig -->
<g id="edge33" class="edge">
<title># beidz, beig&#45;&gt;nebeidzamība___beidz__beig</title>
<path fill="none" stroke="#cccccc" d="M812.83,-700.65C715.94,-729.28 459.1,-805.17 356.44,-835.51"/>
</g>
<!-- # beidz, beig&#45;&gt;nebeidzams___beidz__beig -->
<g id="edge34" class="edge">
<title># beidz, beig&#45;&gt;nebeidzams___beidz__beig</title>
<path fill="none" stroke="#cccccc" d="M812.9,-685.97C717.12,-677.05 464.33,-653.5 354.26,-643.25"/>
</g>
<!-- # beidz, beig&#45;&gt;visbeidzot___beidz__beig -->
<g id="edge35" class="edge">
<title># beidz, beig&#45;&gt;visbeidzot___beidz__beig</title>
<path fill="none" stroke="#cccccc" d="M866,-707.45C933.37,-786.2 1202.23,-1100.46 1267.88,-1177.2"/>
</g>
<!-- # beidz, beig&#45;&gt;visubeidzot___beidz__beig -->
<g id="edge36" class="edge">
<title># beidz, beig&#45;&gt;visubeidzot___beidz__beig</title>
<path fill="none" stroke="#cccccc" d="M873.44,-707.45C960.26,-775.85 1269.36,-1019.33 1352.84,-1085.08"/>
</g>
<!-- beigt___beidz__beig&#45;&gt;beigas___beidz__beig -->
<g id="edge37" class="edge">
<title>beigt___beidz__beig&#45;&gt;beigas___beidz__beig</title>
<path fill="none" stroke="green" d="M799.91,-592.59C756.05,-604.25 667.95,-627.66 615.87,-641.5"/>
<polygon fill="green" stroke="green" points="615.25,-638.05 606.48,-644 617.04,-644.81 615.25,-638.05"/>
</g>
<!-- beigt___beidz__beig&#45;&gt;beigšana___beidz__beig -->
<g id="edge38" class="edge">
<title>beigt___beidz__beig&#45;&gt;beigšana___beidz__beig</title>
<path fill="none" stroke="green" d="M805.35,-573.34C763.76,-549.18 670.63,-495.08 619.65,-465.47"/>
<polygon fill="green" stroke="green" points="621.45,-462.47 611.05,-460.47 617.94,-468.52 621.45,-462.47"/>
</g>
<!-- beigt___beidz__beig&#45;&gt;beigties___beidz__beig -->
<g id="edge40" class="edge">
<title>beigt___beidz__beig&#45;&gt;beigties___beidz__beig</title>
<path fill="none" stroke="green" d="M816.2,-568.79C788.8,-523.69 713.32,-399.47 679.89,-344.45"/>
<polygon fill="green" stroke="green" points="682.94,-342.73 674.76,-336 676.96,-346.37 682.94,-342.73"/>
</g>
<!-- beigt___beidz__beig&#45;&gt;beigts___beidz__beig -->
<g id="edge41" class="edge">
<title>beigt___beidz__beig&#45;&gt;beigts___beidz__beig</title>
<path fill="none" stroke="green" d="M839.57,-569.65C879.08,-522.03 996.62,-380.32 1044.65,-322.42"/>
<polygon fill="green" stroke="green" points="1047.34,-324.65 1051.04,-314.72 1041.96,-320.18 1047.34,-324.65"/>
</g>
<!-- beigt___beidz__beig&#45;&gt;izbeigt___beidz__beig -->
<g id="edge44" class="edge">
<title>beigt___beidz__beig&#45;&gt;izbeigt___beidz__beig</title>
<path fill="none" stroke="green" d="M822.53,-568.1C810.05,-511.46 770.58,-332.36 755.11,-262.19"/>
<polygon fill="green" stroke="green" points="758.58,-261.64 753.01,-252.63 751.74,-263.15 758.58,-261.64"/>
</g>
<!-- beigt___beidz__beig&#45;&gt;nebeigt___beidz__beig -->
<g id="edge46" class="edge">
<title>beigt___beidz__beig&#45;&gt;nebeigt___beidz__beig</title>
<path fill="none" stroke="green" d="M797.49,-582.75C734.53,-576.64 584.36,-562.07 506.65,-554.53"/>
<polygon fill="green" stroke="green" points="507.07,-551.05 496.78,-553.57 506.4,-558.02 507.07,-551.05"/>
</g>
<!-- beigt___beidz__beig&#45;&gt;nobeigt___beidz__beig -->
<g id="edge52" class="edge">
<title>beigt___beidz__beig&#45;&gt;nobeigt___beidz__beig</title>
<path fill="none" stroke="green" d="M854.26,-590.53C920.1,-602.3 1085.76,-631.89 1167.29,-646.46"/>
<polygon fill="green" stroke="green" points="1166.26,-649.83 1176.72,-648.14 1167.49,-642.94 1166.26,-649.83"/>
</g>
<!-- beigt___beidz__beig&#45;&gt;pabeigt___beidz__beig -->
<g id="edge57" class="edge">
<title>beigt___beidz__beig&#45;&gt;pabeigt___beidz__beig</title>
<path fill="none" stroke="green" d="M829.71,-603.39C841.4,-665.99 880.62,-876.11 895.09,-953.63"/>
<polygon fill="green" stroke="green" points="891.64,-954.21 896.92,-963.4 898.52,-952.93 891.64,-954.21"/>
</g>
<!-- beigt___beidz__beig&#45;&gt;piebeigt___beidz__beig -->
<g id="edge60" class="edge">
<title>beigt___beidz__beig&#45;&gt;piebeigt___beidz__beig</title>
<path fill="none" stroke="green" d="M809.5,-600.08C764.04,-639.19 638.74,-747.02 583.42,-794.61"/>
<polygon fill="green" stroke="green" points="581.31,-791.82 576.01,-800.99 585.87,-797.12 581.31,-791.82"/>
</g>
<!-- beigt___beidz__beig&#45;&gt;sabeigt___beidz__beig -->
<g id="edge65" class="edge">
<title>beigt___beidz__beig&#45;&gt;sabeigt___beidz__beig</title>
<path fill="none" stroke="green" d="M819.15,-602.8C797.59,-654.21 733.6,-806.78 707.08,-870.03"/>
<polygon fill="green" stroke="green" points="703.95,-868.45 703.31,-879.02 710.4,-871.16 703.95,-868.45"/>
</g>
<!-- beigt___beidz__beig&#45;&gt;beidzams___beidz__beig -->
<g id="edge66" class="edge">
<title>beigt___beidz__beig&#45;&gt;beidzams___beidz__beig</title>
<path fill="none" stroke="green" d="M844.33,-571.66C875.38,-547.64 939.38,-498.11 977.1,-468.92"/>
<polygon fill="green" stroke="green" points="979.13,-471.78 984.89,-462.89 974.84,-466.24 979.13,-471.78"/>
</g>
<!-- beigt___beidz__beig&#45;&gt;beidzējs___beidz__beig -->
<g id="edge67" class="edge">
<title>beigt___beidz__beig&#45;&gt;beidzējs___beidz__beig</title>
<path fill="none" stroke="green" d="M831.12,-567.94C844.37,-518.64 881.95,-378.88 898.22,-318.37"/>
<polygon fill="green" stroke="green" points="901.56,-319.4 900.78,-308.84 894.8,-317.59 901.56,-319.4"/>
</g>
<!-- beigt___beidz__beig&#45;&gt;beidzot___beidz__beig -->
<g id="edge68" class="edge">
<title>beigt___beidz__beig&#45;&gt;beidzot___beidz__beig</title>
<path fill="none" stroke="purple" d="M840.7,-601.11C892.93,-657.82 1073.41,-853.8 1137.2,-923.07"/>
<polygon fill="purple" stroke="purple" points="1134.35,-925.15 1143.7,-930.13 1139.5,-920.41 1134.35,-925.15"/>
</g>
<!-- beigties___beidz__beig&#45;&gt;beigšanās___beidz__beig -->
<g id="edge39" class="edge">
<title>beigties___beidz__beig&#45;&gt;beigšanās___beidz__beig</title>
<path fill="none" stroke="green" d="M660.48,-299.95C654.2,-264.29 639.97,-183.33 632.29,-139.7"/>
<polygon fill="green" stroke="green" points="635.76,-139.19 630.58,-129.94 628.86,-140.4 635.76,-139.19"/>
</g>
<!-- beigts___beidz__beig&#45;&gt;pusbeigts___beidz__beig -->
<g id="edge62" class="edge">
<title>beigts___beidz__beig&#45;&gt;pusbeigts___beidz__beig</title>
<path fill="none" stroke="blue" d="M1083.49,-282.61C1108.65,-262.05 1154.55,-224.55 1184.28,-200.27"/>
<polygon fill="blue" stroke="blue" points="1186.24,-203.18 1191.77,-194.14 1181.82,-197.76 1186.24,-203.18"/>
</g>
<!-- izbeigt___beidz__beig&#45;&gt;izbeigšana___beidz__beig -->
<g id="edge42" class="edge">
<title>izbeigt___beidz__beig&#45;&gt;izbeigšana___beidz__beig</title>
<path fill="none" stroke="green" d="M761.93,-217.05C783.56,-189.76 826.92,-135.09 852.77,-102.48"/>
<polygon fill="green" stroke="green" points="855.47,-104.71 858.94,-94.7 849.98,-100.36 855.47,-104.71"/>
</g>
<!-- izbeigt___beidz__beig&#45;&gt;izbeigties___beidz__beig -->
<g id="edge45" class="edge">
<title>izbeigt___beidz__beig&#45;&gt;izbeigties___beidz__beig</title>
<path fill="none" stroke="green" d="M713.12,-232.21C669.05,-230.5 593.53,-227.57 541.34,-225.55"/>
<polygon fill="green" stroke="green" points="541.56,-222.05 531.43,-225.16 541.29,-229.05 541.56,-222.05"/>
</g>
<!-- izbeigties___beidz__beig&#45;&gt;izbeigšanās___beidz__beig -->
<g id="edge43" class="edge">
<title>izbeigties___beidz__beig&#45;&gt;izbeigšanās___beidz__beig</title>
<path fill="none" stroke="green" d="M462.62,-239.11C437.97,-257.17 397.39,-286.91 369.3,-307.49"/>
<polygon fill="green" stroke="green" points="367.52,-304.45 361.52,-313.19 371.66,-310.1 367.52,-304.45"/>
</g>
<!-- nebeigt___beidz__beig&#45;&gt;nebeidzams___beidz__beig -->
<g id="edge71" class="edge">
<title>nebeigt___beidz__beig&#45;&gt;nebeidzams___beidz__beig</title>
<path fill="none" stroke="green" d="M434.11,-563.47C408.74,-577.83 368.46,-600.63 339,-617.3"/>
<polygon fill="green" stroke="green" points="337.37,-614.2 330.39,-622.18 340.82,-620.3 337.37,-614.2"/>
</g>
<!-- nepabeigt___beidz__beig&#45;&gt;nepabeigts___beidz__beig -->
<g id="edge49" class="edge">
<title>nepabeigt___beidz__beig&#45;&gt;nepabeigts___beidz__beig</title>
<path fill="none" stroke="green" d="M751.77,-1220.72C734.52,-1226.67 713.4,-1233.94 694.72,-1240.37"/>
<polygon fill="green" stroke="green" points="693.8,-1236.99 685.49,-1243.55 696.08,-1243.61 693.8,-1236.99"/>
</g>
<!-- nepabeigts___beidz__beig&#45;&gt;nepabeigtība___beidz__beig -->
<g id="edge48" class="edge">
<title>nepabeigts___beidz__beig&#45;&gt;nepabeigtība___beidz__beig</title>
<path fill="none" stroke="green" d="M627.3,-1240.26C608.5,-1225.58 580.56,-1203.76 559.26,-1187.13"/>
<polygon fill="green" stroke="green" points="561.53,-1184.45 551.49,-1181.06 557.22,-1189.97 561.53,-1184.45"/>
</g>
<!-- nobeigt___beidz__beig&#45;&gt;nobeigšana___beidz__beig -->
<g id="edge50" class="edge">
<title>nobeigt___beidz__beig&#45;&gt;nobeigšana___beidz__beig</title>
<path fill="none" stroke="green" d="M1246.39,-664.59C1277.82,-674.1 1326.03,-688.69 1362.42,-699.69"/>
<polygon fill="green" stroke="green" points="1361.27,-703 1371.85,-702.55 1363.29,-696.3 1361.27,-703"/>
</g>
<!-- nobeigt___beidz__beig&#45;&gt;nobeigties___beidz__beig -->
<g id="edge53" class="edge">
<title>nobeigt___beidz__beig&#45;&gt;nobeigties___beidz__beig</title>
<path fill="none" stroke="green" d="M1229.21,-638.43C1255.93,-609.49 1311.61,-549.17 1343.09,-515.07"/>
<polygon fill="green" stroke="green" points="1345.3,-517.83 1349.51,-508.11 1340.15,-513.08 1345.3,-517.83"/>
</g>
<!-- nobeigt___beidz__beig&#45;&gt;nobeigums___beidz__beig -->
<g id="edge55" class="edge">
<title>nobeigt___beidz__beig&#45;&gt;nobeigums___beidz__beig</title>
<path fill="none" stroke="green" d="M1226.73,-671.66C1251.66,-704.82 1307.25,-778.82 1336.99,-818.4"/>
<polygon fill="green" stroke="green" points="1333.9,-820.11 1342.71,-826.01 1339.5,-815.91 1333.9,-820.11"/>
</g>
<!-- nobeigties___beidz__beig&#45;&gt;nobeigšanās___beidz__beig -->
<g id="edge51" class="edge">
<title>nobeigties___beidz__beig&#45;&gt;nobeigšanās___beidz__beig</title>
<path fill="none" stroke="green" d="M1393.59,-504.92C1407.44,-512.34 1424.47,-521.45 1439.64,-529.57"/>
<polygon fill="green" stroke="green" points="1437.98,-532.66 1448.45,-534.29 1441.28,-526.49 1437.98,-532.66"/>
</g>
<!-- pabeigt___beidz__beig&#45;&gt;nepabeigt___beidz__beig -->
<g id="edge47" class="edge">
<title>pabeigt___beidz__beig&#45;&gt;nepabeigt___beidz__beig</title>
<path fill="none" stroke="green" d="M891.74,-1000.05C872.02,-1039.1 824.05,-1134.1 800.22,-1181.29"/>
<polygon fill="green" stroke="green" points="797.18,-1179.54 795.79,-1190.05 803.43,-1182.7 797.18,-1179.54"/>
</g>
<!-- pabeigt___beidz__beig&#45;&gt;pabeigšana___beidz__beig -->
<g id="edge56" class="edge">
<title>pabeigt___beidz__beig&#45;&gt;pabeigšana___beidz__beig</title>
<path fill="none" stroke="green" d="M913.11,-999.56C939.87,-1035.43 1002.58,-1119.47 1034.69,-1162.51"/>
<polygon fill="green" stroke="green" points="1031.74,-1164.4 1040.52,-1170.33 1037.35,-1160.22 1031.74,-1164.4"/>
</g>
<!-- pabeigt___beidz__beig&#45;&gt;pabeigts___beidz__beig -->
<g id="edge59" class="edge">
<title>pabeigt___beidz__beig&#45;&gt;pabeigts___beidz__beig</title>
<path fill="none" stroke="green" d="M921.04,-967.64C949.69,-946.65 1001.86,-908.43 1034.97,-884.17"/>
<polygon fill="green" stroke="green" points="1036.96,-887.05 1042.96,-878.32 1032.82,-881.41 1036.96,-887.05"/>
</g>
<!-- pabeigts___beidz__beig&#45;&gt;pabeigtība___beidz__beig -->
<g id="edge58" class="edge">
<title>pabeigts___beidz__beig&#45;&gt;pabeigtība___beidz__beig</title>
<path fill="none" stroke="green" d="M1058.08,-879.63C1038.03,-929.08 981.13,-1069.43 956.66,-1129.78"/>
<polygon fill="green" stroke="green" points="953.44,-1128.43 952.92,-1139.01 959.92,-1131.06 953.44,-1128.43"/>
</g>
<!-- pabeigts___beidz__beig&#45;&gt;puspabeigts___beidz__beig -->
<g id="edge64" class="edge">
<title>pabeigts___beidz__beig&#45;&gt;puspabeigts___beidz__beig</title>
<path fill="none" stroke="blue" d="M1072.05,-844.46C1097.13,-779.97 1184.33,-555.71 1215.37,-475.89"/>
<polygon fill="blue" stroke="blue" points="1218.62,-477.2 1218.98,-466.61 1212.1,-474.66 1218.62,-477.2"/>
</g>
<!-- beidzot___beidz__beig&#45;&gt;visbeidzot___beidz__beig -->
<g id="edge73" class="edge">
<title>beidzot___beidz__beig&#45;&gt;visbeidzot___beidz__beig</title>
<path fill="none" stroke="blue" d="M1168.38,-964.9C1189.35,-1007.07 1243.16,-1115.27 1268.64,-1166.49"/>
<polygon fill="blue" stroke="blue" points="1265.36,-1167.76 1272.95,-1175.16 1271.63,-1164.65 1265.36,-1167.76"/>
</g>
<!-- beidzot___beidz__beig&#45;&gt;visubeidzot___beidz__beig -->
<g id="edge75" class="edge">
<title>beidzot___beidz__beig&#45;&gt;visubeidzot___beidz__beig</title>
<path fill="none" stroke="blue" d="M1180.27,-962.33C1217.79,-989.33 1297.7,-1046.83 1342.19,-1078.84"/>
<polygon fill="blue" stroke="blue" points="1339.99,-1081.57 1350.15,-1084.57 1344.07,-1075.89 1339.99,-1081.57"/>
</g>
<!-- nebeidzams___beidz__beig&#45;&gt;nebeidzami___beidz__beig -->
<g id="edge69" class="edge">
<title>nebeidzams___beidz__beig&#45;&gt;nebeidzami___beidz__beig</title>
<path fill="none" stroke="green" d="M280.33,-654.6C267.85,-664.05 251.9,-676.12 238.09,-686.58"/>
<polygon fill="green" stroke="green" points="236,-683.76 230.14,-692.59 240.23,-689.35 236,-683.76"/>
</g>
<!-- nebeidzams___beidz__beig&#45;&gt;nebeidzamība___beidz__beig -->
<g id="edge70" class="edge">
<title>nebeidzams___beidz__beig&#45;&gt;nebeidzamība___beidz__beig</title>
<path fill="none" stroke="green" d="M302.76,-656.26C304.72,-692.52 309.18,-774.92 311.57,-819.07"/>
<polygon fill="green" stroke="green" points="308.07,-819.14 312.11,-828.93 315.06,-818.76 308.07,-819.14"/>
</g>
<!-- nobeigts&#45;&gt;nobeigtība___beidz__beig -->
<g id="edge54" class="edge">
<title>nobeigts&#45;&gt;nobeigtība___beidz__beig</title>
<path fill="none" stroke="green" d="M68.19,-1211.87C116.58,-1185.84 220.47,-1129.94 276.38,-1099.87"/>
<polygon fill="green" stroke="green" points="277.76,-1103.1 284.91,-1095.28 274.44,-1096.94 277.76,-1103.1"/>
</g>
<!-- puse&#45;&gt;pusbeigts___beidz__beig -->
<g id="edge61" class="edge">
<title>puse&#45;&gt;pusbeigts___beidz__beig</title>
<path fill="none" stroke="blue" d="M1379.55,-32.41C1347.92,-59.83 1278.78,-119.76 1240.11,-153.28"/>
<polygon fill="blue" stroke="blue" points="1237.84,-150.62 1232.57,-159.81 1242.42,-155.91 1237.84,-150.62"/>
</g>
<!-- puse&#45;&gt;puspabeigts___beidz__beig -->
<g id="edge63" class="edge">
<title>puse&#45;&gt;puspabeigts___beidz__beig</title>
<path fill="none" stroke="blue" d="M1389.31,-35.37C1363.19,-101.45 1269.83,-337.65 1237.53,-419.36"/>
<polygon fill="blue" stroke="blue" points="1234.37,-417.84 1233.95,-428.42 1240.88,-420.41 1234.37,-417.84"/>
</g>
<!-- viss&#45;&gt;visbeidzot___beidz__beig -->
<g id="edge72" class="edge">
<title>viss&#45;&gt;visbeidzot___beidz__beig</title>
<path fill="none" stroke="blue" d="M1586.51,-1411.79C1533.7,-1373.99 1380.3,-1264.22 1313.78,-1216.62"/>
<polygon fill="blue" stroke="blue" points="1316.02,-1213.92 1305.85,-1210.95 1311.95,-1219.61 1316.02,-1213.92"/>
</g>
<!-- viss&#45;&gt;visubeidzot___beidz__beig -->
<g id="edge74" class="edge">
<title>viss&#45;&gt;visubeidzot___beidz__beig</title>
<path fill="none" stroke="blue" d="M1593.31,-1408.82C1556.16,-1356.83 1438.77,-1192.54 1392.63,-1127.98"/>
<polygon fill="blue" stroke="blue" points="1395.65,-1126.18 1386.99,-1120.08 1389.95,-1130.25 1395.65,-1126.18"/>
</g>
<!-- # beidz, beig -->
<g id="node1" class="node">
<title># beidz, beig</title>
<polygon fill="lightblue" stroke="black" stroke-width="0" points="888.63,-707.48 812.63,-707.48 812.63,-671.48 888.63,-671.48 888.63,-707.48"/>
<text xml:space="preserve" text-anchor="middle" x="850.63" y="-684.43" font-family="Times New Roman,serif" font-size="14.00">beidz, beig</text>
</g>
<!-- beigas___beidz__beig -->
<g id="node2" class="node">
<title>beigas___beidz__beig</title>
<ellipse fill="white" stroke="black" stroke-width="0" cx="574.63" cy="-652.46" rx="34.46" ry="18"/>
<text xml:space="preserve" text-anchor="middle" x="574.63" y="-647.41" font-family="Times New Roman,serif" font-size="14.00">beigas</text>
</g>
<!-- beigšana___beidz__beig -->
<g id="node3" class="node">
<title>beigšana___beidz__beig</title>
<ellipse fill="white" stroke="black" stroke-width="0" cx="584.65" cy="-445.14" rx="43.16" ry="18"/>
<text xml:space="preserve" text-anchor="middle" x="584.65" y="-440.09" font-family="Times New Roman,serif" font-size="14.00">beigšana</text>
</g>
<!-- beigšanās___beidz__beig -->
<g id="node4" class="node">
<title>beigšanās___beidz__beig</title>
<ellipse fill="white" stroke="black" stroke-width="0" cx="627.17" cy="-110.55" rx="46.75" ry="18"/>
<text xml:space="preserve" text-anchor="middle" x="627.17" y="-105.5" font-family="Times New Roman,serif" font-size="14.00">beigšanās</text>
</g>
<!-- beigt___beidz__beig -->
<g id="node5" class="node">
<title>beigt___beidz__beig</title>
<ellipse fill="white" stroke="black" stroke-width="0" cx="826.38" cy="-585.55" rx="29.34" ry="18"/>
<text xml:space="preserve" text-anchor="middle" x="826.38" y="-580.5" font-family="Times New Roman,serif" font-size="14.00">beigt</text>
</g>
<!-- beigties___beidz__beig -->
<g id="node6" class="node">
<title>beigties___beidz__beig</title>
<ellipse fill="white" stroke="black" stroke-width="0" cx="663.58" cy="-317.61" rx="39.58" ry="18"/>
<text xml:space="preserve" text-anchor="middle" x="663.58" y="-312.56" font-family="Times New Roman,serif" font-size="14.00">beigties</text>
</g>
<!-- beigts___beidz__beig -->
<g id="node7" class="node">
<title>beigts___beidz__beig</title>
<ellipse fill="white" stroke="black" stroke-width="0" cx="1065.45" cy="-297.34" rx="32.93" ry="18"/>
<text xml:space="preserve" text-anchor="middle" x="1065.45" y="-292.29" font-family="Times New Roman,serif" font-size="14.00">beigts</text>
</g>
<!-- izbeigšana___beidz__beig -->
<g id="node8" class="node">
<title>izbeigšana___beidz__beig</title>
<ellipse fill="white" stroke="black" stroke-width="0" cx="873.58" cy="-76.24" rx="49.82" ry="18"/>
<text xml:space="preserve" text-anchor="middle" x="873.58" y="-71.19" font-family="Times New Roman,serif" font-size="14.00">izbeigšana</text>
</g>
<!-- izbeigšanās___beidz__beig -->
<g id="node9" class="node">
<title>izbeigšanās___beidz__beig</title>
<ellipse fill="white" stroke="black" stroke-width="0" cx="338.2" cy="-330.28" rx="53.4" ry="18"/>
<text xml:space="preserve" text-anchor="middle" x="338.2" y="-325.23" font-family="Times New Roman,serif" font-size="14.00">izbeigšanās</text>
</g>
<!-- izbeigt___beidz__beig -->
<g id="node10" class="node">
<title>izbeigt___beidz__beig</title>
<ellipse fill="white" stroke="black" stroke-width="0" cx="748.81" cy="-233.59" rx="36" ry="18"/>
<text xml:space="preserve" text-anchor="middle" x="748.81" y="-228.54" font-family="Times New Roman,serif" font-size="14.00">izbeigt</text>
</g>
<!-- izbeigties___beidz__beig -->
<g id="node11" class="node">
<title>izbeigties___beidz__beig</title>
<ellipse fill="white" stroke="black" stroke-width="0" cx="484.16" cy="-223.33" rx="46.23" ry="18"/>
<text xml:space="preserve" text-anchor="middle" x="484.16" y="-218.28" font-family="Times New Roman,serif" font-size="14.00">izbeigties</text>
</g>
<!-- nebeigt___beidz__beig -->
<g id="node12" class="node">
<title>nebeigt___beidz__beig</title>
<ellipse fill="white" stroke="black" stroke-width="0" cx="458.21" cy="-549.83" rx="38.04" ry="18"/>
<text xml:space="preserve" text-anchor="middle" x="458.21" y="-544.78" font-family="Times New Roman,serif" font-size="14.00">nebeigt</text>
</g>
<!-- nepabeigt___beidz__beig -->
<g id="node13" class="node">
<title>nepabeigt___beidz__beig</title>
<ellipse fill="white" stroke="black" stroke-width="0" cx="786.31" cy="-1208.83" rx="46.75" ry="18"/>
<text xml:space="preserve" text-anchor="middle" x="786.31" y="-1203.78" font-family="Times New Roman,serif" font-size="14.00">nepabeigt</text>
</g>
<!-- nepabeigtība___beidz__beig -->
<g id="node14" class="node">
<title>nepabeigtība___beidz__beig</title>
<ellipse fill="white" stroke="black" stroke-width="0" cx="529" cy="-1163.49" rx="58" ry="18"/>
<text xml:space="preserve" text-anchor="middle" x="529" y="-1158.44" font-family="Times New Roman,serif" font-size="14.00">nepabeigtība</text>
</g>
<!-- nepabeigts___beidz__beig -->
<g id="node15" class="node">
<title>nepabeigts___beidz__beig</title>
<ellipse fill="white" stroke="black" stroke-width="0" cx="648.03" cy="-1256.45" rx="50.33" ry="18"/>
<text xml:space="preserve" text-anchor="middle" x="648.03" y="-1251.4" font-family="Times New Roman,serif" font-size="14.00">nepabeigts</text>
</g>
<!-- nobeigšana___beidz__beig -->
<g id="node16" class="node">
<title>nobeigšana___beidz__beig</title>
<ellipse fill="white" stroke="black" stroke-width="0" cx="1412.41" cy="-714.82" rx="52.38" ry="18"/>
<text xml:space="preserve" text-anchor="middle" x="1412.41" y="-709.77" font-family="Times New Roman,serif" font-size="14.00">nobeigšana</text>
</g>
<!-- nobeigšanās___beidz__beig -->
<g id="node17" class="node">
<title>nobeigšanās___beidz__beig</title>
<ellipse fill="white" stroke="black" stroke-width="0" cx="1478.6" cy="-550.43" rx="55.96" ry="18"/>
<text xml:space="preserve" text-anchor="middle" x="1478.6" y="-545.38" font-family="Times New Roman,serif" font-size="14.00">nobeigšanās</text>
</g>
<!-- nobeigt___beidz__beig -->
<g id="node18" class="node">
<title>nobeigt___beidz__beig</title>
<ellipse fill="white" stroke="black" stroke-width="0" cx="1214.08" cy="-654.82" rx="38.56" ry="18"/>
<text xml:space="preserve" text-anchor="middle" x="1214.08" y="-649.77" font-family="Times New Roman,serif" font-size="14.00">nobeigt</text>
</g>
<!-- nobeigties___beidz__beig -->
<g id="node19" class="node">
<title>nobeigties___beidz__beig</title>
<ellipse fill="white" stroke="black" stroke-width="0" cx="1366.05" cy="-490.18" rx="48.79" ry="18"/>
<text xml:space="preserve" text-anchor="middle" x="1366.05" y="-485.13" font-family="Times New Roman,serif" font-size="14.00">nobeigties</text>
</g>
<!-- nobeigtība___beidz__beig -->
<g id="node20" class="node">
<title>nobeigtība___beidz__beig</title>
<ellipse fill="white" stroke="black" stroke-width="0" cx="313.82" cy="-1079.72" rx="49.82" ry="18"/>
<text xml:space="preserve" text-anchor="middle" x="313.82" y="-1074.67" font-family="Times New Roman,serif" font-size="14.00">nobeigtība</text>
</g>
<!-- nobeigums___beidz__beig -->
<g id="node21" class="node">
<title>nobeigums___beidz__beig</title>
<ellipse fill="white" stroke="black" stroke-width="0" cx="1356.65" cy="-844.56" rx="51.86" ry="18"/>
<text xml:space="preserve" text-anchor="middle" x="1356.65" y="-839.51" font-family="Times New Roman,serif" font-size="14.00">nobeigums</text>
</g>
<!-- pabeigšana___beidz__beig -->
<g id="node22" class="node">
<title>pabeigšana___beidz__beig</title>
<ellipse fill="white" stroke="black" stroke-width="0" cx="1054.41" cy="-1188.94" rx="51.86" ry="18"/>
<text xml:space="preserve" text-anchor="middle" x="1054.41" y="-1183.89" font-family="Times New Roman,serif" font-size="14.00">pabeigšana</text>
</g>
<!-- pabeigt___beidz__beig -->
<g id="node23" class="node">
<title>pabeigt___beidz__beig</title>
<ellipse fill="white" stroke="black" stroke-width="0" cx="900.51" cy="-982.68" rx="38.04" ry="18"/>
<text xml:space="preserve" text-anchor="middle" x="900.51" y="-977.63" font-family="Times New Roman,serif" font-size="14.00">pabeigt</text>
</g>
<!-- pabeigtība___beidz__beig -->
<g id="node24" class="node">
<title>pabeigtība___beidz__beig</title>
<ellipse fill="white" stroke="black" stroke-width="0" cx="945.25" cy="-1157.95" rx="49.3" ry="18"/>
<text xml:space="preserve" text-anchor="middle" x="945.25" y="-1152.9" font-family="Times New Roman,serif" font-size="14.00">pabeigtība</text>
</g>
<!-- pabeigts___beidz__beig -->
<g id="node25" class="node">
<title>pabeigts___beidz__beig</title>
<ellipse fill="white" stroke="black" stroke-width="0" cx="1065.23" cy="-862.01" rx="41.63" ry="18"/>
<text xml:space="preserve" text-anchor="middle" x="1065.23" y="-856.96" font-family="Times New Roman,serif" font-size="14.00">pabeigts</text>
</g>
<!-- piebeigt___beidz__beig -->
<g id="node26" class="node">
<title>piebeigt___beidz__beig</title>
<ellipse fill="white" stroke="black" stroke-width="0" cx="556.58" cy="-817.71" rx="40.6" ry="18"/>
<text xml:space="preserve" text-anchor="middle" x="556.58" y="-812.66" font-family="Times New Roman,serif" font-size="14.00">piebeigt</text>
</g>
<!-- pusbeigts___beidz__beig -->
<g id="node27" class="node">
<title>pusbeigts___beidz__beig</title>
<ellipse fill="white" stroke="black" stroke-width="0" cx="1212.53" cy="-177.18" rx="45.72" ry="18"/>
<text xml:space="preserve" text-anchor="middle" x="1212.53" y="-172.13" font-family="Times New Roman,serif" font-size="14.00">pusbeigts</text>
</g>
<!-- puspabeigts___beidz__beig -->
<g id="node28" class="node">
<title>puspabeigts___beidz__beig</title>
<ellipse fill="white" stroke="black" stroke-width="0" cx="1226.45" cy="-447.41" rx="54.42" ry="18"/>
<text xml:space="preserve" text-anchor="middle" x="1226.45" y="-442.36" font-family="Times New Roman,serif" font-size="14.00">puspabeigts</text>
</g>
<!-- sabeigt___beidz__beig -->
<g id="node29" class="node">
<title>sabeigt___beidz__beig</title>
<ellipse fill="white" stroke="black" stroke-width="0" cx="695.35" cy="-898" rx="37.02" ry="18"/>
<text xml:space="preserve" text-anchor="middle" x="695.35" y="-892.95" font-family="Times New Roman,serif" font-size="14.00">sabeigt</text>
</g>
<!-- beidzams___beidz__beig -->
<g id="node30" class="node">
<title>beidzams___beidz__beig</title>
<ellipse fill="white" stroke="black" stroke-width="0" cx="1006.72" cy="-446" rx="46.23" ry="18"/>
<text xml:space="preserve" text-anchor="middle" x="1006.72" y="-440.95" font-family="Times New Roman,serif" font-size="14.00">beidzams</text>
</g>
<!-- beidzējs___beidz__beig -->
<g id="node31" class="node">
<title>beidzējs___beidz__beig</title>
<ellipse fill="white" stroke="black" stroke-width="0" cx="905.88" cy="-289.86" rx="41.12" ry="18"/>
<text xml:space="preserve" text-anchor="middle" x="905.88" y="-284.81" font-family="Times New Roman,serif" font-size="14.00">beidzējs</text>
</g>
<!-- beidzot___beidz__beig -->
<g id="node32" class="node">
<title>beidzot___beidz__beig</title>
<ellipse fill="white" stroke="black" stroke-width="0" cx="1159.75" cy="-947.56" rx="38.04" ry="18"/>
<text xml:space="preserve" text-anchor="middle" x="1159.75" y="-942.51" font-family="Times New Roman,serif" font-size="14.00">beidzot</text>
</g>
<!-- nebeidzami___beidz__beig -->
<g id="node33" class="node">
<title>nebeidzami___beidz__beig</title>
<ellipse fill="white" stroke="black" stroke-width="0" cx="207.24" cy="-709.92" rx="53.91" ry="18"/>
<text xml:space="preserve" text-anchor="middle" x="207.24" y="-704.87" font-family="Times New Roman,serif" font-size="14.00">nebeidzami</text>
</g>
<!-- nebeidzamība___beidz__beig -->
<g id="node34" class="node">
<title>nebeidzamība___beidz__beig</title>
<ellipse fill="white" stroke="black" stroke-width="0" cx="313.16" cy="-848.3" rx="62.61" ry="18"/>
<text xml:space="preserve" text-anchor="middle" x="313.16" y="-843.25" font-family="Times New Roman,serif" font-size="14.00">nebeidzamība</text>
</g>
<!-- nebeidzams___beidz__beig -->
<g id="node35" class="node">
<title>nebeidzams___beidz__beig</title>
<ellipse fill="white" stroke="black" stroke-width="0" cx="301.79" cy="-638.36" rx="54.93" ry="18"/>
<text xml:space="preserve" text-anchor="middle" x="301.79" y="-633.31" font-family="Times New Roman,serif" font-size="14.00">nebeidzams</text>
</g>
<!-- visbeidzot___beidz__beig -->
<g id="node36" class="node">
<title>visbeidzot___beidz__beig</title>
<ellipse fill="white" stroke="black" stroke-width="0" cx="1282.4" cy="-1194.17" rx="48.79" ry="18"/>
<text xml:space="preserve" text-anchor="middle" x="1282.4" y="-1189.12" font-family="Times New Roman,serif" font-size="14.00">visbeidzot</text>
</g>
<!-- visubeidzot___beidz__beig -->
<g id="node37" class="node">
<title>visubeidzot___beidz__beig</title>
<ellipse fill="white" stroke="black" stroke-width="0" cx="1373.75" cy="-1101.55" rx="53.4" ry="18"/>
<text xml:space="preserve" text-anchor="middle" x="1373.75" y="-1096.5" font-family="Times New Roman,serif" font-size="14.00">visubeidzot</text>
</g>
<!-- nobeigts -->
<g id="node38" class="node">
<title>nobeigts</title>
<ellipse fill="white" stroke="black" stroke-width="0" cx="42.14" cy="-1225.89" rx="42.14" ry="18"/>
<text xml:space="preserve" text-anchor="middle" x="42.14" y="-1220.84" font-family="Times New Roman,serif" font-size="14.00" fill="gray">nobeigts</text>
</g>
<!-- puse -->
<g id="node39" class="node">
<title>puse</title>
<ellipse fill="white" stroke="black" stroke-width="0" cx="1396.17" cy="-18" rx="27.81" ry="18"/>
<text xml:space="preserve" text-anchor="middle" x="1396.17" y="-12.95" font-family="Times New Roman,serif" font-size="14.00" fill="gray">puse</text>
</g>
<!-- viss -->
<g id="node40" class="node">
<title>viss</title>
<ellipse fill="white" stroke="black" stroke-width="0" cx="1604.77" cy="-1424.85" rx="27" ry="18"/>
<text xml:space="preserve" text-anchor="middle" x="1604.77" y="-1419.8" font-family="Times New Roman,serif" font-size="14.00" fill="gray">viss</text>
</g>
</g>
</svg>
