<?xml version="1.0" encoding="UTF-8" standalone="no"?>
<!DOCTYPE svg PUBLIC "-//W3C//DTD SVG 1.1//EN"
 "http://www.w3.org/Graphics/SVG/1.1/DTD/svg11.dtd">
<!-- Generated by graphviz version 13.1.2 (20250808.2320)
 -->
<!-- Pages: 1 -->
<svg width="1239pt" height="1190pt"
 viewBox="0.00 0.00 1239.00 1190.00" xmlns="http://www.w3.org/2000/svg" xmlns:xlink="http://www.w3.org/1999/xlink">
<g id="graph0" class="graph" transform="scale(1 1) rotate(0) translate(4 1185.8)">
<polygon fill="white" stroke="none" points="-4,4 -4,-1185.8 1235.11,-1185.8 1235.11,4 -4,4"/>
<!-- # beidz, beig&#45;&gt;beigas -->
<g id="edge1" class="edge">
<title># beidz, beig&#45;&gt;beigas</title>
<path fill="none" stroke="#cccccc" d="M450.14,-709.81C384.62,-673.11 236.29,-590.03 178.73,-557.79"/>
</g>
<!-- # beidz, beig&#45;&gt;beigt -->
<g id="edge7" class="edge">
<title># beidz, beig&#45;&gt;beigt</title>
<path fill="none" stroke="#cccccc" d="M444.17,-722.15C418.96,-718.46 386.39,-713.69 363.38,-710.33"/>
</g>
<!-- # beidz, beig&#45;&gt;beigšana -->
<g id="edge3" class="edge">
<title># beidz, beig&#45;&gt;beigšana</title>
<path fill="none" stroke="#cccccc" d="M444.26,-715.73C391.15,-698.93 295.24,-668.58 244.23,-652.44"/>
</g>
<!-- # beidz, beig&#45;&gt;beigšanās -->
<g id="edge5" class="edge">
<title># beidz, beig&#45;&gt;beigšanās</title>
<path fill="none" stroke="#cccccc" d="M466.86,-710.03C416.41,-651.47 255.07,-464.14 205.89,-407.03"/>
</g>
<!-- # beidz, beig&#45;&gt;beigties -->
<g id="edge8" class="edge">
<title># beidz, beig&#45;&gt;beigties</title>
<path fill="none" stroke="#cccccc" d="M463.48,-709.76C420.13,-667.96 312.92,-564.56 271.53,-524.65"/>
</g>
<!-- # beidz, beig&#45;&gt;beigts -->
<g id="edge10" class="edge">
<title># beidz, beig&#45;&gt;beigts</title>
<path fill="none" stroke="#cccccc" d="M473.35,-709.96C448.25,-658.93 376.06,-512.13 351.2,-461.56"/>
</g>
<!-- # beidz, beig&#45;&gt;izbeigšana -->
<g id="edge12" class="edge">
<title># beidz, beig&#45;&gt;izbeigšana</title>
<path fill="none" stroke="#cccccc" d="M444.09,-741.8C361.07,-772.65 164.47,-845.68 84.53,-875.38"/>
</g>
<!-- # beidz, beig&#45;&gt;izbeigt -->
<g id="edge16" class="edge">
<title># beidz, beig&#45;&gt;izbeigt</title>
<path fill="none" stroke="#cccccc" d="M448.06,-745.54C385.25,-778.5 252.44,-848.19 197.34,-877.1"/>
</g>
<!-- # beidz, beig&#45;&gt;izbeigšanās -->
<g id="edge14" class="edge">
<title># beidz, beig&#45;&gt;izbeigšanās</title>
<path fill="none" stroke="#cccccc" d="M469.67,-745.69C426.9,-807.75 285.87,-1012.37 243.89,-1073.27"/>
</g>
<!-- # beidz, beig&#45;&gt;izbeigties -->
<g id="edge18" class="edge">
<title># beidz, beig&#45;&gt;izbeigties</title>
<path fill="none" stroke="#cccccc" d="M462.07,-745.37C403.05,-797.54 230.11,-950.39 173.05,-1000.83"/>
</g>
<!-- # beidz, beig&#45;&gt;nebeigt -->
<g id="edge20" class="edge">
<title># beidz, beig&#45;&gt;nebeigt</title>
<path fill="none" stroke="#cccccc" d="M488.68,-745.51C498.59,-772.24 517.2,-822.41 527,-848.84"/>
</g>
<!-- # beidz, beig&#45;&gt;nepabeigt -->
<g id="edge22" class="edge">
<title># beidz, beig&#45;&gt;nepabeigt</title>
<path fill="none" stroke="#cccccc" d="M490.29,-709.98C517.96,-650.33 607.53,-457.27 635.18,-397.68"/>
</g>
<!-- # beidz, beig&#45;&gt;pabeigt -->
<g id="edge42" class="edge">
<title># beidz, beig&#45;&gt;pabeigt</title>
<path fill="none" stroke="#cccccc" d="M483.02,-709.77C485.25,-667.79 490.8,-563.51 493.02,-521.75"/>
</g>
<!-- # beidz, beig&#45;&gt;nepabeigtība -->
<g id="edge24" class="edge">
<title># beidz, beig&#45;&gt;nepabeigtība</title>
<path fill="none" stroke="#cccccc" d="M510.29,-709.82C579.7,-665.85 757.87,-552.99 824.17,-510.98"/>
</g>
<!-- # beidz, beig&#45;&gt;nepabeigts -->
<g id="edge26" class="edge">
<title># beidz, beig&#45;&gt;nepabeigts</title>
<path fill="none" stroke="#cccccc" d="M497.92,-710.05C548.37,-653.87 704.79,-479.69 754.18,-424.7"/>
</g>
<!-- # beidz, beig&#45;&gt;nobeigšana -->
<g id="edge28" class="edge">
<title># beidz, beig&#45;&gt;nobeigšana</title>
<path fill="none" stroke="#cccccc" d="M484.59,-745.48C494.21,-813.39 528.57,-1055.99 538.17,-1123.79"/>
</g>
<!-- # beidz, beig&#45;&gt;nobeigt -->
<g id="edge32" class="edge">
<title># beidz, beig&#45;&gt;nobeigt</title>
<path fill="none" stroke="#cccccc" d="M480.61,-745.66C476.74,-793.52 466.2,-923.71 462.35,-971.32"/>
</g>
<!-- # beidz, beig&#45;&gt;nobeigšanās -->
<g id="edge30" class="edge">
<title># beidz, beig&#45;&gt;nobeigšanās</title>
<path fill="none" stroke="#cccccc" d="M476.58,-745.6C454.91,-816.29 375.47,-1075.46 353.85,-1145.99"/>
</g>
<!-- # beidz, beig&#45;&gt;nobeigties -->
<g id="edge34" class="edge">
<title># beidz, beig&#45;&gt;nobeigties</title>
<path fill="none" stroke="#cccccc" d="M479.76,-745.46C471.34,-810.39 442.27,-1034.49 433.83,-1099.59"/>
</g>
<!-- # beidz, beig&#45;&gt;nobeigtība -->
<g id="edge36" class="edge">
<title># beidz, beig&#45;&gt;nobeigtība</title>
<path fill="none" stroke="#cccccc" d="M519.81,-745.19C607.39,-785.78 823.08,-885.74 903.21,-922.88"/>
</g>
<!-- # beidz, beig&#45;&gt;nobeigums -->
<g id="edge38" class="edge">
<title># beidz, beig&#45;&gt;nobeigums</title>
<path fill="none" stroke="#cccccc" d="M489.05,-745.39C513.04,-806.13 591.87,-1005.78 615.91,-1066.68"/>
</g>
<!-- # beidz, beig&#45;&gt;pabeigšana -->
<g id="edge40" class="edge">
<title># beidz, beig&#45;&gt;pabeigšana</title>
<path fill="none" stroke="#cccccc" d="M480.21,-709.8C473.94,-649.55 453.65,-454.55 447.39,-394.36"/>
</g>
<!-- # beidz, beig&#45;&gt;pabeigtība -->
<g id="edge44" class="edge">
<title># beidz, beig&#45;&gt;pabeigtība</title>
<path fill="none" stroke="#cccccc" d="M510.91,-709.72C564.14,-676.56 676.93,-606.27 726.88,-575.15"/>
</g>
<!-- # beidz, beig&#45;&gt;pabeigts -->
<g id="edge46" class="edge">
<title># beidz, beig&#45;&gt;pabeigts</title>
<path fill="none" stroke="#cccccc" d="M491.53,-709.7C517.31,-660.64 588.57,-525.06 613.87,-476.93"/>
</g>
<!-- # beidz, beig&#45;&gt;piebeigt -->
<g id="edge48" class="edge">
<title># beidz, beig&#45;&gt;piebeigt</title>
<path fill="none" stroke="#cccccc" d="M444.28,-718.9C369.59,-701.52 203.97,-662.97 131.02,-645.99"/>
</g>
<!-- # beidz, beig&#45;&gt;pusbeigts -->
<g id="edge50" class="edge">
<title># beidz, beig&#45;&gt;pusbeigts</title>
<path fill="none" stroke="#cccccc" d="M479.58,-709.78C469.21,-635.04 429.45,-348.61 419.08,-273.84"/>
</g>
<!-- # beidz, beig&#45;&gt;puspabeigts -->
<g id="edge53" class="edge">
<title># beidz, beig&#45;&gt;puspabeigts</title>
<path fill="none" stroke="#cccccc" d="M485.62,-709.91C500.28,-636.54 555.96,-357.79 570.6,-284.51"/>
</g>
<!-- # beidz, beig&#45;&gt;sabeigt -->
<g id="edge56" class="edge">
<title># beidz, beig&#45;&gt;sabeigt</title>
<path fill="none" stroke="#cccccc" d="M444.09,-729.18C370.57,-732.04 209.69,-738.32 137.2,-741.15"/>
</g>
<!-- # beidz, beig&#45;&gt;beidzams -->
<g id="edge58" class="edge">
<title># beidz, beig&#45;&gt;beidzams</title>
<path fill="none" stroke="#cccccc" d="M464.24,-745.68C431.26,-778.95 361.14,-849.69 329.11,-882"/>
</g>
<!-- # beidz, beig&#45;&gt;beidzējs -->
<g id="edge60" class="edge">
<title># beidz, beig&#45;&gt;beidzējs</title>
<path fill="none" stroke="#cccccc" d="M444.21,-735.67C391.6,-746.75 296.96,-766.68 244.78,-777.67"/>
</g>
<!-- # beidz, beig&#45;&gt;beidzot -->
<g id="edge62" class="edge">
<title># beidz, beig&#45;&gt;beidzot</title>
<path fill="none" stroke="#cccccc" d="M519.81,-724.38C558.9,-720.95 619.61,-715.61 658.55,-712.19"/>
</g>
<!-- # beidz, beig&#45;&gt;nebeidzami -->
<g id="edge64" class="edge">
<title># beidz, beig&#45;&gt;nebeidzami</title>
<path fill="none" stroke="#cccccc" d="M497.72,-745.5C547.55,-802.17 702.05,-977.86 750.83,-1033.33"/>
</g>
<!-- # beidz, beig&#45;&gt;nebeidzams -->
<g id="edge68" class="edge">
<title># beidz, beig&#45;&gt;nebeidzams</title>
<path fill="none" stroke="#cccccc" d="M498.31,-745.33C537.18,-787.55 635.2,-893.98 673.42,-935.48"/>
</g>
<!-- # beidz, beig&#45;&gt;nebeidzamība -->
<g id="edge66" class="edge">
<title># beidz, beig&#45;&gt;nebeidzamība</title>
<path fill="none" stroke="#cccccc" d="M515.61,-745.64C576.79,-778.38 705.54,-847.26 763.43,-878.23"/>
</g>
<!-- # beidz, beig&#45;&gt;visbeidzot -->
<g id="edge70" class="edge">
<title># beidz, beig&#45;&gt;visbeidzot</title>
<path fill="none" stroke="#cccccc" d="M519.79,-728.33C599.16,-729.66 783.34,-732.74 871.44,-734.22"/>
</g>
<!-- # beidz, beig&#45;&gt;visubeidzot -->
<g id="edge73" class="edge">
<title># beidz, beig&#45;&gt;visubeidzot</title>
<path fill="none" stroke="#cccccc" d="M519.69,-721.09C599.27,-707.13 784.49,-674.63 871.79,-659.3"/>
</g>
<!-- beigt&#45;&gt;beigas -->
<g id="edge2" class="edge">
<title>beigt&#45;&gt;beigas</title>
<path fill="none" stroke="green" d="M318.65,-691.54C287.31,-663.36 218.33,-601.34 180.81,-567.6"/>
<polygon fill="green" stroke="green" points="183.33,-565.16 173.55,-561.08 178.65,-570.37 183.33,-565.16"/>
</g>
<!-- beigt&#45;&gt;beigšana -->
<g id="edge4" class="edge">
<title>beigt&#45;&gt;beigšana</title>
<path fill="none" stroke="green" d="M312.61,-694.63C294.42,-685.23 268.35,-671.75 247.07,-660.74"/>
<polygon fill="green" stroke="green" points="248.89,-657.74 238.4,-656.26 245.67,-663.96 248.89,-657.74"/>
</g>
<!-- beigt&#45;&gt;beigties -->
<g id="edge9" class="edge">
<title>beigt&#45;&gt;beigties</title>
<path fill="none" stroke="green" d="M327.95,-688.97C314.12,-654.83 283.06,-578.18 266.23,-536.63"/>
<polygon fill="green" stroke="green" points="269.55,-535.51 262.55,-527.55 263.06,-538.14 269.55,-535.51"/>
</g>
<!-- beigt&#45;&gt;beigts -->
<g id="edge11" class="edge">
<title>beigt&#45;&gt;beigts</title>
<path fill="none" stroke="green" d="M335.43,-688.56C336.74,-644.3 340.18,-527.99 341.8,-473.34"/>
<polygon fill="green" stroke="green" points="345.29,-473.67 342.08,-463.57 338.29,-473.46 345.29,-473.67"/>
</g>
<!-- beigt&#45;&gt;izbeigt -->
<g id="edge17" class="edge">
<title>beigt&#45;&gt;izbeigt</title>
<path fill="none" stroke="green" d="M321.07,-721.84C292.89,-753.77 228.65,-826.56 194.64,-865.09"/>
<polygon fill="green" stroke="green" points="192.07,-862.71 188.08,-872.53 197.32,-867.35 192.07,-862.71"/>
</g>
<!-- beigt&#45;&gt;nebeigt -->
<g id="edge21" class="edge">
<title>beigt&#45;&gt;nebeigt</title>
<path fill="none" stroke="green" d="M352.53,-720.36C387.11,-748.23 464.11,-810.29 505.62,-843.75"/>
<polygon fill="green" stroke="green" points="503.24,-846.32 513.22,-849.87 507.63,-840.87 503.24,-846.32"/>
</g>
<!-- beigt&#45;&gt;pabeigt -->
<g id="edge43" class="edge">
<title>beigt&#45;&gt;pabeigt</title>
<path fill="none" stroke="green" d="M347.66,-689.96C375.21,-654.95 440.49,-572 473.74,-529.74"/>
<polygon fill="green" stroke="green" points="476.33,-532.11 479.77,-522.08 470.83,-527.78 476.33,-532.11"/>
</g>
<!-- beigt&#45;&gt;nobeigt -->
<g id="edge33" class="edge">
<title>beigt&#45;&gt;nobeigt</title>
<path fill="none" stroke="green" d="M342.6,-723.43C363.74,-770.88 422.82,-903.53 448.61,-961.44"/>
<polygon fill="green" stroke="green" points="445.28,-962.56 452.54,-970.27 451.67,-959.72 445.28,-962.56"/>
</g>
<!-- beigt&#45;&gt;piebeigt -->
<g id="edge49" class="edge">
<title>beigt&#45;&gt;piebeigt</title>
<path fill="none" stroke="green" d="M308.36,-698.57C267.78,-686.97 189.85,-664.7 140.34,-650.55"/>
<polygon fill="green" stroke="green" points="141.35,-647.2 130.77,-647.81 139.43,-653.93 141.35,-647.2"/>
</g>
<!-- beigt&#45;&gt;sabeigt -->
<g id="edge57" class="edge">
<title>beigt&#45;&gt;sabeigt</title>
<path fill="none" stroke="green" d="M306.63,-710.55C267.04,-716.7 194.58,-727.96 146.98,-735.36"/>
<polygon fill="green" stroke="green" points="146.59,-731.88 137.24,-736.87 147.66,-738.79 146.59,-731.88"/>
</g>
<!-- beigt&#45;&gt;beidzams -->
<g id="edge59" class="edge">
<title>beigt&#45;&gt;beidzams</title>
<path fill="none" stroke="green" d="M332.85,-723.93C328.97,-757.25 320.59,-829.37 315.89,-869.79"/>
<polygon fill="green" stroke="green" points="312.44,-869.16 314.76,-879.49 319.39,-869.96 312.44,-869.16"/>
</g>
<!-- beigt&#45;&gt;beidzējs -->
<g id="edge61" class="edge">
<title>beigt&#45;&gt;beidzējs</title>
<path fill="none" stroke="green" d="M314.48,-718.9C294.58,-731.32 264,-750.39 240.66,-764.95"/>
<polygon fill="green" stroke="green" points="239.07,-761.81 232.44,-770.07 242.78,-767.75 239.07,-761.81"/>
</g>
<!-- beigt&#45;&gt;beidzot -->
<g id="edge63" class="edge">
<title>beigt&#45;&gt;beidzot</title>
<path fill="none" stroke="purple" d="M364.15,-706.38C426.02,-706.85 570.74,-707.95 646.97,-708.53"/>
<polygon fill="purple" stroke="purple" points="646.6,-712.03 656.63,-708.61 646.66,-705.03 646.6,-712.03"/>
</g>
<!-- beigties&#45;&gt;beigšanās -->
<g id="edge6" class="edge">
<title>beigties&#45;&gt;beigšanās</title>
<path fill="none" stroke="green" d="M245.52,-491.13C235.18,-471.83 218.38,-440.48 206.26,-417.86"/>
<polygon fill="green" stroke="green" points="209.42,-416.35 201.62,-409.19 203.25,-419.66 209.42,-416.35"/>
</g>
<!-- beigts&#45;&gt;pusbeigts -->
<g id="edge52" class="edge">
<title>beigts&#45;&gt;pusbeigts</title>
<path fill="none" stroke="blue" d="M349.48,-426.82C362.29,-394.18 390.06,-323.47 405.56,-283.99"/>
<polygon fill="blue" stroke="blue" points="408.72,-285.51 409.12,-274.92 402.21,-282.95 408.72,-285.51"/>
</g>
<!-- izbeigt&#45;&gt;izbeigšana -->
<g id="edge13" class="edge">
<title>izbeigt&#45;&gt;izbeigšana</title>
<path fill="none" stroke="green" d="M136.74,-889.56C128.48,-889.44 119.47,-889.31 110.48,-889.17"/>
<polygon fill="green" stroke="green" points="110.72,-885.68 100.67,-889.03 110.62,-892.67 110.72,-885.68"/>
</g>
<!-- izbeigt&#45;&gt;izbeigties -->
<g id="edge19" class="edge">
<title>izbeigt&#45;&gt;izbeigties</title>
<path fill="none" stroke="green" d="M170.03,-908.03C167.08,-928.85 162.16,-963.47 158.66,-988.13"/>
<polygon fill="green" stroke="green" points="155.23,-987.45 157.29,-997.84 162.16,-988.43 155.23,-987.45"/>
</g>
<!-- izbeigties&#45;&gt;izbeigšanās -->
<g id="edge15" class="edge">
<title>izbeigties&#45;&gt;izbeigšanās</title>
<path fill="none" stroke="green" d="M172.12,-1033.83C182.15,-1043.32 194.91,-1055.41 206.07,-1065.98"/>
<polygon fill="green" stroke="green" points="203.46,-1068.32 213.13,-1072.65 208.27,-1063.24 203.46,-1068.32"/>
</g>
<!-- nebeigt&#45;&gt;nebeidzams -->
<g id="edge69" class="edge">
<title>nebeigt&#45;&gt;nebeidzams</title>
<path fill="none" stroke="green" d="M558.08,-879.82C583.22,-893.76 622.55,-915.57 651.54,-931.64"/>
<polygon fill="green" stroke="green" points="649.56,-934.55 660.01,-936.34 652.96,-928.43 649.56,-934.55"/>
</g>
<!-- nepabeigt&#45;&gt;nepabeigts -->
<g id="edge27" class="edge">
<title>nepabeigt&#45;&gt;nepabeigts</title>
<path fill="none" stroke="green" d="M683.57,-388.89C693.82,-391.17 705.01,-393.64 715.82,-396.04"/>
<polygon fill="green" stroke="green" points="714.88,-399.41 725.41,-398.16 716.4,-392.58 714.88,-399.41"/>
</g>
<!-- pabeigt&#45;&gt;nepabeigt -->
<g id="edge23" class="edge">
<title>pabeigt&#45;&gt;nepabeigt</title>
<path fill="none" stroke="green" d="M512.58,-488.59C538.39,-467.16 585.24,-428.27 615.31,-403.31"/>
<polygon fill="green" stroke="green" points="617.43,-406.09 622.89,-397.01 612.96,-400.71 617.43,-406.09"/>
</g>
<!-- pabeigt&#45;&gt;pabeigšana -->
<g id="edge41" class="edge">
<title>pabeigt&#45;&gt;pabeigšana</title>
<path fill="none" stroke="green" d="M487.33,-486.58C479.33,-465.52 465.78,-429.83 456.28,-404.82"/>
<polygon fill="green" stroke="green" points="459.6,-403.69 452.78,-395.58 453.05,-406.17 459.6,-403.69"/>
</g>
<!-- pabeigt&#45;&gt;pabeigts -->
<g id="edge47" class="edge">
<title>pabeigt&#45;&gt;pabeigts</title>
<path fill="none" stroke="green" d="M524.52,-493.54C541.13,-487.83 561.93,-480.68 580.13,-474.42"/>
<polygon fill="green" stroke="green" points="581.03,-477.82 589.35,-471.25 578.75,-471.2 581.03,-477.82"/>
</g>
<!-- nepabeigts&#45;&gt;nepabeigtība -->
<g id="edge25" class="edge">
<title>nepabeigts&#45;&gt;nepabeigtība</title>
<path fill="none" stroke="green" d="M784.76,-424.66C796.56,-437.46 813.01,-455.3 826.38,-469.8"/>
<polygon fill="green" stroke="green" points="823.46,-471.8 832.81,-476.78 828.6,-467.05 823.46,-471.8"/>
</g>
<!-- nobeigt&#45;&gt;nobeigšana -->
<g id="edge29" class="edge">
<title>nobeigt&#45;&gt;nobeigšana</title>
<path fill="none" stroke="green" d="M469.91,-1006.25C483.67,-1032.56 510.08,-1083.03 526.46,-1114.33"/>
<polygon fill="green" stroke="green" points="523.15,-1115.57 530.89,-1122.8 529.36,-1112.32 523.15,-1115.57"/>
</g>
<!-- nobeigt&#45;&gt;nobeigties -->
<g id="edge35" class="edge">
<title>nobeigt&#45;&gt;nobeigties</title>
<path fill="none" stroke="green" d="M456.82,-1006.91C451.97,-1028.09 443.83,-1063.67 438.09,-1088.74"/>
<polygon fill="green" stroke="green" points="434.72,-1087.75 435.9,-1098.28 441.55,-1089.31 434.72,-1087.75"/>
</g>
<!-- nobeigt&#45;&gt;nobeigums -->
<g id="edge39" class="edge">
<title>nobeigt&#45;&gt;nobeigums</title>
<path fill="none" stroke="green" d="M484.82,-1003.14C511.83,-1019.05 556.06,-1045.1 587.18,-1063.42"/>
<polygon fill="green" stroke="green" points="585.09,-1066.25 595.48,-1068.31 588.64,-1060.22 585.09,-1066.25"/>
</g>
<!-- nobeigties&#45;&gt;nobeigšanās -->
<g id="edge31" class="edge">
<title>nobeigties&#45;&gt;nobeigšanās</title>
<path fill="none" stroke="green" d="M404.75,-1132.38C398.77,-1135.71 392.32,-1139.31 386,-1142.83"/>
<polygon fill="green" stroke="green" points="384.59,-1139.61 377.57,-1147.54 388,-1145.72 384.59,-1139.61"/>
</g>
<!-- nobeigts&#45;&gt;nobeigtība -->
<g id="edge37" class="edge">
<title>nobeigts&#45;&gt;nobeigtība</title>
<path fill="none" stroke="green" d="M1145.34,-1003.52C1103.02,-990.22 1030.3,-967.38 982.15,-952.25"/>
<polygon fill="green" stroke="green" points="983.4,-948.97 972.81,-949.32 981.3,-955.65 983.4,-948.97"/>
</g>
<!-- pabeigts&#45;&gt;pabeigtība -->
<g id="edge45" class="edge">
<title>pabeigts&#45;&gt;pabeigtība</title>
<path fill="none" stroke="green" d="M643.02,-475.34C664.2,-491.82 697.78,-517.93 721.99,-536.75"/>
<polygon fill="green" stroke="green" points="719.52,-539.27 729.57,-542.65 723.82,-533.75 719.52,-539.27"/>
</g>
<!-- pabeigts&#45;&gt;puspabeigts -->
<g id="edge55" class="edge">
<title>pabeigts&#45;&gt;puspabeigts</title>
<path fill="none" stroke="blue" d="M618.42,-441.91C609.96,-408.45 591.63,-335.95 581.41,-295.51"/>
<polygon fill="blue" stroke="blue" points="584.85,-294.85 579.01,-286.01 578.06,-296.56 584.85,-294.85"/>
</g>
<!-- puse&#45;&gt;pusbeigts -->
<g id="edge51" class="edge">
<title>puse&#45;&gt;pusbeigts</title>
<path fill="none" stroke="blue" d="M537.77,-34.73C515.58,-75.23 458.8,-178.85 431.58,-228.54"/>
<polygon fill="blue" stroke="blue" points="428.55,-226.78 426.82,-237.23 434.69,-230.14 428.55,-226.78"/>
</g>
<!-- puse&#45;&gt;puspabeigts -->
<g id="edge54" class="edge">
<title>puse&#45;&gt;puspabeigts</title>
<path fill="none" stroke="blue" d="M548.89,-35.89C553.54,-78.39 565.28,-185.7 570.96,-237.68"/>
<polygon fill="blue" stroke="blue" points="567.47,-237.99 572.04,-247.55 574.43,-237.22 567.47,-237.99"/>
</g>
<!-- beidzot&#45;&gt;visbeidzot -->
<g id="edge72" class="edge">
<title>beidzot&#45;&gt;visbeidzot</title>
<path fill="none" stroke="blue" d="M732.43,-713.16C767.7,-717.27 821.65,-723.56 862.66,-728.34"/>
<polygon fill="blue" stroke="blue" points="862.02,-731.79 872.36,-729.47 862.83,-724.84 862.02,-731.79"/>
</g>
<!-- beidzot&#45;&gt;visubeidzot -->
<g id="edge75" class="edge">
<title>beidzot&#45;&gt;visubeidzot</title>
<path fill="none" stroke="blue" d="M728.82,-700.37C764.86,-691.01 823.18,-675.88 865.74,-664.84"/>
<polygon fill="blue" stroke="blue" points="866.47,-668.26 875.27,-662.36 864.72,-661.48 866.47,-668.26"/>
</g>
<!-- nebeidzams&#45;&gt;nebeidzami -->
<g id="edge65" class="edge">
<title>nebeidzams&#45;&gt;nebeidzami</title>
<path fill="none" stroke="green" d="M702.38,-969.47C714.19,-984.53 731.6,-1006.74 745.19,-1024.07"/>
<polygon fill="green" stroke="green" points="742.42,-1026.21 751.35,-1031.92 747.93,-1021.89 742.42,-1026.21"/>
</g>
<!-- nebeidzams&#45;&gt;nebeidzamība -->
<g id="edge67" class="edge">
<title>nebeidzams&#45;&gt;nebeidzamība</title>
<path fill="none" stroke="green" d="M716.53,-936.89C728.18,-930.32 741.94,-922.55 754.55,-915.44"/>
<polygon fill="green" stroke="green" points="756.03,-918.62 763.02,-910.65 752.59,-912.52 756.03,-918.62"/>
</g>
<!-- viss&#45;&gt;visbeidzot -->
<g id="edge71" class="edge">
<title>viss&#45;&gt;visbeidzot</title>
<path fill="none" stroke="blue" d="M1179.4,-663.31C1132.77,-676.2 1030.99,-704.36 969.72,-721.3"/>
<polygon fill="blue" stroke="blue" points="968.93,-717.89 960.23,-723.92 970.8,-724.63 968.93,-717.89"/>
</g>
<!-- viss&#45;&gt;visubeidzot -->
<g id="edge74" class="edge">
<title>viss&#45;&gt;visubeidzot</title>
<path fill="none" stroke="blue" d="M1177.28,-655.96C1133.32,-655.12 1044.73,-653.43 983.65,-652.27"/>
<polygon fill="blue" stroke="blue" points="983.78,-648.77 973.71,-652.08 983.64,-655.77 983.78,-648.77"/>
</g>
<!-- # beidz, beig -->
<g id="node1" class="node">
<title># beidz, beig</title>
<polygon fill="lightblue" stroke="black" stroke-width="0" points="520.07,-745.7 444.07,-745.7 444.07,-709.7 520.07,-709.7 520.07,-745.7"/>
<text xml:space="preserve" text-anchor="middle" x="482.07" y="-722.65" font-family="Times New Roman,serif" font-size="14.00">beidz, beig</text>
</g>
<!-- beigas -->
<g id="node2" class="node">
<title>beigas</title>
<ellipse fill="white" stroke="black" stroke-width="0" cx="155.29" cy="-544.66" rx="34.46" ry="18"/>
<text xml:space="preserve" text-anchor="middle" x="155.29" y="-539.61" font-family="Times New Roman,serif" font-size="14.00">beigas</text>
</g>
<!-- beigt -->
<g id="node3" class="node">
<title>beigt</title>
<ellipse fill="white" stroke="black" stroke-width="0" cx="334.91" cy="-706.16" rx="29.34" ry="18"/>
<text xml:space="preserve" text-anchor="middle" x="334.91" y="-701.11" font-family="Times New Roman,serif" font-size="14.00">beigt</text>
</g>
<!-- beigšana -->
<g id="node4" class="node">
<title>beigšana</title>
<ellipse fill="white" stroke="black" stroke-width="0" cx="210.17" cy="-641.66" rx="43.16" ry="18"/>
<text xml:space="preserve" text-anchor="middle" x="210.17" y="-636.61" font-family="Times New Roman,serif" font-size="14.00">beigšana</text>
</g>
<!-- beigšanās -->
<g id="node5" class="node">
<title>beigšanās</title>
<ellipse fill="white" stroke="black" stroke-width="0" cx="191.52" cy="-390.34" rx="46.75" ry="18"/>
<text xml:space="preserve" text-anchor="middle" x="191.52" y="-385.29" font-family="Times New Roman,serif" font-size="14.00">beigšanās</text>
</g>
<!-- beigties -->
<g id="node6" class="node">
<title>beigties</title>
<ellipse fill="white" stroke="black" stroke-width="0" cx="254.87" cy="-508.58" rx="39.58" ry="18"/>
<text xml:space="preserve" text-anchor="middle" x="254.87" y="-503.53" font-family="Times New Roman,serif" font-size="14.00">beigties</text>
</g>
<!-- beigts -->
<g id="node7" class="node">
<title>beigts</title>
<ellipse fill="white" stroke="black" stroke-width="0" cx="342.66" cy="-444.2" rx="32.93" ry="18"/>
<text xml:space="preserve" text-anchor="middle" x="342.66" y="-439.15" font-family="Times New Roman,serif" font-size="14.00">beigts</text>
</g>
<!-- izbeigšana -->
<g id="node8" class="node">
<title>izbeigšana</title>
<ellipse fill="white" stroke="black" stroke-width="0" cx="49.82" cy="-888.27" rx="49.82" ry="18"/>
<text xml:space="preserve" text-anchor="middle" x="49.82" y="-883.22" font-family="Times New Roman,serif" font-size="14.00">izbeigšana</text>
</g>
<!-- izbeigt -->
<g id="node9" class="node">
<title>izbeigt</title>
<ellipse fill="white" stroke="black" stroke-width="0" cx="172.58" cy="-890.09" rx="36" ry="18"/>
<text xml:space="preserve" text-anchor="middle" x="172.58" y="-885.04" font-family="Times New Roman,serif" font-size="14.00">izbeigt</text>
</g>
<!-- izbeigšanās -->
<g id="node10" class="node">
<title>izbeigšanās</title>
<ellipse fill="white" stroke="black" stroke-width="0" cx="232" cy="-1090.52" rx="53.4" ry="18"/>
<text xml:space="preserve" text-anchor="middle" x="232" y="-1085.47" font-family="Times New Roman,serif" font-size="14.00">izbeigšanās</text>
</g>
<!-- izbeigties -->
<g id="node11" class="node">
<title>izbeigties</title>
<ellipse fill="white" stroke="black" stroke-width="0" cx="154.54" cy="-1017.19" rx="46.23" ry="18"/>
<text xml:space="preserve" text-anchor="middle" x="154.54" y="-1012.14" font-family="Times New Roman,serif" font-size="14.00">izbeigties</text>
</g>
<!-- nebeigt -->
<g id="node12" class="node">
<title>nebeigt</title>
<ellipse fill="white" stroke="black" stroke-width="0" cx="533.42" cy="-866.15" rx="38.04" ry="18"/>
<text xml:space="preserve" text-anchor="middle" x="533.42" y="-861.1" font-family="Times New Roman,serif" font-size="14.00">nebeigt</text>
</g>
<!-- nepabeigt -->
<g id="node13" class="node">
<title>nepabeigt</title>
<ellipse fill="white" stroke="black" stroke-width="0" cx="643.39" cy="-380" rx="46.75" ry="18"/>
<text xml:space="preserve" text-anchor="middle" x="643.39" y="-374.95" font-family="Times New Roman,serif" font-size="14.00">nepabeigt</text>
</g>
<!-- pabeigt -->
<g id="node14" class="node">
<title>pabeigt</title>
<ellipse fill="white" stroke="black" stroke-width="0" cx="493.96" cy="-504.05" rx="38.04" ry="18"/>
<text xml:space="preserve" text-anchor="middle" x="493.96" y="-499" font-family="Times New Roman,serif" font-size="14.00">pabeigt</text>
</g>
<!-- nepabeigtība -->
<g id="node15" class="node">
<title>nepabeigtība</title>
<ellipse fill="white" stroke="black" stroke-width="0" cx="849.53" cy="-494.92" rx="58" ry="18"/>
<text xml:space="preserve" text-anchor="middle" x="849.53" y="-489.87" font-family="Times New Roman,serif" font-size="14.00">nepabeigtība</text>
</g>
<!-- nepabeigts -->
<g id="node16" class="node">
<title>nepabeigts</title>
<ellipse fill="white" stroke="black" stroke-width="0" cx="769.29" cy="-407.88" rx="50.33" ry="18"/>
<text xml:space="preserve" text-anchor="middle" x="769.29" y="-402.83" font-family="Times New Roman,serif" font-size="14.00">nepabeigts</text>
</g>
<!-- nobeigšana -->
<g id="node17" class="node">
<title>nobeigšana</title>
<ellipse fill="white" stroke="black" stroke-width="0" cx="540.68" cy="-1141.51" rx="52.38" ry="18"/>
<text xml:space="preserve" text-anchor="middle" x="540.68" y="-1136.46" font-family="Times New Roman,serif" font-size="14.00">nobeigšana</text>
</g>
<!-- nobeigt -->
<g id="node18" class="node">
<title>nobeigt</title>
<ellipse fill="white" stroke="black" stroke-width="0" cx="460.91" cy="-989.06" rx="38.56" ry="18"/>
<text xml:space="preserve" text-anchor="middle" x="460.91" y="-984.01" font-family="Times New Roman,serif" font-size="14.00">nobeigt</text>
</g>
<!-- nobeigšanās -->
<g id="node19" class="node">
<title>nobeigšanās</title>
<ellipse fill="white" stroke="black" stroke-width="0" cx="348.39" cy="-1163.8" rx="55.96" ry="18"/>
<text xml:space="preserve" text-anchor="middle" x="348.39" y="-1158.75" font-family="Times New Roman,serif" font-size="14.00">nobeigšanās</text>
</g>
<!-- nobeigties -->
<g id="node20" class="node">
<title>nobeigties</title>
<ellipse fill="white" stroke="black" stroke-width="0" cx="431.51" cy="-1117.46" rx="48.79" ry="18"/>
<text xml:space="preserve" text-anchor="middle" x="431.51" y="-1112.41" font-family="Times New Roman,serif" font-size="14.00">nobeigties</text>
</g>
<!-- nobeigtība -->
<g id="node21" class="node">
<title>nobeigtība</title>
<ellipse fill="white" stroke="black" stroke-width="0" cx="933.84" cy="-937.08" rx="49.82" ry="18"/>
<text xml:space="preserve" text-anchor="middle" x="933.84" y="-932.03" font-family="Times New Roman,serif" font-size="14.00">nobeigtība</text>
</g>
<!-- nobeigts -->
<g id="node22" class="node">
<title>nobeigts</title>
<ellipse fill="white" stroke="black" stroke-width="0" cx="1179.2" cy="-1014.15" rx="42.14" ry="18"/>
<text xml:space="preserve" text-anchor="middle" x="1179.2" y="-1009.1" font-family="Times New Roman,serif" font-size="14.00" fill="gray">nobeigts</text>
</g>
<!-- nobeigums -->
<g id="node23" class="node">
<title>nobeigums</title>
<ellipse fill="white" stroke="black" stroke-width="0" cx="622.94" cy="-1084.48" rx="51.86" ry="18"/>
<text xml:space="preserve" text-anchor="middle" x="622.94" y="-1079.43" font-family="Times New Roman,serif" font-size="14.00">nobeigums</text>
</g>
<!-- pabeigšana -->
<g id="node24" class="node">
<title>pabeigšana</title>
<ellipse fill="white" stroke="black" stroke-width="0" cx="445.53" cy="-376.5" rx="51.86" ry="18"/>
<text xml:space="preserve" text-anchor="middle" x="445.53" y="-371.45" font-family="Times New Roman,serif" font-size="14.00">pabeigšana</text>
</g>
<!-- pabeigtība -->
<g id="node25" class="node">
<title>pabeigtība</title>
<ellipse fill="white" stroke="black" stroke-width="0" cx="751.57" cy="-559.76" rx="49.3" ry="18"/>
<text xml:space="preserve" text-anchor="middle" x="751.57" y="-554.71" font-family="Times New Roman,serif" font-size="14.00">pabeigtība</text>
</g>
<!-- pabeigts -->
<g id="node26" class="node">
<title>pabeigts</title>
<ellipse fill="white" stroke="black" stroke-width="0" cx="622.92" cy="-459.71" rx="41.63" ry="18"/>
<text xml:space="preserve" text-anchor="middle" x="622.92" y="-454.66" font-family="Times New Roman,serif" font-size="14.00">pabeigts</text>
</g>
<!-- piebeigt -->
<g id="node27" class="node">
<title>piebeigt</title>
<ellipse fill="white" stroke="black" stroke-width="0" cx="95.33" cy="-637.69" rx="40.6" ry="18"/>
<text xml:space="preserve" text-anchor="middle" x="95.33" y="-632.64" font-family="Times New Roman,serif" font-size="14.00">piebeigt</text>
</g>
<!-- pusbeigts -->
<g id="node28" class="node">
<title>pusbeigts</title>
<ellipse fill="white" stroke="black" stroke-width="0" cx="416.59" cy="-255.91" rx="45.72" ry="18"/>
<text xml:space="preserve" text-anchor="middle" x="416.59" y="-250.86" font-family="Times New Roman,serif" font-size="14.00">pusbeigts</text>
</g>
<!-- puse -->
<g id="node29" class="node">
<title>puse</title>
<ellipse fill="white" stroke="black" stroke-width="0" cx="546.93" cy="-18" rx="27.81" ry="18"/>
<text xml:space="preserve" text-anchor="middle" x="546.93" y="-12.95" font-family="Times New Roman,serif" font-size="14.00" fill="gray">puse</text>
</g>
<!-- puspabeigts -->
<g id="node30" class="node">
<title>puspabeigts</title>
<ellipse fill="white" stroke="black" stroke-width="0" cx="574.14" cy="-266.78" rx="54.42" ry="18"/>
<text xml:space="preserve" text-anchor="middle" x="574.14" y="-261.73" font-family="Times New Roman,serif" font-size="14.00">puspabeigts</text>
</g>
<!-- sabeigt -->
<g id="node31" class="node">
<title>sabeigt</title>
<ellipse fill="white" stroke="black" stroke-width="0" cx="100.49" cy="-742.58" rx="37.02" ry="18"/>
<text xml:space="preserve" text-anchor="middle" x="100.49" y="-737.53" font-family="Times New Roman,serif" font-size="14.00">sabeigt</text>
</g>
<!-- beidzams -->
<g id="node32" class="node">
<title>beidzams</title>
<ellipse fill="white" stroke="black" stroke-width="0" cx="312.52" cy="-898.73" rx="46.23" ry="18"/>
<text xml:space="preserve" text-anchor="middle" x="312.52" y="-893.68" font-family="Times New Roman,serif" font-size="14.00">beidzams</text>
</g>
<!-- beidzējs -->
<g id="node33" class="node">
<title>beidzējs</title>
<ellipse fill="white" stroke="black" stroke-width="0" cx="207.76" cy="-785.47" rx="41.12" ry="18"/>
<text xml:space="preserve" text-anchor="middle" x="207.76" y="-780.42" font-family="Times New Roman,serif" font-size="14.00">beidzējs</text>
</g>
<!-- beidzot -->
<g id="node34" class="node">
<title>beidzot</title>
<ellipse fill="white" stroke="black" stroke-width="0" cx="695.92" cy="-708.91" rx="38.04" ry="18"/>
<text xml:space="preserve" text-anchor="middle" x="695.92" y="-703.86" font-family="Times New Roman,serif" font-size="14.00">beidzot</text>
</g>
<!-- nebeidzami -->
<g id="node35" class="node">
<title>nebeidzami</title>
<ellipse fill="white" stroke="black" stroke-width="0" cx="765.75" cy="-1050.29" rx="53.91" ry="18"/>
<text xml:space="preserve" text-anchor="middle" x="765.75" y="-1045.24" font-family="Times New Roman,serif" font-size="14.00">nebeidzami</text>
</g>
<!-- nebeidzams -->
<g id="node36" class="node">
<title>nebeidzams</title>
<ellipse fill="white" stroke="black" stroke-width="0" cx="689.02" cy="-952.42" rx="54.93" ry="18"/>
<text xml:space="preserve" text-anchor="middle" x="689.02" y="-947.37" font-family="Times New Roman,serif" font-size="14.00">nebeidzams</text>
</g>
<!-- nebeidzamība -->
<g id="node37" class="node">
<title>nebeidzamība</title>
<ellipse fill="white" stroke="black" stroke-width="0" cx="792.71" cy="-893.9" rx="62.61" ry="18"/>
<text xml:space="preserve" text-anchor="middle" x="792.71" y="-888.85" font-family="Times New Roman,serif" font-size="14.00">nebeidzamība</text>
</g>
<!-- visbeidzot -->
<g id="node38" class="node">
<title>visbeidzot</title>
<ellipse fill="white" stroke="black" stroke-width="0" cx="920.07" cy="-735.03" rx="48.79" ry="18"/>
<text xml:space="preserve" text-anchor="middle" x="920.07" y="-729.98" font-family="Times New Roman,serif" font-size="14.00">visbeidzot</text>
</g>
<!-- viss -->
<g id="node39" class="node">
<title>viss</title>
<ellipse fill="white" stroke="black" stroke-width="0" cx="1204.11" cy="-656.47" rx="27" ry="18"/>
<text xml:space="preserve" text-anchor="middle" x="1204.11" y="-651.42" font-family="Times New Roman,serif" font-size="14.00" fill="gray">viss</text>
</g>
<!-- visubeidzot -->
<g id="node40" class="node">
<title>visubeidzot</title>
<ellipse fill="white" stroke="black" stroke-width="0" cx="918.93" cy="-651.03" rx="53.4" ry="18"/>
<text xml:space="preserve" text-anchor="middle" x="918.93" y="-645.98" font-family="Times New Roman,serif" font-size="14.00">visubeidzot</text>
</g>
</g>
</svg>
