<?xml version="1.0" encoding="UTF-8" standalone="no"?>
<!DOCTYPE svg PUBLIC "-//W3C//DTD SVG 1.1//EN"
 "http://www.w3.org/Graphics/SVG/1.1/DTD/svg11.dtd">
<!-- Generated by graphviz version 13.1.2 (20250808.2320)
 -->
<!-- Pages: 1 -->
<svg width="481pt" height="392pt"
 viewBox="0.00 0.00 481.00 392.00" xmlns="http://www.w3.org/2000/svg" xmlns:xlink="http://www.w3.org/1999/xlink">
<g id="graph0" class="graph" transform="scale(1 1) rotate(0) translate(4 388)">
<polygon fill="white" stroke="none" points="-4,4 -4,-388 477.16,-388 477.16,4 -4,4"/>
<!-- # bes&#45;&gt;besījams -->
<g id="edge1" class="edge">
<title># bes&#45;&gt;besījams</title>
<path fill="none" stroke="#cccccc" d="M72.68,-239.44C123.12,-269.5 216.1,-324.9 260.37,-351.29"/>
</g>
<!-- # bes&#45;&gt;besīt -->
<g id="edge5" class="edge">
<title># bes&#45;&gt;besīt</title>
<path fill="none" stroke="#cccccc" d="M72.44,-198.67C93.7,-185.59 120.61,-169.04 138.53,-158.02"/>
</g>
<!-- # bes&#45;&gt;besis -->
<g id="edge3" class="edge">
<title># bes&#45;&gt;besis</title>
<path fill="none" stroke="#cccccc" d="M76.65,-230.33C127.26,-245.3 215.14,-271.31 258.83,-284.24"/>
</g>
<!-- # bes&#45;&gt;besīties -->
<g id="edge6" class="edge">
<title># bes&#45;&gt;besīties</title>
<path fill="none" stroke="#cccccc" d="M76.65,-219C122.93,-219 200.38,-219 246.7,-219"/>
</g>
<!-- # bes&#45;&gt;bess -->
<g id="edge8" class="edge">
<title># bes&#45;&gt;bess</title>
<path fill="none" stroke="#cccccc" d="M76.65,-204.73C128.35,-185.45 218.92,-151.67 261.58,-135.76"/>
</g>
<!-- # bes&#45;&gt;izbesīt -->
<g id="edge10" class="edge">
<title># bes&#45;&gt;izbesīt</title>
<path fill="none" stroke="#cccccc" d="M63.39,-198.62C113,-158.2 222.83,-68.71 266.57,-33.07"/>
</g>
<!-- # bes&#45;&gt;izbesīties -->
<g id="edge12" class="edge">
<title># bes&#45;&gt;izbesīties</title>
<path fill="none" stroke="#cccccc" d="M76.44,-229.85C151.49,-251.23 317.67,-298.58 391.44,-319.6"/>
</g>
<!-- besīt&#45;&gt;besījams -->
<g id="edge2" class="edge">
<title>besīt&#45;&gt;besījams</title>
<path fill="none" stroke="green" d="M169.39,-162.54C190.6,-200.17 242.67,-292.55 268.71,-338.76"/>
<polygon fill="green" stroke="green" points="265.59,-340.35 273.55,-347.35 271.69,-336.92 265.59,-340.35"/>
</g>
<!-- besīt&#45;&gt;besis -->
<g id="edge4" class="edge">
<title>besīt&#45;&gt;besis</title>
<path fill="none" stroke="green" d="M173.11,-161.35C194.63,-186.69 237.78,-237.5 263.46,-267.74"/>
<polygon fill="green" stroke="green" points="260.71,-269.91 269.85,-275.26 266.05,-265.38 260.71,-269.91"/>
</g>
<!-- besīt&#45;&gt;besīties -->
<g id="edge7" class="edge">
<title>besīt&#45;&gt;besīties</title>
<path fill="none" stroke="green" d="M180.27,-157.89C199.43,-169.17 228.56,-186.32 251.09,-199.59"/>
<polygon fill="green" stroke="green" points="249.22,-202.55 259.62,-204.61 252.77,-196.52 249.22,-202.55"/>
</g>
<!-- besīt&#45;&gt;bess -->
<g id="edge9" class="edge">
<title>besīt&#45;&gt;bess</title>
<path fill="none" stroke="green" d="M186.37,-141.97C204.23,-139.23 228.09,-135.58 247.76,-132.56"/>
<polygon fill="green" stroke="green" points="248.22,-136.03 257.58,-131.06 247.16,-129.11 248.22,-136.03"/>
</g>
<!-- besīt&#45;&gt;izbesīt -->
<g id="edge11" class="edge">
<title>besīt&#45;&gt;izbesīt</title>
<path fill="none" stroke="green" d="M174.54,-131.07C195.77,-109.14 235.6,-68.03 260.93,-41.88"/>
<polygon fill="green" stroke="green" points="263.42,-44.34 267.86,-34.72 258.39,-39.47 263.42,-44.34"/>
</g>
<!-- besīties&#45;&gt;izbesīties -->
<g id="edge13" class="edge">
<title>besīties&#45;&gt;izbesīties</title>
<path fill="none" stroke="green" d="M305.36,-234.2C329.33,-253.09 370.44,-285.47 398.14,-307.3"/>
<polygon fill="green" stroke="green" points="395.77,-309.89 405.79,-313.33 400.1,-304.39 395.77,-309.89"/>
</g>
<!-- # bes -->
<g id="node1" class="node">
<title># bes</title>
<polygon fill="lightblue" stroke="black" stroke-width="0" points="76.75,-239.5 0,-239.5 0,-198.5 76.75,-198.5 76.75,-239.5"/>
<text xml:space="preserve" text-anchor="middle" x="38.38" y="-222.2" font-family="Times New Roman,serif" font-size="14.00">bes</text>
<text xml:space="preserve" text-anchor="middle" x="38.38" y="-205.7" font-family="Times New Roman,serif" font-size="14.00">(borrowed)</text>
</g>
<!-- besījams -->
<g id="node2" class="node">
<title>besījams</title>
<ellipse fill="white" stroke="black" stroke-width="0" cx="285.06" cy="-366" rx="43.67" ry="18"/>
<text xml:space="preserve" text-anchor="middle" x="285.06" y="-360.95" font-family="Times New Roman,serif" font-size="14.00">besījams</text>
</g>
<!-- besīt -->
<g id="node3" class="node">
<title>besīt</title>
<ellipse fill="white" stroke="black" stroke-width="0" cx="159.07" cy="-146" rx="28.32" ry="18"/>
<text xml:space="preserve" text-anchor="middle" x="159.07" y="-140.95" font-family="Times New Roman,serif" font-size="14.00">besīt</text>
</g>
<!-- besis -->
<g id="node4" class="node">
<title>besis</title>
<ellipse fill="white" stroke="black" stroke-width="0" cx="285.06" cy="-292" rx="29.34" ry="18"/>
<text xml:space="preserve" text-anchor="middle" x="285.06" y="-286.95" font-family="Times New Roman,serif" font-size="14.00">besis</text>
</g>
<!-- besīties -->
<g id="node5" class="node">
<title>besīties</title>
<ellipse fill="white" stroke="black" stroke-width="0" cx="285.06" cy="-219" rx="38.56" ry="18"/>
<text xml:space="preserve" text-anchor="middle" x="285.06" y="-213.95" font-family="Times New Roman,serif" font-size="14.00">besīties</text>
</g>
<!-- bess -->
<g id="node6" class="node">
<title>bess</title>
<ellipse fill="white" stroke="black" stroke-width="0" cx="285.06" cy="-127" rx="27" ry="18"/>
<text xml:space="preserve" text-anchor="middle" x="285.06" y="-121.95" font-family="Times New Roman,serif" font-size="14.00">bess</text>
</g>
<!-- izbesīt -->
<g id="node7" class="node">
<title>izbesīt</title>
<ellipse fill="white" stroke="black" stroke-width="0" cx="285.06" cy="-18" rx="34.97" ry="18"/>
<text xml:space="preserve" text-anchor="middle" x="285.06" y="-12.95" font-family="Times New Roman,serif" font-size="14.00">izbesīt</text>
</g>
<!-- izbesīties -->
<g id="node8" class="node">
<title>izbesīties</title>
<ellipse fill="white" stroke="black" stroke-width="0" cx="427.95" cy="-330" rx="45.21" ry="18"/>
<text xml:space="preserve" text-anchor="middle" x="427.95" y="-324.95" font-family="Times New Roman,serif" font-size="14.00">izbesīties</text>
</g>
</g>
</svg>
