<?xml version="1.0" encoding="UTF-8" standalone="no"?>
<!DOCTYPE svg PUBLIC "-//W3C//DTD SVG 1.1//EN"
 "http://www.w3.org/Graphics/SVG/1.1/DTD/svg11.dtd">
<!-- Generated by graphviz version 13.1.2 (20250808.2320)
 -->
<!-- Pages: 1 -->
<svg width="516pt" height="408pt"
 viewBox="0.00 0.00 516.00 408.00" xmlns="http://www.w3.org/2000/svg" xmlns:xlink="http://www.w3.org/1999/xlink">
<g id="graph0" class="graph" transform="scale(1 1) rotate(0) translate(4 404)">
<polygon fill="white" stroke="none" points="-4,4 -4,-404 511.96,-404 511.96,4 -4,4"/>
<!-- # bik&#45;&gt;bikstīšana___bik -->
<g id="edge1" class="edge">
<title># bik&#45;&gt;bikstīšana___bik</title>
<path fill="none" stroke="#cccccc" d="M67.42,-218.39C120.19,-255.45 230.71,-333.05 278.08,-366.32"/>
</g>
<!-- # bik&#45;&gt;bikstīt___bik -->
<g id="edge2" class="edge">
<title># bik&#45;&gt;bikstīt___bik</title>
<path fill="none" stroke="#cccccc" d="M76.68,-187.2C95.27,-181.81 117.42,-175.4 134.72,-170.39"/>
</g>
<!-- # bik&#45;&gt;iebikstīt___bik -->
<g id="edge3" class="edge">
<title># bik&#45;&gt;iebikstīt___bik</title>
<path fill="none" stroke="#cccccc" d="M76.48,-213.99C129.28,-236.16 223.57,-275.74 271.19,-295.73"/>
</g>
<!-- # bik&#45;&gt;nobikstīt___bik -->
<g id="edge4" class="edge">
<title># bik&#45;&gt;nobikstīt___bik</title>
<path fill="none" stroke="#cccccc" d="M76.48,-203.38C125.31,-210.27 209.61,-222.18 259.68,-229.25"/>
</g>
<!-- # bik&#45;&gt;pabikstīt___bik -->
<g id="edge5" class="edge">
<title># bik&#45;&gt;pabikstīt___bik</title>
<path fill="none" stroke="#cccccc" d="M68.18,-177.53C121.3,-141.04 231.18,-65.56 278.24,-33.24"/>
</g>
<!-- # bik&#45;&gt;pabikstīties___bik -->
<g id="edge6" class="edge">
<title># bik&#45;&gt;pabikstīties___bik</title>
<path fill="none" stroke="#cccccc" d="M76.46,-201.56C151.7,-208.61 319.44,-224.31 404.1,-232.23"/>
</g>
<!-- # bik&#45;&gt;piebikstīt___bik -->
<g id="edge7" class="edge">
<title># bik&#45;&gt;piebikstīt___bik</title>
<path fill="none" stroke="#cccccc" d="M76.48,-192.77C124.74,-186.13 207.66,-174.74 257.92,-167.84"/>
</g>
<!-- # bik&#45;&gt;sabikstīt___bik -->
<g id="edge8" class="edge">
<title># bik&#45;&gt;sabikstīt___bik</title>
<path fill="none" stroke="#cccccc" d="M76.48,-182.3C129,-160.65 222.56,-122.09 270.42,-102.37"/>
</g>
<!-- bikstīt___bik&#45;&gt;bikstīšana___bik -->
<g id="edge9" class="edge">
<title>bikstīt___bik&#45;&gt;bikstīšana___bik</title>
<path fill="none" stroke="green" d="M175.97,-178.9C199.05,-216.88 255.19,-309.24 283.11,-355.16"/>
<polygon fill="green" stroke="green" points="279.96,-356.72 288.14,-363.45 285.94,-353.08 279.96,-356.72"/>
</g>
<!-- bikstīt___bik&#45;&gt;iebikstīt___bik -->
<g id="edge10" class="edge">
<title>bikstīt___bik&#45;&gt;iebikstīt___bik</title>
<path fill="none" stroke="green" d="M180.26,-177.9C203.55,-203.33 249.34,-253.33 276.88,-283.39"/>
<polygon fill="green" stroke="green" points="274.11,-285.54 283.44,-290.56 279.27,-280.82 274.11,-285.54"/>
</g>
<!-- bikstīt___bik&#45;&gt;nobikstīt___bik -->
<g id="edge11" class="edge">
<title>bikstīt___bik&#45;&gt;nobikstīt___bik</title>
<path fill="none" stroke="green" d="M188.69,-174.55C209.37,-185.84 240.09,-202.61 263.92,-215.62"/>
<polygon fill="green" stroke="green" points="262.22,-218.68 272.67,-220.4 265.57,-212.53 262.22,-218.68"/>
</g>
<!-- bikstīt___bik&#45;&gt;pabikstīt___bik -->
<g id="edge12" class="edge">
<title>bikstīt___bik&#45;&gt;pabikstīt___bik</title>
<path fill="none" stroke="green" d="M180.26,-146.32C203.43,-121.37 248.86,-72.45 276.44,-42.74"/>
<polygon fill="green" stroke="green" points="278.78,-45.37 283.02,-35.66 273.65,-40.6 278.78,-45.37"/>
</g>
<!-- bikstīt___bik&#45;&gt;piebikstīt___bik -->
<g id="edge14" class="edge">
<title>bikstīt___bik&#45;&gt;piebikstīt___bik</title>
<path fill="none" stroke="green" d="M198.41,-162C212.22,-162 228.69,-162 244.29,-162"/>
<polygon fill="green" stroke="green" points="243.92,-165.5 253.92,-162 243.92,-158.5 243.92,-165.5"/>
</g>
<!-- bikstīt___bik&#45;&gt;sabikstīt___bik -->
<g id="edge15" class="edge">
<title>bikstīt___bik&#45;&gt;sabikstīt___bik</title>
<path fill="none" stroke="green" d="M188.99,-149.46C209.72,-138.3 240.34,-121.81 264.09,-109.02"/>
<polygon fill="green" stroke="green" points="265.64,-112.16 272.79,-104.34 262.32,-106 265.64,-112.16"/>
</g>
<!-- pabikstīt___bik&#45;&gt;pabikstīties___bik -->
<g id="edge13" class="edge">
<title>pabikstīt___bik&#45;&gt;pabikstīties___bik</title>
<path fill="none" stroke="green" d="M313.14,-34.82C339.55,-72.71 403.86,-164.96 435.65,-210.57"/>
<polygon fill="green" stroke="green" points="432.64,-212.38 441.23,-218.58 438.39,-208.37 432.64,-212.38"/>
</g>
<!-- # bik -->
<g id="node1" class="node">
<title># bik</title>
<polygon fill="lightblue" stroke="black" stroke-width="0" points="76.75,-218.5 0,-218.5 0,-177.5 76.75,-177.5 76.75,-218.5"/>
<text xml:space="preserve" text-anchor="middle" x="38.38" y="-201.2" font-family="Times New Roman,serif" font-size="14.00">bik</text>
<text xml:space="preserve" text-anchor="middle" x="38.38" y="-184.7" font-family="Times New Roman,serif" font-size="14.00">(borrowed)</text>
</g>
<!-- bikstīšana___bik -->
<g id="node2" class="node">
<title>bikstīšana___bik</title>
<ellipse fill="white" stroke="black" stroke-width="0" cx="300.42" cy="-382" rx="47.77" ry="18"/>
<text xml:space="preserve" text-anchor="middle" x="300.42" y="-376.95" font-family="Times New Roman,serif" font-size="14.00">bikstīšana</text>
</g>
<!-- bikstīt___bik -->
<g id="node3" class="node">
<title>bikstīt___bik</title>
<ellipse fill="white" stroke="black" stroke-width="0" cx="164.7" cy="-162" rx="33.95" ry="18"/>
<text xml:space="preserve" text-anchor="middle" x="164.7" y="-156.95" font-family="Times New Roman,serif" font-size="14.00">bikstīt</text>
</g>
<!-- iebikstīt___bik -->
<g id="node4" class="node">
<title>iebikstīt___bik</title>
<ellipse fill="white" stroke="black" stroke-width="0" cx="300.42" cy="-308" rx="40.6" ry="18"/>
<text xml:space="preserve" text-anchor="middle" x="300.42" y="-302.95" font-family="Times New Roman,serif" font-size="14.00">iebikstīt</text>
</g>
<!-- nobikstīt___bik -->
<g id="node5" class="node">
<title>nobikstīt___bik</title>
<ellipse fill="white" stroke="black" stroke-width="0" cx="300.42" cy="-235" rx="43.16" ry="18"/>
<text xml:space="preserve" text-anchor="middle" x="300.42" y="-229.95" font-family="Times New Roman,serif" font-size="14.00">nobikstīt</text>
</g>
<!-- pabikstīt___bik -->
<g id="node6" class="node">
<title>pabikstīt___bik</title>
<ellipse fill="white" stroke="black" stroke-width="0" cx="300.42" cy="-18" rx="42.65" ry="18"/>
<text xml:space="preserve" text-anchor="middle" x="300.42" y="-12.95" font-family="Times New Roman,serif" font-size="14.00">pabikstīt</text>
</g>
<!-- pabikstīties___bik -->
<g id="node7" class="node">
<title>pabikstīties___bik</title>
<ellipse fill="white" stroke="black" stroke-width="0" cx="455.07" cy="-237" rx="52.89" ry="18"/>
<text xml:space="preserve" text-anchor="middle" x="455.07" y="-231.95" font-family="Times New Roman,serif" font-size="14.00">pabikstīties</text>
</g>
<!-- piebikstīt___bik -->
<g id="node8" class="node">
<title>piebikstīt___bik</title>
<ellipse fill="white" stroke="black" stroke-width="0" cx="300.42" cy="-162" rx="45.21" ry="18"/>
<text xml:space="preserve" text-anchor="middle" x="300.42" y="-156.95" font-family="Times New Roman,serif" font-size="14.00">piebikstīt</text>
</g>
<!-- sabikstīt___bik -->
<g id="node9" class="node">
<title>sabikstīt___bik</title>
<ellipse fill="white" stroke="black" stroke-width="0" cx="300.42" cy="-90" rx="41.63" ry="18"/>
<text xml:space="preserve" text-anchor="middle" x="300.42" y="-84.95" font-family="Times New Roman,serif" font-size="14.00">sabikstīt</text>
</g>
</g>
</svg>
