<?xml version="1.0" encoding="UTF-8" standalone="no"?>
<!DOCTYPE svg PUBLIC "-//W3C//DTD SVG 1.1//EN"
 "http://www.w3.org/Graphics/SVG/1.1/DTD/svg11.dtd">
<!-- Generated by graphviz version 13.1.2 (20250808.2320)
 -->
<!-- Pages: 1 -->
<svg width="727pt" height="962pt"
 viewBox="0.00 0.00 727.00 962.00" xmlns="http://www.w3.org/2000/svg" xmlns:xlink="http://www.w3.org/1999/xlink">
<g id="graph0" class="graph" transform="scale(1 1) rotate(0) translate(4 958)">
<polygon fill="white" stroke="none" points="-4,4 -4,-958 723.17,-958 723.17,4 -4,4"/>
<!-- # bik, bišk, bišķ, bišķiņ, biškiņ&#45;&gt;bik___bik__bišk__bišķ__bišķiņ__biškiņ -->
<g id="edge1" class="edge">
<title># bik, bišk, bišķ, bišķiņ, biškiņ&#45;&gt;bik___bik__bišk__bišķ__bišķiņ__biškiņ</title>
<path fill="none" stroke="#cccccc" d="M97.6,-552.31C130.36,-622.55 238.5,-854.42 268.68,-919.11"/>
</g>
<!-- # bik, bišk, bišķ, bišķiņ, biškiņ&#45;&gt;bikucīt___bik__bišk__bišķ__bišķiņ__biškiņ -->
<g id="edge2" class="edge">
<title># bik, bišk, bišķ, bišķiņ, biškiņ&#45;&gt;bikucīt___bik__bišk__bišķ__bišķiņ__biškiņ</title>
<path fill="none" stroke="#cccccc" d="M105.35,-552.25C164.31,-617.77 349.11,-823.15 402.68,-882.68"/>
</g>
<!-- # bik, bišk, bišķ, bišķiņ, biškiņ&#45;&gt;biškiņ___bik__bišk__bišķ__bišķiņ__biškiņ -->
<g id="edge3" class="edge">
<title># bik, bišk, bišķ, bišķiņ, biškiņ&#45;&gt;biškiņ___bik__bišk__bišķ__bišķiņ__biškiņ</title>
<path fill="none" stroke="#cccccc" d="M123.13,-552.43C161.55,-574.86 222.06,-610.19 254.42,-629.08"/>
</g>
<!-- # bik, bišk, bišķ, bišķiņ, biškiņ&#45;&gt;bišks___bik__bišk__bišķ__bišķiņ__biškiņ -->
<g id="edge4" class="edge">
<title># bik, bišk, bišķ, bišķiņ, biškiņ&#45;&gt;bišks___bik__bišk__bišķ__bišķiņ__biškiņ</title>
<path fill="none" stroke="#cccccc" d="M130.07,-552.5C225.25,-597.94 451.35,-705.87 524.61,-740.85"/>
</g>
<!-- # bik, bišk, bišķ, bišķiņ, biškiņ&#45;&gt;bišku___bik__bišk__bišķ__bišķiņ__biškiņ -->
<g id="edge5" class="edge">
<title># bik, bišk, bišķ, bišķiņ, biškiņ&#45;&gt;bišku___bik__bišk__bišķ__bišķiņ__biškiņ</title>
<path fill="none" stroke="#cccccc" d="M148.47,-552.43C221.03,-576.6 338.55,-615.75 390.83,-633.16"/>
</g>
<!-- # bik, bišk, bišķ, bišķiņ, biškiņ&#45;&gt;biškucīt___bik__bišk__bišķ__bišķiņ__biškiņ -->
<g id="edge6" class="edge">
<title># bik, bišk, bišķ, bišķiņ, biškiņ&#45;&gt;biškucīt___bik__bišk__bišķ__bišķiņ__biškiņ</title>
<path fill="none" stroke="#cccccc" d="M160.15,-552.44C261.29,-580.75 439.92,-630.76 514.15,-651.53"/>
</g>
<!-- # bik, bišk, bišķ, bišķiņ, biškiņ&#45;&gt;bišķi___bik__bišk__bišķ__bišķiņ__biškiņ -->
<g id="edge7" class="edge">
<title># bik, bišk, bišķ, bišķiņ, biškiņ&#45;&gt;bišķi___bik__bišk__bišķ__bišķiņ__biškiņ</title>
<path fill="none" stroke="#cccccc" d="M113.31,-511.54C178.15,-460.89 344.85,-330.65 399.63,-287.86"/>
</g>
<!-- # bik, bišk, bišķ, bišķiņ, biškiņ&#45;&gt;bišķiņ___bik__bišk__bišķ__bišķiņ__biškiņ -->
<g id="edge8" class="edge">
<title># bik, bišk, bišķ, bišķiņ, biškiņ&#45;&gt;bišķiņ___bik__bišk__bišķ__bišķiņ__biškiņ</title>
<path fill="none" stroke="#cccccc" d="M102.91,-511.76C139.09,-462.22 231.52,-335.66 264.57,-290.4"/>
</g>
<!-- # bik, bišk, bišķ, bišķiņ, biškiņ&#45;&gt;bišķis___bik__bišk__bišķ__bišķiņ__biškiņ -->
<g id="edge9" class="edge">
<title># bik, bišk, bišķ, bišķiņ, biškiņ&#45;&gt;bišķis___bik__bišk__bišķ__bišķiņ__biškiņ</title>
<path fill="none" stroke="#cccccc" d="M174.08,-533.89C277.76,-536.14 445.81,-539.78 515.79,-541.3"/>
</g>
<!-- # bik, bišk, bišķ, bišķiņ, biškiņ&#45;&gt;bišķīt___bik__bišk__bišķ__bišķiņ__biškiņ -->
<g id="edge10" class="edge">
<title># bik, bišk, bišķ, bišķiņ, biškiņ&#45;&gt;bišķīt___bik__bišk__bišķ__bišķiņ__biškiņ</title>
<path fill="none" stroke="#cccccc" d="M115.61,-511.54C201.56,-449.81 456.87,-266.43 528.87,-214.72"/>
</g>
<!-- # bik, bišk, bišķ, bišķiņ, biškiņ&#45;&gt;bišķītiņ___bik__bišk__bišķ__bišķiņ__biškiņ -->
<g id="edge11" class="edge">
<title># bik, bišk, bišķ, bišķiņ, biškiņ&#45;&gt;bišķītiņ___bik__bišk__bišķ__bišķiņ__biškiņ</title>
<path fill="none" stroke="#cccccc" d="M119.88,-511.69C227.04,-445.24 565.6,-235.31 657.44,-178.37"/>
</g>
<!-- # bik, bišk, bišķ, bišķiņ, biškiņ&#45;&gt;bišķītis___bik__bišk__bišķ__bišķiņ__biškiņ -->
<g id="edge12" class="edge">
<title># bik, bišk, bišķ, bišķiņ, biškiņ&#45;&gt;bišķītis___bik__bišk__bišķ__bišķiņ__biškiņ</title>
<path fill="none" stroke="#cccccc" d="M174.06,-515.89C306.87,-491.27 554.48,-445.38 645.71,-428.47"/>
</g>
<!-- # bik, bišk, bišķ, bišķiņ, biškiņ&#45;&gt;bišķīts___bik__bišk__bišķ__bišķiņ__biškiņ -->
<g id="edge13" class="edge">
<title># bik, bišk, bišķ, bišķiņ, biškiņ&#45;&gt;bišķīts___bik__bišk__bišķ__bišķiņ__biškiņ</title>
<path fill="none" stroke="#cccccc" d="M132.22,-552.29C249.62,-605.1 562.02,-745.65 654.49,-787.24"/>
</g>
<!-- # bik, bišk, bišķ, bišķiņ, biškiņ&#45;&gt;mazbišķiņ___bik__bišk__bišķ__bišķiņ__biškiņ -->
<g id="edge14" class="edge">
<title># bik, bišk, bišķ, bišķiņ, biškiņ&#45;&gt;mazbišķiņ___bik__bišk__bišķ__bišķiņ__biškiņ</title>
<path fill="none" stroke="#cccccc" d="M96.1,-511.77C127.27,-432.69 240.57,-145.27 269.69,-71.4"/>
</g>
<!-- bik___bik__bišk__bišķ__bišķiņ__biškiņ&#45;&gt;bikucīt___bik__bišk__bišķ__bišķiņ__biškiņ -->
<g id="edge15" class="edge">
<title>bik___bik__bišk__bišķ__bišķiņ__biškiņ&#45;&gt;bikucīt___bik__bišk__bišķ__bišķiņ__biškiņ</title>
<path fill="none" stroke="green" d="M302.56,-929.56C322.24,-924.27 350.58,-916.66 374.06,-910.36"/>
<polygon fill="green" stroke="green" points="374.92,-913.75 383.67,-907.78 373.11,-906.99 374.92,-913.75"/>
</g>
<!-- biškiņ___bik__bišk__bišķ__bišķiņ__biškiņ&#45;&gt;bišku___bik__bišk__bišķ__bišķiņ__biškiņ -->
<g id="edge17" class="edge">
<title>biškiņ___bik__bišk__bišķ__bišķiņ__biškiņ&#45;&gt;bišku___bik__bišk__bišķ__bišķiņ__biškiņ</title>
<path fill="none" stroke="green" d="M310.87,-642C330.11,-642 354.72,-642 375.32,-642"/>
<polygon fill="green" stroke="green" points="375.1,-645.5 385.1,-642 375.1,-638.5 375.1,-645.5"/>
</g>
<!-- bišku___bik__bišk__bišķ__bišķiņ__biškiņ&#45;&gt;bišks___bik__bišk__bišķ__bišķiņ__biškiņ -->
<g id="edge16" class="edge">
<title>bišku___bik__bišk__bišķ__bišķiņ__biškiņ&#45;&gt;bišks___bik__bišk__bišķ__bišķiņ__biškiņ</title>
<path fill="none" stroke="green" d="M435.18,-656.38C457.23,-675.24 496.1,-708.49 521.7,-730.39"/>
<polygon fill="green" stroke="green" points="519.13,-732.79 529,-736.63 523.68,-727.47 519.13,-732.79"/>
</g>
<!-- bišku___bik__bišk__bišķ__bišķiņ__biškiņ&#45;&gt;biškucīt___bik__bišk__bišķ__bišķiņ__biškiņ -->
<g id="edge18" class="edge">
<title>bišku___bik__bišk__bišķ__bišķiņ__biškiņ&#45;&gt;biškucīt___bik__bišk__bišķ__bišķiņ__biškiņ</title>
<path fill="none" stroke="green" d="M447.23,-646.26C462.41,-648.51 481.44,-651.32 498.79,-653.88"/>
<polygon fill="green" stroke="green" points="497.99,-657.3 508.39,-655.3 499.01,-650.38 497.99,-657.3"/>
</g>
<!-- bišku___bik__bišk__bišķ__bišķiņ__biškiņ&#45;&gt;bišķis___bik__bišk__bišķ__bišķiņ__biškiņ -->
<g id="edge20" class="edge">
<title>bišku___bik__bišk__bišķ__bišķiņ__biškiņ&#45;&gt;bišķis___bik__bišk__bišķ__bišķiņ__biškiņ</title>
<path fill="none" stroke="green" d="M436.52,-627.88C458.13,-611.08 494.44,-582.85 519.49,-563.36"/>
<polygon fill="green" stroke="green" points="521.55,-566.2 527.3,-557.3 517.25,-560.67 521.55,-566.2"/>
</g>
<!-- bišķi___bik__bišk__bišķ__bišķiņ__biškiņ&#45;&gt;bišķīt___bik__bišk__bišķ__bišķiņ__biškiņ -->
<g id="edge21" class="edge">
<title>bišķi___bik__bišk__bišķ__bišķiņ__biškiņ&#45;&gt;bišķīt___bik__bišk__bišķ__bišķiņ__biškiņ</title>
<path fill="none" stroke="green" d="M439.03,-262.27C459.69,-250.55 491.72,-232.36 515.53,-218.84"/>
<polygon fill="green" stroke="green" points="517.21,-221.91 524.18,-213.93 513.76,-215.83 517.21,-221.91"/>
</g>
<!-- bišķiņ___bik__bišk__bišķ__bišķiņ__biškiņ&#45;&gt;bišķi___bik__bišk__bišķ__bišķiņ__biškiņ -->
<g id="edge19" class="edge">
<title>bišķiņ___bik__bišk__bišķ__bišķiņ__biškiņ&#45;&gt;bišķi___bik__bišk__bišķ__bišķiņ__biškiņ</title>
<path fill="none" stroke="green" d="M310.87,-274C330.78,-274 356.43,-274 377.46,-274"/>
<polygon fill="green" stroke="green" points="377.39,-277.5 387.39,-274 377.39,-270.5 377.39,-277.5"/>
</g>
<!-- bišķis___bik__bišk__bišķ__bišķiņ__biškiņ&#45;&gt;bišķītis___bik__bišk__bišķ__bišķiņ__biškiņ -->
<g id="edge23" class="edge">
<title>bišķis___bik__bišk__bišķ__bišķiņ__biškiņ&#45;&gt;bišķītis___bik__bišk__bišķ__bišķiņ__biškiņ</title>
<path fill="none" stroke="green" d="M565.25,-527.04C587.62,-506.5 628.07,-469.34 654.38,-445.18"/>
<polygon fill="green" stroke="green" points="656.6,-447.89 661.6,-438.55 651.87,-442.74 656.6,-447.89"/>
</g>
<!-- bišķis___bik__bišk__bišķ__bišķiņ__biškiņ&#45;&gt;bišķīts___bik__bišk__bišķ__bišķiņ__biškiņ -->
<g id="edge24" class="edge">
<title>bišķis___bik__bišk__bišķ__bišķiņ__biškiņ&#45;&gt;bišķīts___bik__bišk__bišķ__bišķiņ__biškiņ</title>
<path fill="none" stroke="green" d="M557.54,-558.86C579.63,-602.32 638.67,-718.46 665.73,-771.68"/>
<polygon fill="green" stroke="green" points="662.5,-773.06 670.15,-780.39 668.74,-769.89 662.5,-773.06"/>
</g>
<!-- bišķīt___bik__bišk__bišķ__bišķiņ__biškiņ&#45;&gt;bišķītiņ___bik__bišk__bišķ__bišķiņ__biškiņ -->
<g id="edge22" class="edge">
<title>bišķīt___bik__bišk__bišķ__bišķiņ__biškiņ&#45;&gt;bišķītiņ___bik__bišk__bišķ__bišķiņ__biškiņ</title>
<path fill="none" stroke="green" d="M576.04,-193.33C593.49,-188.39 616.56,-181.86 636.5,-176.21"/>
<polygon fill="green" stroke="green" points="637.38,-179.6 646.05,-173.51 635.48,-172.86 637.38,-179.6"/>
</g>
<!-- mazs&#45;&gt;mazbišķiņ___bik__bišk__bišķ__bišķiņ__biškiņ -->
<g id="edge25" class="edge">
<title>mazs&#45;&gt;mazbišķiņ___bik__bišk__bišķ__bišķiņ__biškiņ</title>
<path fill="none" stroke="blue" d="M115.93,-23.31C144.01,-28.68 188.11,-37.1 223,-43.77"/>
<polygon fill="blue" stroke="blue" points="222.01,-47.14 232.49,-45.58 223.32,-40.27 222.01,-47.14"/>
</g>
<!-- bišķiņš&#45;&gt;mazbišķiņ___bik__bišk__bišķ__bišķiņ__biškiņ -->
<g id="edge26" class="edge">
<title>bišķiņš&#45;&gt;mazbišķiņ___bik__bišk__bišķ__bišķiņ__biškiņ</title>
<path fill="none" stroke="blue" d="M121.38,-83.65C149.35,-78.3 189.89,-70.56 222.52,-64.32"/>
<polygon fill="blue" stroke="blue" points="223.05,-67.79 232.21,-62.47 221.74,-60.91 223.05,-67.79"/>
</g>
<!-- # bik, bišk, bišķ, bišķiņ, biškiņ -->
<g id="node1" class="node">
<title># bik, bišk, bišķ, bišķiņ, biškiņ</title>
<polygon fill="lightblue" stroke="black" stroke-width="0" points="174.25,-552.5 0,-552.5 0,-511.5 174.25,-511.5 174.25,-552.5"/>
<text xml:space="preserve" text-anchor="middle" x="87.12" y="-535.2" font-family="Times New Roman,serif" font-size="14.00">bik, bišk, bišķ, bišķiņ, biškiņ</text>
<text xml:space="preserve" text-anchor="middle" x="87.12" y="-518.7" font-family="Times New Roman,serif" font-size="14.00">(borrowed)</text>
</g>
<!-- bik___bik__bišk__bišķ__bišķiņ__biškiņ -->
<g id="node2" class="node">
<title>bik___bik__bišk__bišķ__bišķiņ__biškiņ</title>
<ellipse fill="white" stroke="black" stroke-width="0" cx="277.55" cy="-936" rx="27" ry="18"/>
<text xml:space="preserve" text-anchor="middle" x="277.55" y="-930.95" font-family="Times New Roman,serif" font-size="14.00">bik</text>
</g>
<!-- bikucīt___bik__bišk__bišķ__bišķiņ__biškiņ -->
<g id="node3" class="node">
<title>bikucīt___bik__bišk__bišķ__bišķiņ__biškiņ</title>
<ellipse fill="white" stroke="black" stroke-width="0" cx="417.37" cy="-899" rx="36.51" ry="18"/>
<text xml:space="preserve" text-anchor="middle" x="417.37" y="-893.95" font-family="Times New Roman,serif" font-size="14.00">bikucīt</text>
</g>
<!-- biškiņ___bik__bišk__bišķ__bišķiņ__biškiņ -->
<g id="node4" class="node">
<title>biškiņ___bik__bišk__bišķ__bišķiņ__biškiņ</title>
<ellipse fill="white" stroke="black" stroke-width="0" cx="277.55" cy="-642" rx="33.44" ry="18"/>
<text xml:space="preserve" text-anchor="middle" x="277.55" y="-636.95" font-family="Times New Roman,serif" font-size="14.00">biškiņ</text>
</g>
<!-- bišks___bik__bišk__bišķ__bišķiņ__biškiņ -->
<g id="node5" class="node">
<title>bišks___bik__bišk__bišķ__bišķiņ__biškiņ</title>
<ellipse fill="white" stroke="black" stroke-width="0" cx="547.97" cy="-752" rx="29.86" ry="18"/>
<text xml:space="preserve" text-anchor="middle" x="547.97" y="-746.95" font-family="Times New Roman,serif" font-size="14.00">bišks</text>
</g>
<!-- bišku___bik__bišk__bišķ__bišķiņ__biškiņ -->
<g id="node6" class="node">
<title>bišku___bik__bišk__bišķ__bišķiņ__biškiņ</title>
<ellipse fill="white" stroke="black" stroke-width="0" cx="417.37" cy="-642" rx="30.88" ry="18"/>
<text xml:space="preserve" text-anchor="middle" x="417.37" y="-636.95" font-family="Times New Roman,serif" font-size="14.00">bišku</text>
</g>
<!-- biškucīt___bik__bišk__bišķ__bišķiņ__biškiņ -->
<g id="node7" class="node">
<title>biškucīt___bik__bišk__bišķ__bišķiņ__biškiņ</title>
<ellipse fill="white" stroke="black" stroke-width="0" cx="547.97" cy="-661" rx="40.09" ry="18"/>
<text xml:space="preserve" text-anchor="middle" x="547.97" y="-655.95" font-family="Times New Roman,serif" font-size="14.00">biškucīt</text>
</g>
<!-- bišķi___bik__bišk__bišķ__bišķiņ__biškiņ -->
<g id="node8" class="node">
<title>bišķi___bik__bišk__bišķ__bišķiņ__biškiņ</title>
<ellipse fill="white" stroke="black" stroke-width="0" cx="417.37" cy="-274" rx="28.83" ry="18"/>
<text xml:space="preserve" text-anchor="middle" x="417.37" y="-268.95" font-family="Times New Roman,serif" font-size="14.00">bišķi</text>
</g>
<!-- bišķiņ___bik__bišk__bišķ__bišķiņ__biškiņ -->
<g id="node9" class="node">
<title>bišķiņ___bik__bišk__bišķ__bišķiņ__biškiņ</title>
<ellipse fill="white" stroke="black" stroke-width="0" cx="277.55" cy="-274" rx="33.44" ry="18"/>
<text xml:space="preserve" text-anchor="middle" x="277.55" y="-268.95" font-family="Times New Roman,serif" font-size="14.00">bišķiņ</text>
</g>
<!-- bišķis___bik__bišk__bišķ__bišķiņ__biškiņ -->
<g id="node10" class="node">
<title>bišķis___bik__bišk__bišķ__bišķiņ__biškiņ</title>
<ellipse fill="white" stroke="black" stroke-width="0" cx="547.97" cy="-542" rx="32.41" ry="18"/>
<text xml:space="preserve" text-anchor="middle" x="547.97" y="-536.95" font-family="Times New Roman,serif" font-size="14.00">bišķis</text>
</g>
<!-- bišķīt___bik__bišk__bišķ__bišķiņ__biškiņ -->
<g id="node11" class="node">
<title>bišķīt___bik__bišk__bišķ__bišķiņ__biškiņ</title>
<ellipse fill="white" stroke="black" stroke-width="0" cx="547.97" cy="-201" rx="31.39" ry="18"/>
<text xml:space="preserve" text-anchor="middle" x="547.97" y="-195.95" font-family="Times New Roman,serif" font-size="14.00">bišķīt</text>
</g>
<!-- bišķītiņ___bik__bišk__bišķ__bišķiņ__biškiņ -->
<g id="node12" class="node">
<title>bišķītiņ___bik__bišk__bišķ__bišķiņ__biškiņ</title>
<ellipse fill="white" stroke="black" stroke-width="0" cx="680.62" cy="-164" rx="38.56" ry="18"/>
<text xml:space="preserve" text-anchor="middle" x="680.62" y="-158.95" font-family="Times New Roman,serif" font-size="14.00">bišķītiņ</text>
</g>
<!-- bišķītis___bik__bišk__bišķ__bišķiņ__biškiņ -->
<g id="node13" class="node">
<title>bišķītis___bik__bišk__bišķ__bišķiņ__biškiņ</title>
<ellipse fill="white" stroke="black" stroke-width="0" cx="680.62" cy="-422" rx="37.53" ry="18"/>
<text xml:space="preserve" text-anchor="middle" x="680.62" y="-416.95" font-family="Times New Roman,serif" font-size="14.00">bišķītis</text>
</g>
<!-- bišķīts___bik__bišk__bišķ__bišķiņ__biškiņ -->
<g id="node14" class="node">
<title>bišķīts___bik__bišk__bišķ__bišķiņ__biškiņ</title>
<ellipse fill="white" stroke="black" stroke-width="0" cx="680.62" cy="-799" rx="34.97" ry="18"/>
<text xml:space="preserve" text-anchor="middle" x="680.62" y="-793.95" font-family="Times New Roman,serif" font-size="14.00">bišķīts</text>
</g>
<!-- mazbišķiņ___bik__bišk__bišķ__bišķiņ__biškiņ -->
<g id="node15" class="node">
<title>mazbišķiņ___bik__bišk__bišķ__bišķiņ__biškiņ</title>
<ellipse fill="white" stroke="black" stroke-width="0" cx="277.55" cy="-54" rx="49.3" ry="18"/>
<text xml:space="preserve" text-anchor="middle" x="277.55" y="-48.95" font-family="Times New Roman,serif" font-size="14.00">mazbišķiņ</text>
</g>
<!-- mazs -->
<g id="node16" class="node">
<title>mazs</title>
<ellipse fill="white" stroke="black" stroke-width="0" cx="87.12" cy="-18" rx="30.37" ry="18"/>
<text xml:space="preserve" text-anchor="middle" x="87.12" y="-12.95" font-family="Times New Roman,serif" font-size="14.00" fill="gray">mazs</text>
</g>
<!-- bišķiņš -->
<g id="node17" class="node">
<title>bišķiņš</title>
<ellipse fill="white" stroke="black" stroke-width="0" cx="87.12" cy="-90" rx="37.02" ry="18"/>
<text xml:space="preserve" text-anchor="middle" x="87.12" y="-84.95" font-family="Times New Roman,serif" font-size="14.00" fill="gray">bišķiņš</text>
</g>
</g>
</svg>
