<?xml version="1.0" encoding="UTF-8" standalone="no"?>
<!DOCTYPE svg PUBLIC "-//W3C//DTD SVG 1.1//EN"
 "http://www.w3.org/Graphics/SVG/1.1/DTD/svg11.dtd">
<!-- Generated by graphviz version 13.1.2 (20250808.2320)
 -->
<!-- Pages: 1 -->
<svg width="332pt" height="190pt"
 viewBox="0.00 0.00 332.00 190.00" xmlns="http://www.w3.org/2000/svg" xmlns:xlink="http://www.w3.org/1999/xlink">
<g id="graph0" class="graph" transform="scale(1 1) rotate(0) translate(4 186)">
<polygon fill="white" stroke="none" points="-4,4 -4,-186 328.41,-186 328.41,4 -4,4"/>
<!-- # bikst&#45;&gt;Biksti___bikst -->
<g id="edge1" class="edge">
<title># bikst&#45;&gt;Biksti___bikst</title>
<path fill="none" stroke="#cccccc" d="M53.96,-135.58C71.52,-141.39 94.69,-149.05 112.55,-154.95"/>
</g>
<!-- # bikst&#45;&gt;Mazbiksti___bikst -->
<g id="edge2" class="edge">
<title># bikst&#45;&gt;Mazbiksti___bikst</title>
<path fill="none" stroke="#cccccc" d="M53.66,-123.15C96.09,-117.02 179.45,-104.97 231.22,-97.49"/>
</g>
<!-- Biksti___bikst&#45;&gt;Mazbiksti___bikst -->
<g id="edge4" class="edge">
<title>Biksti___bikst&#45;&gt;Mazbiksti___bikst</title>
<path fill="none" stroke="blue" d="M164.52,-151.62C184.83,-140.49 215,-123.95 238.71,-110.96"/>
<polygon fill="blue" stroke="blue" points="240.34,-114.06 247.43,-106.18 236.98,-107.92 240.34,-114.06"/>
</g>
<!-- mazs&#45;&gt;Mazbiksti___bikst -->
<g id="edge3" class="edge">
<title>mazs&#45;&gt;Mazbiksti___bikst</title>
<path fill="none" stroke="blue" d="M163.62,-29.89C183.88,-40.99 214.51,-57.78 238.54,-70.95"/>
<polygon fill="blue" stroke="blue" points="236.61,-73.88 247.06,-75.62 239.97,-67.74 236.61,-73.88"/>
</g>
<!-- # bikst -->
<g id="node1" class="node">
<title># bikst</title>
<polygon fill="lightblue" stroke="black" stroke-width="0" points="54,-145 0,-145 0,-109 54,-109 54,-145"/>
<text xml:space="preserve" text-anchor="middle" x="27" y="-121.95" font-family="Times New Roman,serif" font-size="14.00">bikst</text>
</g>
<!-- Biksti___bikst -->
<g id="node2" class="node">
<title>Biksti___bikst</title>
<ellipse fill="white" stroke="black" stroke-width="0" cx="140.93" cy="-164" rx="32.93" ry="18"/>
<text xml:space="preserve" text-anchor="middle" x="140.93" y="-158.95" font-family="Times New Roman,serif" font-size="14.00">Biksti</text>
</g>
<!-- Mazbiksti___bikst -->
<g id="node3" class="node">
<title>Mazbiksti___bikst</title>
<ellipse fill="white" stroke="black" stroke-width="0" cx="276.13" cy="-91" rx="48.28" ry="18"/>
<text xml:space="preserve" text-anchor="middle" x="276.13" y="-85.95" font-family="Times New Roman,serif" font-size="14.00">Mazbiksti</text>
</g>
<!-- mazs -->
<g id="node4" class="node">
<title>mazs</title>
<ellipse fill="white" stroke="black" stroke-width="0" cx="140.93" cy="-18" rx="30.37" ry="18"/>
<text xml:space="preserve" text-anchor="middle" x="140.93" y="-12.95" font-family="Times New Roman,serif" font-size="14.00" fill="gray">mazs</text>
</g>
</g>
</svg>
