<?xml version="1.0" encoding="UTF-8" standalone="no"?>
<!DOCTYPE svg PUBLIC "-//W3C//DTD SVG 1.1//EN"
 "http://www.w3.org/Graphics/SVG/1.1/DTD/svg11.dtd">
<!-- Generated by graphviz version 13.1.2 (20250808.2320)
 -->
<!-- Pages: 1 -->
<svg width="316pt" height="354pt"
 viewBox="0.00 0.00 316.00 354.00" xmlns="http://www.w3.org/2000/svg" xmlns:xlink="http://www.w3.org/1999/xlink">
<g id="graph0" class="graph" transform="scale(1 1) rotate(0) translate(4 350)">
<polygon fill="white" stroke="none" points="-4,4 -4,-350 312.04,-350 312.04,4 -4,4"/>
<!-- # blāv&#45;&gt;blāvēt___blāv -->
<g id="edge1" class="edge">
<title># blāv&#45;&gt;blāvēt___blāv</title>
<path fill="none" stroke="#cccccc" d="M52.97,-181.86C100.75,-214.74 201.69,-284.18 244.97,-313.96"/>
</g>
<!-- # blāv&#45;&gt;blāvi___blāv -->
<g id="edge2" class="edge">
<title># blāv&#45;&gt;blāvi___blāv</title>
<path fill="none" stroke="#cccccc" d="M53.88,-172.23C100.03,-186.36 193.75,-215.06 239.33,-229.02"/>
</g>
<!-- # blāv&#45;&gt;blāvot___blāv -->
<g id="edge3" class="edge">
<title># blāv&#45;&gt;blāvot___blāv</title>
<path fill="none" stroke="#cccccc" d="M53.88,-164.11C97.6,-164.3 183.99,-164.66 231.72,-164.86"/>
</g>
<!-- # blāv&#45;&gt;blāvs___blāv -->
<g id="edge4" class="edge">
<title># blāv&#45;&gt;blāvs___blāv</title>
<path fill="none" stroke="#cccccc" d="M53.92,-172.77C71.48,-178.71 94.57,-186.52 112.01,-192.42"/>
</g>
<!-- # blāv&#45;&gt;blāvums___blāv -->
<g id="edge5" class="edge">
<title># blāv&#45;&gt;blāvums___blāv</title>
<path fill="none" stroke="#cccccc" d="M53.88,-155.88C97.35,-142.75 183.03,-116.87 230.92,-102.41"/>
</g>
<!-- # blāv&#45;&gt;pablāvs___blāv -->
<g id="edge6" class="edge">
<title># blāv&#45;&gt;pablāvs___blāv</title>
<path fill="none" stroke="#cccccc" d="M53.88,-147.54C101.01,-118.67 197.73,-59.44 242.15,-32.23"/>
</g>
<!-- blāvs___blāv&#45;&gt;blāvēt___blāv -->
<g id="edge7" class="edge">
<title>blāvs___blāv&#45;&gt;blāvēt___blāv</title>
<path fill="none" stroke="green" d="M154.2,-216.07C175.7,-237.91 215.73,-278.57 241.16,-304.41"/>
<polygon fill="green" stroke="green" points="238.61,-306.81 248.12,-311.48 243.6,-301.9 238.61,-306.81"/>
</g>
<!-- blāvs___blāv&#45;&gt;blāvi___blāv -->
<g id="edge8" class="edge">
<title>blāvs___blāv&#45;&gt;blāvi___blāv</title>
<path fill="none" stroke="green" d="M165.58,-208.55C183.74,-213.78 208.15,-220.81 228.17,-226.57"/>
<polygon fill="green" stroke="green" points="227.03,-229.89 237.61,-229.29 228.97,-223.16 227.03,-229.89"/>
</g>
<!-- blāvs___blāv&#45;&gt;blāvot___blāv -->
<g id="edge9" class="edge">
<title>blāvs___blāv&#45;&gt;blāvot___blāv</title>
<path fill="none" stroke="green" d="M165.58,-193.45C182.69,-188.52 205.37,-181.99 224.68,-176.43"/>
<polygon fill="green" stroke="green" points="225.5,-179.84 234.14,-173.71 223.56,-173.11 225.5,-179.84"/>
</g>
<!-- blāvs___blāv&#45;&gt;blāvums___blāv -->
<g id="edge10" class="edge">
<title>blāvs___blāv&#45;&gt;blāvums___blāv</title>
<path fill="none" stroke="green" d="M155.97,-186.53C176.79,-168.37 212.76,-137.01 237.52,-115.42"/>
<polygon fill="green" stroke="green" points="239.71,-118.16 244.95,-108.95 235.11,-112.88 239.71,-118.16"/>
</g>
<!-- blāvs___blāv&#45;&gt;pablāvs___blāv -->
<g id="edge11" class="edge">
<title>blāvs___blāv&#45;&gt;pablāvs___blāv</title>
<path fill="none" stroke="green" d="M150.46,-184.76C172.08,-153.12 220,-82.97 246.28,-44.5"/>
<polygon fill="green" stroke="green" points="249.17,-46.48 251.92,-36.25 243.39,-42.53 249.17,-46.48"/>
</g>
<!-- # blāv -->
<g id="node1" class="node">
<title># blāv</title>
<polygon fill="lightblue" stroke="black" stroke-width="0" points="54,-182 0,-182 0,-146 54,-146 54,-182"/>
<text xml:space="preserve" text-anchor="middle" x="27" y="-158.95" font-family="Times New Roman,serif" font-size="14.00">blāv</text>
</g>
<!-- blāvēt___blāv -->
<g id="node2" class="node">
<title>blāvēt___blāv</title>
<ellipse fill="white" stroke="black" stroke-width="0" cx="265.39" cy="-328" rx="33.44" ry="18"/>
<text xml:space="preserve" text-anchor="middle" x="265.39" y="-322.95" font-family="Times New Roman,serif" font-size="14.00">blāvēt</text>
</g>
<!-- blāvi___blāv -->
<g id="node3" class="node">
<title>blāvi___blāv</title>
<ellipse fill="white" stroke="black" stroke-width="0" cx="265.39" cy="-237" rx="29.34" ry="18"/>
<text xml:space="preserve" text-anchor="middle" x="265.39" y="-231.95" font-family="Times New Roman,serif" font-size="14.00">blāvi</text>
</g>
<!-- blāvot___blāv -->
<g id="node4" class="node">
<title>blāvot___blāv</title>
<ellipse fill="white" stroke="black" stroke-width="0" cx="265.39" cy="-165" rx="33.95" ry="18"/>
<text xml:space="preserve" text-anchor="middle" x="265.39" y="-159.95" font-family="Times New Roman,serif" font-size="14.00">blāvot</text>
</g>
<!-- blāvs___blāv -->
<g id="node5" class="node">
<title>blāvs___blāv</title>
<ellipse fill="white" stroke="black" stroke-width="0" cx="138.37" cy="-201" rx="30.37" ry="18"/>
<text xml:space="preserve" text-anchor="middle" x="138.37" y="-195.95" font-family="Times New Roman,serif" font-size="14.00">blāvs</text>
</g>
<!-- blāvums___blāv -->
<g id="node6" class="node">
<title>blāvums___blāv</title>
<ellipse fill="white" stroke="black" stroke-width="0" cx="265.39" cy="-92" rx="42.65" ry="18"/>
<text xml:space="preserve" text-anchor="middle" x="265.39" y="-86.95" font-family="Times New Roman,serif" font-size="14.00">blāvums</text>
</g>
<!-- pablāvs___blāv -->
<g id="node7" class="node">
<title>pablāvs___blāv</title>
<ellipse fill="white" stroke="black" stroke-width="0" cx="265.39" cy="-18" rx="39.07" ry="18"/>
<text xml:space="preserve" text-anchor="middle" x="265.39" y="-12.95" font-family="Times New Roman,serif" font-size="14.00">pablāvs</text>
</g>
</g>
</svg>
