<?xml version="1.0" encoding="UTF-8" standalone="no"?>
<!DOCTYPE svg PUBLIC "-//W3C//DTD SVG 1.1//EN"
 "http://www.w3.org/Graphics/SVG/1.1/DTD/svg11.dtd">
<!-- Generated by graphviz version 13.1.2 (20250808.2320)
 -->
<!-- Pages: 1 -->
<svg width="418pt" height="372pt"
 viewBox="0.00 0.00 418.00 372.00" xmlns="http://www.w3.org/2000/svg" xmlns:xlink="http://www.w3.org/1999/xlink">
<g id="graph0" class="graph" transform="scale(1 1) rotate(0) translate(4 368)">
<polygon fill="white" stroke="none" points="-4,4 -4,-368 413.97,-368 413.97,4 -4,4"/>
<!-- # blāķ&#45;&gt;blāķis___blāķ -->
<g id="edge1" class="edge">
<title># blāķ&#45;&gt;blāķis___blāķ</title>
<path fill="none" stroke="#cccccc" d="M57.66,-215.08C82.4,-228.58 119.4,-248.78 143.01,-261.67"/>
</g>
<!-- # blāķ&#45;&gt;Blāķis___blāķ -->
<g id="edge2" class="edge">
<title># blāķ&#45;&gt;Blāķis___blāķ</title>
<path fill="none" stroke="#cccccc" d="M57.83,-194.65C115.1,-181.16 248.63,-149.69 309.49,-135.36"/>
</g>
<!-- # blāķ&#45;&gt;Blāķe___blāķ -->
<g id="edge3" class="edge">
<title># blāķ&#45;&gt;Blāķe___blāķ</title>
<path fill="none" stroke="#cccccc" d="M57.83,-204.13C114.95,-210.77 247.95,-226.22 309.02,-233.32"/>
</g>
<!-- # blāķ&#45;&gt;Kalnblāķi___blāķ -->
<g id="edge4" class="edge">
<title># blāķ&#45;&gt;Kalnblāķi___blāķ</title>
<path fill="none" stroke="#cccccc" d="M48.01,-183.27C73.99,-154.71 124.76,-98.9 150.24,-70.89"/>
</g>
<!-- # blāķ&#45;&gt;rūtiņpapīrblāķis___blāķ -->
<g id="edge5" class="edge">
<title># blāķ&#45;&gt;rūtiņpapīrblāķis___blāķ</title>
<path fill="none" stroke="#cccccc" d="M57.83,-213.61C114.37,-240.07 245.21,-301.31 307.1,-330.28"/>
</g>
<!-- blāķis___blāķ&#45;&gt;Blāķis___blāķ -->
<g id="edge6" class="edge">
<title>blāķis___blāķ&#45;&gt;Blāķis___blāķ</title>
<path fill="none" stroke="purple" d="M185.05,-259.2C215.38,-233.47 277.97,-180.36 313.53,-150.2"/>
<polygon fill="purple" stroke="purple" points="315.43,-153.18 320.79,-144.04 310.91,-147.84 315.43,-153.18"/>
</g>
<!-- blāķis___blāķ&#45;&gt;Blāķe___blāķ -->
<g id="edge7" class="edge">
<title>blāķis___blāķ&#45;&gt;Blāķe___blāķ</title>
<path fill="none" stroke="purple" d="M197.18,-267.64C225.43,-261.57 268.21,-252.37 299.53,-245.64"/>
<polygon fill="purple" stroke="purple" points="299.98,-249.12 309.02,-243.6 298.51,-242.28 299.98,-249.12"/>
</g>
<!-- blāķis___blāķ&#45;&gt;rūtiņpapīrblāķis___blāķ -->
<g id="edge11" class="edge">
<title>blāķis___blāķ&#45;&gt;rūtiņpapīrblāķis___blāķ</title>
<path fill="none" stroke="blue" d="M192.99,-284.62C219.29,-295.62 260.95,-313.06 293.18,-326.54"/>
<polygon fill="blue" stroke="blue" points="291.73,-329.73 302.31,-330.36 294.43,-323.27 291.73,-329.73"/>
</g>
<!-- kalns&#45;&gt;Kalnblāķi___blāķ -->
<g id="edge8" class="edge">
<title>kalns&#45;&gt;Kalnblāķi___blāķ</title>
<path fill="none" stroke="blue" d="M58.62,-82.8C75.26,-78.32 97.17,-72.42 116.82,-67.13"/>
<polygon fill="blue" stroke="blue" points="117.55,-70.56 126.3,-64.58 115.73,-63.8 117.55,-70.56"/>
</g>
<!-- Blāķi&#45;&gt;Kalnblāķi___blāķ -->
<g id="edge9" class="edge">
<title>Blāķi&#45;&gt;Kalnblāķi___blāķ</title>
<path fill="none" stroke="blue" d="M58.94,-25.29C75.54,-29.75 97.29,-35.61 116.81,-40.86"/>
<polygon fill="blue" stroke="blue" points="115.66,-44.18 126.22,-43.4 117.48,-37.42 115.66,-44.18"/>
</g>
<!-- rūtiņpapīrs&#45;&gt;rūtiņpapīrblāķis___blāķ -->
<g id="edge10" class="edge">
<title>rūtiņpapīrs&#45;&gt;rūtiņpapīrblāķis___blāķ</title>
<path fill="none" stroke="blue" d="M217.38,-346C230.83,-346 245.72,-346 260.36,-346"/>
<polygon fill="blue" stroke="blue" points="259.96,-349.5 269.96,-346 259.96,-342.5 259.96,-349.5"/>
</g>
<!-- # blāķ -->
<g id="node1" class="node">
<title># blāķ</title>
<polygon fill="lightblue" stroke="black" stroke-width="0" points="57.88,-219 3.88,-219 3.88,-183 57.88,-183 57.88,-219"/>
<text xml:space="preserve" text-anchor="middle" x="30.88" y="-195.95" font-family="Times New Roman,serif" font-size="14.00">blāķ</text>
</g>
<!-- blāķis___blāķ -->
<g id="node2" class="node">
<title>blāķis___blāķ</title>
<ellipse fill="white" stroke="black" stroke-width="0" cx="166.6" cy="-274" rx="32.93" ry="18"/>
<text xml:space="preserve" text-anchor="middle" x="166.6" y="-268.95" font-family="Times New Roman,serif" font-size="14.00">blāķis</text>
</g>
<!-- Blāķis___blāķ -->
<g id="node3" class="node">
<title>Blāķis___blāķ</title>
<ellipse fill="white" stroke="black" stroke-width="0" cx="340.7" cy="-128" rx="34.46" ry="18"/>
<text xml:space="preserve" text-anchor="middle" x="340.7" y="-122.95" font-family="Times New Roman,serif" font-size="14.00">Blāķis</text>
</g>
<!-- Blāķe___blāķ -->
<g id="node4" class="node">
<title>Blāķe___blāķ</title>
<ellipse fill="white" stroke="black" stroke-width="0" cx="340.7" cy="-237" rx="32.41" ry="18"/>
<text xml:space="preserve" text-anchor="middle" x="340.7" y="-231.95" font-family="Times New Roman,serif" font-size="14.00">Blāķe</text>
</g>
<!-- Kalnblāķi___blāķ -->
<g id="node5" class="node">
<title>Kalnblāķi___blāķ</title>
<ellipse fill="white" stroke="black" stroke-width="0" cx="166.6" cy="-54" rx="47.26" ry="18"/>
<text xml:space="preserve" text-anchor="middle" x="166.6" y="-48.95" font-family="Times New Roman,serif" font-size="14.00">Kalnblāķi</text>
</g>
<!-- rūtiņpapīrblāķis___blāķ -->
<g id="node6" class="node">
<title>rūtiņpapīrblāķis___blāķ</title>
<ellipse fill="white" stroke="black" stroke-width="0" cx="340.7" cy="-346" rx="69.26" ry="18"/>
<text xml:space="preserve" text-anchor="middle" x="340.7" y="-340.95" font-family="Times New Roman,serif" font-size="14.00">rūtiņpapīrblāķis</text>
</g>
<!-- kalns -->
<g id="node7" class="node">
<title>kalns</title>
<ellipse fill="white" stroke="black" stroke-width="0" cx="30.88" cy="-90" rx="30.37" ry="18"/>
<text xml:space="preserve" text-anchor="middle" x="30.88" y="-84.95" font-family="Times New Roman,serif" font-size="14.00" fill="gray">kalns</text>
</g>
<!-- Blāķi -->
<g id="node8" class="node">
<title>Blāķi</title>
<ellipse fill="white" stroke="black" stroke-width="0" cx="30.88" cy="-18" rx="30.88" ry="18"/>
<text xml:space="preserve" text-anchor="middle" x="30.88" y="-12.95" font-family="Times New Roman,serif" font-size="14.00" fill="gray">Blāķi</text>
</g>
<!-- rūtiņpapīrs -->
<g id="node9" class="node">
<title>rūtiņpapīrs</title>
<ellipse fill="white" stroke="black" stroke-width="0" cx="166.6" cy="-346" rx="50.84" ry="18"/>
<text xml:space="preserve" text-anchor="middle" x="166.6" y="-340.95" font-family="Times New Roman,serif" font-size="14.00" fill="gray">rūtiņpapīrs</text>
</g>
</g>
</svg>
