<?xml version="1.0" encoding="UTF-8" standalone="no"?>
<!DOCTYPE svg PUBLIC "-//W3C//DTD SVG 1.1//EN"
 "http://www.w3.org/Graphics/SVG/1.1/DTD/svg11.dtd">
<!-- Generated by graphviz version 13.1.2 (20250808.2320)
 -->
<!-- Pages: 1 -->
<svg width="782pt" height="1220pt"
 viewBox="0.00 0.00 782.00 1220.00" xmlns="http://www.w3.org/2000/svg" xmlns:xlink="http://www.w3.org/1999/xlink">
<g id="graph0" class="graph" transform="scale(1 1) rotate(0) translate(4 1216)">
<polygon fill="white" stroke="none" points="-4,4 -4,-1216 777.53,-1216 777.53,4 -4,4"/>
<!-- # blāz&#45;&gt;blāzma___blāz -->
<g id="edge1" class="edge">
<title># blāz&#45;&gt;blāzma___blāz</title>
<path fill="none" stroke="#cccccc" d="M62.66,-587.98C92.29,-623.7 158.19,-703.12 186.75,-737.55"/>
</g>
<!-- # blāz&#45;&gt;Blāzma___blāz -->
<g id="edge2" class="edge">
<title># blāz&#45;&gt;Blāzma___blāz</title>
<path fill="none" stroke="#cccccc" d="M62.67,-587.9C118.36,-650.47 303.83,-858.9 357.67,-919.4"/>
</g>
<!-- # blāz&#45;&gt;blāzmains___blāz -->
<g id="edge3" class="edge">
<title># blāz&#45;&gt;blāzmains___blāz</title>
<path fill="none" stroke="#cccccc" d="M73.67,-573.14C129.23,-579.62 257.1,-594.54 326.17,-602.6"/>
</g>
<!-- # blāz&#45;&gt;blāzmiņa___blāz -->
<g id="edge4" class="edge">
<title># blāz&#45;&gt;blāzmiņa___blāz</title>
<path fill="none" stroke="#cccccc" d="M73.67,-567.11C129.99,-561.05 260.62,-547.02 328.98,-539.67"/>
</g>
<!-- # blāz&#45;&gt;blāzmojums___blāz -->
<g id="edge5" class="edge">
<title># blāz&#45;&gt;blāzmojums___blāz</title>
<path fill="none" stroke="#cccccc" d="M73.62,-580.91C157.96,-615.17 417.45,-720.57 511.79,-758.89"/>
</g>
<!-- # blāz&#45;&gt;blāzmot___blāz -->
<g id="edge6" class="edge">
<title># blāz&#45;&gt;blāzmot___blāz</title>
<path fill="none" stroke="#cccccc" d="M73.67,-579.18C133.26,-599.49 276.08,-648.16 340.25,-670.03"/>
</g>
<!-- # blāz&#45;&gt;blāznumiņš___blāz -->
<g id="edge7" class="edge">
<title># blāz&#45;&gt;blāznumiņš___blāz</title>
<path fill="none" stroke="#cccccc" d="M52.65,-552.26C75.64,-469.13 172.56,-118.67 195.51,-35.67"/>
</g>
<!-- # blāz&#45;&gt;polārblāzma___blāz -->
<g id="edge8" class="edge">
<title># blāz&#45;&gt;polārblāzma___blāz</title>
<path fill="none" stroke="#cccccc" d="M57.21,-587.71C106.26,-670.69 313.04,-1020.51 362.01,-1103.36"/>
</g>
<!-- # blāz&#45;&gt;uzblāzmot___blāz -->
<g id="edge9" class="edge">
<title># blāz&#45;&gt;uzblāzmot___blāz</title>
<path fill="none" stroke="#cccccc" d="M73.62,-571.02C153.91,-574.07 392.9,-583.16 497.08,-587.12"/>
</g>
<!-- # blāz&#45;&gt;vakarblāzma___blāz -->
<g id="edge10" class="edge">
<title># blāz&#45;&gt;vakarblāzma___blāz</title>
<path fill="none" stroke="#cccccc" d="M69.13,-552.2C129.2,-504.43 293.35,-373.89 351.59,-327.57"/>
</g>
<!-- # blāz&#45;&gt;ziemeļblāzma___blāz -->
<g id="edge11" class="edge">
<title># blāz&#45;&gt;ziemeļblāzma___blāz</title>
<path fill="none" stroke="#cccccc" d="M69.39,-587.87C129.54,-635.34 292.73,-764.11 351.22,-810.26"/>
</g>
<!-- # blāz&#45;&gt;atblāzma___blāz -->
<g id="edge12" class="edge">
<title># blāz&#45;&gt;atblāzma___blāz</title>
<path fill="none" stroke="#cccccc" d="M73.67,-560.9C132.66,-540.98 273.16,-493.53 338.25,-471.54"/>
</g>
<!-- # blāz&#45;&gt;atblāzmot___blāz -->
<g id="edge13" class="edge">
<title># blāz&#45;&gt;atblāzmot___blāz</title>
<path fill="none" stroke="#cccccc" d="M68.87,-552.08C152.27,-484.49 447.02,-245.65 526.61,-181.15"/>
</g>
<!-- # blāz&#45;&gt;atblāzmoties___blāz -->
<g id="edge14" class="edge">
<title># blāz&#45;&gt;atblāzmoties___blāz</title>
<path fill="none" stroke="#cccccc" d="M73.37,-552.4C181.48,-480.95 586.75,-213.11 690.97,-144.23"/>
</g>
<!-- blāzma___blāz&#45;&gt;Blāzma___blāz -->
<g id="edge16" class="edge">
<title>blāzma___blāz&#45;&gt;Blāzma___blāz</title>
<path fill="none" stroke="purple" d="M217.4,-770.15C247.02,-802.05 313.2,-873.3 348.39,-911.19"/>
<polygon fill="purple" stroke="purple" points="345.82,-913.57 355.19,-918.51 350.95,-908.81 345.82,-913.57"/>
</g>
<!-- blāzma___blāz&#45;&gt;blāzmains___blāz -->
<g id="edge17" class="edge">
<title>blāzma___blāz&#45;&gt;blāzmains___blāz</title>
<path fill="none" stroke="green" d="M220.17,-738.65C249.79,-713.07 309.42,-661.56 344.31,-631.42"/>
<polygon fill="green" stroke="green" points="346.19,-634.43 351.47,-625.24 341.62,-629.13 346.19,-634.43"/>
</g>
<!-- blāzma___blāz&#45;&gt;blāzmiņa___blāz -->
<g id="edge18" class="edge">
<title>blāzma___blāz&#45;&gt;blāzmiņa___blāz</title>
<path fill="none" stroke="green" d="M215.11,-737.54C244.28,-699.74 316.25,-606.49 351.43,-560.92"/>
<polygon fill="green" stroke="green" points="354.09,-563.21 357.42,-553.15 348.54,-558.93 354.09,-563.21"/>
</g>
<!-- blāzma___blāz&#45;&gt;blāzmot___blāz -->
<g id="edge20" class="edge">
<title>blāzma___blāz&#45;&gt;blāzmot___blāz</title>
<path fill="none" stroke="green" d="M229.94,-742.11C257.72,-730.11 300.88,-711.47 332.23,-697.93"/>
<polygon fill="green" stroke="green" points="333.6,-701.15 341.39,-693.97 330.82,-694.73 333.6,-701.15"/>
</g>
<!-- blāzma___blāz&#45;&gt;polārblāzma___blāz -->
<g id="edge23" class="edge">
<title>blāzma___blāz&#45;&gt;polārblāzma___blāz</title>
<path fill="none" stroke="blue" d="M210.33,-771.21C237.27,-829.71 325.5,-1021.26 358.67,-1093.29"/>
<polygon fill="blue" stroke="blue" points="355.33,-1094.41 362.7,-1102.03 361.69,-1091.48 355.33,-1094.41"/>
</g>
<!-- blāzma___blāz&#45;&gt;vakarblāzma___blāz -->
<g id="edge26" class="edge">
<title>blāzma___blāz&#45;&gt;vakarblāzma___blāz</title>
<path fill="none" stroke="blue" d="M209.03,-736.63C234.82,-669.03 328.67,-423.08 360.66,-339.23"/>
<polygon fill="blue" stroke="blue" points="363.84,-340.73 364.13,-330.14 357.3,-338.24 363.84,-340.73"/>
</g>
<!-- blāzma___blāz&#45;&gt;ziemeļblāzma___blāz -->
<g id="edge28" class="edge">
<title>blāzma___blāz&#45;&gt;ziemeļblāzma___blāz</title>
<path fill="none" stroke="blue" d="M229.94,-765.89C256.13,-777.2 295.99,-794.42 326.74,-807.7"/>
<polygon fill="blue" stroke="blue" points="325.24,-810.86 335.8,-811.61 328.01,-804.43 325.24,-810.86"/>
</g>
<!-- blāzma___blāz&#45;&gt;atblāzma___blāz -->
<g id="edge29" class="edge">
<title>blāzma___blāz&#45;&gt;atblāzma___blāz</title>
<path fill="none" stroke="green" d="M212.22,-736.92C240.4,-687.9 321.72,-546.47 355.95,-486.93"/>
<polygon fill="green" stroke="green" points="358.88,-488.85 360.83,-478.44 352.82,-485.36 358.88,-488.85"/>
</g>
<!-- blāzmot___blāz&#45;&gt;blāzmojums___blāz -->
<g id="edge19" class="edge">
<title>blāzmot___blāz&#45;&gt;blāzmojums___blāz</title>
<path fill="none" stroke="green" d="M398.83,-694.57C427.39,-709.84 474.07,-734.8 507.1,-752.45"/>
<polygon fill="green" stroke="green" points="505.08,-755.34 515.55,-756.97 508.38,-749.17 505.08,-755.34"/>
</g>
<!-- blāzmot___blāz&#45;&gt;uzblāzmot___blāz -->
<g id="edge24" class="edge">
<title>blāzmot___blāz&#45;&gt;uzblāzmot___blāz</title>
<path fill="none" stroke="green" d="M398.83,-667.43C427.72,-651.98 475.19,-626.61 508.27,-608.92"/>
<polygon fill="green" stroke="green" points="509.54,-612.21 516.71,-604.41 506.24,-606.04 509.54,-612.21"/>
</g>
<!-- blāzmot___blāz&#45;&gt;atblāzmot___blāz -->
<g id="edge30" class="edge">
<title>blāzmot___blāz&#45;&gt;atblāzmot___blāz</title>
<path fill="none" stroke="green" d="M379.26,-663.54C404.51,-587.83 504.66,-287.57 536.07,-193.4"/>
<polygon fill="green" stroke="green" points="539.3,-194.75 539.15,-184.16 532.66,-192.54 539.3,-194.75"/>
</g>
<!-- atblāzmot___blāz&#45;&gt;atblāzmoties___blāz -->
<g id="edge31" class="edge">
<title>atblāzmot___blāz&#45;&gt;atblāzmoties___blāz</title>
<path fill="none" stroke="green" d="M587.96,-156.04C608.78,-151.43 634.52,-145.73 657.34,-140.67"/>
<polygon fill="green" stroke="green" points="657.79,-144.16 666.8,-138.57 656.28,-137.32 657.79,-144.16"/>
</g>
<!-- blāzt&#45;&gt;blāzma___blāz -->
<g id="edge15" class="edge">
<title>blāzt&#45;&gt;blāzma___blāz</title>
<path fill="none" stroke="green" d="M75.39,-754C96.77,-754 126.91,-754 152.23,-754"/>
<polygon fill="green" stroke="green" points="151.97,-757.5 161.97,-754 151.97,-750.5 151.97,-757.5"/>
</g>
<!-- blāznums&#45;&gt;blāznumiņš___blāz -->
<g id="edge21" class="edge">
<title>blāznums&#45;&gt;blāznumiņš___blāz</title>
<path fill="none" stroke="green" d="M93.13,-18C106.66,-18 121.74,-18 136.22,-18"/>
<polygon fill="green" stroke="green" points="136.16,-21.5 146.16,-18 136.16,-14.5 136.16,-21.5"/>
</g>
<!-- polārs&#45;&gt;polārblāzma___blāz -->
<g id="edge22" class="edge">
<title>polārs&#45;&gt;polārblāzma___blāz</title>
<path fill="none" stroke="blue" d="M227.71,-1183.07C254.19,-1171.64 296.25,-1153.47 328.04,-1139.74"/>
<polygon fill="blue" stroke="blue" points="329.21,-1143.05 337,-1135.87 326.43,-1136.62 329.21,-1143.05"/>
</g>
<!-- vakars&#45;&gt;vakarblāzma___blāz -->
<g id="edge25" class="edge">
<title>vakars&#45;&gt;vakarblāzma___blāz</title>
<path fill="none" stroke="blue" d="M228.44,-249.25C254.9,-260.67 296.36,-278.58 327.83,-292.17"/>
<polygon fill="blue" stroke="blue" points="326.13,-295.25 336.7,-296 328.91,-288.82 326.13,-295.25"/>
</g>
<!-- ziemeļi&#45;&gt;ziemeļblāzma___blāz -->
<g id="edge27" class="edge">
<title>ziemeļi&#45;&gt;ziemeļblāzma___blāz</title>
<path fill="none" stroke="blue" d="M229.94,-888.11C256.13,-876.8 295.99,-859.58 326.74,-846.3"/>
<polygon fill="blue" stroke="blue" points="328.01,-849.57 335.8,-842.39 325.24,-843.14 328.01,-849.57"/>
</g>
<!-- # blāz -->
<g id="node1" class="node">
<title># blāz</title>
<polygon fill="lightblue" stroke="black" stroke-width="0" points="73.75,-588 19.75,-588 19.75,-552 73.75,-552 73.75,-588"/>
<text xml:space="preserve" text-anchor="middle" x="46.75" y="-564.95" font-family="Times New Roman,serif" font-size="14.00">blāz</text>
</g>
<!-- blāzma___blāz -->
<g id="node2" class="node">
<title>blāzma___blāz</title>
<ellipse fill="white" stroke="black" stroke-width="0" cx="201.4" cy="-754" rx="38.04" ry="18"/>
<text xml:space="preserve" text-anchor="middle" x="201.4" y="-748.95" font-family="Times New Roman,serif" font-size="14.00">blāzma</text>
</g>
<!-- Blāzma___blāz -->
<g id="node3" class="node">
<title>Blāzma___blāz</title>
<ellipse fill="white" stroke="black" stroke-width="0" cx="372.43" cy="-936" rx="39.58" ry="18"/>
<text xml:space="preserve" text-anchor="middle" x="372.43" y="-930.95" font-family="Times New Roman,serif" font-size="14.00">Blāzma</text>
</g>
<!-- blāzmains___blāz -->
<g id="node4" class="node">
<title>blāzmains___blāz</title>
<ellipse fill="white" stroke="black" stroke-width="0" cx="372.43" cy="-608" rx="48.79" ry="18"/>
<text xml:space="preserve" text-anchor="middle" x="372.43" y="-602.95" font-family="Times New Roman,serif" font-size="14.00">blāzmains</text>
</g>
<!-- blāzmiņa___blāz -->
<g id="node5" class="node">
<title>blāzmiņa___blāz</title>
<ellipse fill="white" stroke="black" stroke-width="0" cx="372.43" cy="-535" rx="45.21" ry="18"/>
<text xml:space="preserve" text-anchor="middle" x="372.43" y="-529.95" font-family="Times New Roman,serif" font-size="14.00">blāzmiņa</text>
</g>
<!-- blāzmojums___blāz -->
<g id="node6" class="node">
<title>blāzmojums___blāz</title>
<ellipse fill="white" stroke="black" stroke-width="0" cx="546.54" cy="-773" rx="56.98" ry="18"/>
<text xml:space="preserve" text-anchor="middle" x="546.54" y="-767.95" font-family="Times New Roman,serif" font-size="14.00">blāzmojums</text>
</g>
<!-- blāzmot___blāz -->
<g id="node7" class="node">
<title>blāzmot___blāz</title>
<ellipse fill="white" stroke="black" stroke-width="0" cx="372.43" cy="-681" rx="41.12" ry="18"/>
<text xml:space="preserve" text-anchor="middle" x="372.43" y="-675.95" font-family="Times New Roman,serif" font-size="14.00">blāzmot</text>
</g>
<!-- blāznumiņš___blāz -->
<g id="node8" class="node">
<title>blāznumiņš___blāz</title>
<ellipse fill="white" stroke="black" stroke-width="0" cx="201.4" cy="-18" rx="53.91" ry="18"/>
<text xml:space="preserve" text-anchor="middle" x="201.4" y="-12.95" font-family="Times New Roman,serif" font-size="14.00">blāznumiņš</text>
</g>
<!-- polārblāzma___blāz -->
<g id="node9" class="node">
<title>polārblāzma___blāz</title>
<ellipse fill="white" stroke="black" stroke-width="0" cx="372.43" cy="-1121" rx="56.98" ry="18"/>
<text xml:space="preserve" text-anchor="middle" x="372.43" y="-1115.95" font-family="Times New Roman,serif" font-size="14.00">polārblāzma</text>
</g>
<!-- uzblāzmot___blāz -->
<g id="node10" class="node">
<title>uzblāzmot___blāz</title>
<ellipse fill="white" stroke="black" stroke-width="0" cx="546.54" cy="-589" rx="49.82" ry="18"/>
<text xml:space="preserve" text-anchor="middle" x="546.54" y="-583.95" font-family="Times New Roman,serif" font-size="14.00">uzblāzmot</text>
</g>
<!-- vakarblāzma___blāz -->
<g id="node11" class="node">
<title>vakarblāzma___blāz</title>
<ellipse fill="white" stroke="black" stroke-width="0" cx="372.43" cy="-311" rx="58.52" ry="18"/>
<text xml:space="preserve" text-anchor="middle" x="372.43" y="-305.95" font-family="Times New Roman,serif" font-size="14.00">vakarblāzma</text>
</g>
<!-- ziemeļblāzma___blāz -->
<g id="node12" class="node">
<title>ziemeļblāzma___blāz</title>
<ellipse fill="white" stroke="black" stroke-width="0" cx="372.43" cy="-827" rx="63.12" ry="18"/>
<text xml:space="preserve" text-anchor="middle" x="372.43" y="-821.95" font-family="Times New Roman,serif" font-size="14.00">ziemeļblāzma</text>
</g>
<!-- atblāzma___blāz -->
<g id="node13" class="node">
<title>atblāzma___blāz</title>
<ellipse fill="white" stroke="black" stroke-width="0" cx="372.43" cy="-460" rx="44.7" ry="18"/>
<text xml:space="preserve" text-anchor="middle" x="372.43" y="-454.95" font-family="Times New Roman,serif" font-size="14.00">atblāzma</text>
</g>
<!-- atblāzmot___blāz -->
<g id="node14" class="node">
<title>atblāzmot___blāz</title>
<ellipse fill="white" stroke="black" stroke-width="0" cx="546.54" cy="-165" rx="47.77" ry="18"/>
<text xml:space="preserve" text-anchor="middle" x="546.54" y="-159.95" font-family="Times New Roman,serif" font-size="14.00">atblāzmot</text>
</g>
<!-- atblāzmoties___blāz -->
<g id="node15" class="node">
<title>atblāzmoties___blāz</title>
<ellipse fill="white" stroke="black" stroke-width="0" cx="715.52" cy="-128" rx="58" ry="18"/>
<text xml:space="preserve" text-anchor="middle" x="715.52" y="-122.95" font-family="Times New Roman,serif" font-size="14.00">atblāzmoties</text>
</g>
<!-- blāzt -->
<g id="node16" class="node">
<title>blāzt</title>
<ellipse fill="white" stroke="black" stroke-width="0" cx="46.75" cy="-754" rx="28.83" ry="18"/>
<text xml:space="preserve" text-anchor="middle" x="46.75" y="-748.95" font-family="Times New Roman,serif" font-size="14.00" fill="gray">blāzt</text>
</g>
<!-- blāznums -->
<g id="node17" class="node">
<title>blāznums</title>
<ellipse fill="white" stroke="black" stroke-width="0" cx="46.75" cy="-18" rx="46.75" ry="18"/>
<text xml:space="preserve" text-anchor="middle" x="46.75" y="-12.95" font-family="Times New Roman,serif" font-size="14.00" fill="gray">blāznums</text>
</g>
<!-- polārs -->
<g id="node18" class="node">
<title>polārs</title>
<ellipse fill="white" stroke="black" stroke-width="0" cx="201.4" cy="-1194" rx="33.44" ry="18"/>
<text xml:space="preserve" text-anchor="middle" x="201.4" y="-1188.95" font-family="Times New Roman,serif" font-size="14.00" fill="gray">polārs</text>
</g>
<!-- vakars -->
<g id="node19" class="node">
<title>vakars</title>
<ellipse fill="white" stroke="black" stroke-width="0" cx="201.4" cy="-238" rx="34.97" ry="18"/>
<text xml:space="preserve" text-anchor="middle" x="201.4" y="-232.95" font-family="Times New Roman,serif" font-size="14.00" fill="gray">vakars</text>
</g>
<!-- ziemeļi -->
<g id="node20" class="node">
<title>ziemeļi</title>
<ellipse fill="white" stroke="black" stroke-width="0" cx="201.4" cy="-900" rx="38.56" ry="18"/>
<text xml:space="preserve" text-anchor="middle" x="201.4" y="-894.95" font-family="Times New Roman,serif" font-size="14.00" fill="gray">ziemeļi</text>
</g>
</g>
</svg>
