<?xml version="1.0" encoding="UTF-8" standalone="no"?>
<!DOCTYPE svg PUBLIC "-//W3C//DTD SVG 1.1//EN"
 "http://www.w3.org/Graphics/SVG/1.1/DTD/svg11.dtd">
<!-- Generated by graphviz version 13.1.2 (20250808.2320)
 -->
<!-- Pages: 1 -->
<svg width="293pt" height="188pt"
 viewBox="0.00 0.00 293.00 188.00" xmlns="http://www.w3.org/2000/svg" xmlns:xlink="http://www.w3.org/1999/xlink">
<g id="graph0" class="graph" transform="scale(1 1) rotate(0) translate(4 184)">
<polygon fill="white" stroke="none" points="-4,4 -4,-184 288.63,-184 288.63,4 -4,4"/>
<!-- # blag&#45;&gt;Blagoveščenska___blag -->
<g id="edge1" class="edge">
<title># blag&#45;&gt;Blagoveščenska___blag</title>
<path fill="none" stroke="#cccccc" d="M76.51,-105.98C104.72,-118.12 143.27,-134.71 171.1,-146.68"/>
</g>
<!-- # blag&#45;&gt;Blagoveščenskaja___blag -->
<g id="edge2" class="edge">
<title># blag&#45;&gt;Blagoveščenskaja___blag</title>
<path fill="none" stroke="#cccccc" d="M76.51,-90C92.59,-90 112.03,-90 130.92,-90"/>
</g>
<!-- # blag&#45;&gt;Blagoveščenskis___blag -->
<g id="edge3" class="edge">
<title># blag&#45;&gt;Blagoveščenskis___blag</title>
<path fill="none" stroke="#cccccc" d="M76.51,-74.02C104.62,-61.92 143.01,-45.4 170.81,-33.44"/>
</g>
<!-- # blag -->
<g id="node1" class="node">
<title># blag</title>
<polygon fill="lightblue" stroke="black" stroke-width="0" points="76.75,-110.5 0,-110.5 0,-69.5 76.75,-69.5 76.75,-110.5"/>
<text xml:space="preserve" text-anchor="middle" x="38.38" y="-93.2" font-family="Times New Roman,serif" font-size="14.00">blag</text>
<text xml:space="preserve" text-anchor="middle" x="38.38" y="-76.7" font-family="Times New Roman,serif" font-size="14.00">(borrowed)</text>
</g>
<!-- Blagoveščenska___blag -->
<g id="node2" class="node">
<title>Blagoveščenska___blag</title>
<ellipse fill="white" stroke="black" stroke-width="0" cx="207.69" cy="-162" rx="70.29" ry="18"/>
<text xml:space="preserve" text-anchor="middle" x="207.69" y="-156.95" font-family="Times New Roman,serif" font-size="14.00">Blagoveščenska</text>
</g>
<!-- Blagoveščenskaja___blag -->
<g id="node3" class="node">
<title>Blagoveščenskaja___blag</title>
<ellipse fill="white" stroke="black" stroke-width="0" cx="207.69" cy="-90" rx="76.94" ry="18"/>
<text xml:space="preserve" text-anchor="middle" x="207.69" y="-84.95" font-family="Times New Roman,serif" font-size="14.00">Blagoveščenskaja</text>
</g>
<!-- Blagoveščenskis___blag -->
<g id="node4" class="node">
<title>Blagoveščenskis___blag</title>
<ellipse fill="white" stroke="black" stroke-width="0" cx="207.69" cy="-18" rx="72.34" ry="18"/>
<text xml:space="preserve" text-anchor="middle" x="207.69" y="-12.95" font-family="Times New Roman,serif" font-size="14.00">Blagoveščenskis</text>
</g>
</g>
</svg>
