<?xml version="1.0" encoding="UTF-8" standalone="no"?>
<!DOCTYPE svg PUBLIC "-//W3C//DTD SVG 1.1//EN"
 "http://www.w3.org/Graphics/SVG/1.1/DTD/svg11.dtd">
<!-- Generated by graphviz version 13.1.2 (20250808.2320)
 -->
<!-- Pages: 1 -->
<svg width="524pt" height="226pt"
 viewBox="0.00 0.00 524.00 226.00" xmlns="http://www.w3.org/2000/svg" xmlns:xlink="http://www.w3.org/1999/xlink">
<g id="graph0" class="graph" transform="scale(1 1) rotate(0) translate(4 222)">
<polygon fill="white" stroke="none" points="-4,4 -4,-222 520.15,-222 520.15,4 -4,4"/>
<!-- # blam&#45;&gt;blamāža___blam -->
<g id="edge1" class="edge">
<title># blam&#45;&gt;blamāža___blam</title>
<path fill="none" stroke="#cccccc" d="M63.99,-111.25C89.74,-132.43 129.59,-165.21 152.98,-184.44"/>
</g>
<!-- # blam&#45;&gt;blamēt___blam -->
<g id="edge2" class="edge">
<title># blam&#45;&gt;blamēt___blam</title>
<path fill="none" stroke="#cccccc" d="M76.64,-101.41C97,-107.09 121.92,-114.05 141.16,-119.42"/>
</g>
<!-- # blam&#45;&gt;izblamēt___blam -->
<g id="edge3" class="edge">
<title># blam&#45;&gt;izblamēt___blam</title>
<path fill="none" stroke="#cccccc" d="M76.74,-85.96C128.1,-79.2 218.84,-67.27 271.41,-60.36"/>
</g>
<!-- # blam&#45;&gt;izblamēties___blam -->
<g id="edge4" class="edge">
<title># blam&#45;&gt;izblamēties___blam</title>
<path fill="none" stroke="#cccccc" d="M76.41,-84.46C154.02,-71.11 330.47,-40.75 415.38,-26.15"/>
</g>
<!-- blamēt___blam&#45;&gt;izblamēt___blam -->
<g id="edge5" class="edge">
<title>blamēt___blam&#45;&gt;izblamēt___blam</title>
<path fill="none" stroke="green" d="M198.12,-115.12C219.54,-103.73 251.07,-86.96 275.4,-74.03"/>
<polygon fill="green" stroke="green" points="276.81,-77.24 284,-69.46 273.53,-71.06 276.81,-77.24"/>
</g>
<!-- izblamēt___blam&#45;&gt;izblamēties___blam -->
<g id="edge6" class="edge">
<title>izblamēt___blam&#45;&gt;izblamēties___blam</title>
<path fill="none" stroke="green" d="M349.15,-46.04C366.97,-41.61 388.83,-36.16 408.54,-31.25"/>
<polygon fill="green" stroke="green" points="409.2,-34.69 418.06,-28.88 407.51,-27.9 409.2,-34.69"/>
</g>
<!-- # blam -->
<g id="node1" class="node">
<title># blam</title>
<polygon fill="lightblue" stroke="black" stroke-width="0" points="76.75,-111.5 0,-111.5 0,-70.5 76.75,-70.5 76.75,-111.5"/>
<text xml:space="preserve" text-anchor="middle" x="38.38" y="-94.2" font-family="Times New Roman,serif" font-size="14.00">blam</text>
<text xml:space="preserve" text-anchor="middle" x="38.38" y="-77.7" font-family="Times New Roman,serif" font-size="14.00">(borrowed)</text>
</g>
<!-- blamāža___blam -->
<g id="node2" class="node">
<title>blamāža___blam</title>
<ellipse fill="white" stroke="black" stroke-width="0" cx="172.89" cy="-200" rx="42.14" ry="18"/>
<text xml:space="preserve" text-anchor="middle" x="172.89" y="-194.95" font-family="Times New Roman,serif" font-size="14.00">blamāža</text>
</g>
<!-- blamēt___blam -->
<g id="node3" class="node">
<title>blamēt___blam</title>
<ellipse fill="white" stroke="black" stroke-width="0" cx="172.89" cy="-128" rx="36.51" ry="18"/>
<text xml:space="preserve" text-anchor="middle" x="172.89" y="-122.95" font-family="Times New Roman,serif" font-size="14.00">blamēt</text>
</g>
<!-- izblamēt___blam -->
<g id="node4" class="node">
<title>izblamēt___blam</title>
<ellipse fill="white" stroke="black" stroke-width="0" cx="312.19" cy="-55" rx="43.16" ry="18"/>
<text xml:space="preserve" text-anchor="middle" x="312.19" y="-49.95" font-family="Times New Roman,serif" font-size="14.00">izblamēt</text>
</g>
<!-- izblamēties___blam -->
<g id="node5" class="node">
<title>izblamēties___blam</title>
<ellipse fill="white" stroke="black" stroke-width="0" cx="462.75" cy="-18" rx="53.4" ry="18"/>
<text xml:space="preserve" text-anchor="middle" x="462.75" y="-12.95" font-family="Times New Roman,serif" font-size="14.00">izblamēties</text>
</g>
</g>
</svg>
