<?xml version="1.0" encoding="UTF-8" standalone="no"?>
<!DOCTYPE svg PUBLIC "-//W3C//DTD SVG 1.1//EN"
 "http://www.w3.org/Graphics/SVG/1.1/DTD/svg11.dtd">
<!-- Generated by graphviz version 13.1.2 (20250808.2320)
 -->
<!-- Pages: 1 -->
<svg width="400pt" height="770pt"
 viewBox="0.00 0.00 400.00 770.00" xmlns="http://www.w3.org/2000/svg" xmlns:xlink="http://www.w3.org/1999/xlink">
<g id="graph0" class="graph" transform="scale(1 1) rotate(0) translate(4 766)">
<polygon fill="white" stroke="none" points="-4,4 -4,-766 395.54,-766 395.54,4 -4,4"/>
<!-- # bland&#45;&gt;blandīšanās___bland -->
<g id="edge1" class="edge">
<title># bland&#45;&gt;blandīšanās___bland</title>
<path fill="none" stroke="#cccccc" d="M63.35,-376.39C114.74,-363.74 227.46,-335.99 289.66,-320.68"/>
</g>
<!-- # bland&#45;&gt;blandīties___bland -->
<g id="edge2" class="edge">
<title># bland&#45;&gt;blandīties___bland</title>
<path fill="none" stroke="#cccccc" d="M63.27,-396.9C87.03,-409.73 122.16,-428.69 146.18,-441.65"/>
</g>
<!-- # bland&#45;&gt;blandonis___bland -->
<g id="edge3" class="edge">
<title># bland&#45;&gt;blandonis___bland</title>
<path fill="none" stroke="#cccccc" d="M48.35,-365.29C73.8,-323.7 137.12,-220.24 162.25,-179.18"/>
</g>
<!-- # bland&#45;&gt;blandoņa___bland -->
<g id="edge4" class="edge">
<title># bland&#45;&gt;blandoņa___bland</title>
<path fill="none" stroke="#cccccc" d="M44.12,-365.15C67.14,-303.03 143.57,-96.79 166.32,-35.39"/>
</g>
<!-- # bland&#45;&gt;aizblandīties___bland -->
<g id="edge5" class="edge">
<title># bland&#45;&gt;aizblandīties___bland</title>
<path fill="none" stroke="#cccccc" d="M63.35,-369.7C118.52,-342.34 244.36,-279.96 302.52,-251.12"/>
</g>
<!-- # bland&#45;&gt;ieblandīties___bland -->
<g id="edge6" class="edge">
<title># bland&#45;&gt;ieblandīties___bland</title>
<path fill="none" stroke="#cccccc" d="M51.21,-400.9C101.93,-462.65 269.15,-666.24 318.93,-726.84"/>
</g>
<!-- # bland&#45;&gt;izblandīt___bland -->
<g id="edge7" class="edge">
<title># bland&#45;&gt;izblandīt___bland</title>
<path fill="none" stroke="#cccccc" d="M45.77,-365.11C70.03,-312.56 140.88,-159.06 164.78,-107.28"/>
</g>
<!-- # bland&#45;&gt;izblandīties___bland -->
<g id="edge8" class="edge">
<title># bland&#45;&gt;izblandīties___bland</title>
<path fill="none" stroke="#cccccc" d="M55.06,-400.7C108.69,-451.89 263.43,-599.58 315.61,-649.38"/>
</g>
<!-- # bland&#45;&gt;noblandīties___bland -->
<g id="edge9" class="edge">
<title># bland&#45;&gt;noblandīties___bland</title>
<path fill="none" stroke="#cccccc" d="M63.08,-400.92C120.37,-439.56 254.71,-530.18 309.32,-567.01"/>
</g>
<!-- # bland&#45;&gt;pablandīties___bland -->
<g id="edge10" class="edge">
<title># bland&#45;&gt;pablandīties___bland</title>
<path fill="none" stroke="#cccccc" d="M63.35,-392.87C116.66,-412.46 235.98,-456.33 296.43,-478.55"/>
</g>
<!-- # bland&#45;&gt;pārblandīties___bland -->
<g id="edge11" class="edge">
<title># bland&#45;&gt;pārblandīties___bland</title>
<path fill="none" stroke="#cccccc" d="M63.35,-386.35C111.89,-392.41 215.14,-405.29 278.86,-413.24"/>
</g>
<!-- blandīties___bland&#45;&gt;blandīšanās___bland -->
<g id="edge12" class="edge">
<title>blandīties___bland&#45;&gt;blandīšanās___bland</title>
<path fill="none" stroke="green" d="M192.5,-439.54C220.22,-413.8 273.98,-363.89 306.06,-334.1"/>
<polygon fill="green" stroke="green" points="308.06,-337.03 313.01,-327.66 303.3,-331.9 308.06,-337.03"/>
</g>
<!-- blandīties___bland&#45;&gt;aizblandīties___bland -->
<g id="edge16" class="edge">
<title>blandīties___bland&#45;&gt;aizblandīties___bland</title>
<path fill="none" stroke="green" d="M186.84,-439.1C214.05,-401.04 280.29,-308.37 313.05,-262.55"/>
<polygon fill="green" stroke="green" points="315.84,-264.66 318.81,-254.49 310.15,-260.59 315.84,-264.66"/>
</g>
<!-- blandīties___bland&#45;&gt;ieblandīties___bland -->
<g id="edge17" class="edge">
<title>blandīties___bland&#45;&gt;ieblandīties___bland</title>
<path fill="none" stroke="green" d="M184.13,-473.15C210.4,-521.26 284.94,-657.78 317.03,-716.54"/>
<polygon fill="green" stroke="green" points="313.92,-718.14 321.78,-725.24 320.06,-714.79 313.92,-718.14"/>
</g>
<!-- blandīties___bland&#45;&gt;izblandīties___bland -->
<g id="edge19" class="edge">
<title>blandīties___bland&#45;&gt;izblandīties___bland</title>
<path fill="none" stroke="green" d="M187.63,-473.19C215.12,-509.89 279.7,-596.12 312.36,-639.75"/>
<polygon fill="green" stroke="green" points="309.5,-641.75 318.29,-647.66 315.1,-637.56 309.5,-641.75"/>
</g>
<!-- blandīties___bland&#45;&gt;noblandīties___bland -->
<g id="edge20" class="edge">
<title>blandīties___bland&#45;&gt;noblandīties___bland</title>
<path fill="none" stroke="green" d="M194.68,-472.08C221.99,-494.14 271.24,-533.91 302.75,-559.36"/>
<polygon fill="green" stroke="green" points="300.37,-561.93 310.34,-565.49 304.76,-556.49 300.37,-561.93"/>
</g>
<!-- blandīties___bland&#45;&gt;pablandīties___bland -->
<g id="edge21" class="edge">
<title>blandīties___bland&#45;&gt;pablandīties___bland</title>
<path fill="none" stroke="green" d="M214.04,-464.99C232.85,-469.3 255.7,-474.53 276.27,-479.24"/>
<polygon fill="green" stroke="green" points="275.41,-482.63 285.94,-481.45 276.98,-475.81 275.41,-482.63"/>
</g>
<!-- blandīties___bland&#45;&gt;pārblandīties___bland -->
<g id="edge22" class="edge">
<title>blandīties___bland&#45;&gt;pārblandīties___bland</title>
<path fill="none" stroke="green" d="M214.04,-447.01C232.46,-442.79 254.77,-437.69 275.01,-433.05"/>
<polygon fill="green" stroke="green" points="275.55,-436.52 284.52,-430.87 273.99,-429.69 275.55,-436.52"/>
</g>
<!-- blandīt&#45;&gt;blandīties___bland -->
<g id="edge13" class="edge">
<title>blandīt&#45;&gt;blandīties___bland</title>
<path fill="none" stroke="green" d="M44.59,-143.28C66.63,-197.06 134.17,-361.84 161.3,-428.04"/>
<polygon fill="green" stroke="green" points="157.98,-429.17 165.01,-437.09 164.46,-426.51 157.98,-429.17"/>
</g>
<!-- blandīt&#45;&gt;blandonis___bland -->
<g id="edge14" class="edge">
<title>blandīt&#45;&gt;blandonis___bland</title>
<path fill="none" stroke="green" d="M68.54,-134.26C85.02,-138.65 105.65,-144.14 124.2,-149.08"/>
<polygon fill="green" stroke="green" points="123.1,-152.4 133.67,-151.59 124.9,-145.64 123.1,-152.4"/>
</g>
<!-- blandīt&#45;&gt;blandoņa___bland -->
<g id="edge15" class="edge">
<title>blandīt&#45;&gt;blandoņa___bland</title>
<path fill="none" stroke="green" d="M56.32,-110.98C79.17,-92.73 117.96,-61.76 144.43,-40.62"/>
<polygon fill="green" stroke="green" points="146.43,-43.51 152.06,-34.53 142.06,-38.04 146.43,-43.51"/>
</g>
<!-- blandīt&#45;&gt;izblandīt___bland -->
<g id="edge18" class="edge">
<title>blandīt&#45;&gt;izblandīt___bland</title>
<path fill="none" stroke="green" d="M68.54,-117.74C85.62,-113.19 107.16,-107.46 126.22,-102.39"/>
<polygon fill="green" stroke="green" points="126.87,-105.84 135.64,-99.88 125.07,-99.07 126.87,-105.84"/>
</g>
<!-- # bland -->
<g id="node1" class="node">
<title># bland</title>
<polygon fill="lightblue" stroke="black" stroke-width="0" points="63.51,-401 9.51,-401 9.51,-365 63.51,-365 63.51,-401"/>
<text xml:space="preserve" text-anchor="middle" x="36.51" y="-377.95" font-family="Times New Roman,serif" font-size="14.00">bland</text>
</g>
<!-- blandīšanās___bland -->
<g id="node2" class="node">
<title>blandīšanās___bland</title>
<ellipse fill="white" stroke="black" stroke-width="0" cx="333.02" cy="-310" rx="53.91" ry="18"/>
<text xml:space="preserve" text-anchor="middle" x="333.02" y="-304.95" font-family="Times New Roman,serif" font-size="14.00">blandīšanās</text>
</g>
<!-- blandīties___bland -->
<g id="node3" class="node">
<title>blandīties___bland</title>
<ellipse fill="white" stroke="black" stroke-width="0" cx="173.76" cy="-456" rx="46.75" ry="18"/>
<text xml:space="preserve" text-anchor="middle" x="173.76" y="-450.95" font-family="Times New Roman,serif" font-size="14.00">blandīties</text>
</g>
<!-- blandonis___bland -->
<g id="node4" class="node">
<title>blandonis___bland</title>
<ellipse fill="white" stroke="black" stroke-width="0" cx="173.76" cy="-162" rx="46.75" ry="18"/>
<text xml:space="preserve" text-anchor="middle" x="173.76" y="-156.95" font-family="Times New Roman,serif" font-size="14.00">blandonis</text>
</g>
<!-- blandoņa___bland -->
<g id="node5" class="node">
<title>blandoņa___bland</title>
<ellipse fill="white" stroke="black" stroke-width="0" cx="173.76" cy="-18" rx="44.7" ry="18"/>
<text xml:space="preserve" text-anchor="middle" x="173.76" y="-12.95" font-family="Times New Roman,serif" font-size="14.00">blandoņa</text>
</g>
<!-- aizblandīties___bland -->
<g id="node6" class="node">
<title>aizblandīties___bland</title>
<ellipse fill="white" stroke="black" stroke-width="0" cx="333.02" cy="-236" rx="57.49" ry="18"/>
<text xml:space="preserve" text-anchor="middle" x="333.02" y="-230.95" font-family="Times New Roman,serif" font-size="14.00">aizblandīties</text>
</g>
<!-- ieblandīties___bland -->
<g id="node7" class="node">
<title>ieblandīties___bland</title>
<ellipse fill="white" stroke="black" stroke-width="0" cx="333.02" cy="-744" rx="53.4" ry="18"/>
<text xml:space="preserve" text-anchor="middle" x="333.02" y="-738.95" font-family="Times New Roman,serif" font-size="14.00">ieblandīties</text>
</g>
<!-- izblandīt___bland -->
<g id="node8" class="node">
<title>izblandīt___bland</title>
<ellipse fill="white" stroke="black" stroke-width="0" cx="173.76" cy="-90" rx="43.16" ry="18"/>
<text xml:space="preserve" text-anchor="middle" x="173.76" y="-84.95" font-family="Times New Roman,serif" font-size="14.00">izblandīt</text>
</g>
<!-- izblandīties___bland -->
<g id="node9" class="node">
<title>izblandīties___bland</title>
<ellipse fill="white" stroke="black" stroke-width="0" cx="333.02" cy="-666" rx="53.4" ry="18"/>
<text xml:space="preserve" text-anchor="middle" x="333.02" y="-660.95" font-family="Times New Roman,serif" font-size="14.00">izblandīties</text>
</g>
<!-- noblandīties___bland -->
<g id="node10" class="node">
<title>noblandīties___bland</title>
<ellipse fill="white" stroke="black" stroke-width="0" cx="333.02" cy="-583" rx="55.96" ry="18"/>
<text xml:space="preserve" text-anchor="middle" x="333.02" y="-577.95" font-family="Times New Roman,serif" font-size="14.00">noblandīties</text>
</g>
<!-- pablandīties___bland -->
<g id="node11" class="node">
<title>pablandīties___bland</title>
<ellipse fill="white" stroke="black" stroke-width="0" cx="333.02" cy="-492" rx="55.45" ry="18"/>
<text xml:space="preserve" text-anchor="middle" x="333.02" y="-486.95" font-family="Times New Roman,serif" font-size="14.00">pablandīties</text>
</g>
<!-- pārblandīties___bland -->
<g id="node12" class="node">
<title>pārblandīties___bland</title>
<ellipse fill="white" stroke="black" stroke-width="0" cx="333.02" cy="-420" rx="58.52" ry="18"/>
<text xml:space="preserve" text-anchor="middle" x="333.02" y="-414.95" font-family="Times New Roman,serif" font-size="14.00">pārblandīties</text>
</g>
<!-- blandīt -->
<g id="node13" class="node">
<title>blandīt</title>
<ellipse fill="white" stroke="black" stroke-width="0" cx="36.51" cy="-126" rx="36.51" ry="18"/>
<text xml:space="preserve" text-anchor="middle" x="36.51" y="-120.95" font-family="Times New Roman,serif" font-size="14.00" fill="gray">blandīt</text>
</g>
</g>
</svg>
