<?xml version="1.0" encoding="UTF-8" standalone="no"?>
<!DOCTYPE svg PUBLIC "-//W3C//DTD SVG 1.1//EN"
 "http://www.w3.org/Graphics/SVG/1.1/DTD/svg11.dtd">
<!-- Generated by graphviz version 13.1.2 (20250808.2320)
 -->
<!-- Pages: 1 -->
<svg width="267pt" height="332pt"
 viewBox="0.00 0.00 267.00 332.00" xmlns="http://www.w3.org/2000/svg" xmlns:xlink="http://www.w3.org/1999/xlink">
<g id="graph0" class="graph" transform="scale(1 1) rotate(0) translate(4 328)">
<polygon fill="white" stroke="none" points="-4,4 -4,-328 263.04,-328 263.04,4 -4,4"/>
<!-- # blast&#45;&gt;blastula___blast -->
<g id="edge1" class="edge">
<title># blast&#45;&gt;blastula___blast</title>
<path fill="none" stroke="#cccccc" d="M61.19,-182.33C92.3,-211.32 148.77,-263.95 176.95,-290.21"/>
</g>
<!-- # blast&#45;&gt;limfoblasts___blast -->
<g id="edge2" class="edge">
<title># blast&#45;&gt;limfoblasts___blast</title>
<path fill="none" stroke="#cccccc" d="M76.39,-179.25C102.9,-191.6 138.2,-208.05 163.16,-219.68"/>
</g>
<!-- # blast&#45;&gt;mieloblasts___blast -->
<g id="edge3" class="edge">
<title># blast&#45;&gt;mieloblasts___blast</title>
<path fill="none" stroke="#cccccc" d="M76.39,-162C95.94,-162 120.27,-162 141.7,-162"/>
</g>
<!-- # blast&#45;&gt;fibroblasts___blast -->
<g id="edge4" class="edge">
<title># blast&#45;&gt;fibroblasts___blast</title>
<path fill="none" stroke="#cccccc" d="M76.39,-144.75C103.17,-132.27 138.91,-115.62 163.92,-103.97"/>
</g>
<!-- # blast&#45;&gt;nefroblastoma___blast -->
<g id="edge5" class="edge">
<title># blast&#45;&gt;nefroblastoma___blast</title>
<path fill="none" stroke="#cccccc" d="M61.19,-141.67C91.8,-113.14 146.97,-61.74 175.57,-35.08"/>
</g>
<!-- # blast -->
<g id="node1" class="node">
<title># blast</title>
<polygon fill="lightblue" stroke="black" stroke-width="0" points="76.75,-182.5 0,-182.5 0,-141.5 76.75,-141.5 76.75,-182.5"/>
<text xml:space="preserve" text-anchor="middle" x="38.38" y="-165.2" font-family="Times New Roman,serif" font-size="14.00">blast</text>
<text xml:space="preserve" text-anchor="middle" x="38.38" y="-148.7" font-family="Times New Roman,serif" font-size="14.00">(borrowed)</text>
</g>
<!-- blastula___blast -->
<g id="node2" class="node">
<title>blastula___blast</title>
<ellipse fill="white" stroke="black" stroke-width="0" cx="194.9" cy="-306" rx="39.58" ry="18"/>
<text xml:space="preserve" text-anchor="middle" x="194.9" y="-300.95" font-family="Times New Roman,serif" font-size="14.00">blastula</text>
</g>
<!-- limfoblasts___blast -->
<g id="node3" class="node">
<title>limfoblasts___blast</title>
<ellipse fill="white" stroke="black" stroke-width="0" cx="194.9" cy="-234" rx="52.38" ry="18"/>
<text xml:space="preserve" text-anchor="middle" x="194.9" y="-228.95" font-family="Times New Roman,serif" font-size="14.00">limfoblasts</text>
</g>
<!-- mieloblasts___blast -->
<g id="node4" class="node">
<title>mieloblasts___blast</title>
<ellipse fill="white" stroke="black" stroke-width="0" cx="194.9" cy="-162" rx="53.4" ry="18"/>
<text xml:space="preserve" text-anchor="middle" x="194.9" y="-156.95" font-family="Times New Roman,serif" font-size="14.00">mieloblasts</text>
</g>
<!-- fibroblasts___blast -->
<g id="node5" class="node">
<title>fibroblasts___blast</title>
<ellipse fill="white" stroke="black" stroke-width="0" cx="194.9" cy="-90" rx="49.82" ry="18"/>
<text xml:space="preserve" text-anchor="middle" x="194.9" y="-84.95" font-family="Times New Roman,serif" font-size="14.00">fibroblasts</text>
</g>
<!-- nefroblastoma___blast -->
<g id="node6" class="node">
<title>nefroblastoma___blast</title>
<ellipse fill="white" stroke="black" stroke-width="0" cx="194.9" cy="-18" rx="64.15" ry="18"/>
<text xml:space="preserve" text-anchor="middle" x="194.9" y="-12.95" font-family="Times New Roman,serif" font-size="14.00">nefroblastoma</text>
</g>
</g>
</svg>
