<?xml version="1.0" encoding="UTF-8" standalone="no"?>
<!DOCTYPE svg PUBLIC "-//W3C//DTD SVG 1.1//EN"
 "http://www.w3.org/Graphics/SVG/1.1/DTD/svg11.dtd">
<!-- Generated by graphviz version 13.1.2 (20250808.2320)
 -->
<!-- Pages: 1 -->
<svg width="345pt" height="119pt"
 viewBox="0.00 0.00 345.00 119.00" xmlns="http://www.w3.org/2000/svg" xmlns:xlink="http://www.w3.org/1999/xlink">
<g id="graph0" class="graph" transform="scale(1 1) rotate(0) translate(4 114.5)">
<polygon fill="white" stroke="none" points="-4,4 -4,-114.5 340.93,-114.5 340.93,4 -4,4"/>
<!-- # blašķ&#45;&gt;blašķe___blašķ -->
<g id="edge1" class="edge">
<title># blašķ&#45;&gt;blašķe___blašķ</title>
<path fill="none" stroke="#cccccc" d="M75.4,-40.94C97.38,-53.41 124.79,-68.97 143.73,-79.72"/>
</g>
<!-- # blašķ&#45;&gt;blašķis___blašķ -->
<g id="edge2" class="edge">
<title># blašķ&#45;&gt;blašķis___blašķ</title>
<path fill="none" stroke="#cccccc" d="M76.42,-20.5C93.68,-20.5 114.12,-20.5 131.13,-20.5"/>
</g>
<!-- # blašķ&#45;&gt;blašķīte___blašķ -->
<g id="edge3" class="edge">
<title># blašķ&#45;&gt;blašķīte___blašķ</title>
<path fill="none" stroke="#cccccc" d="M76.59,-20.35C125.27,-20.16 208.97,-19.84 258.13,-19.65"/>
</g>
<!-- blašķe___blašķ&#45;&gt;blašķīte___blašķ -->
<g id="edge4" class="edge">
<title>blašķe___blašķ&#45;&gt;blašķīte___blašķ</title>
<path fill="none" stroke="green" d="M190.86,-79.62C210.67,-68.33 239.74,-51.76 262.35,-38.88"/>
<polygon fill="green" stroke="green" points="263.96,-41.99 270.91,-34 260.49,-35.91 263.96,-41.99"/>
</g>
<!-- # blašķ -->
<g id="node1" class="node">
<title># blašķ</title>
<polygon fill="lightblue" stroke="black" stroke-width="0" points="76.75,-41 0,-41 0,0 76.75,0 76.75,-41"/>
<text xml:space="preserve" text-anchor="middle" x="38.38" y="-23.7" font-family="Times New Roman,serif" font-size="14.00">blašķ</text>
<text xml:space="preserve" text-anchor="middle" x="38.38" y="-7.2" font-family="Times New Roman,serif" font-size="14.00">(borrowed)</text>
</g>
<!-- blašķe___blašķ -->
<g id="node2" class="node">
<title>blašķe___blašķ</title>
<ellipse fill="white" stroke="black" stroke-width="0" cx="167.26" cy="-92.5" rx="34.46" ry="18"/>
<text xml:space="preserve" text-anchor="middle" x="167.26" y="-87.45" font-family="Times New Roman,serif" font-size="14.00">blašķe</text>
</g>
<!-- blašķis___blašķ -->
<g id="node3" class="node">
<title>blašķis___blašķ</title>
<ellipse fill="white" stroke="black" stroke-width="0" cx="167.26" cy="-20.5" rx="36.51" ry="18"/>
<text xml:space="preserve" text-anchor="middle" x="167.26" y="-15.45" font-family="Times New Roman,serif" font-size="14.00">blašķis</text>
</g>
<!-- blašķīte___blašķ -->
<g id="node4" class="node">
<title>blašķīte___blašķ</title>
<ellipse fill="white" stroke="black" stroke-width="0" cx="297.35" cy="-19.5" rx="39.58" ry="18"/>
<text xml:space="preserve" text-anchor="middle" x="297.35" y="-14.45" font-family="Times New Roman,serif" font-size="14.00">blašķīte</text>
</g>
</g>
</svg>
