<?xml version="1.0" encoding="UTF-8" standalone="no"?>
<!DOCTYPE svg PUBLIC "-//W3C//DTD SVG 1.1//EN"
 "http://www.w3.org/Graphics/SVG/1.1/DTD/svg11.dtd">
<!-- Generated by graphviz version 13.1.2 (20250808.2320)
 -->
<!-- Pages: 1 -->
<svg width="381pt" height="226pt"
 viewBox="0.00 0.00 381.00 226.00" xmlns="http://www.w3.org/2000/svg" xmlns:xlink="http://www.w3.org/1999/xlink">
<g id="graph0" class="graph" transform="scale(1 1) rotate(0) translate(4 222)">
<polygon fill="white" stroke="none" points="-4,4 -4,-222 377.18,-222 377.18,4 -4,4"/>
<!-- # blaugzn&#45;&gt;blaugzna___blaugzn -->
<g id="edge1" class="edge">
<title># blaugzn&#45;&gt;blaugzna___blaugzn</title>
<path fill="none" stroke="#cccccc" d="M58.55,-164C74.6,-164 95.04,-164 113.05,-164"/>
</g>
<!-- # blaugzn&#45;&gt;blaugznains___blaugzn -->
<g id="edge2" class="edge">
<title># blaugzn&#45;&gt;blaugznains___blaugzn</title>
<path fill="none" stroke="#cccccc" d="M58.51,-167.68C106.64,-173.77 203.34,-185.99 263.04,-193.54"/>
</g>
<!-- # blaugzn&#45;&gt;pretblaugznu___blaugzn -->
<g id="edge3" class="edge">
<title># blaugzn&#45;&gt;pretblaugznu___blaugzn</title>
<path fill="none" stroke="#cccccc" d="M58.51,-156.53C108.27,-143.78 209.95,-117.71 268.97,-102.58"/>
</g>
<!-- blaugzna___blaugzn&#45;&gt;blaugznains___blaugzn -->
<g id="edge4" class="edge">
<title>blaugzna___blaugzn&#45;&gt;blaugznains___blaugzn</title>
<path fill="none" stroke="green" d="M195.51,-172.71C214.21,-177.05 237.17,-182.38 257.84,-187.17"/>
<polygon fill="green" stroke="green" points="257.03,-190.58 267.56,-189.43 258.61,-183.76 257.03,-190.58"/>
</g>
<!-- blaugzna___blaugzn&#45;&gt;pretblaugznu___blaugzn -->
<g id="edge6" class="edge">
<title>blaugzna___blaugzn&#45;&gt;pretblaugznu___blaugzn</title>
<path fill="none" stroke="blue" d="M186.4,-150.61C210.12,-139.46 244.25,-123.41 271.11,-110.77"/>
<polygon fill="blue" stroke="blue" points="272.46,-114.01 280.02,-106.58 269.48,-107.67 272.46,-114.01"/>
</g>
<!-- pret&#45;&gt;pretblaugznu___blaugzn -->
<g id="edge5" class="edge">
<title>pret&#45;&gt;pretblaugznu___blaugzn</title>
<path fill="none" stroke="blue" d="M179.19,-28C202.81,-39.11 241.53,-57.32 271.29,-71.31"/>
<polygon fill="blue" stroke="blue" points="269.49,-74.33 280.03,-75.42 272.47,-68 269.49,-74.33"/>
</g>
<!-- # blaugzn -->
<g id="node1" class="node">
<title># blaugzn</title>
<polygon fill="lightblue" stroke="black" stroke-width="0" points="58.75,-182 0,-182 0,-146 58.75,-146 58.75,-182"/>
<text xml:space="preserve" text-anchor="middle" x="29.38" y="-158.95" font-family="Times New Roman,serif" font-size="14.00">blaugzn</text>
</g>
<!-- blaugzna___blaugzn -->
<g id="node2" class="node">
<title>blaugzna___blaugzn</title>
<ellipse fill="white" stroke="black" stroke-width="0" cx="156.94" cy="-164" rx="44.19" ry="18"/>
<text xml:space="preserve" text-anchor="middle" x="156.94" y="-158.95" font-family="Times New Roman,serif" font-size="14.00">blaugzna</text>
</g>
<!-- blaugznains___blaugzn -->
<g id="node3" class="node">
<title>blaugznains___blaugzn</title>
<ellipse fill="white" stroke="black" stroke-width="0" cx="314.15" cy="-200" rx="54.93" ry="18"/>
<text xml:space="preserve" text-anchor="middle" x="314.15" y="-194.95" font-family="Times New Roman,serif" font-size="14.00">blaugznains</text>
</g>
<!-- pretblaugznu___blaugzn -->
<g id="node4" class="node">
<title>pretblaugznu___blaugzn</title>
<ellipse fill="white" stroke="black" stroke-width="0" cx="314.15" cy="-91" rx="59.03" ry="18"/>
<text xml:space="preserve" text-anchor="middle" x="314.15" y="-85.95" font-family="Times New Roman,serif" font-size="14.00">pretblaugznu</text>
</g>
<!-- pret -->
<g id="node5" class="node">
<title>pret</title>
<ellipse fill="white" stroke="black" stroke-width="0" cx="156.94" cy="-18" rx="27" ry="18"/>
<text xml:space="preserve" text-anchor="middle" x="156.94" y="-12.95" font-family="Times New Roman,serif" font-size="14.00" fill="gray">pret</text>
</g>
</g>
</svg>
