<?xml version="1.0" encoding="UTF-8" standalone="no"?>
<!DOCTYPE svg PUBLIC "-//W3C//DTD SVG 1.1//EN"
 "http://www.w3.org/Graphics/SVG/1.1/DTD/svg11.dtd">
<!-- Generated by graphviz version 13.1.2 (20250808.2320)
 -->
<!-- Pages: 1 -->
<svg width="603pt" height="336pt"
 viewBox="0.00 0.00 603.00 336.00" xmlns="http://www.w3.org/2000/svg" xmlns:xlink="http://www.w3.org/1999/xlink">
<g id="graph0" class="graph" transform="scale(1 1) rotate(0) translate(4 332)">
<polygon fill="white" stroke="none" points="-4,4 -4,-332 598.97,-332 598.97,4 -4,4"/>
<!-- # blau&#45;&gt;Blaumanis___blau -->
<g id="edge1" class="edge">
<title># blau&#45;&gt;Blaumanis___blau</title>
<path fill="none" stroke="#cccccc" d="M59.01,-183.44C87.2,-212.79 138.61,-266.3 164.61,-293.37"/>
</g>
<!-- # blau&#45;&gt;blaumanisks___blau -->
<g id="edge2" class="edge">
<title># blau&#45;&gt;blaumanisks___blau</title>
<path fill="none" stroke="#cccccc" d="M76.45,-172.22C132.85,-185.88 238.37,-211.44 298.64,-226.03"/>
</g>
<!-- # blau&#45;&gt;blaumaniskums___blau -->
<g id="edge3" class="edge">
<title># blau&#45;&gt;blaumaniskums___blau</title>
<path fill="none" stroke="#cccccc" d="M76.57,-165.9C159.06,-172.17 354.73,-187.04 458.27,-194.91"/>
</g>
<!-- # blau&#45;&gt;Blaus___blau -->
<g id="edge4" class="edge">
<title># blau&#45;&gt;Blaus___blau</title>
<path fill="none" stroke="#cccccc" d="M76.48,-143.82C102.3,-130.47 135.91,-113.1 157.85,-101.75"/>
</g>
<!-- # blau&#45;&gt;Blaua___blau -->
<g id="edge5" class="edge">
<title># blau&#45;&gt;Blaua___blau</title>
<path fill="none" stroke="#cccccc" d="M59.31,-142.53C87.89,-113.18 139.9,-59.78 165.51,-33.48"/>
</g>
<!-- Blaumanis___blau&#45;&gt;blaumanisks___blau -->
<g id="edge6" class="edge">
<title>Blaumanis___blau&#45;&gt;blaumanisks___blau</title>
<path fill="none" stroke="green" d="M213.12,-296.1C237.94,-284.8 273.21,-268.74 300.73,-256.21"/>
<polygon fill="green" stroke="green" points="301.82,-259.56 309.48,-252.23 298.92,-253.19 301.82,-259.56"/>
</g>
<!-- blaumanisks___blau&#45;&gt;blaumaniskums___blau -->
<g id="edge7" class="edge">
<title>blaumanisks___blau&#45;&gt;blaumaniskums___blau</title>
<path fill="none" stroke="green" d="M392.02,-227.28C412.61,-223.03 437.1,-217.98 459.37,-213.38"/>
<polygon fill="green" stroke="green" points="459.87,-216.85 468.95,-211.4 458.45,-209.99 459.87,-216.85"/>
</g>
<!-- # blau -->
<g id="node1" class="node">
<title># blau</title>
<polygon fill="lightblue" stroke="black" stroke-width="0" points="76.75,-183.5 0,-183.5 0,-142.5 76.75,-142.5 76.75,-183.5"/>
<text xml:space="preserve" text-anchor="middle" x="38.38" y="-166.2" font-family="Times New Roman,serif" font-size="14.00">blau</text>
<text xml:space="preserve" text-anchor="middle" x="38.38" y="-149.7" font-family="Times New Roman,serif" font-size="14.00">(borrowed)</text>
</g>
<!-- Blaumanis___blau -->
<g id="node2" class="node">
<title>Blaumanis___blau</title>
<ellipse fill="white" stroke="black" stroke-width="0" cx="181.59" cy="-310" rx="50.84" ry="18"/>
<text xml:space="preserve" text-anchor="middle" x="181.59" y="-304.95" font-family="Times New Roman,serif" font-size="14.00">Blaumanis</text>
</g>
<!-- blaumanisks___blau -->
<g id="node3" class="node">
<title>blaumanisks___blau</title>
<ellipse fill="white" stroke="black" stroke-width="0" cx="343.92" cy="-237" rx="57.49" ry="18"/>
<text xml:space="preserve" text-anchor="middle" x="343.92" y="-231.95" font-family="Times New Roman,serif" font-size="14.00">blaumanisks</text>
</g>
<!-- blaumaniskums___blau -->
<g id="node4" class="node">
<title>blaumaniskums___blau</title>
<ellipse fill="white" stroke="black" stroke-width="0" cx="525.19" cy="-200" rx="69.78" ry="18"/>
<text xml:space="preserve" text-anchor="middle" x="525.19" y="-194.95" font-family="Times New Roman,serif" font-size="14.00">blaumaniskums</text>
</g>
<!-- Blaus___blau -->
<g id="node5" class="node">
<title>Blaus___blau</title>
<ellipse fill="white" stroke="black" stroke-width="0" cx="181.59" cy="-90" rx="31.9" ry="18"/>
<text xml:space="preserve" text-anchor="middle" x="181.59" y="-84.95" font-family="Times New Roman,serif" font-size="14.00">Blaus</text>
</g>
<!-- Blaua___blau -->
<g id="node6" class="node">
<title>Blaua___blau</title>
<ellipse fill="white" stroke="black" stroke-width="0" cx="181.59" cy="-18" rx="32.41" ry="18"/>
<text xml:space="preserve" text-anchor="middle" x="181.59" y="-12.95" font-family="Times New Roman,serif" font-size="14.00">Blaua</text>
</g>
</g>
</svg>
