<?xml version="1.0" encoding="UTF-8" standalone="no"?>
<!DOCTYPE svg PUBLIC "-//W3C//DTD SVG 1.1//EN"
 "http://www.w3.org/Graphics/SVG/1.1/DTD/svg11.dtd">
<!-- Generated by graphviz version 13.1.2 (20250808.2320)
 -->
<!-- Pages: 1 -->
<svg width="354pt" height="83pt"
 viewBox="0.00 0.00 354.00 83.00" xmlns="http://www.w3.org/2000/svg" xmlns:xlink="http://www.w3.org/1999/xlink">
<g id="graph0" class="graph" transform="scale(1 1) rotate(0) translate(4 78.5)">
<polygon fill="white" stroke="none" points="-4,4 -4,-78.5 350.14,-78.5 350.14,4 -4,4"/>
<!-- # blaz&#45;&gt;blazētība___blaz -->
<g id="edge1" class="edge">
<title># blaz&#45;&gt;blazētība___blaz</title>
<path fill="none" stroke="#cccccc" d="M76.7,-54C124.82,-54 207.18,-54 257.86,-54"/>
</g>
<!-- # blaz&#45;&gt;blazēts___blaz -->
<g id="edge2" class="edge">
<title># blaz&#45;&gt;blazēts___blaz</title>
<path fill="none" stroke="#cccccc" d="M76.42,-43.49C95.14,-38.18 117.6,-31.8 135.38,-26.76"/>
</g>
<!-- blazēts___blaz&#45;&gt;blazētība___blaz -->
<g id="edge3" class="edge">
<title>blazēts___blaz&#45;&gt;blazētība___blaz</title>
<path fill="none" stroke="green" d="M199.37,-26.44C215.74,-30.88 236.13,-36.41 254.35,-41.36"/>
<polygon fill="green" stroke="green" points="253.32,-44.7 263.89,-43.94 255.15,-37.95 253.32,-44.7"/>
</g>
<!-- # blaz -->
<g id="node1" class="node">
<title># blaz</title>
<polygon fill="lightblue" stroke="black" stroke-width="0" points="76.75,-74.5 0,-74.5 0,-33.5 76.75,-33.5 76.75,-74.5"/>
<text xml:space="preserve" text-anchor="middle" x="38.38" y="-57.2" font-family="Times New Roman,serif" font-size="14.00">blaz</text>
<text xml:space="preserve" text-anchor="middle" x="38.38" y="-40.7" font-family="Times New Roman,serif" font-size="14.00">(borrowed)</text>
</g>
<!-- blazētība___blaz -->
<g id="node2" class="node">
<title>blazētība___blaz</title>
<ellipse fill="white" stroke="black" stroke-width="0" cx="301.95" cy="-54" rx="44.19" ry="18"/>
<text xml:space="preserve" text-anchor="middle" x="301.95" y="-48.95" font-family="Times New Roman,serif" font-size="14.00">blazētība</text>
</g>
<!-- blazēts___blaz -->
<g id="node3" class="node">
<title>blazēts___blaz</title>
<ellipse fill="white" stroke="black" stroke-width="0" cx="167.26" cy="-18" rx="36.51" ry="18"/>
<text xml:space="preserve" text-anchor="middle" x="167.26" y="-12.95" font-family="Times New Roman,serif" font-size="14.00">blazēts</text>
</g>
</g>
</svg>
