<?xml version="1.0" encoding="UTF-8" standalone="no"?>
<!DOCTYPE svg PUBLIC "-//W3C//DTD SVG 1.1//EN"
 "http://www.w3.org/Graphics/SVG/1.1/DTD/svg11.dtd">
<!-- Generated by graphviz version 13.1.2 (20250808.2320)
 -->
<!-- Pages: 1 -->
<svg width="1431pt" height="1156pt"
 viewBox="0.00 0.00 1431.00 1156.00" xmlns="http://www.w3.org/2000/svg" xmlns:xlink="http://www.w3.org/1999/xlink">
<g id="graph0" class="graph" transform="scale(1 1) rotate(0) translate(4 1151.93)">
<polygon fill="white" stroke="none" points="-4,4 -4,-1151.93 1426.7,-1151.93 1426.7,4 -4,4"/>
<!-- # bļau, bļāv&#45;&gt;atbļaut___bļau__bļāv -->
<g id="edge1" class="edge">
<title># bļau, bļāv&#45;&gt;atbļaut___bļau__bļāv</title>
<path fill="none" stroke="#cccccc" d="M965.91,-534.76C1041.7,-576.84 1229.66,-681.2 1296.13,-718.11"/>
</g>
<!-- # bļau, bļāv&#45;&gt;bļaudams___bļau__bļāv -->
<g id="edge2" class="edge">
<title># bļau, bļāv&#45;&gt;bļaudams___bļau__bļāv</title>
<path fill="none" stroke="#cccccc" d="M950.14,-534.57C1003.79,-592.23 1172.83,-773.91 1224.98,-829.95"/>
</g>
<!-- # bļau, bļāv&#45;&gt;bļauris___bļau__bļāv -->
<g id="edge3" class="edge">
<title># bļau, bļāv&#45;&gt;bļauris___bļau__bļāv</title>
<path fill="none" stroke="#cccccc" d="M925.83,-534.69C892.42,-610.96 761.85,-909.05 728.74,-984.64"/>
</g>
<!-- # bļau, bļāv&#45;&gt;bļaurīgs___bļau__bļāv -->
<g id="edge4" class="edge">
<title># bļau, bļāv&#45;&gt;bļaurīgs___bļau__bļāv</title>
<path fill="none" stroke="#cccccc" d="M911.34,-534.7C840.42,-591.45 620.93,-767.1 554.07,-820.6"/>
</g>
<!-- # bļau, bļāv&#45;&gt;bļaurot___bļau__bļāv -->
<g id="edge5" class="edge">
<title># bļau, bļāv&#45;&gt;bļaurot___bļau__bļāv</title>
<path fill="none" stroke="#cccccc" d="M919.74,-534.82C867.96,-601.74 686.76,-835.94 636.82,-900.49"/>
</g>
<!-- # bļau, bļāv&#45;&gt;bļaustīgs___bļau__bļāv -->
<g id="edge6" class="edge">
<title># bļau, bļāv&#45;&gt;bļaustīgs___bļau__bļāv</title>
<path fill="none" stroke="#cccccc" d="M940.09,-499.08C965.53,-428.99 1058.78,-171.97 1084.16,-102.03"/>
</g>
<!-- # bļau, bļāv&#45;&gt;bļaustīšanās___bļau__bļāv -->
<g id="edge7" class="edge">
<title># bļau, bļāv&#45;&gt;bļaustīšanās___bļau__bļāv</title>
<path fill="none" stroke="#cccccc" d="M928.74,-499.09C907.31,-421.6 822.06,-113.39 800.6,-35.8"/>
</g>
<!-- # bļau, bļāv&#45;&gt;bļaustīties___bļau__bļāv -->
<g id="edge8" class="edge">
<title># bļau, bļāv&#45;&gt;bļaustīties___bļau__bļāv</title>
<path fill="none" stroke="#cccccc" d="M931.63,-498.93C924.14,-432.67 898.08,-201.92 890.61,-135.75"/>
</g>
<!-- # bļau, bļāv&#45;&gt;bļaušana___bļau__bļāv -->
<g id="edge9" class="edge">
<title># bļau, bļāv&#45;&gt;bļaušana___bļau__bļāv</title>
<path fill="none" stroke="#cccccc" d="M951.77,-534.65C995.36,-577.49 1105.59,-685.82 1147.78,-727.28"/>
</g>
<!-- # bļau, bļāv&#45;&gt;bļaut___bļau__bļāv -->
<g id="edge10" class="edge">
<title># bļau, bļāv&#45;&gt;bļaut___bļau__bļāv</title>
<path fill="none" stroke="#cccccc" d="M968.51,-534.53C1003.86,-552.46 1057.52,-579.68 1087.61,-594.94"/>
</g>
<!-- # bļau, bļāv&#45;&gt;bļaustīt___bļau__bļāv -->
<g id="edge11" class="edge">
<title># bļau, bļāv&#45;&gt;bļaustīt___bļau__bļāv</title>
<path fill="none" stroke="#cccccc" d="M941.62,-498.92C962.47,-451.99 1018.46,-325.96 1039.13,-279.44"/>
</g>
<!-- # bļau, bļāv&#45;&gt;iebļaut___bļau__bļāv -->
<g id="edge12" class="edge">
<title># bļau, bļāv&#45;&gt;iebļaut___bļau__bļāv</title>
<path fill="none" stroke="#cccccc" d="M942.53,-534.59C974.42,-598.32 1082.92,-815.12 1114.43,-878.07"/>
</g>
<!-- # bļau, bļāv&#45;&gt;iebļauties___bļau__bļāv -->
<g id="edge13" class="edge">
<title># bļau, bļāv&#45;&gt;iebļauties___bļau__bļāv</title>
<path fill="none" stroke="#cccccc" d="M968.5,-503.15C1015.94,-484.5 1100.21,-451.38 1146.33,-433.26"/>
</g>
<!-- # bļau, bļāv&#45;&gt;izbļaustītājs___bļau__bļāv -->
<g id="edge14" class="edge">
<title># bļau, bļāv&#45;&gt;izbļaustītājs___bļau__bļāv</title>
<path fill="none" stroke="#cccccc" d="M898.84,-502.06C802.14,-460.98 531.12,-345.86 436.35,-305.61"/>
</g>
<!-- # bļau, bļāv&#45;&gt;izbļaustīties___bļau__bļāv -->
<g id="edge15" class="edge">
<title># bļau, bļāv&#45;&gt;izbļaustīties___bļau__bļāv</title>
<path fill="none" stroke="#cccccc" d="M925.46,-498.99C898.94,-441.18 815.66,-259.6 789.35,-202.24"/>
</g>
<!-- # bļau, bļāv&#45;&gt;izbļaut___bļau__bļāv -->
<g id="edge16" class="edge">
<title># bļau, bļāv&#45;&gt;izbļaut___bļau__bļāv</title>
<path fill="none" stroke="#cccccc" d="M968.32,-518.56C1039.51,-522.07 1201.56,-530.07 1273.61,-533.63"/>
</g>
<!-- # bļau, bļāv&#45;&gt;nebļaut___bļau__bļāv -->
<g id="edge17" class="edge">
<title># bļau, bļāv&#45;&gt;nebļaut___bļau__bļāv</title>
<path fill="none" stroke="#cccccc" d="M968.29,-524.88C1052.45,-544.39 1266.87,-594.1 1350.51,-613.49"/>
</g>
<!-- # bļau, bļāv&#45;&gt;nobļaut___bļau__bļāv -->
<g id="edge18" class="edge">
<title># bļau, bļāv&#45;&gt;nobļaut___bļau__bļāv</title>
<path fill="none" stroke="#cccccc" d="M961.98,-498.95C1024.54,-459.42 1173.44,-365.34 1230.29,-329.42"/>
</g>
<!-- # bļau, bļāv&#45;&gt;nobļauties___bļau__bļāv -->
<g id="edge19" class="edge">
<title># bļau, bļāv&#45;&gt;nobļauties___bļau__bļāv</title>
<path fill="none" stroke="#cccccc" d="M950.78,-499.19C1009.86,-438.31 1204.67,-237.57 1262.66,-177.82"/>
</g>
<!-- # bļau, bļāv&#45;&gt;pabļaustīties___bļau__bļāv -->
<g id="edge20" class="edge">
<title># bļau, bļāv&#45;&gt;pabļaustīties___bļau__bļāv</title>
<path fill="none" stroke="#cccccc" d="M921.38,-499.21C877.31,-435.88 727.4,-220.43 683.87,-157.86"/>
</g>
<!-- # bļau, bļāv&#45;&gt;pabļaut___bļau__bļāv -->
<g id="edge21" class="edge">
<title># bļau, bļāv&#45;&gt;pabļaut___bļau__bļāv</title>
<path fill="none" stroke="#cccccc" d="M968.5,-509.65C1048.54,-493.11 1244.8,-452.56 1324.74,-436.05"/>
</g>
<!-- # bļau, bļāv&#45;&gt;pārbļaut___bļau__bļāv -->
<g id="edge22" class="edge">
<title># bļau, bļāv&#45;&gt;pārbļaut___bļau__bļāv</title>
<path fill="none" stroke="#cccccc" d="M936.94,-534.78C948.87,-599.78 989.76,-822.49 1001.63,-887.18"/>
</g>
<!-- # bļau, bļāv&#45;&gt;sabļaustīties___bļau__bļāv -->
<g id="edge23" class="edge">
<title># bļau, bļāv&#45;&gt;sabļaustīties___bļau__bļāv</title>
<path fill="none" stroke="#cccccc" d="M899.04,-520.75C806.09,-531.23 550.6,-560.03 439.6,-572.54"/>
</g>
<!-- # bļau, bļāv&#45;&gt;sabļaut___bļau__bļāv -->
<g id="edge24" class="edge">
<title># bļau, bļāv&#45;&gt;sabļaut___bļau__bļāv</title>
<path fill="none" stroke="#cccccc" d="M911.93,-534.83C886.4,-555.98 844.47,-590.7 820.49,-610.56"/>
</g>
<!-- # bļau, bļāv&#45;&gt;uzbļaut___bļau__bļāv -->
<g id="edge25" class="edge">
<title># bļau, bļāv&#45;&gt;uzbļaut___bļau__bļāv</title>
<path fill="none" stroke="#cccccc" d="M905.12,-498.89C881.51,-484.02 848.39,-463.17 826.5,-449.39"/>
</g>
<!-- # bļau, bļāv&#45;&gt;bļāvējs___bļau__bļāv -->
<g id="edge26" class="edge">
<title># bļau, bļāv&#45;&gt;bļāvējs___bļau__bļāv</title>
<path fill="none" stroke="#cccccc" d="M935.9,-534.7C942.02,-583.14 958.88,-716.6 964.98,-764.94"/>
</g>
<!-- # bļau, bļāv&#45;&gt;bļāviens___bļau__bļāv -->
<g id="edge27" class="edge">
<title># bļau, bļāv&#45;&gt;bļāviens___bļau__bļāv</title>
<path fill="none" stroke="#cccccc" d="M927.1,-534.47C910.64,-578.8 867.66,-694.54 851.19,-738.9"/>
</g>
<!-- # bļau, bļāv&#45;&gt;uzbļāviens___bļau__bļāv -->
<g id="edge28" class="edge">
<title># bļau, bļāv&#45;&gt;uzbļāviens___bļau__bļāv</title>
<path fill="none" stroke="#cccccc" d="M898.88,-504.45C836.11,-482.06 704.51,-435.12 641.27,-412.57"/>
</g>
<!-- bļaustīties___bļau__bļāv&#45;&gt;bļaustīšanās___bļau__bļāv -->
<g id="edge35" class="edge">
<title>bļaustīties___bļau__bļāv&#45;&gt;bļaustīšanās___bļau__bļāv</title>
<path fill="none" stroke="green" d="M872.83,-100.94C858.15,-85.15 836.06,-61.41 819.28,-43.37"/>
<polygon fill="green" stroke="green" points="821.92,-41.07 812.55,-36.13 816.8,-45.84 821.92,-41.07"/>
</g>
<!-- bļaustīties___bļau__bļāv&#45;&gt;izbļaustīties___bļau__bļāv -->
<g id="edge42" class="edge">
<title>bļaustīties___bļau__bļāv&#45;&gt;izbļaustīties___bļau__bļāv</title>
<path fill="none" stroke="green" d="M863.98,-133.21C849.73,-142.08 831.58,-153.38 815.92,-163.14"/>
<polygon fill="green" stroke="green" points="814.47,-159.92 807.83,-168.18 818.17,-165.86 814.47,-159.92"/>
</g>
<!-- bļaustīties___bļau__bļāv&#45;&gt;pabļaustīties___bļau__bļāv -->
<g id="edge47" class="edge">
<title>bļaustīties___bļau__bļāv&#45;&gt;pabļaustīties___bļau__bļāv</title>
<path fill="none" stroke="green" d="M842.38,-122.75C811.67,-125.98 770.9,-130.27 736.94,-133.85"/>
<polygon fill="green" stroke="green" points="736.79,-130.35 727.21,-134.87 737.52,-137.31 736.79,-130.35"/>
</g>
<!-- bļaut___bļau__bļāv&#45;&gt;atbļaut___bļau__bļāv -->
<g id="edge29" class="edge">
<title>bļaut___bļau__bļāv&#45;&gt;atbļaut___bļau__bļāv</title>
<path fill="none" stroke="green" d="M1130.97,-618.78C1167.53,-640.56 1243.37,-685.73 1287.02,-711.72"/>
<polygon fill="green" stroke="green" points="1285.18,-714.7 1295.56,-716.81 1288.76,-708.69 1285.18,-714.7"/>
</g>
<!-- bļaut___bļau__bļāv&#45;&gt;bļaudams___bļau__bļāv -->
<g id="edge30" class="edge">
<title>bļaut___bļau__bļāv&#45;&gt;bļaudams___bļau__bļāv</title>
<path fill="none" stroke="green" d="M1119.26,-623.24C1141.45,-664.13 1198.23,-768.77 1225.45,-818.94"/>
<polygon fill="green" stroke="green" points="1222.37,-820.61 1230.22,-827.73 1228.52,-817.27 1222.37,-820.61"/>
</g>
<!-- bļaut___bļau__bļāv&#45;&gt;bļaušana___bļau__bļāv -->
<g id="edge37" class="edge">
<title>bļaut___bļau__bļāv&#45;&gt;bļaušana___bļau__bļāv</title>
<path fill="none" stroke="green" d="M1116.99,-623.75C1126.15,-646.86 1142.43,-687.95 1153.36,-715.53"/>
<polygon fill="green" stroke="green" points="1150.05,-716.66 1156.99,-724.67 1156.56,-714.08 1150.05,-716.66"/>
</g>
<!-- bļaut___bļau__bļāv&#45;&gt;bļaustīt___bļau__bļāv -->
<g id="edge38" class="edge">
<title>bļaut___bļau__bļāv&#45;&gt;bļaustīt___bļau__bļāv</title>
<path fill="none" stroke="green" d="M1106.87,-588.79C1096.66,-533.05 1064.87,-359.67 1052.22,-290.65"/>
<polygon fill="green" stroke="green" points="1055.67,-290.08 1050.43,-280.88 1048.79,-291.34 1055.67,-290.08"/>
</g>
<!-- bļaut___bļau__bļāv&#45;&gt;iebļaut___bļau__bļāv -->
<g id="edge39" class="edge">
<title>bļaut___bļau__bļāv&#45;&gt;iebļaut___bļau__bļāv</title>
<path fill="none" stroke="green" d="M1110.89,-623.99C1113.05,-672.26 1119.1,-806.85 1121.77,-866.38"/>
<polygon fill="green" stroke="green" points="1118.26,-866.22 1122.21,-876.06 1125.26,-865.91 1118.26,-866.22"/>
</g>
<!-- bļaut___bļau__bļāv&#45;&gt;iebļauties___bļau__bļāv -->
<g id="edge40" class="edge">
<title>bļaut___bļau__bļāv&#45;&gt;iebļauties___bļau__bļāv</title>
<path fill="none" stroke="green" d="M1116.55,-588.87C1128.45,-556.63 1153.95,-487.58 1168.32,-448.67"/>
<polygon fill="green" stroke="green" points="1171.52,-450.11 1171.7,-439.52 1164.96,-447.69 1171.52,-450.11"/>
</g>
<!-- bļaut___bļau__bļāv&#45;&gt;izbļaut___bļau__bļāv -->
<g id="edge43" class="edge">
<title>bļaut___bļau__bļāv&#45;&gt;izbļaut___bļau__bļāv</title>
<path fill="none" stroke="green" d="M1135.32,-597.36C1169.1,-585.33 1229.4,-563.85 1269.37,-549.61"/>
<polygon fill="green" stroke="green" points="1270.4,-552.96 1278.65,-546.31 1268.05,-546.36 1270.4,-552.96"/>
</g>
<!-- bļaut___bļau__bļāv&#45;&gt;nebļaut___bļau__bļāv -->
<g id="edge44" class="edge">
<title>bļaut___bļau__bļāv&#45;&gt;nebļaut___bļau__bļāv</title>
<path fill="none" stroke="green" d="M1139.22,-607.94C1186.08,-610.51 1278.76,-615.6 1335.85,-618.73"/>
<polygon fill="green" stroke="green" points="1335.43,-622.21 1345.61,-619.26 1335.82,-615.22 1335.43,-622.21"/>
</g>
<!-- bļaut___bļau__bļāv&#45;&gt;nobļaut___bļau__bļāv -->
<g id="edge45" class="edge">
<title>bļaut___bļau__bļāv&#45;&gt;nobļaut___bļau__bļāv</title>
<path fill="none" stroke="green" d="M1118.39,-589.43C1142.09,-541.1 1210.27,-402.03 1239.41,-342.61"/>
<polygon fill="green" stroke="green" points="1242.45,-344.36 1243.71,-333.84 1236.16,-341.28 1242.45,-344.36"/>
</g>
<!-- bļaut___bļau__bļāv&#45;&gt;pabļaut___bļau__bļāv -->
<g id="edge48" class="edge">
<title>bļaut___bļau__bļāv&#45;&gt;pabļaut___bļau__bļāv</title>
<path fill="none" stroke="green" d="M1129.25,-592.72C1172.32,-562.06 1277.11,-487.48 1329.14,-450.46"/>
<polygon fill="green" stroke="green" points="1331.16,-453.32 1337.27,-444.67 1327.1,-447.61 1331.16,-453.32"/>
</g>
<!-- bļaut___bļau__bļāv&#45;&gt;pārbļaut___bļau__bļāv -->
<g id="edge49" class="edge">
<title>bļaut___bļau__bļāv&#45;&gt;pārbļaut___bļau__bļāv</title>
<path fill="none" stroke="green" d="M1103.98,-623.69C1086.56,-673.15 1036.49,-815.25 1014.95,-876.39"/>
<polygon fill="green" stroke="green" points="1011.68,-875.14 1011.65,-885.73 1018.28,-877.46 1011.68,-875.14"/>
</g>
<!-- bļaut___bļau__bļāv&#45;&gt;sabļaut___bļau__bļāv -->
<g id="edge51" class="edge">
<title>bļaut___bļau__bļāv&#45;&gt;sabļaut___bļau__bļāv</title>
<path fill="none" stroke="green" d="M1081.12,-608.17C1028.01,-611.52 914.59,-618.67 849.91,-622.75"/>
<polygon fill="green" stroke="green" points="850.08,-619.23 840.32,-623.35 850.52,-626.22 850.08,-619.23"/>
</g>
<!-- bļaut___bļau__bļāv&#45;&gt;uzbļaut___bļau__bļāv -->
<g id="edge52" class="edge">
<title>bļaut___bļau__bļāv&#45;&gt;uzbļaut___bļau__bļāv</title>
<path fill="none" stroke="green" d="M1088.55,-594.3C1036.15,-565 901.73,-489.84 838.07,-454.25"/>
<polygon fill="green" stroke="green" points="839.88,-451.25 829.45,-449.43 836.47,-457.36 839.88,-451.25"/>
</g>
<!-- bļaut___bļau__bļāv&#45;&gt;bļāvējs___bļau__bļāv -->
<g id="edge53" class="edge">
<title>bļaut___bļau__bļāv&#45;&gt;bļāvējs___bļau__bļāv</title>
<path fill="none" stroke="green" d="M1097.16,-622.31C1072.28,-653.03 1017.55,-720.6 987.68,-757.48"/>
<polygon fill="green" stroke="green" points="985.18,-755.01 981.6,-764.98 990.62,-759.41 985.18,-755.01"/>
</g>
<!-- bļaut___bļau__bļāv&#45;&gt;bļāviens___bļau__bļāv -->
<g id="edge54" class="edge">
<title>bļaut___bļau__bļāv&#45;&gt;bļāviens___bļau__bļāv</title>
<path fill="none" stroke="green" d="M1088.82,-618.38C1043.18,-644.21 935.51,-705.13 879.64,-736.74"/>
<polygon fill="green" stroke="green" points="878.14,-733.57 871.16,-741.54 881.58,-739.66 878.14,-733.57"/>
</g>
<!-- bļaustīt___bļau__bļāv&#45;&gt;bļaustīgs___bļau__bļāv -->
<g id="edge34" class="edge">
<title>bļaustīt___bļau__bļāv&#45;&gt;bļaustīgs___bļau__bļāv</title>
<path fill="none" stroke="green" d="M1051.28,-244.2C1058.81,-213.58 1074.34,-150.37 1083.46,-113.28"/>
<polygon fill="green" stroke="green" points="1086.83,-114.24 1085.82,-103.69 1080.03,-112.57 1086.83,-114.24"/>
</g>
<!-- bļaustīt___bļau__bļāv&#45;&gt;bļaustīties___bļau__bļāv -->
<g id="edge36" class="edge">
<title>bļaustīt___bļau__bļāv&#45;&gt;bļaustīties___bļau__bļāv</title>
<path fill="none" stroke="green" d="M1029.39,-245.91C1001.6,-220.63 947.29,-171.25 914.85,-141.75"/>
<polygon fill="green" stroke="green" points="917.58,-139.51 907.83,-135.37 912.87,-144.69 917.58,-139.51"/>
</g>
<!-- nobļaut___bļau__bļāv&#45;&gt;nobļauties___bļau__bļāv -->
<g id="edge46" class="edge">
<title>nobļaut___bļau__bļāv&#45;&gt;nobļauties___bļau__bļāv</title>
<path fill="none" stroke="green" d="M1255.88,-297.46C1260.34,-271.21 1268.75,-221.67 1274.13,-190.03"/>
<polygon fill="green" stroke="green" points="1277.55,-190.8 1275.77,-180.35 1270.65,-189.62 1277.55,-190.8"/>
</g>
<!-- uzbļaut___bļau__bļāv&#45;&gt;uzbļāviens___bļau__bļāv -->
<g id="edge55" class="edge">
<title>uzbļaut___bļau__bļāv&#45;&gt;uzbļāviens___bļau__bļāv</title>
<path fill="none" stroke="green" d="M768.3,-428.74C738.75,-423.5 696.08,-415.94 661.89,-409.87"/>
<polygon fill="green" stroke="green" points="662.59,-406.45 652.14,-408.15 661.37,-413.34 662.59,-406.45"/>
</g>
<!-- bļaurs&#45;&gt;bļauris___bļau__bļāv -->
<g id="edge31" class="edge">
<title>bļaurs&#45;&gt;bļauris___bļau__bļāv</title>
<path fill="none" stroke="green" d="M496.01,-1117.67C540.18,-1095 634.85,-1046.4 686.2,-1020.04"/>
<polygon fill="green" stroke="green" points="687.53,-1023.29 694.82,-1015.61 684.33,-1017.06 687.53,-1023.29"/>
</g>
<!-- bļaurs&#45;&gt;bļaurīgs___bļau__bļāv -->
<g id="edge32" class="edge">
<title>bļaurs&#45;&gt;bļaurīgs___bļau__bļāv</title>
<path fill="none" stroke="green" d="M475.86,-1112.43C486.24,-1063.58 515.61,-925.31 528.43,-864.98"/>
<polygon fill="green" stroke="green" points="531.79,-865.99 530.45,-855.48 524.95,-864.54 531.79,-865.99"/>
</g>
<!-- bļaurs&#45;&gt;bļaurot___bļau__bļāv -->
<g id="edge33" class="edge">
<title>bļaurs&#45;&gt;bļaurot___bļau__bļāv</title>
<path fill="none" stroke="green" d="M484.06,-1113.22C510.38,-1076.32 573.67,-987.61 605.32,-943.25"/>
<polygon fill="green" stroke="green" points="608.09,-945.39 611.04,-935.22 602.39,-941.33 608.09,-945.39"/>
</g>
<!-- izbļaustīt&#45;&gt;izbļaustītājs___bļau__bļāv -->
<g id="edge41" class="edge">
<title>izbļaustīt&#45;&gt;izbļaustītājs___bļau__bļāv</title>
<path fill="none" stroke="green" d="M89.61,-192.25C151.76,-211.92 281.52,-253 353.08,-275.65"/>
<polygon fill="green" stroke="green" points="351.59,-278.85 362.18,-278.53 353.7,-272.18 351.59,-278.85"/>
</g>
<!-- sabļaustīt&#45;&gt;sabļaustīties___bļau__bļāv -->
<g id="edge50" class="edge">
<title>sabļaustīt&#45;&gt;sabļaustīties___bļau__bļāv</title>
<path fill="none" stroke="green" d="M89.29,-613.99C148.69,-606.9 255.49,-594.16 323.72,-586.02"/>
<polygon fill="green" stroke="green" points="323.72,-589.55 333.23,-584.89 322.89,-582.6 323.72,-589.55"/>
</g>
<!-- # bļau, bļāv -->
<g id="node1" class="node">
<title># bļau, bļāv</title>
<polygon fill="lightblue" stroke="black" stroke-width="0" points="968.65,-534.85 898.65,-534.85 898.65,-498.85 968.65,-498.85 968.65,-534.85"/>
<text xml:space="preserve" text-anchor="middle" x="933.65" y="-511.8" font-family="Times New Roman,serif" font-size="14.00">bļau, bļāv</text>
</g>
<!-- atbļaut___bļau__bļāv -->
<g id="node2" class="node">
<title>atbļaut___bļau__bļāv</title>
<ellipse fill="white" stroke="black" stroke-width="0" cx="1319.88" cy="-731.29" rx="36" ry="18"/>
<text xml:space="preserve" text-anchor="middle" x="1319.88" y="-726.24" font-family="Times New Roman,serif" font-size="14.00">atbļaut</text>
</g>
<!-- bļaudams___bļau__bļāv -->
<g id="node3" class="node">
<title>bļaudams___bļau__bļāv</title>
<ellipse fill="white" stroke="black" stroke-width="0" cx="1240.45" cy="-846.58" rx="46.75" ry="18"/>
<text xml:space="preserve" text-anchor="middle" x="1240.45" y="-841.53" font-family="Times New Roman,serif" font-size="14.00">bļaudams</text>
</g>
<!-- bļauris___bļau__bļāv -->
<g id="node4" class="node">
<title>bļauris___bļau__bļāv</title>
<ellipse fill="white" stroke="black" stroke-width="0" cx="721.07" cy="-1002.14" rx="36" ry="18"/>
<text xml:space="preserve" text-anchor="middle" x="721.07" y="-997.09" font-family="Times New Roman,serif" font-size="14.00">bļauris</text>
</g>
<!-- bļaurīgs___bļau__bļāv -->
<g id="node5" class="node">
<title>bļaurīgs___bļau__bļāv</title>
<ellipse fill="white" stroke="black" stroke-width="0" cx="534.54" cy="-836.23" rx="40.6" ry="18"/>
<text xml:space="preserve" text-anchor="middle" x="534.54" y="-831.18" font-family="Times New Roman,serif" font-size="14.00">bļaurīgs</text>
</g>
<!-- bļaurot___bļau__bļāv -->
<g id="node6" class="node">
<title>bļaurot___bļau__bļāv</title>
<ellipse fill="white" stroke="black" stroke-width="0" cx="623.99" cy="-917.07" rx="37.02" ry="18"/>
<text xml:space="preserve" text-anchor="middle" x="623.99" y="-912.02" font-family="Times New Roman,serif" font-size="14.00">bļaurot</text>
</g>
<!-- bļaustīgs___bļau__bļāv -->
<g id="node7" class="node">
<title>bļaustīgs___bļau__bļāv</title>
<ellipse fill="white" stroke="black" stroke-width="0" cx="1090.57" cy="-84.36" rx="43.67" ry="18"/>
<text xml:space="preserve" text-anchor="middle" x="1090.57" y="-79.31" font-family="Times New Roman,serif" font-size="14.00">bļaustīgs</text>
</g>
<!-- bļaustīšanās___bļau__bļāv -->
<g id="node8" class="node">
<title>bļaustīšanās___bļau__bļāv</title>
<ellipse fill="white" stroke="black" stroke-width="0" cx="795.68" cy="-18" rx="55.45" ry="18"/>
<text xml:space="preserve" text-anchor="middle" x="795.68" y="-12.95" font-family="Times New Roman,serif" font-size="14.00">bļaustīšanās</text>
</g>
<!-- bļaustīties___bļau__bļāv -->
<g id="node9" class="node">
<title>bļaustīties___bļau__bļāv</title>
<ellipse fill="white" stroke="black" stroke-width="0" cx="888.59" cy="-117.88" rx="48.28" ry="18"/>
<text xml:space="preserve" text-anchor="middle" x="888.59" y="-112.83" font-family="Times New Roman,serif" font-size="14.00">bļaustīties</text>
</g>
<!-- bļaušana___bļau__bļāv -->
<g id="node10" class="node">
<title>bļaušana___bļau__bļāv</title>
<ellipse fill="white" stroke="black" stroke-width="0" cx="1164.56" cy="-743.78" rx="43.16" ry="18"/>
<text xml:space="preserve" text-anchor="middle" x="1164.56" y="-738.73" font-family="Times New Roman,serif" font-size="14.00">bļaušana</text>
</g>
<!-- bļaut___bļau__bļāv -->
<g id="node11" class="node">
<title>bļaut___bļau__bļāv</title>
<ellipse fill="white" stroke="black" stroke-width="0" cx="1110.09" cy="-606.35" rx="29.34" ry="18"/>
<text xml:space="preserve" text-anchor="middle" x="1110.09" y="-601.3" font-family="Times New Roman,serif" font-size="14.00">bļaut</text>
</g>
<!-- bļaustīt___bļau__bļāv -->
<g id="node12" class="node">
<title>bļaustīt___bļau__bļāv</title>
<ellipse fill="white" stroke="black" stroke-width="0" cx="1046.94" cy="-261.87" rx="38.04" ry="18"/>
<text xml:space="preserve" text-anchor="middle" x="1046.94" y="-256.82" font-family="Times New Roman,serif" font-size="14.00">bļaustīt</text>
</g>
<!-- iebļaut___bļau__bļāv -->
<g id="node13" class="node">
<title>iebļaut___bļau__bļāv</title>
<ellipse fill="white" stroke="black" stroke-width="0" cx="1123.08" cy="-895.35" rx="36" ry="18"/>
<text xml:space="preserve" text-anchor="middle" x="1123.08" y="-890.3" font-family="Times New Roman,serif" font-size="14.00">iebļaut</text>
</g>
<!-- iebļauties___bļau__bļāv -->
<g id="node14" class="node">
<title>iebļauties___bļau__bļāv</title>
<ellipse fill="white" stroke="black" stroke-width="0" cx="1178.72" cy="-420.53" rx="46.23" ry="18"/>
<text xml:space="preserve" text-anchor="middle" x="1178.72" y="-415.48" font-family="Times New Roman,serif" font-size="14.00">iebļauties</text>
</g>
<!-- izbļaustītājs___bļau__bļāv -->
<g id="node15" class="node">
<title>izbļaustītājs___bļau__bļāv</title>
<ellipse fill="white" stroke="black" stroke-width="0" cx="403.13" cy="-291.49" rx="54.93" ry="18"/>
<text xml:space="preserve" text-anchor="middle" x="403.13" y="-286.44" font-family="Times New Roman,serif" font-size="14.00">izbļaustītājs</text>
</g>
<!-- izbļaustīties___bļau__bļāv -->
<g id="node16" class="node">
<title>izbļaustīties___bļau__bļāv</title>
<ellipse fill="white" stroke="black" stroke-width="0" cx="781.3" cy="-184.7" rx="54.93" ry="18"/>
<text xml:space="preserve" text-anchor="middle" x="781.3" y="-179.65" font-family="Times New Roman,serif" font-size="14.00">izbļaustīties</text>
</g>
<!-- izbļaut___bļau__bļāv -->
<g id="node17" class="node">
<title>izbļaut___bļau__bļāv</title>
<ellipse fill="white" stroke="black" stroke-width="0" cx="1309.29" cy="-535.39" rx="36" ry="18"/>
<text xml:space="preserve" text-anchor="middle" x="1309.29" y="-530.34" font-family="Times New Roman,serif" font-size="14.00">izbļaut</text>
</g>
<!-- nebļaut___bļau__bļāv -->
<g id="node18" class="node">
<title>nebļaut___bļau__bļāv</title>
<ellipse fill="white" stroke="black" stroke-width="0" cx="1384.65" cy="-621.41" rx="38.04" ry="18"/>
<text xml:space="preserve" text-anchor="middle" x="1384.65" y="-616.36" font-family="Times New Roman,serif" font-size="14.00">nebļaut</text>
</g>
<!-- nobļaut___bļau__bļāv -->
<g id="node19" class="node">
<title>nobļaut___bļau__bļāv</title>
<ellipse fill="white" stroke="black" stroke-width="0" cx="1252.87" cy="-315.15" rx="38.56" ry="18"/>
<text xml:space="preserve" text-anchor="middle" x="1252.87" y="-310.1" font-family="Times New Roman,serif" font-size="14.00">nobļaut</text>
</g>
<!-- nobļauties___bļau__bļāv -->
<g id="node20" class="node">
<title>nobļauties___bļau__bļāv</title>
<ellipse fill="white" stroke="black" stroke-width="0" cx="1279.08" cy="-160.89" rx="48.79" ry="18"/>
<text xml:space="preserve" text-anchor="middle" x="1279.08" y="-155.84" font-family="Times New Roman,serif" font-size="14.00">nobļauties</text>
</g>
<!-- pabļaustīties___bļau__bļāv -->
<g id="node21" class="node">
<title>pabļaustīties___bļau__bļāv</title>
<ellipse fill="white" stroke="black" stroke-width="0" cx="671.92" cy="-140.7" rx="56.98" ry="18"/>
<text xml:space="preserve" text-anchor="middle" x="671.92" y="-135.65" font-family="Times New Roman,serif" font-size="14.00">pabļaustīties</text>
</g>
<!-- pabļaut___bļau__bļāv -->
<g id="node22" class="node">
<title>pabļaut___bļau__bļāv</title>
<ellipse fill="white" stroke="black" stroke-width="0" cx="1359.47" cy="-428.87" rx="38.04" ry="18"/>
<text xml:space="preserve" text-anchor="middle" x="1359.47" y="-423.82" font-family="Times New Roman,serif" font-size="14.00">pabļaut</text>
</g>
<!-- pārbļaut___bļau__bļāv -->
<g id="node23" class="node">
<title>pārbļaut___bļau__bļāv</title>
<ellipse fill="white" stroke="black" stroke-width="0" cx="1004.89" cy="-904.93" rx="41.12" ry="18"/>
<text xml:space="preserve" text-anchor="middle" x="1004.89" y="-899.88" font-family="Times New Roman,serif" font-size="14.00">pārbļaut</text>
</g>
<!-- sabļaustīties___bļau__bļāv -->
<g id="node24" class="node">
<title>sabļaustīties___bļau__bļāv</title>
<ellipse fill="white" stroke="black" stroke-width="0" cx="386.97" cy="-578.48" rx="55.96" ry="18"/>
<text xml:space="preserve" text-anchor="middle" x="386.97" y="-573.43" font-family="Times New Roman,serif" font-size="14.00">sabļaustīties</text>
</g>
<!-- sabļaut___bļau__bļāv -->
<g id="node25" class="node">
<title>sabļaut___bļau__bļāv</title>
<ellipse fill="white" stroke="black" stroke-width="0" cx="802.13" cy="-625.76" rx="37.02" ry="18"/>
<text xml:space="preserve" text-anchor="middle" x="802.13" y="-620.71" font-family="Times New Roman,serif" font-size="14.00">sabļaut</text>
</g>
<!-- uzbļaut___bļau__bļāv -->
<g id="node26" class="node">
<title>uzbļaut___bļau__bļāv</title>
<ellipse fill="white" stroke="black" stroke-width="0" cx="803.66" cy="-435.01" rx="38.04" ry="18"/>
<text xml:space="preserve" text-anchor="middle" x="803.66" y="-429.96" font-family="Times New Roman,serif" font-size="14.00">uzbļaut</text>
</g>
<!-- bļāvējs___bļau__bļāv -->
<g id="node27" class="node">
<title>bļāvējs___bļau__bļāv</title>
<ellipse fill="white" stroke="black" stroke-width="0" cx="967.23" cy="-782.72" rx="37.02" ry="18"/>
<text xml:space="preserve" text-anchor="middle" x="967.23" y="-777.67" font-family="Times New Roman,serif" font-size="14.00">bļāvējs</text>
</g>
<!-- bļāviens___bļau__bļāv -->
<g id="node28" class="node">
<title>bļāviens___bļau__bļāv</title>
<ellipse fill="white" stroke="black" stroke-width="0" cx="844.63" cy="-756.55" rx="41.63" ry="18"/>
<text xml:space="preserve" text-anchor="middle" x="844.63" y="-751.5" font-family="Times New Roman,serif" font-size="14.00">bļāviens</text>
</g>
<!-- uzbļāviens___bļau__bļāv -->
<g id="node29" class="node">
<title>uzbļāviens___bļau__bļāv</title>
<ellipse fill="white" stroke="black" stroke-width="0" cx="605.87" cy="-399.94" rx="50.33" ry="18"/>
<text xml:space="preserve" text-anchor="middle" x="605.87" y="-394.89" font-family="Times New Roman,serif" font-size="14.00">uzbļāviens</text>
</g>
<!-- bļaurs -->
<g id="node30" class="node">
<title>bļaurs</title>
<ellipse fill="white" stroke="black" stroke-width="0" cx="472.14" cy="-1129.93" rx="33.44" ry="18"/>
<text xml:space="preserve" text-anchor="middle" x="472.14" y="-1124.88" font-family="Times New Roman,serif" font-size="14.00" fill="gray">bļaurs</text>
</g>
<!-- izbļaustīt -->
<g id="node31" class="node">
<title>izbļaustīt</title>
<ellipse fill="white" stroke="black" stroke-width="0" cx="54.6" cy="-181.17" rx="44.7" ry="18"/>
<text xml:space="preserve" text-anchor="middle" x="54.6" y="-176.12" font-family="Times New Roman,serif" font-size="14.00" fill="gray">izbļaustīt</text>
</g>
<!-- sabļaustīt -->
<g id="node32" class="node">
<title>sabļaustīt</title>
<ellipse fill="white" stroke="black" stroke-width="0" cx="45.72" cy="-619.18" rx="45.72" ry="18"/>
<text xml:space="preserve" text-anchor="middle" x="45.72" y="-614.13" font-family="Times New Roman,serif" font-size="14.00" fill="gray">sabļaustīt</text>
</g>
</g>
</svg>
