<?xml version="1.0" encoding="UTF-8" standalone="no"?>
<!DOCTYPE svg PUBLIC "-//W3C//DTD SVG 1.1//EN"
 "http://www.w3.org/Graphics/SVG/1.1/DTD/svg11.dtd">
<!-- Generated by graphviz version 13.1.2 (20250808.2320)
 -->
<!-- Pages: 1 -->
<svg width="1216pt" height="1099pt"
 viewBox="0.00 0.00 1216.00 1099.00" xmlns="http://www.w3.org/2000/svg" xmlns:xlink="http://www.w3.org/1999/xlink">
<g id="graph0" class="graph" transform="scale(1 1) rotate(0) translate(4 1095.23)">
<polygon fill="white" stroke="none" points="-4,4 -4,-1095.23 1211.81,-1095.23 1211.81,4 -4,4"/>
<!-- # bļau, bļāv&#45;&gt;atbļaut -->
<g id="edge1" class="edge">
<title># bļau, bļāv&#45;&gt;atbļaut</title>
<path fill="none" stroke="#cccccc" d="M709.8,-706.87C736.79,-717.94 773.75,-733.09 798.72,-743.33"/>
</g>
<!-- # bļau, bļāv&#45;&gt;bļaut -->
<g id="edge19" class="edge">
<title># bļau, bļāv&#45;&gt;bļaut</title>
<path fill="none" stroke="#cccccc" d="M669.6,-710.61C660.37,-740.41 642.01,-799.71 632.9,-829.12"/>
</g>
<!-- # bļau, bļāv&#45;&gt;bļaudams -->
<g id="edge3" class="edge">
<title># bļau, bļāv&#45;&gt;bļaudams</title>
<path fill="none" stroke="#cccccc" d="M681.21,-710.28C701.21,-768.44 764.97,-953.88 784.88,-1011.78"/>
</g>
<!-- # bļau, bļāv&#45;&gt;bļauris -->
<g id="edge5" class="edge">
<title># bļau, bļāv&#45;&gt;bļauris</title>
<path fill="none" stroke="#cccccc" d="M640.34,-689.41C551.24,-681.1 315.68,-659.13 226.22,-650.78"/>
</g>
<!-- # bļau, bļāv&#45;&gt;bļaurīgs -->
<g id="edge7" class="edge">
<title># bļau, bļāv&#45;&gt;bļaurīgs</title>
<path fill="none" stroke="#cccccc" d="M649.43,-674.8C576.87,-624.42 371.47,-481.81 304.52,-435.33"/>
</g>
<!-- # bļau, bļāv&#45;&gt;bļaurot -->
<g id="edge9" class="edge">
<title># bļau, bļāv&#45;&gt;bļaurot</title>
<path fill="none" stroke="#cccccc" d="M640.15,-679.5C557.06,-648.26 349.14,-570.08 272.21,-541.16"/>
</g>
<!-- # bļau, bļāv&#45;&gt;bļaustīgs -->
<g id="edge11" class="edge">
<title># bļau, bļāv&#45;&gt;bļaustīgs</title>
<path fill="none" stroke="#cccccc" d="M690.89,-674.9C733.89,-626.38 852.92,-492.08 894.75,-444.89"/>
</g>
<!-- # bļau, bļāv&#45;&gt;bļaustīt -->
<g id="edge20" class="edge">
<title># bļau, bļāv&#45;&gt;bļaustīt</title>
<path fill="none" stroke="#cccccc" d="M709.91,-678.14C746.24,-662.96 802.56,-639.43 836.3,-625.33"/>
</g>
<!-- # bļau, bļāv&#45;&gt;bļaustīšanās -->
<g id="edge13" class="edge">
<title># bļau, bļāv&#45;&gt;bļaustīšanās</title>
<path fill="none" stroke="#cccccc" d="M709.86,-696.61C792.65,-706.03 1002.12,-729.85 1100.2,-741.01"/>
</g>
<!-- # bļau, bļāv&#45;&gt;bļaustīties -->
<g id="edge15" class="edge">
<title># bļau, bļāv&#45;&gt;bļaustīties</title>
<path fill="none" stroke="#cccccc" d="M710.03,-687.62C779.5,-677.59 935.04,-655.13 1011.96,-644.02"/>
</g>
<!-- # bļau, bļāv&#45;&gt;bļaušana -->
<g id="edge17" class="edge">
<title># bļau, bļāv&#45;&gt;bļaušana</title>
<path fill="none" stroke="#cccccc" d="M686.3,-710.62C716.67,-759.56 800.63,-894.84 830.43,-942.86"/>
</g>
<!-- # bļau, bļāv&#45;&gt;iebļaut -->
<g id="edge22" class="edge">
<title># bļau, bļāv&#45;&gt;iebļaut</title>
<path fill="none" stroke="#cccccc" d="M676.57,-710.51C681.64,-774.43 698.86,-991.56 703.93,-1055.42"/>
</g>
<!-- # bļau, bļāv&#45;&gt;iebļauties -->
<g id="edge24" class="edge">
<title># bļau, bļāv&#45;&gt;iebļauties</title>
<path fill="none" stroke="#cccccc" d="M669.3,-710.55C653.41,-759.07 609.63,-892.76 593.77,-941.18"/>
</g>
<!-- # bļau, bļāv&#45;&gt;izbļaustītājs -->
<g id="edge26" class="edge">
<title># bļau, bļāv&#45;&gt;izbļaustītājs</title>
<path fill="none" stroke="#cccccc" d="M682.15,-674.88C708.88,-606.94 804.36,-364.27 831.04,-296.45"/>
</g>
<!-- # bļau, bļāv&#45;&gt;izbļaustīties -->
<g id="edge28" class="edge">
<title># bļau, bļāv&#45;&gt;izbļaustīties</title>
<path fill="none" stroke="#cccccc" d="M704.58,-674.74C774.69,-632.04 950.67,-524.85 1016.74,-484.62"/>
</g>
<!-- # bļau, bļāv&#45;&gt;izbļaut -->
<g id="edge30" class="edge">
<title># bļau, bļāv&#45;&gt;izbļaut</title>
<path fill="none" stroke="#cccccc" d="M658.93,-710.28C611.89,-761.35 475.98,-908.94 430.65,-958.16"/>
</g>
<!-- # bļau, bļāv&#45;&gt;nebļaut -->
<g id="edge32" class="edge">
<title># bļau, bļāv&#45;&gt;nebļaut</title>
<path fill="none" stroke="#cccccc" d="M665.87,-710.29C633.91,-770.95 528.71,-970.63 497.01,-1030.81"/>
</g>
<!-- # bļau, bļāv&#45;&gt;nobļaut -->
<g id="edge34" class="edge">
<title># bļau, bļāv&#45;&gt;nobļaut</title>
<path fill="none" stroke="#cccccc" d="M666.92,-674.69C650.98,-639.9 616.1,-563.77 600.39,-529.47"/>
</g>
<!-- # bļau, bļāv&#45;&gt;nobļauties -->
<g id="edge36" class="edge">
<title># bļau, bļāv&#45;&gt;nobļauties</title>
<path fill="none" stroke="#cccccc" d="M666.84,-674.99C639.94,-617.79 555.42,-438.11 528.73,-381.36"/>
</g>
<!-- # bļau, bļāv&#45;&gt;pabļaustīties -->
<g id="edge38" class="edge">
<title># bļau, bļāv&#45;&gt;pabļaustīties</title>
<path fill="none" stroke="#cccccc" d="M710.14,-683.06C793.24,-660.25 1002.28,-602.86 1092.74,-578.03"/>
</g>
<!-- # bļau, bļāv&#45;&gt;pabļaut -->
<g id="edge40" class="edge">
<title># bļau, bļāv&#45;&gt;pabļaut</title>
<path fill="none" stroke="#cccccc" d="M671.56,-710.58C658.94,-773.49 616.76,-983.83 604.2,-1046.45"/>
</g>
<!-- # bļau, bļāv&#45;&gt;pārbļaut -->
<g id="edge42" class="edge">
<title># bļau, bļāv&#45;&gt;pārbļaut</title>
<path fill="none" stroke="#cccccc" d="M640.42,-705.08C575.97,-728.12 438.78,-777.17 376.59,-799.41"/>
</g>
<!-- # bļau, bļāv&#45;&gt;sabļaustīties -->
<g id="edge44" class="edge">
<title># bļau, bļāv&#45;&gt;sabļaustīties</title>
<path fill="none" stroke="#cccccc" d="M672.69,-674.91C662.54,-601.73 624,-323.98 613.79,-250.44"/>
</g>
<!-- # bļau, bļāv&#45;&gt;sabļaut -->
<g id="edge46" class="edge">
<title># bļau, bļāv&#45;&gt;sabļaut</title>
<path fill="none" stroke="#cccccc" d="M649.65,-710.6C593.46,-750.11 459.93,-844.03 408.48,-880.21"/>
</g>
<!-- # bļau, bļāv&#45;&gt;uzbļaut -->
<g id="edge48" class="edge">
<title># bļau, bļāv&#45;&gt;uzbļaut</title>
<path fill="none" stroke="#cccccc" d="M694.5,-710.5C743.03,-755.25 869.3,-871.68 915.41,-914.19"/>
</g>
<!-- # bļau, bļāv&#45;&gt;bļāvējs -->
<g id="edge50" class="edge">
<title># bļau, bļāv&#45;&gt;bļāvējs</title>
<path fill="none" stroke="#cccccc" d="M640.44,-679.85C607.84,-667.82 559.6,-650.02 528.85,-638.67"/>
</g>
<!-- # bļau, bļāv&#45;&gt;bļāviens -->
<g id="edge52" class="edge">
<title># bļau, bļāv&#45;&gt;bļāviens</title>
<path fill="none" stroke="#cccccc" d="M640.31,-695.83C593.91,-700.05 512.01,-707.51 462.99,-711.97"/>
</g>
<!-- # bļau, bļāv&#45;&gt;uzbļāviens -->
<g id="edge54" class="edge">
<title># bļau, bļāv&#45;&gt;uzbļāviens</title>
<path fill="none" stroke="#cccccc" d="M710.06,-705.43C768.61,-726.84 885.92,-769.75 944.5,-791.18"/>
</g>
<!-- bļaut&#45;&gt;atbļaut -->
<g id="edge2" class="edge">
<title>bļaut&#45;&gt;atbļaut</title>
<path fill="none" stroke="green" d="M650.7,-835.76C684.9,-819.94 749.19,-790.19 789.73,-771.44"/>
<polygon fill="green" stroke="green" points="791.01,-774.7 798.62,-767.32 788.07,-768.35 791.01,-774.7"/>
</g>
<!-- bļaut&#45;&gt;bļaudams -->
<g id="edge4" class="edge">
<title>bļaut&#45;&gt;bļaudams</title>
<path fill="none" stroke="green" d="M641.46,-862.06C669.67,-893.62 733.8,-965.38 768.15,-1003.81"/>
<polygon fill="green" stroke="green" points="765.53,-1006.12 774.8,-1011.24 770.74,-1001.46 765.53,-1006.12"/>
</g>
<!-- bļaut&#45;&gt;bļaustīt -->
<g id="edge21" class="edge">
<title>bļaut&#45;&gt;bļaustīt</title>
<path fill="none" stroke="green" d="M642.72,-831.55C682.74,-792.23 791.32,-685.54 840.22,-637.5"/>
<polygon fill="green" stroke="green" points="842.59,-640.07 847.27,-630.57 837.69,-635.08 842.59,-640.07"/>
</g>
<!-- bļaut&#45;&gt;bļaušana -->
<g id="edge18" class="edge">
<title>bļaut&#45;&gt;bļaušana</title>
<path fill="none" stroke="green" d="M649.58,-858.2C686.19,-877.67 759.86,-916.85 804.4,-940.53"/>
<polygon fill="green" stroke="green" points="802.71,-943.59 813.18,-945.2 806,-937.41 802.71,-943.59"/>
</g>
<!-- bļaut&#45;&gt;iebļaut -->
<g id="edge23" class="edge">
<title>bļaut&#45;&gt;iebļaut</title>
<path fill="none" stroke="green" d="M633.51,-863.9C646.89,-902.89 679.35,-997.5 695.66,-1045.02"/>
<polygon fill="green" stroke="green" points="692.29,-1046 698.85,-1054.32 698.91,-1043.73 692.29,-1046"/>
</g>
<!-- bļaut&#45;&gt;iebļauties -->
<g id="edge25" class="edge">
<title>bļaut&#45;&gt;iebļauties</title>
<path fill="none" stroke="green" d="M621.34,-864.06C615.11,-881.79 605.37,-909.46 598.02,-930.36"/>
<polygon fill="green" stroke="green" points="594.73,-929.14 594.72,-939.74 601.34,-931.47 594.73,-929.14"/>
</g>
<!-- bļaut&#45;&gt;izbļaut -->
<g id="edge31" class="edge">
<title>bļaut&#45;&gt;izbļaut</title>
<path fill="none" stroke="green" d="M606.84,-858.97C569.85,-881.3 492.16,-928.21 448.08,-954.83"/>
<polygon fill="green" stroke="green" points="446.47,-951.71 439.72,-959.87 450.09,-957.7 446.47,-951.71"/>
</g>
<!-- bļaut&#45;&gt;nebļaut -->
<g id="edge33" class="edge">
<title>bļaut&#45;&gt;nebļaut</title>
<path fill="none" stroke="green" d="M616.1,-862.98C591.92,-897.9 535.4,-979.52 506.15,-1021.76"/>
<polygon fill="green" stroke="green" points="503.35,-1019.65 500.53,-1029.87 509.1,-1023.64 503.35,-1019.65"/>
</g>
<!-- bļaut&#45;&gt;nobļaut -->
<g id="edge35" class="edge">
<title>bļaut&#45;&gt;nobļaut</title>
<path fill="none" stroke="green" d="M625.69,-828.97C620,-774.7 602.59,-608.89 595.49,-541.27"/>
<polygon fill="green" stroke="green" points="598.97,-540.92 594.45,-531.34 592.01,-541.65 598.97,-540.92"/>
</g>
<!-- bļaut&#45;&gt;pabļaut -->
<g id="edge41" class="edge">
<title>bļaut&#45;&gt;pabļaut</title>
<path fill="none" stroke="green" d="M625.33,-864.3C620.69,-901.86 609.86,-989.5 604.21,-1035.24"/>
<polygon fill="green" stroke="green" points="600.77,-1034.58 603.02,-1044.93 607.72,-1035.44 600.77,-1034.58"/>
</g>
<!-- bļaut&#45;&gt;pārbļaut -->
<g id="edge43" class="edge">
<title>bļaut&#45;&gt;pārbļaut</title>
<path fill="none" stroke="green" d="M598.86,-842.86C551.08,-836.83 454.55,-824.65 395.19,-817.16"/>
<polygon fill="green" stroke="green" points="395.7,-813.69 385.34,-815.91 394.82,-820.64 395.7,-813.69"/>
</g>
<!-- bļaut&#45;&gt;sabļaut -->
<g id="edge47" class="edge">
<title>bļaut&#45;&gt;sabļaut</title>
<path fill="none" stroke="green" d="M600.03,-852.02C559.26,-860.23 482.33,-875.73 433.14,-885.64"/>
<polygon fill="green" stroke="green" points="432.47,-882.2 423.36,-887.61 433.85,-889.07 432.47,-882.2"/>
</g>
<!-- bļaut&#45;&gt;uzbļaut -->
<g id="edge49" class="edge">
<title>bļaut&#45;&gt;uzbļaut</title>
<path fill="none" stroke="green" d="M654.07,-853.75C706.71,-868.17 824.82,-900.51 889.02,-918.09"/>
<polygon fill="green" stroke="green" points="887.95,-921.43 898.51,-920.69 889.79,-914.68 887.95,-921.43"/>
</g>
<!-- bļaut&#45;&gt;bļāvējs -->
<g id="edge51" class="edge">
<title>bļaut&#45;&gt;bļāvējs</title>
<path fill="none" stroke="green" d="M617.69,-829.68C595.63,-792.02 542.04,-700.53 515.25,-654.79"/>
<polygon fill="green" stroke="green" points="518.34,-653.14 510.27,-646.28 512.3,-656.68 518.34,-653.14"/>
</g>
<!-- bļaut&#45;&gt;bļāviens -->
<g id="edge53" class="edge">
<title>bļaut&#45;&gt;bļāviens</title>
<path fill="none" stroke="green" d="M607.51,-833.69C572.19,-811.13 498.48,-764.05 455.58,-736.65"/>
<polygon fill="green" stroke="green" points="457.48,-733.71 447.17,-731.28 453.71,-739.61 457.48,-733.71"/>
</g>
<!-- bļaurs&#45;&gt;bļauris -->
<g id="edge6" class="edge">
<title>bļaurs&#45;&gt;bļauris</title>
<path fill="none" stroke="green" d="M48.55,-498.03C76.26,-527.09 135.33,-589.04 168.05,-623.36"/>
<polygon fill="green" stroke="green" points="165.29,-625.54 174.72,-630.36 170.36,-620.71 165.29,-625.54"/>
</g>
<!-- bļaurs&#45;&gt;bļaurīgs -->
<g id="edge8" class="edge">
<title>bļaurs&#45;&gt;bļaurīgs</title>
<path fill="none" stroke="green" d="M63.56,-474.74C106.61,-464.1 186.11,-444.45 236.72,-431.95"/>
<polygon fill="green" stroke="green" points="237.34,-435.4 246.2,-429.6 235.66,-428.6 237.34,-435.4"/>
</g>
<!-- bļaurs&#45;&gt;bļaurot -->
<g id="edge10" class="edge">
<title>bļaurs&#45;&gt;bļaurot</title>
<path fill="none" stroke="green" d="M63.91,-489.16C99.32,-497.27 158.06,-510.72 198.55,-520"/>
<polygon fill="green" stroke="green" points="197.71,-523.4 208.24,-522.22 199.27,-516.57 197.71,-523.4"/>
</g>
<!-- bļaustīt&#45;&gt;bļaustīgs -->
<g id="edge12" class="edge">
<title>bļaustīt&#45;&gt;bļaustīgs</title>
<path fill="none" stroke="green" d="M868.96,-595.72C876.73,-563.63 893.17,-495.73 902.55,-456.96"/>
<polygon fill="green" stroke="green" points="905.91,-457.95 904.87,-447.41 899.11,-456.31 905.91,-457.95"/>
</g>
<!-- bļaustīt&#45;&gt;bļaustīties -->
<g id="edge16" class="edge">
<title>bļaustīt&#45;&gt;bļaustīties</title>
<path fill="none" stroke="green" d="M901.25,-618.06C929.08,-621.55 967.89,-626.41 999.78,-630.4"/>
<polygon fill="green" stroke="green" points="999.33,-633.87 1009.68,-631.64 1000.2,-626.93 999.33,-633.87"/>
</g>
<!-- bļaustīties&#45;&gt;bļaustīšanās -->
<g id="edge14" class="edge">
<title>bļaustīties&#45;&gt;bļaustīšanās</title>
<path fill="none" stroke="green" d="M1071.73,-654.64C1087.37,-672.54 1112.11,-700.86 1130.07,-721.41"/>
<polygon fill="green" stroke="green" points="1127.33,-723.6 1136.54,-728.83 1132.6,-719 1127.33,-723.6"/>
</g>
<!-- bļaustīties&#45;&gt;izbļaustīties -->
<g id="edge29" class="edge">
<title>bļaustīties&#45;&gt;izbļaustīties</title>
<path fill="none" stroke="green" d="M1055.28,-619.83C1052.8,-590.95 1047.86,-533.45 1044.85,-498.39"/>
<polygon fill="green" stroke="green" points="1048.35,-498.18 1044.01,-488.52 1041.38,-498.78 1048.35,-498.18"/>
</g>
<!-- bļaustīties&#45;&gt;pabļaustīties -->
<g id="edge39" class="edge">
<title>bļaustīties&#45;&gt;pabļaustīties</title>
<path fill="none" stroke="green" d="M1075.06,-621.01C1084.96,-612.06 1097.38,-600.82 1108.39,-590.85"/>
<polygon fill="green" stroke="green" points="1110.66,-593.53 1115.72,-584.22 1105.96,-588.34 1110.66,-593.53"/>
</g>
<!-- izbļaustīt&#45;&gt;izbļaustītājs -->
<g id="edge27" class="edge">
<title>izbļaustīt&#45;&gt;izbļaustītājs</title>
<path fill="none" stroke="green" d="M857.74,-117.26C853.95,-148.28 846.12,-212.37 841.55,-249.81"/>
<polygon fill="green" stroke="green" points="838.11,-249.1 840.37,-259.45 845.05,-249.94 838.11,-249.1"/>
</g>
<!-- nobļaut&#45;&gt;nobļauties -->
<g id="edge37" class="edge">
<title>nobļaut&#45;&gt;nobļauties</title>
<path fill="none" stroke="green" d="M584.04,-494.82C571.78,-469.54 548.8,-422.2 534.12,-391.93"/>
<polygon fill="green" stroke="green" points="537.29,-390.46 529.78,-382.99 530.99,-393.52 537.29,-390.46"/>
</g>
<!-- sabļaustīt&#45;&gt;sabļaustīties -->
<g id="edge45" class="edge">
<title>sabļaustīt&#45;&gt;sabļaustīties</title>
<path fill="none" stroke="green" d="M578.3,-35.92C584.52,-72.99 598.87,-158.42 606.43,-203.47"/>
<polygon fill="green" stroke="green" points="602.97,-204 608.08,-213.28 609.87,-202.84 602.97,-204"/>
</g>
<!-- uzbļaut&#45;&gt;uzbļāviens -->
<g id="edge55" class="edge">
<title>uzbļaut&#45;&gt;uzbļāviens</title>
<path fill="none" stroke="green" d="M939.1,-912.5C946.83,-891.73 959.8,-856.85 968.95,-832.25"/>
<polygon fill="green" stroke="green" points="972.12,-833.77 972.33,-823.17 965.56,-831.33 972.12,-833.77"/>
</g>
<!-- # bļau, bļāv -->
<g id="node1" class="node">
<title># bļau, bļāv</title>
<polygon fill="lightblue" stroke="black" stroke-width="0" points="710.15,-710.66 640.15,-710.66 640.15,-674.66 710.15,-674.66 710.15,-710.66"/>
<text xml:space="preserve" text-anchor="middle" x="675.15" y="-687.61" font-family="Times New Roman,serif" font-size="14.00">bļau, bļāv</text>
</g>
<!-- atbļaut -->
<g id="node2" class="node">
<title>atbļaut</title>
<ellipse fill="white" stroke="black" stroke-width="0" cx="826.16" cy="-754.58" rx="36" ry="18"/>
<text xml:space="preserve" text-anchor="middle" x="826.16" y="-749.53" font-family="Times New Roman,serif" font-size="14.00">atbļaut</text>
</g>
<!-- bļaut -->
<g id="node3" class="node">
<title>bļaut</title>
<ellipse fill="white" stroke="black" stroke-width="0" cx="627.53" cy="-846.48" rx="29.34" ry="18"/>
<text xml:space="preserve" text-anchor="middle" x="627.53" y="-841.43" font-family="Times New Roman,serif" font-size="14.00">bļaut</text>
</g>
<!-- bļaudams -->
<g id="node4" class="node">
<title>bļaudams</title>
<ellipse fill="white" stroke="black" stroke-width="0" cx="790.88" cy="-1029.23" rx="46.75" ry="18"/>
<text xml:space="preserve" text-anchor="middle" x="790.88" y="-1024.18" font-family="Times New Roman,serif" font-size="14.00">bļaudams</text>
</g>
<!-- bļauris -->
<g id="node5" class="node">
<title>bļauris</title>
<ellipse fill="white" stroke="black" stroke-width="0" cx="191.07" cy="-647.5" rx="36" ry="18"/>
<text xml:space="preserve" text-anchor="middle" x="191.07" y="-642.45" font-family="Times New Roman,serif" font-size="14.00">bļauris</text>
</g>
<!-- bļaurs -->
<g id="node6" class="node">
<title>bļaurs</title>
<ellipse fill="white" stroke="black" stroke-width="0" cx="33.44" cy="-482.18" rx="33.44" ry="18"/>
<text xml:space="preserve" text-anchor="middle" x="33.44" y="-477.13" font-family="Times New Roman,serif" font-size="14.00" fill="gray">bļaurs</text>
</g>
<!-- bļaurīgs -->
<g id="node7" class="node">
<title>bļaurīgs</title>
<ellipse fill="white" stroke="black" stroke-width="0" cx="283.13" cy="-420.48" rx="40.6" ry="18"/>
<text xml:space="preserve" text-anchor="middle" x="283.13" y="-415.43" font-family="Times New Roman,serif" font-size="14.00">bļaurīgs</text>
</g>
<!-- bļaurot -->
<g id="node8" class="node">
<title>bļaurot</title>
<ellipse fill="white" stroke="black" stroke-width="0" cx="242.99" cy="-530.18" rx="37.02" ry="18"/>
<text xml:space="preserve" text-anchor="middle" x="242.99" y="-525.13" font-family="Times New Roman,serif" font-size="14.00">bļaurot</text>
</g>
<!-- bļaustīgs -->
<g id="node9" class="node">
<title>bļaustīgs</title>
<ellipse fill="white" stroke="black" stroke-width="0" cx="909.51" cy="-428.23" rx="43.67" ry="18"/>
<text xml:space="preserve" text-anchor="middle" x="909.51" y="-423.18" font-family="Times New Roman,serif" font-size="14.00">bļaustīgs</text>
</g>
<!-- bļaustīt -->
<g id="node10" class="node">
<title>bļaustīt</title>
<ellipse fill="white" stroke="black" stroke-width="0" cx="864.66" cy="-613.48" rx="38.04" ry="18"/>
<text xml:space="preserve" text-anchor="middle" x="864.66" y="-608.43" font-family="Times New Roman,serif" font-size="14.00">bļaustīt</text>
</g>
<!-- bļaustīšanās -->
<g id="node11" class="node">
<title>bļaustīšanās</title>
<ellipse fill="white" stroke="black" stroke-width="0" cx="1152.37" cy="-746.94" rx="55.45" ry="18"/>
<text xml:space="preserve" text-anchor="middle" x="1152.37" y="-741.89" font-family="Times New Roman,serif" font-size="14.00">bļaustīšanās</text>
</g>
<!-- bļaustīties -->
<g id="node12" class="node">
<title>bļaustīties</title>
<ellipse fill="white" stroke="black" stroke-width="0" cx="1056.8" cy="-637.54" rx="48.28" ry="18"/>
<text xml:space="preserve" text-anchor="middle" x="1056.8" y="-632.49" font-family="Times New Roman,serif" font-size="14.00">bļaustīties</text>
</g>
<!-- bļaušana -->
<g id="node13" class="node">
<title>bļaušana</title>
<ellipse fill="white" stroke="black" stroke-width="0" cx="841.1" cy="-960.04" rx="43.16" ry="18"/>
<text xml:space="preserve" text-anchor="middle" x="841.1" y="-954.99" font-family="Times New Roman,serif" font-size="14.00">bļaušana</text>
</g>
<!-- iebļaut -->
<g id="node14" class="node">
<title>iebļaut</title>
<ellipse fill="white" stroke="black" stroke-width="0" cx="705.34" cy="-1073.23" rx="36" ry="18"/>
<text xml:space="preserve" text-anchor="middle" x="705.34" y="-1068.18" font-family="Times New Roman,serif" font-size="14.00">iebļaut</text>
</g>
<!-- iebļauties -->
<g id="node15" class="node">
<title>iebļauties</title>
<ellipse fill="white" stroke="black" stroke-width="0" cx="587.94" cy="-958.99" rx="46.23" ry="18"/>
<text xml:space="preserve" text-anchor="middle" x="587.94" y="-953.94" font-family="Times New Roman,serif" font-size="14.00">iebļauties</text>
</g>
<!-- izbļaustītājs -->
<g id="node16" class="node">
<title>izbļaustītājs</title>
<ellipse fill="white" stroke="black" stroke-width="0" cx="838.01" cy="-278.73" rx="54.93" ry="18"/>
<text xml:space="preserve" text-anchor="middle" x="838.01" y="-273.68" font-family="Times New Roman,serif" font-size="14.00">izbļaustītājs</text>
</g>
<!-- izbļaustīt -->
<g id="node17" class="node">
<title>izbļaustīt</title>
<ellipse fill="white" stroke="black" stroke-width="0" cx="859.92" cy="-99.42" rx="44.7" ry="18"/>
<text xml:space="preserve" text-anchor="middle" x="859.92" y="-94.37" font-family="Times New Roman,serif" font-size="14.00" fill="gray">izbļaustīt</text>
</g>
<!-- izbļaustīties -->
<g id="node18" class="node">
<title>izbļaustīties</title>
<ellipse fill="white" stroke="black" stroke-width="0" cx="1042.33" cy="-469.03" rx="54.93" ry="18"/>
<text xml:space="preserve" text-anchor="middle" x="1042.33" y="-463.98" font-family="Times New Roman,serif" font-size="14.00">izbļaustīties</text>
</g>
<!-- izbļaut -->
<g id="node19" class="node">
<title>izbļaut</title>
<ellipse fill="white" stroke="black" stroke-width="0" cx="415.73" cy="-974.35" rx="36" ry="18"/>
<text xml:space="preserve" text-anchor="middle" x="415.73" y="-969.3" font-family="Times New Roman,serif" font-size="14.00">izbļaut</text>
</g>
<!-- nebļaut -->
<g id="node20" class="node">
<title>nebļaut</title>
<ellipse fill="white" stroke="black" stroke-width="0" cx="487.89" cy="-1048.13" rx="38.04" ry="18"/>
<text xml:space="preserve" text-anchor="middle" x="487.89" y="-1043.08" font-family="Times New Roman,serif" font-size="14.00">nebļaut</text>
</g>
<!-- nobļaut -->
<g id="node21" class="node">
<title>nobļaut</title>
<ellipse fill="white" stroke="black" stroke-width="0" cx="592.43" cy="-512.1" rx="38.56" ry="18"/>
<text xml:space="preserve" text-anchor="middle" x="592.43" y="-507.05" font-family="Times New Roman,serif" font-size="14.00">nobļaut</text>
</g>
<!-- nobļauties -->
<g id="node22" class="node">
<title>nobļauties</title>
<ellipse fill="white" stroke="black" stroke-width="0" cx="520.56" cy="-364" rx="48.79" ry="18"/>
<text xml:space="preserve" text-anchor="middle" x="520.56" y="-358.95" font-family="Times New Roman,serif" font-size="14.00">nobļauties</text>
</g>
<!-- pabļaustīties -->
<g id="node23" class="node">
<title>pabļaustīties</title>
<ellipse fill="white" stroke="black" stroke-width="0" cx="1135.56" cy="-566.27" rx="56.98" ry="18"/>
<text xml:space="preserve" text-anchor="middle" x="1135.56" y="-561.22" font-family="Times New Roman,serif" font-size="14.00">pabļaustīties</text>
</g>
<!-- pabļaut -->
<g id="node24" class="node">
<title>pabļaut</title>
<ellipse fill="white" stroke="black" stroke-width="0" cx="600.64" cy="-1064.19" rx="38.04" ry="18"/>
<text xml:space="preserve" text-anchor="middle" x="600.64" y="-1059.14" font-family="Times New Roman,serif" font-size="14.00">pabļaut</text>
</g>
<!-- pārbļaut -->
<g id="node25" class="node">
<title>pārbļaut</title>
<ellipse fill="white" stroke="black" stroke-width="0" cx="344.75" cy="-810.79" rx="41.12" ry="18"/>
<text xml:space="preserve" text-anchor="middle" x="344.75" y="-805.74" font-family="Times New Roman,serif" font-size="14.00">pārbļaut</text>
</g>
<!-- sabļaustīties -->
<g id="node26" class="node">
<title>sabļaustīties</title>
<ellipse fill="white" stroke="black" stroke-width="0" cx="611.3" cy="-232.49" rx="55.96" ry="18"/>
<text xml:space="preserve" text-anchor="middle" x="611.3" y="-227.44" font-family="Times New Roman,serif" font-size="14.00">sabļaustīties</text>
</g>
<!-- sabļaustīt -->
<g id="node27" class="node">
<title>sabļaustīt</title>
<ellipse fill="white" stroke="black" stroke-width="0" cx="575.29" cy="-18" rx="45.72" ry="18"/>
<text xml:space="preserve" text-anchor="middle" x="575.29" y="-12.95" font-family="Times New Roman,serif" font-size="14.00" fill="gray">sabļaustīt</text>
</g>
<!-- sabļaut -->
<g id="node28" class="node">
<title>sabļaut</title>
<ellipse fill="white" stroke="black" stroke-width="0" cx="387.77" cy="-894.78" rx="37.02" ry="18"/>
<text xml:space="preserve" text-anchor="middle" x="387.77" y="-889.73" font-family="Times New Roman,serif" font-size="14.00">sabļaut</text>
</g>
<!-- uzbļaut -->
<g id="node29" class="node">
<title>uzbļaut</title>
<ellipse fill="white" stroke="black" stroke-width="0" cx="932.58" cy="-930.02" rx="38.04" ry="18"/>
<text xml:space="preserve" text-anchor="middle" x="932.58" y="-924.97" font-family="Times New Roman,serif" font-size="14.00">uzbļaut</text>
</g>
<!-- bļāvējs -->
<g id="node30" class="node">
<title>bļāvējs</title>
<ellipse fill="white" stroke="black" stroke-width="0" cx="499.46" cy="-627.83" rx="37.02" ry="18"/>
<text xml:space="preserve" text-anchor="middle" x="499.46" y="-622.78" font-family="Times New Roman,serif" font-size="14.00">bļāvējs</text>
</g>
<!-- bļāviens -->
<g id="node31" class="node">
<title>bļāviens</title>
<ellipse fill="white" stroke="black" stroke-width="0" cx="422.68" cy="-715.64" rx="41.63" ry="18"/>
<text xml:space="preserve" text-anchor="middle" x="422.68" y="-710.59" font-family="Times New Roman,serif" font-size="14.00">bļāviens</text>
</g>
<!-- uzbļāviens -->
<g id="node32" class="node">
<title>uzbļāviens</title>
<ellipse fill="white" stroke="black" stroke-width="0" cx="979.47" cy="-803.97" rx="50.33" ry="18"/>
<text xml:space="preserve" text-anchor="middle" x="979.47" y="-798.92" font-family="Times New Roman,serif" font-size="14.00">uzbļāviens</text>
</g>
</g>
</svg>
