<?xml version="1.0" encoding="UTF-8" standalone="no"?>
<!DOCTYPE svg PUBLIC "-//W3C//DTD SVG 1.1//EN"
 "http://www.w3.org/Graphics/SVG/1.1/DTD/svg11.dtd">
<!-- Generated by graphviz version 13.1.2 (20250808.2320)
 -->
<!-- Pages: 1 -->
<svg width="593pt" height="730pt"
 viewBox="0.00 0.00 593.00 730.00" xmlns="http://www.w3.org/2000/svg" xmlns:xlink="http://www.w3.org/1999/xlink">
<g id="graph0" class="graph" transform="scale(1 1) rotate(0) translate(4 726)">
<polygon fill="white" stroke="none" points="-4,4 -4,-726 589.09,-726 589.09,4 -4,4"/>
<!-- # bruģ&#45;&gt;bruģakmens -->
<g id="edge1" class="edge">
<title># bruģ&#45;&gt;bruģakmens</title>
<path fill="none" stroke="#cccccc" d="M83.39,-277.62C147.17,-298.7 274.71,-340.84 339.04,-362.1"/>
</g>
<!-- # bruģ&#45;&gt;bruģis -->
<g id="edge13" class="edge">
<title># bruģ&#45;&gt;bruģis</title>
<path fill="none" stroke="#cccccc" d="M83.44,-256.33C111.31,-249.83 148.94,-241.06 174.92,-235.01"/>
</g>
<!-- # bruģ&#45;&gt;bruģēšana -->
<g id="edge4" class="edge">
<title># bruģ&#45;&gt;bruģēšana</title>
<path fill="none" stroke="#cccccc" d="M83.38,-251.49C176.21,-218.63 412.72,-134.92 501.99,-103.33"/>
</g>
<!-- # bruģ&#45;&gt;bruģēt -->
<g id="edge6" class="edge">
<title># bruģ&#45;&gt;bruģēt</title>
<path fill="none" stroke="#cccccc" d="M83.39,-264.89C148.79,-264.69 281.24,-264.29 343.83,-264.1"/>
</g>
<!-- # bruģ&#45;&gt;bruģētājfirma -->
<g id="edge8" class="edge">
<title># bruģ&#45;&gt;bruģētājfirma</title>
<path fill="none" stroke="#cccccc" d="M54.19,-285.26C81.68,-355.01 172.11,-584.52 198.02,-650.26"/>
</g>
<!-- # bruģ&#45;&gt;bruģētājs -->
<g id="edge11" class="edge">
<title># bruģ&#45;&gt;bruģētājs</title>
<path fill="none" stroke="#cccccc" d="M83.38,-245.82C178.8,-197.88 426.05,-73.65 509.12,-31.91"/>
</g>
<!-- # bruģ&#45;&gt;bruģītis -->
<g id="edge14" class="edge">
<title># bruģ&#45;&gt;bruģītis</title>
<path fill="none" stroke="#cccccc" d="M76.22,-244.59C142.88,-200.74 298.4,-98.42 356.05,-60.48"/>
</g>
<!-- # bruģ&#45;&gt;bruģmašīna -->
<g id="edge16" class="edge">
<title># bruģ&#45;&gt;bruģmašīna</title>
<path fill="none" stroke="#cccccc" d="M83.39,-252.38C147.43,-231.22 275.74,-188.82 339.82,-167.64"/>
</g>
<!-- # bruģ&#45;&gt;iebruģēt -->
<g id="edge19" class="edge">
<title># bruģ&#45;&gt;iebruģēt</title>
<path fill="none" stroke="#cccccc" d="M81.76,-285.37C176.89,-338.39 430.4,-479.69 511.49,-524.89"/>
</g>
<!-- # bruģ&#45;&gt;nobruģēt -->
<g id="edge21" class="edge">
<title># bruģ&#45;&gt;nobruģēt</title>
<path fill="none" stroke="#cccccc" d="M83.38,-269.27C173.84,-279.39 400.74,-304.78 494.87,-315.31"/>
</g>
<!-- bruģis&#45;&gt;bruģakmens -->
<g id="edge2" class="edge">
<title>bruģis&#45;&gt;bruģakmens</title>
<path fill="none" stroke="blue" d="M224.25,-242.9C253.67,-268.34 313.83,-320.34 349.26,-350.97"/>
<polygon fill="blue" stroke="blue" points="346.7,-353.38 356.55,-357.27 351.28,-348.08 346.7,-353.38"/>
</g>
<!-- bruģis&#45;&gt;bruģēt -->
<g id="edge7" class="edge">
<title>bruģis&#45;&gt;bruģēt</title>
<path fill="none" stroke="green" d="M237.41,-234.44C264.6,-240.19 304.72,-248.69 334.99,-255.09"/>
<polygon fill="green" stroke="green" points="334.07,-258.48 344.58,-257.12 335.52,-251.63 334.07,-258.48"/>
</g>
<!-- bruģis&#45;&gt;bruģītis -->
<g id="edge15" class="edge">
<title>bruģis&#45;&gt;bruģītis</title>
<path fill="none" stroke="green" d="M221.8,-212.17C251.63,-180.25 319.13,-108 354.5,-70.15"/>
<polygon fill="green" stroke="green" points="356.64,-72.99 360.91,-63.29 351.52,-68.21 356.64,-72.99"/>
</g>
<!-- bruģis&#45;&gt;bruģmašīna -->
<g id="edge17" class="edge">
<title>bruģis&#45;&gt;bruģmašīna</title>
<path fill="none" stroke="blue" d="M232.47,-217.07C259.27,-205.56 301.95,-187.24 334.01,-173.48"/>
<polygon fill="blue" stroke="blue" points="335.23,-176.77 343.04,-169.61 332.47,-170.33 335.23,-176.77"/>
</g>
<!-- akmens&#45;&gt;bruģakmens -->
<g id="edge3" class="edge">
<title>akmens&#45;&gt;bruģakmens</title>
<path fill="none" stroke="blue" d="M235.09,-435.95C261.84,-424.46 302.51,-407 333.47,-393.71"/>
<polygon fill="blue" stroke="blue" points="334.78,-396.96 342.59,-389.8 332.02,-390.53 334.78,-396.96"/>
</g>
<!-- bruģēt&#45;&gt;bruģēšana -->
<g id="edge5" class="edge">
<title>bruģēt&#45;&gt;bruģēšana</title>
<path fill="none" stroke="green" d="M393.53,-248.03C420.85,-217.88 480.22,-152.35 512.98,-116.2"/>
<polygon fill="green" stroke="green" points="515.56,-118.57 519.68,-108.81 510.37,-113.87 515.56,-118.57"/>
</g>
<!-- bruģēt&#45;&gt;bruģētājs -->
<g id="edge12" class="edge">
<title>bruģēt&#45;&gt;bruģētājs</title>
<path fill="none" stroke="green" d="M389.84,-247.09C416.63,-205.05 486.42,-95.51 518.83,-44.66"/>
<polygon fill="green" stroke="green" points="521.73,-46.62 524.15,-36.3 515.83,-42.86 521.73,-46.62"/>
</g>
<!-- bruģēt&#45;&gt;iebruģēt -->
<g id="edge20" class="edge">
<title>bruģēt&#45;&gt;iebruģēt</title>
<path fill="none" stroke="green" d="M388.63,-280.79C414.86,-326.8 488.07,-455.25 520.28,-511.74"/>
<polygon fill="green" stroke="green" points="517.23,-513.46 525.22,-520.41 523.31,-509.99 517.23,-513.46"/>
</g>
<!-- bruģēt&#45;&gt;nobruģēt -->
<g id="edge22" class="edge">
<title>bruģēt&#45;&gt;nobruģēt</title>
<path fill="none" stroke="green" d="M406.73,-273.88C430.62,-282.42 465.55,-294.9 493.04,-304.72"/>
<polygon fill="green" stroke="green" points="491.54,-307.9 502.13,-307.97 493.89,-301.31 491.54,-307.9"/>
</g>
<!-- bruģētāja&#45;&gt;bruģētājfirma -->
<g id="edge9" class="edge">
<title>bruģētāja&#45;&gt;bruģētājfirma</title>
<path fill="none" stroke="blue" d="M84.65,-640.71C103.08,-644.89 125.57,-649.99 146.1,-654.65"/>
<polygon fill="blue" stroke="blue" points="145.26,-658.04 155.79,-656.84 146.81,-651.22 145.26,-658.04"/>
</g>
<!-- firma&#45;&gt;bruģētājfirma -->
<g id="edge10" class="edge">
<title>firma&#45;&gt;bruģētājfirma</title>
<path fill="none" stroke="blue" d="M74.23,-697.65C94.08,-693.15 121.42,-686.95 145.98,-681.38"/>
<polygon fill="blue" stroke="blue" points="146.58,-684.84 155.56,-679.21 145.03,-678.01 146.58,-684.84"/>
</g>
<!-- mašīna&#45;&gt;bruģmašīna -->
<g id="edge18" class="edge">
<title>mašīna&#45;&gt;bruģmašīna</title>
<path fill="none" stroke="blue" d="M234.33,-93.73C261.24,-105.28 302.75,-123.1 334.08,-136.55"/>
<polygon fill="blue" stroke="blue" points="332.32,-139.6 342.89,-140.33 335.08,-133.17 332.32,-139.6"/>
</g>
<!-- # bruģ -->
<g id="node1" class="node">
<title># bruģ</title>
<polygon fill="lightblue" stroke="black" stroke-width="0" points="83.58,-285.5 6.83,-285.5 6.83,-244.5 83.58,-244.5 83.58,-285.5"/>
<text xml:space="preserve" text-anchor="middle" x="45.21" y="-268.2" font-family="Times New Roman,serif" font-size="14.00">bruģ</text>
<text xml:space="preserve" text-anchor="middle" x="45.21" y="-251.7" font-family="Times New Roman,serif" font-size="14.00">(borrowed)</text>
</g>
<!-- bruģakmens -->
<g id="node2" class="node">
<title>bruģakmens</title>
<ellipse fill="white" stroke="black" stroke-width="0" cx="378.06" cy="-375" rx="56.47" ry="18"/>
<text xml:space="preserve" text-anchor="middle" x="378.06" y="-369.95" font-family="Times New Roman,serif" font-size="14.00">bruģakmens</text>
</g>
<!-- bruģis -->
<g id="node3" class="node">
<title>bruģis</title>
<ellipse fill="white" stroke="black" stroke-width="0" cx="206.01" cy="-228" rx="33.95" ry="18"/>
<text xml:space="preserve" text-anchor="middle" x="206.01" y="-222.95" font-family="Times New Roman,serif" font-size="14.00">bruģis</text>
</g>
<!-- akmens -->
<g id="node4" class="node">
<title>akmens</title>
<ellipse fill="white" stroke="black" stroke-width="0" cx="206.01" cy="-448" rx="39.58" ry="18"/>
<text xml:space="preserve" text-anchor="middle" x="206.01" y="-442.95" font-family="Times New Roman,serif" font-size="14.00" fill="gray">akmens</text>
</g>
<!-- bruģēšana -->
<g id="node5" class="node">
<title>bruģēšana</title>
<ellipse fill="white" stroke="black" stroke-width="0" cx="536.81" cy="-91" rx="48.28" ry="18"/>
<text xml:space="preserve" text-anchor="middle" x="536.81" y="-85.95" font-family="Times New Roman,serif" font-size="14.00">bruģēšana</text>
</g>
<!-- bruģēt -->
<g id="node6" class="node">
<title>bruģēt</title>
<ellipse fill="white" stroke="black" stroke-width="0" cx="378.06" cy="-264" rx="34.46" ry="18"/>
<text xml:space="preserve" text-anchor="middle" x="378.06" y="-258.95" font-family="Times New Roman,serif" font-size="14.00">bruģēt</text>
</g>
<!-- bruģētājfirma -->
<g id="node7" class="node">
<title>bruģētājfirma</title>
<ellipse fill="white" stroke="black" stroke-width="0" cx="206.01" cy="-668" rx="61.59" ry="18"/>
<text xml:space="preserve" text-anchor="middle" x="206.01" y="-662.95" font-family="Times New Roman,serif" font-size="14.00">bruģētājfirma</text>
</g>
<!-- bruģētāja -->
<g id="node8" class="node">
<title>bruģētāja</title>
<ellipse fill="white" stroke="black" stroke-width="0" cx="45.21" cy="-632" rx="45.21" ry="18"/>
<text xml:space="preserve" text-anchor="middle" x="45.21" y="-626.95" font-family="Times New Roman,serif" font-size="14.00" fill="gray">bruģētāja</text>
</g>
<!-- firma -->
<g id="node9" class="node">
<title>firma</title>
<ellipse fill="white" stroke="black" stroke-width="0" cx="45.21" cy="-704" rx="31.39" ry="18"/>
<text xml:space="preserve" text-anchor="middle" x="45.21" y="-698.95" font-family="Times New Roman,serif" font-size="14.00" fill="gray">firma</text>
</g>
<!-- bruģētājs -->
<g id="node10" class="node">
<title>bruģētājs</title>
<ellipse fill="white" stroke="black" stroke-width="0" cx="536.81" cy="-18" rx="44.7" ry="18"/>
<text xml:space="preserve" text-anchor="middle" x="536.81" y="-12.95" font-family="Times New Roman,serif" font-size="14.00">bruģētājs</text>
</g>
<!-- bruģītis -->
<g id="node11" class="node">
<title>bruģītis</title>
<ellipse fill="white" stroke="black" stroke-width="0" cx="378.06" cy="-46" rx="39.07" ry="18"/>
<text xml:space="preserve" text-anchor="middle" x="378.06" y="-40.95" font-family="Times New Roman,serif" font-size="14.00">bruģītis</text>
</g>
<!-- bruģmašīna -->
<g id="node12" class="node">
<title>bruģmašīna</title>
<ellipse fill="white" stroke="black" stroke-width="0" cx="378.06" cy="-155" rx="54.42" ry="18"/>
<text xml:space="preserve" text-anchor="middle" x="378.06" y="-149.95" font-family="Times New Roman,serif" font-size="14.00">bruģmašīna</text>
</g>
<!-- mašīna -->
<g id="node13" class="node">
<title>mašīna</title>
<ellipse fill="white" stroke="black" stroke-width="0" cx="206.01" cy="-82" rx="37.53" ry="18"/>
<text xml:space="preserve" text-anchor="middle" x="206.01" y="-76.95" font-family="Times New Roman,serif" font-size="14.00" fill="gray">mašīna</text>
</g>
<!-- iebruģēt -->
<g id="node14" class="node">
<title>iebruģēt</title>
<ellipse fill="white" stroke="black" stroke-width="0" cx="536.81" cy="-539" rx="41.12" ry="18"/>
<text xml:space="preserve" text-anchor="middle" x="536.81" y="-533.95" font-family="Times New Roman,serif" font-size="14.00">iebruģēt</text>
</g>
<!-- nobruģēt -->
<g id="node15" class="node">
<title>nobruģēt</title>
<ellipse fill="white" stroke="black" stroke-width="0" cx="536.81" cy="-320" rx="43.67" ry="18"/>
<text xml:space="preserve" text-anchor="middle" x="536.81" y="-314.95" font-family="Times New Roman,serif" font-size="14.00">nobruģēt</text>
</g>
</g>
</svg>
