<?xml version="1.0" encoding="UTF-8" standalone="no"?>
<!DOCTYPE svg PUBLIC "-//W3C//DTD SVG 1.1//EN"
 "http://www.w3.org/Graphics/SVG/1.1/DTD/svg11.dtd">
<!-- Generated by graphviz version 13.1.2 (20250808.2320)
 -->
<!-- Pages: 1 -->
<svg width="593pt" height="758pt"
 viewBox="0.00 0.00 593.00 758.00" xmlns="http://www.w3.org/2000/svg" xmlns:xlink="http://www.w3.org/1999/xlink">
<g id="graph0" class="graph" transform="scale(1 1) rotate(0) translate(4 754)">
<polygon fill="white" stroke="none" points="-4,4 -4,-754 589.09,-754 589.09,4 -4,4"/>
<!-- # bruģ&#45;&gt;bruģakmens___bruģ -->
<g id="edge1" class="edge">
<title># bruģ&#45;&gt;bruģakmens___bruģ</title>
<path fill="none" stroke="#cccccc" d="M82.42,-313.46C149.6,-350.39 289.72,-427.43 349.76,-460.44"/>
</g>
<!-- # bruģ&#45;&gt;bruģēšana___bruģ -->
<g id="edge2" class="edge">
<title># bruģ&#45;&gt;bruģēšana___bruģ</title>
<path fill="none" stroke="#cccccc" d="M81.76,-313.3C176.33,-365.81 427.44,-505.26 510.05,-551.14"/>
</g>
<!-- # bruģ&#45;&gt;bruģēt___bruģ -->
<g id="edge3" class="edge">
<title># bruģ&#45;&gt;bruģēt___bruģ</title>
<path fill="none" stroke="#cccccc" d="M83.39,-292.89C148.79,-292.69 281.24,-292.29 343.83,-292.1"/>
</g>
<!-- # bruģ&#45;&gt;bruģētājfirma___bruģ -->
<g id="edge4" class="edge">
<title># bruģ&#45;&gt;bruģētājfirma___bruģ</title>
<path fill="none" stroke="#cccccc" d="M54.19,-313.26C81.68,-383.01 172.11,-612.52 198.02,-678.26"/>
</g>
<!-- # bruģ&#45;&gt;bruģētājs___bruģ -->
<g id="edge5" class="edge">
<title># bruģ&#45;&gt;bruģētājs___bruģ</title>
<path fill="none" stroke="#cccccc" d="M83.38,-297.19C173.5,-307.09 399.05,-331.87 493.81,-342.28"/>
</g>
<!-- # bruģ&#45;&gt;bruģis___bruģ -->
<g id="edge6" class="edge">
<title># bruģ&#45;&gt;bruģis___bruģ</title>
<path fill="none" stroke="#cccccc" d="M83.44,-284.33C111.31,-277.83 148.94,-269.06 174.92,-263.01"/>
</g>
<!-- # bruģ&#45;&gt;bruģītis___bruģ -->
<g id="edge7" class="edge">
<title># bruģ&#45;&gt;bruģītis___bruģ</title>
<path fill="none" stroke="#cccccc" d="M83.39,-282.45C149.14,-264.28 282.62,-227.38 344.8,-210.19"/>
</g>
<!-- # bruģ&#45;&gt;bruģmašīna___bruģ -->
<g id="edge8" class="edge">
<title># bruģ&#45;&gt;bruģmašīna___bruģ</title>
<path fill="none" stroke="#cccccc" d="M82.1,-272.61C149.3,-235.46 290.23,-157.55 350.15,-124.43"/>
</g>
<!-- # bruģ&#45;&gt;iebruģēt___bruģ -->
<g id="edge9" class="edge">
<title># bruģ&#45;&gt;iebruģēt___bruģ</title>
<path fill="none" stroke="#cccccc" d="M83.38,-277.32C178.01,-238.43 421.97,-138.19 507.03,-103.24"/>
</g>
<!-- # bruģ&#45;&gt;nobruģēt___bruģ -->
<g id="edge10" class="edge">
<title># bruģ&#45;&gt;nobruģēt___bruģ</title>
<path fill="none" stroke="#cccccc" d="M81.76,-272.55C176.66,-219.47 429.22,-78.19 510.92,-32.48"/>
</g>
<!-- bruģēt___bruģ&#45;&gt;bruģēšana___bruģ -->
<g id="edge13" class="edge">
<title>bruģēt___bruģ&#45;&gt;bruģēšana___bruģ</title>
<path fill="none" stroke="green" d="M388.63,-308.73C414.86,-354.57 488.07,-482.55 520.28,-538.84"/>
<polygon fill="green" stroke="green" points="517.21,-540.54 525.22,-547.48 523.29,-537.06 517.21,-540.54"/>
</g>
<!-- bruģēt___bruģ&#45;&gt;bruģētājs___bruģ -->
<g id="edge17" class="edge">
<title>bruģēt___bruģ&#45;&gt;bruģētājs___bruģ</title>
<path fill="none" stroke="green" d="M406.73,-301.71C430.29,-309.97 464.56,-322 491.87,-331.58"/>
<polygon fill="green" stroke="green" points="490.7,-334.88 501.29,-334.89 493.02,-328.27 490.7,-334.88"/>
</g>
<!-- bruģēt___bruģ&#45;&gt;iebruģēt___bruģ -->
<g id="edge21" class="edge">
<title>bruģēt___bruģ&#45;&gt;iebruģēt___bruģ</title>
<path fill="none" stroke="green" d="M391.89,-275.55C419.16,-240.58 483.07,-158.64 515.77,-116.71"/>
<polygon fill="green" stroke="green" points="518.49,-118.91 521.88,-108.87 512.97,-114.6 518.49,-118.91"/>
</g>
<!-- bruģēt___bruģ&#45;&gt;nobruģēt___bruģ -->
<g id="edge22" class="edge">
<title>bruģēt___bruģ&#45;&gt;nobruģēt___bruģ</title>
<path fill="none" stroke="green" d="M388.63,-275.27C414.86,-229.43 488.07,-101.45 520.28,-45.16"/>
<polygon fill="green" stroke="green" points="523.29,-46.94 525.22,-36.52 517.21,-43.46 523.29,-46.94"/>
</g>
<!-- bruģis___bruģ&#45;&gt;bruģakmens___bruģ -->
<g id="edge11" class="edge">
<title>bruģis___bruģ&#45;&gt;bruģakmens___bruģ</title>
<path fill="none" stroke="blue" d="M219.51,-272.18C248.66,-309.88 321.32,-403.88 356.85,-449.85"/>
<polygon fill="blue" stroke="blue" points="354.03,-451.93 362.92,-457.7 359.57,-447.65 354.03,-451.93"/>
</g>
<!-- bruģis___bruģ&#45;&gt;bruģēt___bruģ -->
<g id="edge14" class="edge">
<title>bruģis___bruģ&#45;&gt;bruģēt___bruģ</title>
<path fill="none" stroke="green" d="M237.41,-262.44C264.6,-268.19 304.72,-276.69 334.99,-283.09"/>
<polygon fill="green" stroke="green" points="334.07,-286.48 344.58,-285.12 335.52,-279.63 334.07,-286.48"/>
</g>
<!-- bruģis___bruģ&#45;&gt;bruģītis___bruģ -->
<g id="edge18" class="edge">
<title>bruģis___bruģ&#45;&gt;bruģītis___bruģ</title>
<path fill="none" stroke="green" d="M235.09,-246.92C262.23,-238.14 303.69,-224.73 334.81,-214.67"/>
<polygon fill="green" stroke="green" points="335.89,-218 344.32,-211.59 333.73,-211.34 335.89,-218"/>
</g>
<!-- bruģis___bruģ&#45;&gt;bruģmašīna___bruģ -->
<g id="edge19" class="edge">
<title>bruģis___bruģ&#45;&gt;bruģmašīna___bruģ</title>
<path fill="none" stroke="blue" d="M224.25,-241.1C253.75,-215.59 314.15,-163.38 349.54,-132.79"/>
<polygon fill="blue" stroke="blue" points="351.54,-135.69 356.82,-126.5 346.97,-130.39 351.54,-135.69"/>
</g>
<!-- akmens&#45;&gt;bruģakmens___bruģ -->
<g id="edge12" class="edge">
<title>akmens&#45;&gt;bruģakmens___bruģ</title>
<path fill="none" stroke="blue" d="M245.17,-476C264.35,-476 288.16,-476 310.24,-476"/>
<polygon fill="blue" stroke="blue" points="310.09,-479.5 320.09,-476 310.09,-472.5 310.09,-479.5"/>
</g>
<!-- bruģētāja&#45;&gt;bruģētājfirma___bruģ -->
<g id="edge15" class="edge">
<title>bruģētāja&#45;&gt;bruģētājfirma___bruģ</title>
<path fill="none" stroke="blue" d="M84.65,-723.29C103.08,-719.11 125.57,-714.01 146.1,-709.35"/>
<polygon fill="blue" stroke="blue" points="146.81,-712.78 155.79,-707.16 145.26,-705.96 146.81,-712.78"/>
</g>
<!-- firma&#45;&gt;bruģētājfirma___bruģ -->
<g id="edge16" class="edge">
<title>firma&#45;&gt;bruģētājfirma___bruģ</title>
<path fill="none" stroke="blue" d="M74.23,-666.35C94.08,-670.85 121.42,-677.05 145.98,-682.62"/>
<polygon fill="blue" stroke="blue" points="145.03,-685.99 155.56,-684.79 146.58,-679.16 145.03,-685.99"/>
</g>
<!-- mašīna&#45;&gt;bruģmašīna___bruģ -->
<g id="edge20" class="edge">
<title>mašīna&#45;&gt;bruģmašīna___bruģ</title>
<path fill="none" stroke="blue" d="M234.33,-47.73C261.24,-59.28 302.75,-77.1 334.08,-90.55"/>
<polygon fill="blue" stroke="blue" points="332.32,-93.6 342.89,-94.33 335.08,-87.17 332.32,-93.6"/>
</g>
<!-- # bruģ -->
<g id="node1" class="node">
<title># bruģ</title>
<polygon fill="lightblue" stroke="black" stroke-width="0" points="83.58,-313.5 6.83,-313.5 6.83,-272.5 83.58,-272.5 83.58,-313.5"/>
<text xml:space="preserve" text-anchor="middle" x="45.21" y="-296.2" font-family="Times New Roman,serif" font-size="14.00">bruģ</text>
<text xml:space="preserve" text-anchor="middle" x="45.21" y="-279.7" font-family="Times New Roman,serif" font-size="14.00">(borrowed)</text>
</g>
<!-- bruģakmens___bruģ -->
<g id="node2" class="node">
<title>bruģakmens___bruģ</title>
<ellipse fill="white" stroke="black" stroke-width="0" cx="378.06" cy="-476" rx="56.47" ry="18"/>
<text xml:space="preserve" text-anchor="middle" x="378.06" y="-470.95" font-family="Times New Roman,serif" font-size="14.00">bruģakmens</text>
</g>
<!-- bruģēšana___bruģ -->
<g id="node3" class="node">
<title>bruģēšana___bruģ</title>
<ellipse fill="white" stroke="black" stroke-width="0" cx="536.81" cy="-566" rx="48.28" ry="18"/>
<text xml:space="preserve" text-anchor="middle" x="536.81" y="-560.95" font-family="Times New Roman,serif" font-size="14.00">bruģēšana</text>
</g>
<!-- bruģēt___bruģ -->
<g id="node4" class="node">
<title>bruģēt___bruģ</title>
<ellipse fill="white" stroke="black" stroke-width="0" cx="378.06" cy="-292" rx="34.46" ry="18"/>
<text xml:space="preserve" text-anchor="middle" x="378.06" y="-286.95" font-family="Times New Roman,serif" font-size="14.00">bruģēt</text>
</g>
<!-- bruģētājfirma___bruģ -->
<g id="node5" class="node">
<title>bruģētājfirma___bruģ</title>
<ellipse fill="white" stroke="black" stroke-width="0" cx="206.01" cy="-696" rx="61.59" ry="18"/>
<text xml:space="preserve" text-anchor="middle" x="206.01" y="-690.95" font-family="Times New Roman,serif" font-size="14.00">bruģētājfirma</text>
</g>
<!-- bruģētājs___bruģ -->
<g id="node6" class="node">
<title>bruģētājs___bruģ</title>
<ellipse fill="white" stroke="black" stroke-width="0" cx="536.81" cy="-347" rx="44.7" ry="18"/>
<text xml:space="preserve" text-anchor="middle" x="536.81" y="-341.95" font-family="Times New Roman,serif" font-size="14.00">bruģētājs</text>
</g>
<!-- bruģis___bruģ -->
<g id="node7" class="node">
<title>bruģis___bruģ</title>
<ellipse fill="white" stroke="black" stroke-width="0" cx="206.01" cy="-256" rx="33.95" ry="18"/>
<text xml:space="preserve" text-anchor="middle" x="206.01" y="-250.95" font-family="Times New Roman,serif" font-size="14.00">bruģis</text>
</g>
<!-- bruģītis___bruģ -->
<g id="node8" class="node">
<title>bruģītis___bruģ</title>
<ellipse fill="white" stroke="black" stroke-width="0" cx="378.06" cy="-201" rx="39.07" ry="18"/>
<text xml:space="preserve" text-anchor="middle" x="378.06" y="-195.95" font-family="Times New Roman,serif" font-size="14.00">bruģītis</text>
</g>
<!-- bruģmašīna___bruģ -->
<g id="node9" class="node">
<title>bruģmašīna___bruģ</title>
<ellipse fill="white" stroke="black" stroke-width="0" cx="378.06" cy="-109" rx="54.42" ry="18"/>
<text xml:space="preserve" text-anchor="middle" x="378.06" y="-103.95" font-family="Times New Roman,serif" font-size="14.00">bruģmašīna</text>
</g>
<!-- iebruģēt___bruģ -->
<g id="node10" class="node">
<title>iebruģēt___bruģ</title>
<ellipse fill="white" stroke="black" stroke-width="0" cx="536.81" cy="-91" rx="41.12" ry="18"/>
<text xml:space="preserve" text-anchor="middle" x="536.81" y="-85.95" font-family="Times New Roman,serif" font-size="14.00">iebruģēt</text>
</g>
<!-- nobruģēt___bruģ -->
<g id="node11" class="node">
<title>nobruģēt___bruģ</title>
<ellipse fill="white" stroke="black" stroke-width="0" cx="536.81" cy="-18" rx="43.67" ry="18"/>
<text xml:space="preserve" text-anchor="middle" x="536.81" y="-12.95" font-family="Times New Roman,serif" font-size="14.00">nobruģēt</text>
</g>
<!-- akmens -->
<g id="node12" class="node">
<title>akmens</title>
<ellipse fill="white" stroke="black" stroke-width="0" cx="206.01" cy="-476" rx="39.58" ry="18"/>
<text xml:space="preserve" text-anchor="middle" x="206.01" y="-470.95" font-family="Times New Roman,serif" font-size="14.00" fill="gray">akmens</text>
</g>
<!-- bruģētāja -->
<g id="node13" class="node">
<title>bruģētāja</title>
<ellipse fill="white" stroke="black" stroke-width="0" cx="45.21" cy="-732" rx="45.21" ry="18"/>
<text xml:space="preserve" text-anchor="middle" x="45.21" y="-726.95" font-family="Times New Roman,serif" font-size="14.00" fill="gray">bruģētāja</text>
</g>
<!-- firma -->
<g id="node14" class="node">
<title>firma</title>
<ellipse fill="white" stroke="black" stroke-width="0" cx="45.21" cy="-660" rx="31.39" ry="18"/>
<text xml:space="preserve" text-anchor="middle" x="45.21" y="-654.95" font-family="Times New Roman,serif" font-size="14.00" fill="gray">firma</text>
</g>
<!-- mašīna -->
<g id="node15" class="node">
<title>mašīna</title>
<ellipse fill="white" stroke="black" stroke-width="0" cx="206.01" cy="-36" rx="37.53" ry="18"/>
<text xml:space="preserve" text-anchor="middle" x="206.01" y="-30.95" font-family="Times New Roman,serif" font-size="14.00" fill="gray">mašīna</text>
</g>
</g>
</svg>
