<?xml version="1.0" encoding="UTF-8" standalone="no"?>
<!DOCTYPE svg PUBLIC "-//W3C//DTD SVG 1.1//EN"
 "http://www.w3.org/Graphics/SVG/1.1/DTD/svg11.dtd">
<!-- Generated by graphviz version 13.1.2 (20250808.2320)
 -->
<!-- Pages: 1 -->
<svg width="238pt" height="188pt"
 viewBox="0.00 0.00 238.00 188.00" xmlns="http://www.w3.org/2000/svg" xmlns:xlink="http://www.w3.org/1999/xlink">
<g id="graph0" class="graph" transform="scale(1 1) rotate(0) translate(4 184)">
<polygon fill="white" stroke="none" points="-4,4 -4,-184 233.72,-184 233.72,4 -4,4"/>
<!-- # brus&#45;&gt;Brusubārda -->
<g id="edge1" class="edge">
<title># brus&#45;&gt;Brusubārda</title>
<path fill="none" stroke="#cccccc" d="M61.44,-148.63C85.61,-136.18 121.57,-117.67 146.59,-104.79"/>
</g>
<!-- brusas&#45;&gt;Brusubārda -->
<g id="edge2" class="edge">
<title>brusas&#45;&gt;Brusubārda</title>
<path fill="none" stroke="blue" d="M68.61,-90C81.55,-90 96.83,-90 111.73,-90"/>
<polygon fill="blue" stroke="blue" points="111.49,-93.5 121.49,-90 111.49,-86.5 111.49,-93.5"/>
</g>
<!-- bārda&#45;&gt;Brusubārda -->
<g id="edge3" class="edge">
<title>bārda&#45;&gt;Brusubārda</title>
<path fill="none" stroke="blue" d="M58.24,-29.73C79.4,-40.62 111.34,-57.06 136.51,-70.02"/>
<polygon fill="blue" stroke="blue" points="134.65,-73 145.14,-74.46 137.85,-66.77 134.65,-73"/>
</g>
<!-- # brus -->
<g id="node1" class="node">
<title># brus</title>
<polygon fill="lightblue" stroke="black" stroke-width="0" points="61.46,-180 7.46,-180 7.46,-144 61.46,-144 61.46,-180"/>
<text xml:space="preserve" text-anchor="middle" x="34.46" y="-156.95" font-family="Times New Roman,serif" font-size="14.00">brus</text>
</g>
<!-- Brusubārda -->
<g id="node2" class="node">
<title>Brusubārda</title>
<ellipse fill="white" stroke="black" stroke-width="0" cx="176.32" cy="-90" rx="53.4" ry="18"/>
<text xml:space="preserve" text-anchor="middle" x="176.32" y="-84.95" font-family="Times New Roman,serif" font-size="14.00">Brusubārda</text>
</g>
<!-- brusas -->
<g id="node3" class="node">
<title>brusas</title>
<ellipse fill="white" stroke="black" stroke-width="0" cx="34.46" cy="-90" rx="34.46" ry="18"/>
<text xml:space="preserve" text-anchor="middle" x="34.46" y="-84.95" font-family="Times New Roman,serif" font-size="14.00" fill="gray">brusas</text>
</g>
<!-- bārda -->
<g id="node4" class="node">
<title>bārda</title>
<ellipse fill="white" stroke="black" stroke-width="0" cx="34.46" cy="-18" rx="31.39" ry="18"/>
<text xml:space="preserve" text-anchor="middle" x="34.46" y="-12.95" font-family="Times New Roman,serif" font-size="14.00" fill="gray">bārda</text>
</g>
</g>
</svg>
