<?xml version="1.0" encoding="UTF-8" standalone="no"?>
<!DOCTYPE svg PUBLIC "-//W3C//DTD SVG 1.1//EN"
 "http://www.w3.org/Graphics/SVG/1.1/DTD/svg11.dtd">
<!-- Generated by graphviz version 13.1.2 (20250808.2320)
 -->
<!-- Pages: 1 -->
<svg width="361pt" height="226pt"
 viewBox="0.00 0.00 361.00 226.00" xmlns="http://www.w3.org/2000/svg" xmlns:xlink="http://www.w3.org/1999/xlink">
<g id="graph0" class="graph" transform="scale(1 1) rotate(0) translate(4 222)">
<polygon fill="white" stroke="none" points="-4,4 -4,-222 357.31,-222 357.31,4 -4,4"/>
<!-- # brut&#45;&gt;brutalitāte___brut -->
<g id="edge1" class="edge">
<title># brut&#45;&gt;brutalitāte___brut</title>
<path fill="none" stroke="#cccccc" d="M76.58,-137.46C127.13,-151.3 215.73,-175.55 266.46,-189.44"/>
</g>
<!-- # brut&#45;&gt;brutāli___brut -->
<g id="edge2" class="edge">
<title># brut&#45;&gt;brutāli___brut</title>
<path fill="none" stroke="#cccccc" d="M76.58,-127.14C128.42,-127.34 220.3,-127.68 270.28,-127.87"/>
</g>
<!-- # brut&#45;&gt;brutāls___brut -->
<g id="edge3" class="edge">
<title># brut&#45;&gt;brutāls___brut</title>
<path fill="none" stroke="#cccccc" d="M76.61,-137.9C95.39,-143.4 117.88,-149.98 135.57,-155.16"/>
</g>
<!-- # brut&#45;&gt;bruto___brut -->
<g id="edge4" class="edge">
<title># brut&#45;&gt;bruto___brut</title>
<path fill="none" stroke="#cccccc" d="M62.85,-106.75C87.97,-85.08 127.19,-51.26 149.24,-32.24"/>
</g>
<!-- brutāls___brut&#45;&gt;brutalitāte___brut -->
<g id="edge5" class="edge">
<title>brutāls___brut&#45;&gt;brutalitāte___brut</title>
<path fill="none" stroke="green" d="M198.67,-172.17C215.14,-176.52 235.78,-181.97 254.43,-186.9"/>
<polygon fill="green" stroke="green" points="253.4,-190.25 263.96,-189.42 255.19,-183.48 253.4,-190.25"/>
</g>
<!-- brutāls___brut&#45;&gt;brutāli___brut -->
<g id="edge6" class="edge">
<title>brutāls___brut&#45;&gt;brutāli___brut</title>
<path fill="none" stroke="green" d="M198.67,-155.83C217.75,-150.79 242.45,-144.26 263.14,-138.8"/>
<polygon fill="green" stroke="green" points="263.92,-142.21 272.7,-136.28 262.13,-135.45 263.92,-142.21"/>
</g>
<!-- # brut -->
<g id="node1" class="node">
<title># brut</title>
<polygon fill="lightblue" stroke="black" stroke-width="0" points="76.75,-147.5 0,-147.5 0,-106.5 76.75,-106.5 76.75,-147.5"/>
<text xml:space="preserve" text-anchor="middle" x="38.38" y="-130.2" font-family="Times New Roman,serif" font-size="14.00">brut</text>
<text xml:space="preserve" text-anchor="middle" x="38.38" y="-113.7" font-family="Times New Roman,serif" font-size="14.00">(borrowed)</text>
</g>
<!-- brutalitāte___brut -->
<g id="node2" class="node">
<title>brutalitāte___brut</title>
<ellipse fill="white" stroke="black" stroke-width="0" cx="305.02" cy="-200" rx="48.28" ry="18"/>
<text xml:space="preserve" text-anchor="middle" x="305.02" y="-194.95" font-family="Times New Roman,serif" font-size="14.00">brutalitāte</text>
</g>
<!-- brutāli___brut -->
<g id="node3" class="node">
<title>brutāli___brut</title>
<ellipse fill="white" stroke="black" stroke-width="0" cx="305.02" cy="-128" rx="34.97" ry="18"/>
<text xml:space="preserve" text-anchor="middle" x="305.02" y="-122.95" font-family="Times New Roman,serif" font-size="14.00">brutāli</text>
</g>
<!-- brutāls___brut -->
<g id="node4" class="node">
<title>brutāls___brut</title>
<ellipse fill="white" stroke="black" stroke-width="0" cx="166.75" cy="-164" rx="36" ry="18"/>
<text xml:space="preserve" text-anchor="middle" x="166.75" y="-158.95" font-family="Times New Roman,serif" font-size="14.00">brutāls</text>
</g>
<!-- bruto___brut -->
<g id="node5" class="node">
<title>bruto___brut</title>
<ellipse fill="white" stroke="black" stroke-width="0" cx="166.75" cy="-18" rx="30.37" ry="18"/>
<text xml:space="preserve" text-anchor="middle" x="166.75" y="-12.95" font-family="Times New Roman,serif" font-size="14.00">bruto</text>
</g>
</g>
</svg>
