<?xml version="1.0" encoding="UTF-8" standalone="no"?>
<!DOCTYPE svg PUBLIC "-//W3C//DTD SVG 1.1//EN"
 "http://www.w3.org/Graphics/SVG/1.1/DTD/svg11.dtd">
<!-- Generated by graphviz version 13.1.2 (20250808.2320)
 -->
<!-- Pages: 1 -->
<svg width="358pt" height="317pt"
 viewBox="0.00 0.00 358.00 317.00" xmlns="http://www.w3.org/2000/svg" xmlns:xlink="http://www.w3.org/1999/xlink">
<g id="graph0" class="graph" transform="scale(1 1) rotate(0) translate(4 313)">
<polygon fill="white" stroke="none" points="-4,4 -4,-313 354.23,-313 354.23,4 -4,4"/>
<!-- # brūķ&#45;&gt;brūķēšana -->
<g id="edge1" class="edge">
<title># brūķ&#45;&gt;brūķēšana</title>
<path fill="none" stroke="#cccccc" d="M76.7,-182.47C129.82,-208.06 224.66,-253.76 272.55,-276.83"/>
</g>
<!-- # brūķ&#45;&gt;brūķēt -->
<g id="edge3" class="edge">
<title># brūķ&#45;&gt;brūķēt</title>
<path fill="none" stroke="#cccccc" d="M76.49,-164C93.74,-164 114.09,-164 130.85,-164"/>
</g>
<!-- # brūķ&#45;&gt;brūķētāja -->
<g id="edge4" class="edge">
<title># brūķ&#45;&gt;brūķētāja</title>
<path fill="none" stroke="#cccccc" d="M76.7,-169.23C125.25,-175.87 208.65,-187.26 259.21,-194.16"/>
</g>
<!-- # brūķ&#45;&gt;brūķis -->
<g id="edge6" class="edge">
<title># brūķ&#45;&gt;brūķis</title>
<path fill="none" stroke="#cccccc" d="M56.73,-143.7C81.79,-114.4 127.59,-60.83 150.46,-34.09"/>
</g>
<!-- # brūķ&#45;&gt;nebrūķēt -->
<g id="edge7" class="edge">
<title># brūķ&#45;&gt;nebrūķēt</title>
<path fill="none" stroke="#cccccc" d="M76.7,-158.77C125.82,-152.06 210.62,-140.47 260.98,-133.6"/>
</g>
<!-- brūķēt&#45;&gt;brūķēšana -->
<g id="edge2" class="edge">
<title>brūķēt&#45;&gt;brūķēšana</title>
<path fill="none" stroke="green" d="M182.46,-179.32C205.45,-200.99 247.71,-240.82 275.05,-266.59"/>
<polygon fill="green" stroke="green" points="272.58,-269.07 282.26,-273.38 277.38,-263.98 272.58,-269.07"/>
</g>
<!-- brūķēt&#45;&gt;brūķētāja -->
<g id="edge5" class="edge">
<title>brūķēt&#45;&gt;brūķētāja</title>
<path fill="none" stroke="green" d="M195.78,-171.9C212.62,-176.4 234.11,-182.14 253.28,-187.26"/>
<polygon fill="green" stroke="green" points="252.21,-190.6 262.78,-189.8 254.02,-183.84 252.21,-190.6"/>
</g>
<!-- brūķēt&#45;&gt;nebrūķēt -->
<g id="edge8" class="edge">
<title>brūķēt&#45;&gt;nebrūķēt</title>
<path fill="none" stroke="green" d="M195.78,-156.1C213.01,-151.5 235.11,-145.59 254.6,-140.38"/>
<polygon fill="green" stroke="green" points="255.5,-143.77 264.26,-137.8 253.69,-137 255.5,-143.77"/>
</g>
<!-- # brūķ -->
<g id="node1" class="node">
<title># brūķ</title>
<polygon fill="lightblue" stroke="black" stroke-width="0" points="76.75,-184.5 0,-184.5 0,-143.5 76.75,-143.5 76.75,-184.5"/>
<text xml:space="preserve" text-anchor="middle" x="38.38" y="-167.2" font-family="Times New Roman,serif" font-size="14.00">brūķ</text>
<text xml:space="preserve" text-anchor="middle" x="38.38" y="-150.7" font-family="Times New Roman,serif" font-size="14.00">(borrowed)</text>
</g>
<!-- brūķēšana -->
<g id="node2" class="node">
<title>brūķēšana</title>
<ellipse fill="white" stroke="black" stroke-width="0" cx="301.95" cy="-291" rx="48.28" ry="18"/>
<text xml:space="preserve" text-anchor="middle" x="301.95" y="-285.95" font-family="Times New Roman,serif" font-size="14.00">brūķēšana</text>
</g>
<!-- brūķēt -->
<g id="node3" class="node">
<title>brūķēt</title>
<ellipse fill="white" stroke="black" stroke-width="0" cx="165.21" cy="-164" rx="34.46" ry="18"/>
<text xml:space="preserve" text-anchor="middle" x="165.21" y="-158.95" font-family="Times New Roman,serif" font-size="14.00">brūķēt</text>
</g>
<!-- brūķētāja -->
<g id="node4" class="node">
<title>brūķētāja</title>
<ellipse fill="white" stroke="black" stroke-width="0" cx="301.95" cy="-200" rx="45.21" ry="18"/>
<text xml:space="preserve" text-anchor="middle" x="301.95" y="-194.95" font-family="Times New Roman,serif" font-size="14.00">brūķētāja</text>
</g>
<!-- brūķis -->
<g id="node5" class="node">
<title>brūķis</title>
<ellipse fill="white" stroke="black" stroke-width="0" cx="165.21" cy="-18" rx="33.95" ry="18"/>
<text xml:space="preserve" text-anchor="middle" x="165.21" y="-12.95" font-family="Times New Roman,serif" font-size="14.00">brūķis</text>
</g>
<!-- nebrūķēt -->
<g id="node6" class="node">
<title>nebrūķēt</title>
<ellipse fill="white" stroke="black" stroke-width="0" cx="301.95" cy="-128" rx="43.16" ry="18"/>
<text xml:space="preserve" text-anchor="middle" x="301.95" y="-122.95" font-family="Times New Roman,serif" font-size="14.00">nebrūķēt</text>
</g>
</g>
</svg>
