<?xml version="1.0" encoding="UTF-8" standalone="no"?>
<!DOCTYPE svg PUBLIC "-//W3C//DTD SVG 1.1//EN"
 "http://www.w3.org/Graphics/SVG/1.1/DTD/svg11.dtd">
<!-- Generated by graphviz version 13.1.2 (20250808.2320)
 -->
<!-- Pages: 1 -->
<svg width="490pt" height="486pt"
 viewBox="0.00 0.00 490.00 486.00" xmlns="http://www.w3.org/2000/svg" xmlns:xlink="http://www.w3.org/1999/xlink">
<g id="graph0" class="graph" transform="scale(1 1) rotate(0) translate(4 482)">
<polygon fill="white" stroke="none" points="-4,4 -4,-482 486.14,-482 486.14,4 -4,4"/>
<!-- # bruž&#45;&gt;apbružāt___bruž -->
<g id="edge1" class="edge">
<title># bruž&#45;&gt;apbružāt___bruž</title>
<path fill="none" stroke="#cccccc" d="M46.93,-219.71C94.17,-261.71 212.4,-366.8 257.63,-407.01"/>
</g>
<!-- # bruž&#45;&gt;apbružāties___bruž -->
<g id="edge2" class="edge">
<title># bruž&#45;&gt;apbružāties___bruž</title>
<path fill="none" stroke="#cccccc" d="M53.98,-219.33C127.96,-266.84 333.2,-398.65 404.2,-444.24"/>
</g>
<!-- # bruž&#45;&gt;bružāt___bruž -->
<g id="edge3" class="edge">
<title># bruž&#45;&gt;bružāt___bruž</title>
<path fill="none" stroke="#cccccc" d="M53.91,-202C70.07,-202 90.99,-202 108.28,-202"/>
</g>
<!-- # bruž&#45;&gt;bružāts___bruž -->
<g id="edge4" class="edge">
<title># bruž&#45;&gt;bružāts___bruž</title>
<path fill="none" stroke="#cccccc" d="M53.61,-202C98.08,-202 187.61,-202 238.34,-202"/>
</g>
<!-- # bruž&#45;&gt;nobružāt___bruž -->
<g id="edge5" class="edge">
<title># bruž&#45;&gt;nobružāt___bruž</title>
<path fill="none" stroke="#cccccc" d="M53.61,-209.71C98.7,-222.77 190.14,-249.25 240.46,-263.82"/>
</g>
<!-- # bruž&#45;&gt;nobružāties___bruž -->
<g id="edge6" class="edge">
<title># bruž&#45;&gt;nobružāties___bruž</title>
<path fill="none" stroke="#cccccc" d="M53.98,-204.42C120.13,-210.35 291.23,-225.68 377.47,-233.41"/>
</g>
<!-- # bruž&#45;&gt;pabružāt___bruž -->
<g id="edge7" class="edge">
<title># bruž&#45;&gt;pabružāt___bruž</title>
<path fill="none" stroke="#cccccc" d="M53.61,-194.19C98.83,-180.91 190.65,-153.95 240.88,-139.2"/>
</g>
<!-- # bruž&#45;&gt;pabružāties___bruž -->
<g id="edge8" class="edge">
<title># bruž&#45;&gt;pabružāties___bruž</title>
<path fill="none" stroke="#cccccc" d="M53.98,-189.64C125.67,-156.81 320.64,-67.51 397.24,-32.43"/>
</g>
<!-- # bruž&#45;&gt;pārbružāt___bruž -->
<g id="edge9" class="edge">
<title># bruž&#45;&gt;pārbružāt___bruž</title>
<path fill="none" stroke="#cccccc" d="M53.61,-186.38C101.84,-158.05 203.07,-98.61 250.32,-70.86"/>
</g>
<!-- apbružāt___bruž&#45;&gt;apbružāties___bruž -->
<g id="edge11" class="edge">
<title>apbružāt___bruž&#45;&gt;apbružāties___bruž</title>
<path fill="none" stroke="green" d="M312.43,-431.77C330.92,-436.29 353.84,-441.91 374.37,-446.93"/>
<polygon fill="green" stroke="green" points="373.46,-450.31 384.01,-449.29 375.13,-443.51 373.46,-450.31"/>
</g>
<!-- bružāt___bruž&#45;&gt;apbružāt___bruž -->
<g id="edge10" class="edge">
<title>bružāt___bruž&#45;&gt;apbružāt___bruž</title>
<path fill="none" stroke="green" d="M153.06,-218.97C175.79,-257.13 231.07,-349.91 258.56,-396.04"/>
<polygon fill="green" stroke="green" points="255.39,-397.56 263.52,-404.36 261.41,-393.98 255.39,-397.56"/>
</g>
<!-- bružāt___bruž&#45;&gt;bružāts___bruž -->
<g id="edge12" class="edge">
<title>bružāt___bruž&#45;&gt;bružāts___bruž</title>
<path fill="none" stroke="green" d="M175.84,-202C191.31,-202 210.05,-202 227.04,-202"/>
<polygon fill="green" stroke="green" points="226.94,-205.5 236.94,-202 226.94,-198.5 226.94,-205.5"/>
</g>
<!-- bružāt___bruž&#45;&gt;nobružāt___bruž -->
<g id="edge13" class="edge">
<title>bružāt___bruž&#45;&gt;nobružāt___bruž</title>
<path fill="none" stroke="green" d="M165.89,-214.54C186.17,-225.63 216.07,-241.98 239.39,-254.73"/>
<polygon fill="green" stroke="green" points="237.47,-257.68 247.93,-259.4 240.83,-251.53 237.47,-257.68"/>
</g>
<!-- bružāt___bruž&#45;&gt;pabružāt___bruž -->
<g id="edge15" class="edge">
<title>bružāt___bruž&#45;&gt;pabružāt___bruž</title>
<path fill="none" stroke="green" d="M165.89,-189.28C186.17,-178.04 216.07,-161.46 239.39,-148.53"/>
<polygon fill="green" stroke="green" points="240.88,-151.71 247.93,-143.8 237.49,-145.59 240.88,-151.71"/>
</g>
<!-- bružāt___bruž&#45;&gt;pārbružāt___bruž -->
<g id="edge17" class="edge">
<title>bružāt___bruž&#45;&gt;pārbružāt___bruž</title>
<path fill="none" stroke="green" d="M157.29,-186.1C180.1,-160.81 224.84,-111.2 252,-81.09"/>
<polygon fill="green" stroke="green" points="254.38,-83.67 258.48,-73.9 249.18,-78.99 254.38,-83.67"/>
</g>
<!-- nobružāt___bruž&#45;&gt;nobružāties___bruž -->
<g id="edge14" class="edge">
<title>nobružāt___bruž&#45;&gt;nobružāties___bruž</title>
<path fill="none" stroke="green" d="M313.2,-265.29C331.48,-260.93 353.95,-255.58 374.13,-250.77"/>
<polygon fill="green" stroke="green" points="374.68,-254.24 383.6,-248.52 373.06,-247.43 374.68,-254.24"/>
</g>
<!-- pabružāt___bruž&#45;&gt;pabružāties___bruž -->
<g id="edge16" class="edge">
<title>pabružāt___bruž&#45;&gt;pabružāties___bruž</title>
<path fill="none" stroke="green" d="M297.32,-113.8C322.99,-94.94 367.01,-62.61 396.72,-40.78"/>
<polygon fill="green" stroke="green" points="398.62,-43.73 404.61,-34.99 394.48,-38.09 398.62,-43.73"/>
</g>
<!-- # bruž -->
<g id="node1" class="node">
<title># bruž</title>
<polygon fill="lightblue" stroke="black" stroke-width="0" points="54,-220 0,-220 0,-184 54,-184 54,-220"/>
<text xml:space="preserve" text-anchor="middle" x="27" y="-196.95" font-family="Times New Roman,serif" font-size="14.00">bruž</text>
</g>
<!-- apbružāt___bruž -->
<g id="node2" class="node">
<title>apbružāt___bruž</title>
<ellipse fill="white" stroke="black" stroke-width="0" cx="275.62" cy="-423" rx="42.65" ry="18"/>
<text xml:space="preserve" text-anchor="middle" x="275.62" y="-417.95" font-family="Times New Roman,serif" font-size="14.00">apbružāt</text>
</g>
<!-- apbružāties___bruž -->
<g id="node3" class="node">
<title>apbružāties___bruž</title>
<ellipse fill="white" stroke="black" stroke-width="0" cx="428.74" cy="-460" rx="52.89" ry="18"/>
<text xml:space="preserve" text-anchor="middle" x="428.74" y="-454.95" font-family="Times New Roman,serif" font-size="14.00">apbružāties</text>
</g>
<!-- bružāt___bruž -->
<g id="node4" class="node">
<title>bružāt___bruž</title>
<ellipse fill="white" stroke="black" stroke-width="0" cx="141.95" cy="-202" rx="33.95" ry="18"/>
<text xml:space="preserve" text-anchor="middle" x="141.95" y="-196.95" font-family="Times New Roman,serif" font-size="14.00">bružāt</text>
</g>
<!-- bružāts___bruž -->
<g id="node5" class="node">
<title>bružāts___bruž</title>
<ellipse fill="white" stroke="black" stroke-width="0" cx="275.62" cy="-202" rx="37.53" ry="18"/>
<text xml:space="preserve" text-anchor="middle" x="275.62" y="-196.95" font-family="Times New Roman,serif" font-size="14.00">bružāts</text>
</g>
<!-- nobružāt___bruž -->
<g id="node6" class="node">
<title>nobružāt___bruž</title>
<ellipse fill="white" stroke="black" stroke-width="0" cx="275.62" cy="-274" rx="43.16" ry="18"/>
<text xml:space="preserve" text-anchor="middle" x="275.62" y="-268.95" font-family="Times New Roman,serif" font-size="14.00">nobružāt</text>
</g>
<!-- nobružāties___bruž -->
<g id="node7" class="node">
<title>nobružāties___bruž</title>
<ellipse fill="white" stroke="black" stroke-width="0" cx="428.74" cy="-238" rx="53.4" ry="18"/>
<text xml:space="preserve" text-anchor="middle" x="428.74" y="-232.95" font-family="Times New Roman,serif" font-size="14.00">nobružāties</text>
</g>
<!-- pabružāt___bruž -->
<g id="node8" class="node">
<title>pabružāt___bruž</title>
<ellipse fill="white" stroke="black" stroke-width="0" cx="275.62" cy="-129" rx="42.65" ry="18"/>
<text xml:space="preserve" text-anchor="middle" x="275.62" y="-123.95" font-family="Times New Roman,serif" font-size="14.00">pabružāt</text>
</g>
<!-- pabružāties___bruž -->
<g id="node9" class="node">
<title>pabružāties___bruž</title>
<ellipse fill="white" stroke="black" stroke-width="0" cx="428.74" cy="-18" rx="52.89" ry="18"/>
<text xml:space="preserve" text-anchor="middle" x="428.74" y="-12.95" font-family="Times New Roman,serif" font-size="14.00">pabružāties</text>
</g>
<!-- pārbružāt___bruž -->
<g id="node10" class="node">
<title>pārbružāt___bruž</title>
<ellipse fill="white" stroke="black" stroke-width="0" cx="275.62" cy="-56" rx="45.72" ry="18"/>
<text xml:space="preserve" text-anchor="middle" x="275.62" y="-50.95" font-family="Times New Roman,serif" font-size="14.00">pārbružāt</text>
</g>
</g>
</svg>
