<?xml version="1.0" encoding="UTF-8" standalone="no"?>
<!DOCTYPE svg PUBLIC "-//W3C//DTD SVG 1.1//EN"
 "http://www.w3.org/Graphics/SVG/1.1/DTD/svg11.dtd">
<!-- Generated by graphviz version 13.1.2 (20250808.2320)
 -->
<!-- Pages: 1 -->
<svg width="218pt" height="332pt"
 viewBox="0.00 0.00 218.00 332.00" xmlns="http://www.w3.org/2000/svg" xmlns:xlink="http://www.w3.org/1999/xlink">
<g id="graph0" class="graph" transform="scale(1 1) rotate(0) translate(4 328)">
<polygon fill="white" stroke="none" points="-4,4 -4,-328 213.91,-328 213.91,4 -4,4"/>
<!-- # bruž&#45;&gt;Bruže___bruž -->
<g id="edge1" class="edge">
<title># bruž&#45;&gt;Bruže___bruž</title>
<path fill="none" stroke="#cccccc" d="M57.72,-182.33C83.89,-211.32 131.38,-263.95 155.08,-290.21"/>
</g>
<!-- # bruž&#45;&gt;Bružis___bruž -->
<g id="edge2" class="edge">
<title># bruž&#45;&gt;Bružis___bruž</title>
<path fill="none" stroke="#cccccc" d="M76.27,-182.44C98.78,-194.91 126.86,-210.47 146.26,-221.22"/>
</g>
<!-- # bruž&#45;&gt;Bruža___bruž -->
<g id="edge3" class="edge">
<title># bruž&#45;&gt;Bruža___bruž</title>
<path fill="none" stroke="#cccccc" d="M76.61,-162C95.97,-162 119.36,-162 137.8,-162"/>
</g>
<!-- # bruž&#45;&gt;Bružus___bruž -->
<g id="edge4" class="edge">
<title># bruž&#45;&gt;Bružus___bruž</title>
<path fill="none" stroke="#cccccc" d="M76.27,-141.56C98.48,-129.25 126.11,-113.94 145.48,-103.22"/>
</g>
<!-- # bruž&#45;&gt;Bružiks___bruž -->
<g id="edge5" class="edge">
<title># bruž&#45;&gt;Bružiks___bruž</title>
<path fill="none" stroke="#cccccc" d="M57.72,-141.67C83.75,-112.83 130.87,-60.62 154.7,-34.21"/>
</g>
<!-- # bruž -->
<g id="node1" class="node">
<title># bruž</title>
<polygon fill="lightblue" stroke="black" stroke-width="0" points="76.75,-182.5 0,-182.5 0,-141.5 76.75,-141.5 76.75,-182.5"/>
<text xml:space="preserve" text-anchor="middle" x="38.38" y="-165.2" font-family="Times New Roman,serif" font-size="14.00">bruž</text>
<text xml:space="preserve" text-anchor="middle" x="38.38" y="-148.7" font-family="Times New Roman,serif" font-size="14.00">(borrowed)</text>
</g>
<!-- Bruže___bruž -->
<g id="node2" class="node">
<title>Bruže___bruž</title>
<ellipse fill="white" stroke="black" stroke-width="0" cx="170.33" cy="-306" rx="32.93" ry="18"/>
<text xml:space="preserve" text-anchor="middle" x="170.33" y="-300.95" font-family="Times New Roman,serif" font-size="14.00">Bruže</text>
</g>
<!-- Bružis___bruž -->
<g id="node3" class="node">
<title>Bružis___bruž</title>
<ellipse fill="white" stroke="black" stroke-width="0" cx="170.33" cy="-234" rx="34.97" ry="18"/>
<text xml:space="preserve" text-anchor="middle" x="170.33" y="-228.95" font-family="Times New Roman,serif" font-size="14.00">Bružis</text>
</g>
<!-- Bruža___bruž -->
<g id="node4" class="node">
<title>Bruža___bruž</title>
<ellipse fill="white" stroke="black" stroke-width="0" cx="170.33" cy="-162" rx="32.93" ry="18"/>
<text xml:space="preserve" text-anchor="middle" x="170.33" y="-156.95" font-family="Times New Roman,serif" font-size="14.00">Bruža</text>
</g>
<!-- Bružus___bruž -->
<g id="node5" class="node">
<title>Bružus___bruž</title>
<ellipse fill="white" stroke="black" stroke-width="0" cx="170.33" cy="-90" rx="37.02" ry="18"/>
<text xml:space="preserve" text-anchor="middle" x="170.33" y="-84.95" font-family="Times New Roman,serif" font-size="14.00">Bružus</text>
</g>
<!-- Bružiks___bruž -->
<g id="node6" class="node">
<title>Bružiks___bruž</title>
<ellipse fill="white" stroke="black" stroke-width="0" cx="170.33" cy="-18" rx="39.58" ry="18"/>
<text xml:space="preserve" text-anchor="middle" x="170.33" y="-12.95" font-family="Times New Roman,serif" font-size="14.00">Bružiks</text>
</g>
</g>
</svg>
