<?xml version="1.0" encoding="UTF-8" standalone="no"?>
<!DOCTYPE svg PUBLIC "-//W3C//DTD SVG 1.1//EN"
 "http://www.w3.org/Graphics/SVG/1.1/DTD/svg11.dtd">
<!-- Generated by graphviz version 13.1.2 (20250808.2320)
 -->
<!-- Pages: 1 -->
<svg width="1953pt" height="1801pt"
 viewBox="0.00 0.00 1953.00 1801.00" xmlns="http://www.w3.org/2000/svg" xmlns:xlink="http://www.w3.org/1999/xlink">
<g id="graph0" class="graph" transform="scale(1 1) rotate(0) translate(4 1796.87)">
<polygon fill="white" stroke="none" points="-4,4 -4,-1796.87 1948.84,-1796.87 1948.84,4 -4,4"/>
<!-- # cukur&#45;&gt;bezcukura___cukur -->
<g id="edge1" class="edge">
<title># cukur&#45;&gt;bezcukura___cukur</title>
<path fill="none" stroke="#cccccc" d="M920.41,-875.05C859.32,-883.19 739.85,-899.1 674.29,-907.83"/>
</g>
<!-- # cukur&#45;&gt;cukurakmens___cukur -->
<g id="edge2" class="edge">
<title># cukur&#45;&gt;cukurakmens___cukur</title>
<path fill="none" stroke="#cccccc" d="M949.1,-890.45C926.06,-940.21 867.46,-1066.77 845.87,-1113.4"/>
</g>
<!-- # cukur&#45;&gt;cukurbiete___cukur -->
<g id="edge3" class="edge">
<title># cukur&#45;&gt;cukurbiete___cukur</title>
<path fill="none" stroke="#cccccc" d="M996.89,-889.23C1092.19,-937.18 1338.41,-1061.04 1422.92,-1103.56"/>
</g>
<!-- # cukur&#45;&gt;cukurdāmīte___cukur -->
<g id="edge4" class="edge">
<title># cukur&#45;&gt;cukurdāmīte___cukur</title>
<path fill="none" stroke="#cccccc" d="M920.55,-867.82C830.48,-862.75 603.81,-849.98 497.71,-844"/>
</g>
<!-- # cukur&#45;&gt;cukurdoze___cukur -->
<g id="edge5" class="edge">
<title># cukur&#45;&gt;cukurdoze___cukur</title>
<path fill="none" stroke="#cccccc" d="M996.75,-860.23C1054.42,-845.52 1163.29,-817.75 1222.13,-802.75"/>
</g>
<!-- # cukur&#45;&gt;cukurfabrika___cukur -->
<g id="edge6" class="edge">
<title># cukur&#45;&gt;cukurfabrika___cukur</title>
<path fill="none" stroke="#cccccc" d="M996.77,-889.02C1068.61,-924.85 1222.52,-1001.64 1288.04,-1034.32"/>
</g>
<!-- # cukur&#45;&gt;cukurgailītis___cukur -->
<g id="edge7" class="edge">
<title># cukur&#45;&gt;cukurgailītis___cukur</title>
<path fill="none" stroke="#cccccc" d="M920.29,-883.49C819.15,-919.21 545.82,-1015.75 445.39,-1051.22"/>
</g>
<!-- # cukur&#45;&gt;cukurgraudiņš___cukur -->
<g id="edge8" class="edge">
<title># cukur&#45;&gt;cukurgraudiņš___cukur</title>
<path fill="none" stroke="#cccccc" d="M951.6,-890.39C922.81,-974.58 813.55,-1293.98 786.48,-1373.12"/>
</g>
<!-- # cukur&#45;&gt;cukurgrauds___cukur -->
<g id="edge9" class="edge">
<title># cukur&#45;&gt;cukurgrauds___cukur</title>
<path fill="none" stroke="#cccccc" d="M948.12,-890.2C913.82,-956.47 805.24,-1166.3 772.95,-1228.69"/>
</g>
<!-- # cukur&#45;&gt;cukuriņš___cukur -->
<g id="edge10" class="edge">
<title># cukur&#45;&gt;cukuriņš___cukur</title>
<path fill="none" stroke="#cccccc" d="M940.77,-890.41C922.45,-911.43 894.27,-943.75 877.23,-963.3"/>
</g>
<!-- # cukur&#45;&gt;cukurmaize___cukur -->
<g id="edge11" class="edge">
<title># cukur&#45;&gt;cukurmaize___cukur</title>
<path fill="none" stroke="#cccccc" d="M994.08,-849.59C1074.23,-803.58 1267.84,-692.42 1339.37,-651.36"/>
</g>
<!-- # cukur&#45;&gt;cukurniedre___cukur -->
<g id="edge12" class="edge">
<title># cukur&#45;&gt;cukurniedre___cukur</title>
<path fill="none" stroke="#cccccc" d="M996.76,-871.09C1071.88,-873.28 1239.14,-878.18 1325.84,-880.72"/>
</g>
<!-- # cukur&#45;&gt;cukurnieks___cukur -->
<g id="edge13" class="edge">
<title># cukur&#45;&gt;cukurnieks___cukur</title>
<path fill="none" stroke="#cccccc" d="M920.44,-853.3C900.47,-844.57 876.29,-834 857.33,-825.71"/>
</g>
<!-- # cukur&#45;&gt;cukurots___cukur -->
<g id="edge14" class="edge">
<title># cukur&#45;&gt;cukurots___cukur</title>
<path fill="none" stroke="#cccccc" d="M933.52,-849.6C852.91,-784.13 601.46,-579.89 529.53,-521.46"/>
</g>
<!-- # cukur&#45;&gt;cukurpastila___cukur -->
<g id="edge15" class="edge">
<title># cukur&#45;&gt;cukurpastila___cukur</title>
<path fill="none" stroke="#cccccc" d="M976.4,-890.27C1022.18,-942.46 1143.34,-1080.56 1185.85,-1129.01"/>
</g>
<!-- # cukur&#45;&gt;cukurrūpniecība___cukur -->
<g id="edge16" class="edge">
<title># cukur&#45;&gt;cukurrūpniecība___cukur</title>
<path fill="none" stroke="#cccccc" d="M955.95,-890.34C947.87,-952.69 923.57,-1140.22 916,-1198.7"/>
</g>
<!-- # cukur&#45;&gt;cukurs___cukur -->
<g id="edge17" class="edge">
<title># cukur&#45;&gt;cukurs___cukur</title>
<path fill="none" stroke="#cccccc" d="M996.6,-877.13C1018.21,-881.2 1045.02,-886.25 1065.79,-890.16"/>
</g>
<!-- # cukur&#45;&gt;Cukure___cukur -->
<g id="edge18" class="edge">
<title># cukur&#45;&gt;Cukure___cukur</title>
<path fill="none" stroke="#cccccc" d="M920.24,-889.15C875.52,-911.52 802.82,-947.88 764.29,-967.16"/>
</g>
<!-- # cukur&#45;&gt;Cukurs___cukur -->
<g id="edge19" class="edge">
<title># cukur&#45;&gt;Cukurs___cukur</title>
<path fill="none" stroke="#cccccc" d="M967.71,-890.15C982.45,-922.78 1011.25,-986.54 1025.12,-1017.24"/>
</g>
<!-- # cukur&#45;&gt;cukursalds___cukur -->
<g id="edge20" class="edge">
<title># cukur&#45;&gt;cukursalds___cukur</title>
<path fill="none" stroke="#cccccc" d="M996.62,-876.4C1093.51,-892.79 1349.36,-936.07 1453.91,-953.76"/>
</g>
<!-- # cukur&#45;&gt;cukurslimība___cukur -->
<g id="edge21" class="edge">
<title># cukur&#45;&gt;cukurslimība___cukur</title>
<path fill="none" stroke="#cccccc" d="M967.45,-849.58C997.7,-780.02 1096.55,-552.68 1124.86,-487.57"/>
</g>
<!-- # cukur&#45;&gt;cukurslimnieks___cukur -->
<g id="edge22" class="edge">
<title># cukur&#45;&gt;cukurslimnieks___cukur</title>
<path fill="none" stroke="#cccccc" d="M979.7,-849.69C1026,-805.25 1135.71,-699.91 1178.76,-658.58"/>
</g>
<!-- # cukur&#45;&gt;cukurtrauciņš___cukur -->
<g id="edge23" class="edge">
<title># cukur&#45;&gt;cukurtrauciņš___cukur</title>
<path fill="none" stroke="#cccccc" d="M965.56,-890.44C987.12,-953.74 1052.49,-1145.66 1072.63,-1204.8"/>
</g>
<!-- # cukur&#45;&gt;cukurtrauks___cukur -->
<g id="edge24" class="edge">
<title># cukur&#45;&gt;cukurtrauks___cukur</title>
<path fill="none" stroke="#cccccc" d="M962.26,-890.42C976.47,-969.44 1027.62,-1254.03 1040.96,-1328.23"/>
</g>
<!-- # cukur&#45;&gt;cukurūdens___cukur -->
<g id="edge25" class="edge">
<title># cukur&#45;&gt;cukurūdens___cukur</title>
<path fill="none" stroke="#cccccc" d="M945.55,-849.57C920.65,-810.63 866.77,-726.33 843.44,-689.84"/>
</g>
<!-- # cukur&#45;&gt;cukurvate___cukur -->
<g id="edge26" class="edge">
<title># cukur&#45;&gt;cukurvate___cukur</title>
<path fill="none" stroke="#cccccc" d="M996.86,-862.91C1090.87,-845.59 1332.62,-801.03 1430.86,-782.92"/>
</g>
<!-- # cukur&#45;&gt;cukurzirnis___cukur -->
<g id="edge27" class="edge">
<title># cukur&#45;&gt;cukurzirnis___cukur</title>
<path fill="none" stroke="#cccccc" d="M976.43,-890.42C1036.26,-959.03 1229.15,-1180.23 1284.38,-1243.56"/>
</g>
<!-- # cukur&#45;&gt;cukurzirnītis___cukur -->
<g id="edge28" class="edge">
<title># cukur&#45;&gt;cukurzirnītis___cukur</title>
<path fill="none" stroke="#cccccc" d="M967.03,-890.19C1000.67,-970.82 1124.95,-1268.65 1156.67,-1344.66"/>
</g>
<!-- # cukur&#45;&gt;iecukurot___cukur -->
<g id="edge29" class="edge">
<title># cukur&#45;&gt;iecukurot___cukur</title>
<path fill="none" stroke="#cccccc" d="M920.3,-851.9C823.38,-806.15 569.93,-686.52 483.83,-645.87"/>
</g>
<!-- # cukur&#45;&gt;iecukuroties___cukur -->
<g id="edge30" class="edge">
<title># cukur&#45;&gt;iecukuroties___cukur</title>
<path fill="none" stroke="#cccccc" d="M920.43,-852.91C851.08,-821.9 705.58,-756.85 640.68,-727.84"/>
</g>
<!-- # cukur&#45;&gt;jēlcukurs___cukur -->
<g id="edge31" class="edge">
<title># cukur&#45;&gt;jēlcukurs___cukur</title>
<path fill="none" stroke="#cccccc" d="M977.13,-849.6C1036.97,-783.86 1224.26,-578.1 1279.24,-517.7"/>
</g>
<!-- # cukur&#45;&gt;pārcukurots___cukur -->
<g id="edge32" class="edge">
<title># cukur&#45;&gt;pārcukurots___cukur</title>
<path fill="none" stroke="#cccccc" d="M931.01,-890.23C851.5,-948.65 622.91,-1116.62 550.47,-1169.85"/>
</g>
<!-- # cukur&#45;&gt;puscukurs___cukur -->
<g id="edge33" class="edge">
<title># cukur&#45;&gt;puscukurs___cukur</title>
<path fill="none" stroke="#cccccc" d="M961.66,-849.5C968.98,-800.72 987.34,-678.29 994.24,-632.32"/>
</g>
<!-- # cukur&#45;&gt;pūdercukuriņš___cukur -->
<g id="edge34" class="edge">
<title># cukur&#45;&gt;pūdercukuriņš___cukur</title>
<path fill="none" stroke="#cccccc" d="M951.34,-849.63C928.32,-785.01 857.07,-584.99 835.36,-524.06"/>
</g>
<!-- # cukur&#45;&gt;pūdercukurs___cukur -->
<g id="edge35" class="edge">
<title># cukur&#45;&gt;pūdercukurs___cukur</title>
<path fill="none" stroke="#cccccc" d="M960.14,-849.68C965.54,-779.04 983.47,-544.65 988.54,-478.37"/>
</g>
<!-- # cukur&#45;&gt;sacukurots___cukur -->
<g id="edge36" class="edge">
<title># cukur&#45;&gt;sacukurots___cukur</title>
<path fill="none" stroke="#cccccc" d="M951.96,-849.65C922.74,-760.05 805.66,-401.02 778.17,-316.74"/>
</g>
<!-- # cukur&#45;&gt;sacukuroties___cukur -->
<g id="edge37" class="edge">
<title># cukur&#45;&gt;sacukuroties___cukur</title>
<path fill="none" stroke="#cccccc" d="M945.75,-849.6C892.2,-764.64 687.08,-439.19 637.02,-359.77"/>
</g>
<!-- cukurgrauds___cukur&#45;&gt;cukurgraudiņš___cukur -->
<g id="edge50" class="edge">
<title>cukurgrauds___cukur&#45;&gt;cukurgraudiņš___cukur</title>
<path fill="none" stroke="green" d="M765.84,-1264.08C768.64,-1288.47 773.7,-1332.67 777.06,-1361.92"/>
<polygon fill="green" stroke="green" points="773.54,-1362.02 778.16,-1371.56 780.5,-1361.23 773.54,-1362.02"/>
</g>
<!-- cukurs___cukur&#45;&gt;bezcukura___cukur -->
<g id="edge39" class="edge">
<title>cukurs___cukur&#45;&gt;bezcukura___cukur</title>
<path fill="none" stroke="blue" d="M1063.68,-897.74C983.61,-900.72 787.72,-908 688.39,-911.7"/>
<polygon fill="blue" stroke="blue" points="688.43,-908.19 678.57,-912.06 688.69,-915.19 688.43,-908.19"/>
</g>
<!-- cukurs___cukur&#45;&gt;cukurakmens___cukur -->
<g id="edge40" class="edge">
<title>cukurs___cukur&#45;&gt;cukurakmens___cukur</title>
<path fill="none" stroke="blue" d="M1081.9,-911.82C1037.58,-951.6 918.95,-1058.08 865.05,-1106.47"/>
<polygon fill="blue" stroke="blue" points="862.9,-1103.69 857.8,-1112.98 867.58,-1108.9 862.9,-1103.69"/>
</g>
<!-- cukurs___cukur&#45;&gt;cukurbiete___cukur -->
<g id="edge42" class="edge">
<title>cukurs___cukur&#45;&gt;cukurbiete___cukur</title>
<path fill="none" stroke="blue" d="M1121.12,-910.3C1180.92,-947.87 1346.36,-1051.83 1418.05,-1096.87"/>
<polygon fill="blue" stroke="blue" points="1415.91,-1099.66 1426.24,-1102.02 1419.64,-1093.73 1415.91,-1099.66"/>
</g>
<!-- cukurs___cukur&#45;&gt;cukurdoze___cukur -->
<g id="edge45" class="edge">
<title>cukurs___cukur&#45;&gt;cukurdoze___cukur</title>
<path fill="none" stroke="blue" d="M1121.06,-882.41C1148.67,-864.84 1196.28,-834.53 1228.51,-814.01"/>
<polygon fill="blue" stroke="blue" points="1230.15,-817.12 1236.7,-808.8 1226.39,-811.21 1230.15,-817.12"/>
</g>
<!-- cukurs___cukur&#45;&gt;cukurfabrika___cukur -->
<g id="edge47" class="edge">
<title>cukurs___cukur&#45;&gt;cukurfabrika___cukur</title>
<path fill="none" stroke="blue" d="M1119.7,-910.83C1157.96,-937.52 1240.15,-994.85 1285.98,-1026.82"/>
<polygon fill="blue" stroke="blue" points="1283.74,-1029.53 1293.94,-1032.38 1287.74,-1023.78 1283.74,-1029.53"/>
</g>
<!-- cukurs___cukur&#45;&gt;cukurgrauds___cukur -->
<g id="edge51" class="edge">
<title>cukurs___cukur&#45;&gt;cukurgrauds___cukur</title>
<path fill="none" stroke="blue" d="M1083.77,-912.37C1030.46,-968.02 852.39,-1153.89 787.62,-1221.5"/>
<polygon fill="blue" stroke="blue" points="785.39,-1218.77 781,-1228.41 790.44,-1223.61 785.39,-1218.77"/>
</g>
<!-- cukurs___cukur&#45;&gt;cukuriņš___cukur -->
<g id="edge53" class="edge">
<title>cukurs___cukur&#45;&gt;cukuriņš___cukur</title>
<path fill="none" stroke="green" d="M1070.06,-906.68C1028.99,-921.2 953.58,-947.87 905.89,-964.74"/>
<polygon fill="green" stroke="green" points="904.96,-961.35 896.7,-967.99 907.3,-967.95 904.96,-961.35"/>
</g>
<!-- cukurs___cukur&#45;&gt;cukurmaize___cukur -->
<g id="edge54" class="edge">
<title>cukurs___cukur&#45;&gt;cukurmaize___cukur</title>
<path fill="none" stroke="blue" d="M1115.37,-880.51C1160.49,-836.55 1287.06,-713.21 1341.32,-660.34"/>
<polygon fill="blue" stroke="blue" points="1343.58,-663.02 1348.29,-653.54 1338.69,-658.01 1343.58,-663.02"/>
</g>
<!-- cukurs___cukur&#45;&gt;cukurniedre___cukur -->
<g id="edge56" class="edge">
<title>cukurs___cukur&#45;&gt;cukurniedre___cukur</title>
<path fill="none" stroke="blue" d="M1134.1,-894.67C1179.22,-892.4 1258.52,-888.43 1314.93,-885.6"/>
<polygon fill="blue" stroke="blue" points="1314.92,-889.1 1324.73,-885.1 1314.56,-882.11 1314.92,-889.1"/>
</g>
<!-- cukurs___cukur&#45;&gt;cukurnieks___cukur -->
<g id="edge58" class="edge">
<title>cukurs___cukur&#45;&gt;cukurnieks___cukur</title>
<path fill="none" stroke="green" d="M1068.99,-887.13C1022.14,-872.64 931.25,-844.51 874.73,-827.03"/>
<polygon fill="green" stroke="green" points="875.94,-823.74 865.36,-824.13 873.87,-830.43 875.94,-823.74"/>
</g>
<!-- cukurs___cukur&#45;&gt;cukurpastila___cukur -->
<g id="edge60" class="edge">
<title>cukurs___cukur&#45;&gt;cukurpastila___cukur</title>
<path fill="none" stroke="blue" d="M1106.2,-913.98C1123.62,-956.69 1168.3,-1066.3 1189.44,-1118.14"/>
<polygon fill="blue" stroke="blue" points="1186.1,-1119.23 1193.12,-1127.16 1192.58,-1116.58 1186.1,-1119.23"/>
</g>
<!-- cukurs___cukur&#45;&gt;cukurrūpniecība___cukur -->
<g id="edge62" class="edge">
<title>cukurs___cukur&#45;&gt;cukurrūpniecība___cukur</title>
<path fill="none" stroke="blue" d="M1089.08,-913.63C1058.67,-966.11 966.86,-1124.57 929.64,-1188.81"/>
<polygon fill="blue" stroke="blue" points="926.7,-1186.91 924.71,-1197.32 932.75,-1190.42 926.7,-1186.91"/>
</g>
<!-- cukurs___cukur&#45;&gt;Cukure___cukur -->
<g id="edge64" class="edge">
<title>cukurs___cukur&#45;&gt;Cukure___cukur</title>
<path fill="none" stroke="purple" d="M1067.04,-903.85C1002.61,-918.8 857.09,-952.56 783.24,-969.7"/>
<polygon fill="purple" stroke="purple" points="782.87,-966.19 773.92,-971.86 784.46,-973.01 782.87,-966.19"/>
</g>
<!-- cukurs___cukur&#45;&gt;Cukurs___cukur -->
<g id="edge65" class="edge">
<title>cukurs___cukur&#45;&gt;Cukurs___cukur</title>
<path fill="none" stroke="purple" d="M1090.81,-913.65C1079.63,-937.02 1059.52,-979.06 1046.2,-1006.9"/>
<polygon fill="purple" stroke="purple" points="1043.11,-1005.26 1041.95,-1015.79 1049.42,-1008.28 1043.11,-1005.26"/>
</g>
<!-- cukurs___cukur&#45;&gt;cukursalds___cukur -->
<g id="edge66" class="edge">
<title>cukurs___cukur&#45;&gt;cukursalds___cukur</title>
<path fill="none" stroke="blue" d="M1132.83,-901.91C1201.5,-913.07 1357.99,-938.49 1442.59,-952.23"/>
<polygon fill="blue" stroke="blue" points="1441.86,-955.65 1452.29,-953.8 1442.98,-948.74 1441.86,-955.65"/>
</g>
<!-- cukurs___cukur&#45;&gt;cukurslimība___cukur -->
<g id="edge68" class="edge">
<title>cukurs___cukur&#45;&gt;cukurslimība___cukur</title>
<path fill="none" stroke="blue" d="M1100.44,-878.65C1105.62,-812.68 1123.75,-581.51 1130.2,-499.29"/>
<polygon fill="blue" stroke="blue" points="1133.69,-499.61 1130.98,-489.36 1126.71,-499.06 1133.69,-499.61"/>
</g>
<!-- cukurs___cukur&#45;&gt;cukurslimnieks___cukur -->
<g id="edge70" class="edge">
<title>cukurs___cukur&#45;&gt;cukurslimnieks___cukur</title>
<path fill="none" stroke="blue" d="M1105.75,-878.91C1122.34,-835.52 1165.46,-722.78 1185.72,-669.8"/>
<polygon fill="blue" stroke="blue" points="1188.95,-671.16 1189.25,-660.57 1182.41,-668.66 1188.95,-671.16"/>
</g>
<!-- cukurs___cukur&#45;&gt;cukurtrauks___cukur -->
<g id="edge73" class="edge">
<title>cukurs___cukur&#45;&gt;cukurtrauks___cukur</title>
<path fill="none" stroke="blue" d="M1096.86,-914.33C1088.46,-983.13 1058.2,-1230.98 1047.75,-1316.65"/>
<polygon fill="blue" stroke="blue" points="1044.27,-1316.22 1046.53,-1326.57 1051.22,-1317.07 1044.27,-1316.22"/>
</g>
<!-- cukurs___cukur&#45;&gt;cukurūdens___cukur -->
<g id="edge75" class="edge">
<title>cukurs___cukur&#45;&gt;cukurūdens___cukur</title>
<path fill="none" stroke="blue" d="M1080.71,-881.03C1034.88,-842.55 915.12,-741.97 860.35,-695.98"/>
<polygon fill="blue" stroke="blue" points="862.9,-693.55 853,-689.8 858.4,-698.91 862.9,-693.55"/>
</g>
<!-- cukurs___cukur&#45;&gt;cukurvate___cukur -->
<g id="edge77" class="edge">
<title>cukurs___cukur&#45;&gt;cukurvate___cukur</title>
<path fill="none" stroke="blue" d="M1128.73,-886.81C1193.71,-865.74 1348.96,-815.41 1426.95,-790.13"/>
<polygon fill="blue" stroke="blue" points="1427.55,-793.61 1435.98,-787.2 1425.39,-786.96 1427.55,-793.61"/>
</g>
<!-- cukurs___cukur&#45;&gt;cukurzirnis___cukur -->
<g id="edge79" class="edge">
<title>cukurs___cukur&#45;&gt;cukurzirnis___cukur</title>
<path fill="none" stroke="blue" d="M1108.43,-913.51C1140.35,-971.56 1244.86,-1161.67 1284.16,-1233.15"/>
<polygon fill="blue" stroke="blue" points="1281.07,-1234.78 1288.95,-1241.86 1287.2,-1231.41 1281.07,-1234.78"/>
</g>
<!-- cukurs___cukur&#45;&gt;jēlcukurs___cukur -->
<g id="edge85" class="edge">
<title>cukurs___cukur&#45;&gt;jēlcukurs___cukur</title>
<path fill="none" stroke="blue" d="M1107.57,-879.18C1138.26,-817.1 1243.22,-604.74 1280.93,-528.45"/>
<polygon fill="blue" stroke="blue" points="1284.02,-530.08 1285.32,-519.57 1277.75,-526.98 1284.02,-530.08"/>
</g>
<!-- cukurs___cukur&#45;&gt;puscukurs___cukur -->
<g id="edge88" class="edge">
<title>cukurs___cukur&#45;&gt;puscukurs___cukur</title>
<path fill="none" stroke="blue" d="M1092.66,-878.79C1075.46,-831.33 1028.09,-700.57 1007.12,-642.7"/>
<polygon fill="blue" stroke="blue" points="1010.51,-641.78 1003.81,-633.57 1003.93,-644.16 1010.51,-641.78"/>
</g>
<!-- cukurs___cukur&#45;&gt;pūdercukurs___cukur -->
<g id="edge91" class="edge">
<title>cukurs___cukur&#45;&gt;pūdercukurs___cukur</title>
<path fill="none" stroke="blue" d="M1094.63,-878.81C1077.86,-811.9 1018.03,-573.1 997.14,-489.74"/>
<polygon fill="blue" stroke="blue" points="1000.54,-488.92 994.72,-480.07 993.75,-490.62 1000.54,-488.92"/>
</g>
<!-- cukurtrauks___cukur&#45;&gt;cukurtrauciņš___cukur -->
<g id="edge72" class="edge">
<title>cukurtrauks___cukur&#45;&gt;cukurtrauciņš___cukur</title>
<path fill="none" stroke="green" d="M1049.09,-1328.3C1054.72,-1308.1 1064,-1274.78 1070.65,-1250.9"/>
<polygon fill="green" stroke="green" points="1073.96,-1252.06 1073.27,-1241.49 1067.22,-1250.18 1073.96,-1252.06"/>
</g>
<!-- cukurzirnis___cukur&#45;&gt;cukurzirnītis___cukur -->
<g id="edge81" class="edge">
<title>cukurzirnis___cukur&#45;&gt;cukurzirnītis___cukur</title>
<path fill="none" stroke="green" d="M1277.56,-1277C1255.19,-1293.84 1220.12,-1320.23 1194.89,-1339.22"/>
<polygon fill="green" stroke="green" points="1192.84,-1336.38 1186.95,-1345.19 1197.05,-1341.97 1192.84,-1336.38"/>
</g>
<!-- iecukurot___cukur&#45;&gt;iecukuroties___cukur -->
<g id="edge83" class="edge">
<title>iecukurot___cukur&#45;&gt;iecukuroties___cukur</title>
<path fill="none" stroke="green" d="M481.8,-646.46C506.07,-659.3 541.96,-678.28 569.3,-692.74"/>
<polygon fill="green" stroke="green" points="567.51,-695.75 577.98,-697.33 570.78,-689.56 567.51,-695.75"/>
</g>
<!-- pūdercukurs___cukur&#45;&gt;pūdercukuriņš___cukur -->
<g id="edge89" class="edge">
<title>pūdercukurs___cukur&#45;&gt;pūdercukuriņš___cukur</title>
<path fill="none" stroke="green" d="M948.04,-472.6C928.71,-478.07 905.47,-484.64 884.69,-490.52"/>
<polygon fill="green" stroke="green" points="883.88,-487.11 875.21,-493.2 885.79,-493.85 883.88,-487.11"/>
</g>
<!-- bez&#45;&gt;bezcukura___cukur -->
<g id="edge38" class="edge">
<title>bez&#45;&gt;bezcukura___cukur</title>
<path fill="none" stroke="blue" d="M257.73,-959.88C321.24,-952.01 483.86,-931.85 571.14,-921.04"/>
<polygon fill="blue" stroke="blue" points="571.43,-924.53 580.92,-919.82 570.57,-917.58 571.43,-924.53"/>
</g>
<!-- akmens&#45;&gt;cukurakmens___cukur -->
<g id="edge41" class="edge">
<title>akmens&#45;&gt;cukurakmens___cukur</title>
<path fill="none" stroke="blue" d="M900.2,-1422.47C889.27,-1371.5 857.39,-1222.77 843.88,-1159.75"/>
<polygon fill="blue" stroke="blue" points="847.34,-1159.21 841.83,-1150.17 840.5,-1160.68 847.34,-1159.21"/>
</g>
<!-- biete&#45;&gt;cukurbiete___cukur -->
<g id="edge43" class="edge">
<title>biete&#45;&gt;cukurbiete___cukur</title>
<path fill="none" stroke="blue" d="M1817.88,-1323.84C1754.61,-1288.28 1567.74,-1183.25 1488.3,-1138.6"/>
<polygon fill="blue" stroke="blue" points="1490.47,-1135.8 1480.03,-1133.95 1487.04,-1141.9 1490.47,-1135.8"/>
</g>
<!-- cukurdāma&#45;&gt;cukurdāmīte___cukur -->
<g id="edge44" class="edge">
<title>cukurdāma&#45;&gt;cukurdāmīte___cukur</title>
<path fill="none" stroke="green" d="M213.64,-774.65C260.13,-788.17 337.26,-810.59 388.68,-825.53"/>
<polygon fill="green" stroke="green" points="387.52,-828.84 398.1,-828.27 389.48,-822.12 387.52,-828.84"/>
</g>
<!-- doze&#45;&gt;cukurdoze___cukur -->
<g id="edge46" class="edge">
<title>doze&#45;&gt;cukurdoze___cukur</title>
<path fill="none" stroke="blue" d="M1489.87,-661.37C1447.58,-685.74 1350.95,-741.42 1298.24,-771.79"/>
<polygon fill="blue" stroke="blue" points="1296.54,-768.74 1289.62,-776.76 1300.03,-774.8 1296.54,-768.74"/>
</g>
<!-- fabrika&#45;&gt;cukurfabrika___cukur -->
<g id="edge48" class="edge">
<title>fabrika&#45;&gt;cukurfabrika___cukur</title>
<path fill="none" stroke="blue" d="M1619.2,-1273.61C1564.96,-1233.18 1415.1,-1121.5 1349.74,-1072.78"/>
<polygon fill="blue" stroke="blue" points="1352.05,-1070.14 1341.94,-1066.97 1347.87,-1075.75 1352.05,-1070.14"/>
</g>
<!-- cukurgailis&#45;&gt;cukurgailītis___cukur -->
<g id="edge49" class="edge">
<title>cukurgailis&#45;&gt;cukurgailītis___cukur</title>
<path fill="none" stroke="green" d="M82.51,-1218.43C146.38,-1188.2 293.79,-1118.43 366.13,-1084.2"/>
<polygon fill="green" stroke="green" points="367.33,-1087.5 374.87,-1080.06 364.34,-1081.18 367.33,-1087.5"/>
</g>
<!-- grauds&#45;&gt;cukurgrauds___cukur -->
<g id="edge52" class="edge">
<title>grauds&#45;&gt;cukurgrauds___cukur</title>
<path fill="none" stroke="blue" d="M574.96,-1626.53C605.95,-1564.15 711.95,-1350.74 750.04,-1274.07"/>
<polygon fill="blue" stroke="blue" points="753.16,-1275.65 754.48,-1265.14 746.89,-1272.54 753.16,-1275.65"/>
</g>
<!-- maize&#45;&gt;cukurmaize___cukur -->
<g id="edge55" class="edge">
<title>maize&#45;&gt;cukurmaize___cukur</title>
<path fill="none" stroke="blue" d="M1711.15,-413.41C1650.28,-452.68 1474.92,-565.83 1400.53,-613.83"/>
<polygon fill="blue" stroke="blue" points="1398.92,-610.7 1392.42,-619.06 1402.72,-616.58 1398.92,-610.7"/>
</g>
<!-- niedre&#45;&gt;cukurniedre___cukur -->
<g id="edge57" class="edge">
<title>niedre&#45;&gt;cukurniedre___cukur</title>
<path fill="none" stroke="blue" d="M1752.22,-862.57C1685.14,-866.13 1533.32,-874.19 1445.81,-878.84"/>
<polygon fill="blue" stroke="blue" points="1445.74,-875.34 1435.94,-879.36 1446.11,-882.33 1445.74,-875.34"/>
</g>
<!-- cukurot&#45;&gt;cukurots___cukur -->
<g id="edge59" class="edge">
<title>cukurot&#45;&gt;cukurots___cukur</title>
<path fill="none" stroke="green" d="M270.21,-389.13C317.72,-412.21 417.47,-460.68 472.2,-487.27"/>
<polygon fill="green" stroke="green" points="470.63,-490.4 481.15,-491.62 473.69,-484.1 470.63,-490.4"/>
</g>
<!-- cukurot&#45;&gt;iecukurot___cukur -->
<g id="edge82" class="edge">
<title>cukurot&#45;&gt;iecukurot___cukur</title>
<path fill="none" stroke="green" d="M257.54,-393.03C293.61,-436.77 390.64,-554.44 433.67,-606.62"/>
<polygon fill="green" stroke="green" points="430.79,-608.62 439.85,-614.11 436.19,-604.17 430.79,-608.62"/>
</g>
<!-- pastila&#45;&gt;cukurpastila___cukur -->
<g id="edge61" class="edge">
<title>pastila&#45;&gt;cukurpastila___cukur</title>
<path fill="none" stroke="blue" d="M1371.43,-1468.6C1342.23,-1413.4 1251.17,-1241.26 1215.44,-1173.7"/>
<polygon fill="blue" stroke="blue" points="1218.68,-1172.34 1210.91,-1165.13 1212.49,-1175.61 1218.68,-1172.34"/>
</g>
<!-- rūpniecība&#45;&gt;cukurrūpniecība___cukur -->
<g id="edge63" class="edge">
<title>rūpniecība&#45;&gt;cukurrūpniecība___cukur</title>
<path fill="none" stroke="blue" d="M617.31,-1410.82C673.28,-1374.09 813.44,-1282.11 878.95,-1239.12"/>
<polygon fill="blue" stroke="blue" points="880.72,-1242.14 887.16,-1233.73 876.88,-1236.29 880.72,-1242.14"/>
</g>
<!-- salds&#45;&gt;cukursalds___cukur -->
<g id="edge67" class="edge">
<title>salds&#45;&gt;cukursalds___cukur</title>
<path fill="none" stroke="blue" d="M1887.87,-1038.4C1820.07,-1024.97 1644.44,-990.18 1554.39,-972.35"/>
<polygon fill="blue" stroke="blue" points="1555.3,-968.96 1544.81,-970.45 1553.94,-975.82 1555.3,-968.96"/>
</g>
<!-- slimība&#45;&gt;cukurslimība___cukur -->
<g id="edge69" class="edge">
<title>slimība&#45;&gt;cukurslimība___cukur</title>
<path fill="none" stroke="blue" d="M1240.27,-83.53C1222.63,-146.81 1162.34,-362.99 1140.49,-441.34"/>
<polygon fill="blue" stroke="blue" points="1137.16,-440.25 1137.85,-450.82 1143.9,-442.13 1137.16,-440.25"/>
</g>
<!-- slimnieks&#45;&gt;cukurslimnieks___cukur -->
<g id="edge71" class="edge">
<title>slimnieks&#45;&gt;cukurslimnieks___cukur</title>
<path fill="none" stroke="blue" d="M1393.64,-288.35C1360.61,-347.53 1252.3,-541.61 1211.91,-613.98"/>
<polygon fill="blue" stroke="blue" points="1209.01,-611.98 1207.2,-622.42 1215.13,-615.4 1209.01,-611.98"/>
</g>
<!-- trauks&#45;&gt;cukurtrauks___cukur -->
<g id="edge74" class="edge">
<title>trauks&#45;&gt;cukurtrauks___cukur</title>
<path fill="none" stroke="blue" d="M1050.01,-1756.99C1049.07,-1690.65 1045.76,-1458.17 1044.58,-1375.49"/>
<polygon fill="blue" stroke="blue" points="1048.08,-1375.45 1044.44,-1365.5 1041.08,-1375.55 1048.08,-1375.45"/>
</g>
<!-- ūdens&#45;&gt;cukurūdens___cukur -->
<g id="edge76" class="edge">
<title>ūdens&#45;&gt;cukurūdens___cukur</title>
<path fill="none" stroke="blue" d="M645.22,-472.42C679.89,-509.48 766.4,-601.97 808.51,-646.99"/>
<polygon fill="blue" stroke="blue" points="805.9,-649.32 815.28,-654.23 811.01,-644.53 805.9,-649.32"/>
</g>
<!-- vate&#45;&gt;cukurvate___cukur -->
<g id="edge78" class="edge">
<title>vate&#45;&gt;cukurvate___cukur</title>
<path fill="none" stroke="blue" d="M1862.47,-646.05C1795.75,-668.18 1607.18,-730.71 1519.37,-759.83"/>
<polygon fill="blue" stroke="blue" points="1518.5,-756.43 1510.11,-762.9 1520.7,-763.07 1518.5,-756.43"/>
</g>
<!-- zirnis&#45;&gt;cukurzirnis___cukur -->
<g id="edge80" class="edge">
<title>zirnis&#45;&gt;cukurzirnis___cukur</title>
<path fill="none" stroke="blue" d="M1518.21,-1601.35C1481.6,-1544.39 1361.77,-1357.89 1316.66,-1287.7"/>
<polygon fill="blue" stroke="blue" points="1319.73,-1286.01 1311.38,-1279.49 1313.85,-1289.79 1319.73,-1286.01"/>
</g>
<!-- jēls&#45;&gt;jēlcukurs___cukur -->
<g id="edge84" class="edge">
<title>jēls&#45;&gt;jēlcukurs___cukur</title>
<path fill="none" stroke="blue" d="M1555.09,-173.74C1511.96,-227.9 1368.53,-407.99 1314.97,-475.24"/>
<polygon fill="blue" stroke="blue" points="1312.46,-472.77 1308.97,-482.77 1317.94,-477.13 1312.46,-472.77"/>
</g>
<!-- pārcukurot&#45;&gt;pārcukurots___cukur -->
<g id="edge86" class="edge">
<title>pārcukurot&#45;&gt;pārcukurots___cukur</title>
<path fill="none" stroke="green" d="M330.77,-1404.08C367.62,-1363.41 461.5,-1259.8 505.18,-1211.61"/>
<polygon fill="green" stroke="green" points="507.58,-1214.16 511.7,-1204.4 502.4,-1209.46 507.58,-1214.16"/>
</g>
<!-- puse&#45;&gt;puscukurs___cukur -->
<g id="edge87" class="edge">
<title>puse&#45;&gt;puscukurs___cukur</title>
<path fill="none" stroke="blue" d="M921.42,-321.77C934.62,-372.97 973.14,-522.34 989.46,-585.64"/>
<polygon fill="blue" stroke="blue" points="986.06,-586.48 991.95,-595.29 992.84,-584.73 986.06,-586.48"/>
</g>
<!-- pūderis&#45;&gt;pūdercukurs___cukur -->
<g id="edge90" class="edge">
<title>pūderis&#45;&gt;pūdercukurs___cukur</title>
<path fill="none" stroke="blue" d="M983.15,-35.91C984.23,-103.99 988.08,-347.2 989.42,-431.64"/>
<polygon fill="blue" stroke="blue" points="985.92,-431.67 989.58,-441.61 992.92,-431.56 985.92,-431.67"/>
</g>
<!-- sacukurot&#45;&gt;sacukurots___cukur -->
<g id="edge92" class="edge">
<title>sacukurot&#45;&gt;sacukurots___cukur</title>
<path fill="none" stroke="green" d="M579.78,-61.06C615.26,-104.89 709.5,-221.3 751.58,-273.28"/>
<polygon fill="green" stroke="green" points="748.6,-275.17 757.62,-280.74 754.05,-270.77 748.6,-275.17"/>
</g>
<!-- sacukurot&#45;&gt;sacukuroties___cukur -->
<g id="edge93" class="edge">
<title>sacukurot&#45;&gt;sacukuroties___cukur</title>
<path fill="none" stroke="green" d="M569.49,-61.69C579.5,-111.43 607.87,-252.41 620.16,-313.45"/>
<polygon fill="green" stroke="green" points="616.69,-313.95 622.1,-323.06 623.55,-312.56 616.69,-313.95"/>
</g>
<!-- # cukur -->
<g id="node1" class="node">
<title># cukur</title>
<polygon fill="lightblue" stroke="black" stroke-width="0" points="996.96,-890.47 920.21,-890.47 920.21,-849.47 996.96,-849.47 996.96,-890.47"/>
<text xml:space="preserve" text-anchor="middle" x="958.59" y="-873.17" font-family="Times New Roman,serif" font-size="14.00">cukur</text>
<text xml:space="preserve" text-anchor="middle" x="958.59" y="-856.67" font-family="Times New Roman,serif" font-size="14.00">(borrowed)</text>
</g>
<!-- bezcukura___cukur -->
<g id="node2" class="node">
<title>bezcukura___cukur</title>
<ellipse fill="white" stroke="black" stroke-width="0" cx="628.55" cy="-913.92" rx="48.79" ry="18"/>
<text xml:space="preserve" text-anchor="middle" x="628.55" y="-908.87" font-family="Times New Roman,serif" font-size="14.00">bezcukura</text>
</g>
<!-- cukurakmens___cukur -->
<g id="node3" class="node">
<title>cukurakmens___cukur</title>
<ellipse fill="white" stroke="black" stroke-width="0" cx="837.72" cy="-1131" rx="60.56" ry="18"/>
<text xml:space="preserve" text-anchor="middle" x="837.72" y="-1125.95" font-family="Times New Roman,serif" font-size="14.00">cukurakmens</text>
</g>
<!-- cukurbiete___cukur -->
<g id="node4" class="node">
<title>cukurbiete___cukur</title>
<ellipse fill="white" stroke="black" stroke-width="0" cx="1451.9" cy="-1118.14" rx="49.82" ry="18"/>
<text xml:space="preserve" text-anchor="middle" x="1451.9" y="-1113.09" font-family="Times New Roman,serif" font-size="14.00">cukurbiete</text>
</g>
<!-- cukurdāmīte___cukur -->
<g id="node5" class="node">
<title>cukurdāmīte___cukur</title>
<ellipse fill="white" stroke="black" stroke-width="0" cx="441.28" cy="-840.82" rx="57.49" ry="18"/>
<text xml:space="preserve" text-anchor="middle" x="441.28" y="-835.77" font-family="Times New Roman,serif" font-size="14.00">cukurdāmīte</text>
</g>
<!-- cukurdoze___cukur -->
<g id="node6" class="node">
<title>cukurdoze___cukur</title>
<ellipse fill="white" stroke="black" stroke-width="0" cx="1262.3" cy="-792.5" rx="49.3" ry="18"/>
<text xml:space="preserve" text-anchor="middle" x="1262.3" y="-787.45" font-family="Times New Roman,serif" font-size="14.00">cukurdoze</text>
</g>
<!-- cukurfabrika___cukur -->
<g id="node7" class="node">
<title>cukurfabrika___cukur</title>
<ellipse fill="white" stroke="black" stroke-width="0" cx="1318.57" cy="-1049.56" rx="58" ry="18"/>
<text xml:space="preserve" text-anchor="middle" x="1318.57" y="-1044.51" font-family="Times New Roman,serif" font-size="14.00">cukurfabrika</text>
</g>
<!-- cukurgailītis___cukur -->
<g id="node8" class="node">
<title>cukurgailītis___cukur</title>
<ellipse fill="white" stroke="black" stroke-width="0" cx="407.7" cy="-1064.52" rx="56.98" ry="18"/>
<text xml:space="preserve" text-anchor="middle" x="407.7" y="-1059.47" font-family="Times New Roman,serif" font-size="14.00">cukurgailītis</text>
</g>
<!-- cukurgraudiņš___cukur -->
<g id="node9" class="node">
<title>cukurgraudiņš___cukur</title>
<ellipse fill="white" stroke="black" stroke-width="0" cx="780.38" cy="-1390.94" rx="63.63" ry="18"/>
<text xml:space="preserve" text-anchor="middle" x="780.38" y="-1385.89" font-family="Times New Roman,serif" font-size="14.00">cukurgraudiņš</text>
</g>
<!-- cukurgrauds___cukur -->
<g id="node10" class="node">
<title>cukurgrauds___cukur</title>
<ellipse fill="white" stroke="black" stroke-width="0" cx="763.81" cy="-1246.36" rx="56.47" ry="18"/>
<text xml:space="preserve" text-anchor="middle" x="763.81" y="-1241.31" font-family="Times New Roman,serif" font-size="14.00">cukurgrauds</text>
</g>
<!-- cukuriņš___cukur -->
<g id="node11" class="node">
<title>cukuriņš___cukur</title>
<ellipse fill="white" stroke="black" stroke-width="0" cx="862.64" cy="-980.03" rx="42.65" ry="18"/>
<text xml:space="preserve" text-anchor="middle" x="862.64" y="-974.98" font-family="Times New Roman,serif" font-size="14.00">cukuriņš</text>
</g>
<!-- cukurmaize___cukur -->
<g id="node12" class="node">
<title>cukurmaize___cukur</title>
<ellipse fill="white" stroke="black" stroke-width="0" cx="1366.52" cy="-635.77" rx="54.42" ry="18"/>
<text xml:space="preserve" text-anchor="middle" x="1366.52" y="-630.72" font-family="Times New Roman,serif" font-size="14.00">cukurmaize</text>
</g>
<!-- cukurniedre___cukur -->
<g id="node13" class="node">
<title>cukurniedre___cukur</title>
<ellipse fill="white" stroke="black" stroke-width="0" cx="1380.33" cy="-882.31" rx="54.93" ry="18"/>
<text xml:space="preserve" text-anchor="middle" x="1380.33" y="-877.26" font-family="Times New Roman,serif" font-size="14.00">cukurniedre</text>
</g>
<!-- cukurnieks___cukur -->
<g id="node14" class="node">
<title>cukurnieks___cukur</title>
<ellipse fill="white" stroke="black" stroke-width="0" cx="825.48" cy="-811.79" rx="51.35" ry="18"/>
<text xml:space="preserve" text-anchor="middle" x="825.48" y="-806.74" font-family="Times New Roman,serif" font-size="14.00">cukurnieks</text>
</g>
<!-- cukurots___cukur -->
<g id="node15" class="node">
<title>cukurots___cukur</title>
<ellipse fill="white" stroke="black" stroke-width="0" cx="510.12" cy="-505.7" rx="42.65" ry="18"/>
<text xml:space="preserve" text-anchor="middle" x="510.12" y="-500.65" font-family="Times New Roman,serif" font-size="14.00">cukurots</text>
</g>
<!-- cukurpastila___cukur -->
<g id="node16" class="node">
<title>cukurpastila___cukur</title>
<ellipse fill="white" stroke="black" stroke-width="0" cx="1200.84" cy="-1146.1" rx="55.96" ry="18"/>
<text xml:space="preserve" text-anchor="middle" x="1200.84" y="-1141.05" font-family="Times New Roman,serif" font-size="14.00">cukurpastila</text>
</g>
<!-- cukurrūpniecība___cukur -->
<g id="node17" class="node">
<title>cukurrūpniecība___cukur</title>
<ellipse fill="white" stroke="black" stroke-width="0" cx="913.71" cy="-1216.3" rx="70.8" ry="18"/>
<text xml:space="preserve" text-anchor="middle" x="913.71" y="-1211.25" font-family="Times New Roman,serif" font-size="14.00">cukurrūpniecība</text>
</g>
<!-- cukurs___cukur -->
<g id="node18" class="node">
<title>cukurs___cukur</title>
<ellipse fill="white" stroke="black" stroke-width="0" cx="1099.05" cy="-896.43" rx="35.49" ry="18"/>
<text xml:space="preserve" text-anchor="middle" x="1099.05" y="-891.38" font-family="Times New Roman,serif" font-size="14.00">cukurs</text>
</g>
<!-- Cukure___cukur -->
<g id="node19" class="node">
<title>Cukure___cukur</title>
<ellipse fill="white" stroke="black" stroke-width="0" cx="738.42" cy="-980.1" rx="38.04" ry="18"/>
<text xml:space="preserve" text-anchor="middle" x="738.42" y="-975.05" font-family="Times New Roman,serif" font-size="14.00">Cukure</text>
</g>
<!-- Cukurs___cukur -->
<g id="node20" class="node">
<title>Cukurs___cukur</title>
<ellipse fill="white" stroke="black" stroke-width="0" cx="1032.95" cy="-1034.59" rx="37.53" ry="18"/>
<text xml:space="preserve" text-anchor="middle" x="1032.95" y="-1029.54" font-family="Times New Roman,serif" font-size="14.00">Cukurs</text>
</g>
<!-- cukursalds___cukur -->
<g id="node21" class="node">
<title>cukursalds___cukur</title>
<ellipse fill="white" stroke="black" stroke-width="0" cx="1499.39" cy="-961.45" rx="50.33" ry="18"/>
<text xml:space="preserve" text-anchor="middle" x="1499.39" y="-956.4" font-family="Times New Roman,serif" font-size="14.00">cukursalds</text>
</g>
<!-- cukurslimība___cukur -->
<g id="node22" class="node">
<title>cukurslimība___cukur</title>
<ellipse fill="white" stroke="black" stroke-width="0" cx="1132.5" cy="-470" rx="59.54" ry="18"/>
<text xml:space="preserve" text-anchor="middle" x="1132.5" y="-464.95" font-family="Times New Roman,serif" font-size="14.00">cukurslimība</text>
</g>
<!-- cukurslimnieks___cukur -->
<g id="node23" class="node">
<title>cukurslimnieks___cukur</title>
<ellipse fill="white" stroke="black" stroke-width="0" cx="1196.54" cy="-641.51" rx="67.73" ry="18"/>
<text xml:space="preserve" text-anchor="middle" x="1196.54" y="-636.46" font-family="Times New Roman,serif" font-size="14.00">cukurslimnieks</text>
</g>
<!-- cukurtrauciņš___cukur -->
<g id="node24" class="node">
<title>cukurtrauciņš___cukur</title>
<ellipse fill="white" stroke="black" stroke-width="0" cx="1078.6" cy="-1222.34" rx="61.08" ry="18"/>
<text xml:space="preserve" text-anchor="middle" x="1078.6" y="-1217.29" font-family="Times New Roman,serif" font-size="14.00">cukurtrauciņš</text>
</g>
<!-- cukurtrauks___cukur -->
<g id="node25" class="node">
<title>cukurtrauks___cukur</title>
<ellipse fill="white" stroke="black" stroke-width="0" cx="1044.16" cy="-1346.03" rx="54.42" ry="18"/>
<text xml:space="preserve" text-anchor="middle" x="1044.16" y="-1340.98" font-family="Times New Roman,serif" font-size="14.00">cukurtrauks</text>
</g>
<!-- cukurūdens___cukur -->
<g id="node26" class="node">
<title>cukurūdens___cukur</title>
<ellipse fill="white" stroke="black" stroke-width="0" cx="832.3" cy="-672.42" rx="53.4" ry="18"/>
<text xml:space="preserve" text-anchor="middle" x="832.3" y="-667.37" font-family="Times New Roman,serif" font-size="14.00">cukurūdens</text>
</g>
<!-- cukurvate___cukur -->
<g id="node27" class="node">
<title>cukurvate___cukur</title>
<ellipse fill="white" stroke="black" stroke-width="0" cx="1473.32" cy="-775.1" rx="47.26" ry="18"/>
<text xml:space="preserve" text-anchor="middle" x="1473.32" y="-770.05" font-family="Times New Roman,serif" font-size="14.00">cukurvate</text>
</g>
<!-- cukurzirnis___cukur -->
<g id="node28" class="node">
<title>cukurzirnis___cukur</title>
<ellipse fill="white" stroke="black" stroke-width="0" cx="1299.28" cy="-1260.65" rx="52.38" ry="18"/>
<text xml:space="preserve" text-anchor="middle" x="1299.28" y="-1255.6" font-family="Times New Roman,serif" font-size="14.00">cukurzirnis</text>
</g>
<!-- cukurzirnītis___cukur -->
<g id="node29" class="node">
<title>cukurzirnītis___cukur</title>
<ellipse fill="white" stroke="black" stroke-width="0" cx="1164.07" cy="-1362.41" rx="57.49" ry="18"/>
<text xml:space="preserve" text-anchor="middle" x="1164.07" y="-1357.36" font-family="Times New Roman,serif" font-size="14.00">cukurzirnītis</text>
</g>
<!-- iecukurot___cukur -->
<g id="node30" class="node">
<title>iecukurot___cukur</title>
<ellipse fill="white" stroke="black" stroke-width="0" cx="454.71" cy="-632.13" rx="45.72" ry="18"/>
<text xml:space="preserve" text-anchor="middle" x="454.71" y="-627.08" font-family="Times New Roman,serif" font-size="14.00">iecukurot</text>
</g>
<!-- iecukuroties___cukur -->
<g id="node31" class="node">
<title>iecukuroties___cukur</title>
<ellipse fill="white" stroke="black" stroke-width="0" cx="608.23" cy="-713.33" rx="55.96" ry="18"/>
<text xml:space="preserve" text-anchor="middle" x="608.23" y="-708.28" font-family="Times New Roman,serif" font-size="14.00">iecukuroties</text>
</g>
<!-- jēlcukurs___cukur -->
<g id="node32" class="node">
<title>jēlcukurs___cukur</title>
<ellipse fill="white" stroke="black" stroke-width="0" cx="1294.56" cy="-500.87" rx="44.7" ry="18"/>
<text xml:space="preserve" text-anchor="middle" x="1294.56" y="-495.82" font-family="Times New Roman,serif" font-size="14.00">jēlcukurs</text>
</g>
<!-- pārcukurots___cukur -->
<g id="node33" class="node">
<title>pārcukurots___cukur</title>
<ellipse fill="white" stroke="black" stroke-width="0" cx="528.16" cy="-1186.24" rx="54.42" ry="18"/>
<text xml:space="preserve" text-anchor="middle" x="528.16" y="-1181.19" font-family="Times New Roman,serif" font-size="14.00">pārcukurots</text>
</g>
<!-- puscukurs___cukur -->
<g id="node34" class="node">
<title>puscukurs___cukur</title>
<ellipse fill="white" stroke="black" stroke-width="0" cx="996.91" cy="-614.52" rx="48.28" ry="18"/>
<text xml:space="preserve" text-anchor="middle" x="996.91" y="-609.47" font-family="Times New Roman,serif" font-size="14.00">puscukurs</text>
</g>
<!-- pūdercukuriņš___cukur -->
<g id="node35" class="node">
<title>pūdercukuriņš___cukur</title>
<ellipse fill="white" stroke="black" stroke-width="0" cx="829.02" cy="-506.26" rx="63.63" ry="18"/>
<text xml:space="preserve" text-anchor="middle" x="829.02" y="-501.21" font-family="Times New Roman,serif" font-size="14.00">pūdercukuriņš</text>
</g>
<!-- pūdercukurs___cukur -->
<g id="node36" class="node">
<title>pūdercukurs___cukur</title>
<ellipse fill="white" stroke="black" stroke-width="0" cx="989.88" cy="-460.77" rx="56.47" ry="18"/>
<text xml:space="preserve" text-anchor="middle" x="989.88" y="-455.72" font-family="Times New Roman,serif" font-size="14.00">pūdercukurs</text>
</g>
<!-- sacukurots___cukur -->
<g id="node37" class="node">
<title>sacukurots___cukur</title>
<ellipse fill="white" stroke="black" stroke-width="0" cx="772.38" cy="-298.97" rx="50.33" ry="18"/>
<text xml:space="preserve" text-anchor="middle" x="772.38" y="-293.92" font-family="Times New Roman,serif" font-size="14.00">sacukurots</text>
</g>
<!-- sacukuroties___cukur -->
<g id="node38" class="node">
<title>sacukuroties___cukur</title>
<ellipse fill="white" stroke="black" stroke-width="0" cx="625.95" cy="-342.21" rx="56.98" ry="18"/>
<text xml:space="preserve" text-anchor="middle" x="625.95" y="-337.16" font-family="Times New Roman,serif" font-size="14.00">sacukuroties</text>
</g>
<!-- bez -->
<g id="node39" class="node">
<title>bez</title>
<ellipse fill="white" stroke="black" stroke-width="0" cx="231.36" cy="-963.14" rx="27" ry="18"/>
<text xml:space="preserve" text-anchor="middle" x="231.36" y="-958.09" font-family="Times New Roman,serif" font-size="14.00" fill="gray">bez</text>
</g>
<!-- akmens -->
<g id="node40" class="node">
<title>akmens</title>
<ellipse fill="white" stroke="black" stroke-width="0" cx="903.95" cy="-1439.96" rx="39.58" ry="18"/>
<text xml:space="preserve" text-anchor="middle" x="903.95" y="-1434.91" font-family="Times New Roman,serif" font-size="14.00" fill="gray">akmens</text>
</g>
<!-- biete -->
<g id="node41" class="node">
<title>biete</title>
<ellipse fill="white" stroke="black" stroke-width="0" cx="1839.26" cy="-1335.85" rx="28.83" ry="18"/>
<text xml:space="preserve" text-anchor="middle" x="1839.26" y="-1330.8" font-family="Times New Roman,serif" font-size="14.00" fill="gray">biete</text>
</g>
<!-- cukurdāma -->
<g id="node42" class="node">
<title>cukurdāma</title>
<ellipse fill="white" stroke="black" stroke-width="0" cx="173.9" cy="-763.1" rx="52.38" ry="18"/>
<text xml:space="preserve" text-anchor="middle" x="173.9" y="-758.05" font-family="Times New Roman,serif" font-size="14.00" fill="gray">cukurdāma</text>
</g>
<!-- doze -->
<g id="node43" class="node">
<title>doze</title>
<ellipse fill="white" stroke="black" stroke-width="0" cx="1510.61" cy="-649.42" rx="28.32" ry="18"/>
<text xml:space="preserve" text-anchor="middle" x="1510.61" y="-644.37" font-family="Times New Roman,serif" font-size="14.00" fill="gray">doze</text>
</g>
<!-- fabrika -->
<g id="node44" class="node">
<title>fabrika</title>
<ellipse fill="white" stroke="black" stroke-width="0" cx="1639.26" cy="-1288.56" rx="37.02" ry="18"/>
<text xml:space="preserve" text-anchor="middle" x="1639.26" y="-1283.51" font-family="Times New Roman,serif" font-size="14.00" fill="gray">fabrika</text>
</g>
<!-- cukurgailis -->
<g id="node45" class="node">
<title>cukurgailis</title>
<ellipse fill="white" stroke="black" stroke-width="0" cx="51.86" cy="-1232.93" rx="51.86" ry="18"/>
<text xml:space="preserve" text-anchor="middle" x="51.86" y="-1227.88" font-family="Times New Roman,serif" font-size="14.00" fill="gray">cukurgailis</text>
</g>
<!-- grauds -->
<g id="node46" class="node">
<title>grauds</title>
<ellipse fill="white" stroke="black" stroke-width="0" cx="566.35" cy="-1643.86" rx="35.49" ry="18"/>
<text xml:space="preserve" text-anchor="middle" x="566.35" y="-1638.81" font-family="Times New Roman,serif" font-size="14.00" fill="gray">grauds</text>
</g>
<!-- maize -->
<g id="node47" class="node">
<title>maize</title>
<ellipse fill="white" stroke="black" stroke-width="0" cx="1732.4" cy="-399.69" rx="33.44" ry="18"/>
<text xml:space="preserve" text-anchor="middle" x="1732.4" y="-394.64" font-family="Times New Roman,serif" font-size="14.00" fill="gray">maize</text>
</g>
<!-- niedre -->
<g id="node48" class="node">
<title>niedre</title>
<ellipse fill="white" stroke="black" stroke-width="0" cx="1785.75" cy="-860.79" rx="33.95" ry="18"/>
<text xml:space="preserve" text-anchor="middle" x="1785.75" y="-855.74" font-family="Times New Roman,serif" font-size="14.00" fill="gray">niedre</text>
</g>
<!-- cukurot -->
<g id="node49" class="node">
<title>cukurot</title>
<ellipse fill="white" stroke="black" stroke-width="0" cx="243.69" cy="-376.24" rx="39.07" ry="18"/>
<text xml:space="preserve" text-anchor="middle" x="243.69" y="-371.19" font-family="Times New Roman,serif" font-size="14.00" fill="gray">cukurot</text>
</g>
<!-- pastila -->
<g id="node50" class="node">
<title>pastila</title>
<ellipse fill="white" stroke="black" stroke-width="0" cx="1380.6" cy="-1485.92" rx="34.97" ry="18"/>
<text xml:space="preserve" text-anchor="middle" x="1380.6" y="-1480.87" font-family="Times New Roman,serif" font-size="14.00" fill="gray">pastila</text>
</g>
<!-- rūpniecība -->
<g id="node51" class="node">
<title>rūpniecība</title>
<ellipse fill="white" stroke="black" stroke-width="0" cx="593.5" cy="-1426.45" rx="49.82" ry="18"/>
<text xml:space="preserve" text-anchor="middle" x="593.5" y="-1421.4" font-family="Times New Roman,serif" font-size="14.00" fill="gray">rūpniecība</text>
</g>
<!-- salds -->
<g id="node52" class="node">
<title>salds</title>
<ellipse fill="white" stroke="black" stroke-width="0" cx="1915.5" cy="-1043.87" rx="29.34" ry="18"/>
<text xml:space="preserve" text-anchor="middle" x="1915.5" y="-1038.82" font-family="Times New Roman,serif" font-size="14.00" fill="gray">salds</text>
</g>
<!-- slimība -->
<g id="node53" class="node">
<title>slimība</title>
<ellipse fill="white" stroke="black" stroke-width="0" cx="1245.19" cy="-65.9" rx="38.56" ry="18"/>
<text xml:space="preserve" text-anchor="middle" x="1245.19" y="-60.85" font-family="Times New Roman,serif" font-size="14.00" fill="gray">slimība</text>
</g>
<!-- slimnieks -->
<g id="node54" class="node">
<title>slimnieks</title>
<ellipse fill="white" stroke="black" stroke-width="0" cx="1403.34" cy="-270.97" rx="46.75" ry="18"/>
<text xml:space="preserve" text-anchor="middle" x="1403.34" y="-265.92" font-family="Times New Roman,serif" font-size="14.00" fill="gray">slimnieks</text>
</g>
<!-- trauks -->
<g id="node55" class="node">
<title>trauks</title>
<ellipse fill="white" stroke="black" stroke-width="0" cx="1050.27" cy="-1774.87" rx="33.44" ry="18"/>
<text xml:space="preserve" text-anchor="middle" x="1050.27" y="-1769.82" font-family="Times New Roman,serif" font-size="14.00" fill="gray">trauks</text>
</g>
<!-- ūdens -->
<g id="node56" class="node">
<title>ūdens</title>
<ellipse fill="white" stroke="black" stroke-width="0" cx="630.37" cy="-456.54" rx="32.41" ry="18"/>
<text xml:space="preserve" text-anchor="middle" x="630.37" y="-451.49" font-family="Times New Roman,serif" font-size="14.00" fill="gray">ūdens</text>
</g>
<!-- vate -->
<g id="node57" class="node">
<title>vate</title>
<ellipse fill="white" stroke="black" stroke-width="0" cx="1886.47" cy="-638.09" rx="27" ry="18"/>
<text xml:space="preserve" text-anchor="middle" x="1886.47" y="-633.04" font-family="Times New Roman,serif" font-size="14.00" fill="gray">vate</text>
</g>
<!-- zirnis -->
<g id="node58" class="node">
<title>zirnis</title>
<ellipse fill="white" stroke="black" stroke-width="0" cx="1528.98" cy="-1618.11" rx="31.39" ry="18"/>
<text xml:space="preserve" text-anchor="middle" x="1528.98" y="-1613.06" font-family="Times New Roman,serif" font-size="14.00" fill="gray">zirnis</text>
</g>
<!-- jēls -->
<g id="node59" class="node">
<title>jēls</title>
<ellipse fill="white" stroke="black" stroke-width="0" cx="1567.53" cy="-158.12" rx="27" ry="18"/>
<text xml:space="preserve" text-anchor="middle" x="1567.53" y="-153.07" font-family="Times New Roman,serif" font-size="14.00" fill="gray">jēls</text>
</g>
<!-- pārcukurot -->
<g id="node60" class="node">
<title>pārcukurot</title>
<ellipse fill="white" stroke="black" stroke-width="0" cx="315.47" cy="-1420.96" rx="50.84" ry="18"/>
<text xml:space="preserve" text-anchor="middle" x="315.47" y="-1415.91" font-family="Times New Roman,serif" font-size="14.00" fill="gray">pārcukurot</text>
</g>
<!-- puse -->
<g id="node61" class="node">
<title>puse</title>
<ellipse fill="white" stroke="black" stroke-width="0" cx="916.89" cy="-304.2" rx="27.81" ry="18"/>
<text xml:space="preserve" text-anchor="middle" x="916.89" y="-299.15" font-family="Times New Roman,serif" font-size="14.00" fill="gray">puse</text>
</g>
<!-- pūderis -->
<g id="node62" class="node">
<title>pūderis</title>
<ellipse fill="white" stroke="black" stroke-width="0" cx="982.87" cy="-18" rx="38.04" ry="18"/>
<text xml:space="preserve" text-anchor="middle" x="982.87" y="-12.95" font-family="Times New Roman,serif" font-size="14.00" fill="gray">pūderis</text>
</g>
<!-- sacukurot -->
<g id="node63" class="node">
<title>sacukurot</title>
<ellipse fill="white" stroke="black" stroke-width="0" cx="565.91" cy="-43.93" rx="46.75" ry="18"/>
<text xml:space="preserve" text-anchor="middle" x="565.91" y="-38.88" font-family="Times New Roman,serif" font-size="14.00" fill="gray">sacukurot</text>
</g>
</g>
</svg>
